<svg width="170" height="170" viewBox="0 0 170 170" fill="none" xmlns="http://www.w3.org/2000/svg">
<mask id="path-2-inside-1_421_1688" fill="white">
<path fill-rule="evenodd" clip-rule="evenodd" d="M98.8883 94.2472C98.8883 93.9135 99.0556 93.6029 99.3291 93.4116C106.124 88.6604 110.569 80.7777 110.569 71.8569C110.569 57.3415 98.8018 45.5745 84.2864 45.5745C69.771 45.5745 58.0039 57.3415 58.0039 71.8569C58.0039 80.7782 62.4488 88.6612 69.2447 93.4124C69.5182 93.6036 69.6855 93.9142 69.6855 94.2479V102.704C69.6855 109.351 75.0738 114.739 81.7206 114.739H86.8532C93.5 114.739 98.8883 109.351 98.8883 102.704V94.2472Z"/>
</mask>
<path fill-rule="evenodd" clip-rule="evenodd" d="M98.8883 94.2472C98.8883 93.9135 99.0556 93.6029 99.3291 93.4116C106.124 88.6604 110.569 80.7777 110.569 71.8569C110.569 57.3415 98.8018 45.5745 84.2864 45.5745C69.771 45.5745 58.0039 57.3415 58.0039 71.8569C58.0039 80.7782 62.4488 88.6612 69.2447 93.4124C69.5182 93.6036 69.6855 93.9142 69.6855 94.2479V102.704C69.6855 109.351 75.0738 114.739 81.7206 114.739H86.8532C93.5 114.739 98.8883 109.351 98.8883 102.704V94.2472Z" fill="white"/>
<path d="M69.2447 93.4124L66.9528 96.6907L69.2447 93.4124ZM99.3291 93.4116L97.037 90.1335L99.3291 93.4116ZM106.569 71.8569C106.569 79.4167 102.808 86.0985 97.037 90.1335L101.621 96.6898C109.441 91.2223 114.569 82.1388 114.569 71.8569H106.569ZM84.2864 49.5745C96.5926 49.5745 106.569 59.5507 106.569 71.8569H114.569C114.569 55.1324 101.011 41.5745 84.2864 41.5745V49.5745ZM62.0039 71.8569C62.0039 59.5507 71.9801 49.5745 84.2864 49.5745V41.5745C67.5618 41.5745 54.0039 55.1324 54.0039 71.8569H62.0039ZM71.5366 90.1341C65.7652 86.0992 62.0039 79.417 62.0039 71.8569H54.0039C54.0039 82.1393 59.1323 91.2233 66.9528 96.6907L71.5366 90.1341ZM73.6855 102.704V94.2479H65.6855V102.704H73.6855ZM81.7206 110.739C77.283 110.739 73.6855 107.142 73.6855 102.704H65.6855C65.6855 111.56 72.8647 118.739 81.7206 118.739V110.739ZM86.8532 110.739H81.7206V118.739H86.8532V110.739ZM94.8883 102.704C94.8883 107.142 91.2909 110.739 86.8532 110.739V118.739C95.7091 118.739 102.888 111.56 102.888 102.704H94.8883ZM94.8883 94.2472V102.704H102.888V94.2472H94.8883ZM66.9528 96.6907C66.1929 96.1594 65.6855 95.2648 65.6855 94.2479H73.6855C73.6855 92.5636 72.8436 91.0478 71.5366 90.1341L66.9528 96.6907ZM97.037 90.1335C95.7302 91.0472 94.8883 92.563 94.8883 94.2472H102.888C102.888 95.264 102.381 96.1585 101.621 96.6898L97.037 90.1335Z" fill="#090F5B" mask="url(#path-2-inside-1_421_1688)"/>
<path d="M92.5862 121.143H75.9355" stroke="#7E34FF" stroke-width="4" stroke-linecap="round"/>
<path d="M84.9004 36.6086V27.6429" stroke="#7E34FF" stroke-width="4" stroke-linecap="round"/>
<path d="M49.038 75.0333H40.0723" stroke="#5CDAF1" stroke-width="4" stroke-linecap="round"/>
<path d="M129.089 74.3929H120.123" stroke="#5CDAF1" stroke-width="4" stroke-linecap="round"/>
<path d="M56.6581 46.7909L50.3184 40.4511" stroke="#5CDAF1" stroke-width="4" stroke-linecap="round"/>
<path d="M114.361 46.7909L120.701 40.4511" stroke="#5CDAF1" stroke-width="4" stroke-linecap="round"/>
</svg>
