<svg width="170" height="170" viewBox="0 0 170 170" fill="none" xmlns="http://www.w3.org/2000/svg">
<path d="M77.3652 74.5C77.3652 75.9111 77.7837 77.2905 78.5676 78.4638C79.3516 79.6371 80.4659 80.5516 81.7696 81.0916C83.0732 81.6316 84.5078 81.7728 85.8917 81.4976C87.2757 81.2223 88.547 80.5428 89.5448 79.545C90.5426 78.5472 91.2221 77.2759 91.4974 75.8919C91.7727 74.5079 91.6314 73.0734 91.0914 71.7697C90.5514 70.466 89.6369 69.3518 88.4636 68.5678C87.2903 67.7839 85.9109 67.3654 84.4998 67.3654" stroke="#7E34FF" stroke-width="3.5" stroke-linecap="round"/>
<path d="M62.5586 74.4991C62.5586 78.8389 63.8455 83.0812 66.2565 86.6896C68.6676 90.298 72.0945 93.1104 76.1039 94.7711C80.1134 96.4319 84.5252 96.8664 88.7816 96.0198C93.038 95.1731 96.9478 93.0833 100.016 90.0147C103.085 86.946 105.175 83.0362 106.022 78.7798C106.868 74.5234 106.434 70.1116 104.773 66.1021C103.112 62.0927 100.3 58.6658 96.6914 56.2547C93.083 53.8437 88.8407 52.5568 84.5009 52.5568" stroke="#090F5B" stroke-width="3.5" stroke-linecap="round"/>
<path d="M47.75 74.5C47.75 81.7685 49.9054 88.8737 53.9435 94.9172C57.9816 100.961 63.7212 105.671 70.4364 108.453C77.1516 111.234 84.5408 111.962 91.6696 110.544C98.7984 109.126 105.347 105.626 110.486 100.486C115.626 95.3466 119.126 88.7984 120.544 81.6696C121.962 74.5408 121.234 67.1516 118.453 60.4364C115.671 53.7212 110.961 47.9816 104.917 43.9435C98.8737 39.9053 91.7685 37.75 84.5 37.75" stroke="#090F5B" stroke-width="3.5" stroke-linecap="round"/>
<path d="M74.1339 65.6163L49.7012 41.1836" stroke="#5CDAF1" stroke-width="3.5" stroke-linecap="round"/>
<path d="M74.8752 55.9904V66.2557C74.8752 66.311 74.8304 66.3557 74.7752 66.3557H64.5098" stroke="#5CDAF1" stroke-width="3.5" stroke-linecap="round"/>
</svg>
