<svg width="170" height="170" viewBox="0 0 170 170" fill="none" xmlns="http://www.w3.org/2000/svg">
<path d="M43 98.7186L55.9043 88.204C58.4021 86.1687 61.5256 85.0573 64.7477 85.0573H90.2351C93.2411 85.0573 95.3397 88.0352 94.3287 90.866V90.866C93.7108 92.596 92.0721 93.7508 90.2351 93.7508H74.6694M57.2823 113.001L62.0611 107.824C63.7649 105.978 66.1625 104.928 68.6744 104.928H89.8285C94.0192 104.928 98.0188 103.175 100.859 100.093L122.329 76.7966C124.027 74.9532 123.645 72.0219 121.53 70.6761V70.6761C119.917 69.6495 117.804 69.9002 116.476 71.2758L101.371 86.9202" stroke="#090F5B" stroke-width="4" stroke-linecap="round"/>
<path d="M73.6569 58.1576L73.6569 58.1576C73.6729 58.8839 74.004 59.5675 74.5642 60.0302L79.5599 64.1567L73.4429 66.2938C72.7569 66.5334 72.2092 67.0596 71.9423 67.7353L69.5615 73.7617L65.6387 68.6044L64.0469 69.8152L65.6387 68.6044C65.1988 68.0261 64.5292 67.6678 63.804 67.6227L63.6799 69.6189L63.804 67.6227L57.3369 67.2207L61.0295 61.8963C61.4436 61.2992 61.5774 60.5516 61.3962 59.848L61.3962 59.848L59.7801 53.5732L65.9851 55.4397C66.6808 55.649 67.4332 55.5453 68.0464 55.1555C68.0464 55.1555 68.0464 55.1555 68.0464 55.1555L73.5147 51.6795L73.6569 58.1576ZM75.012 50.7277C75.0117 50.7279 75.0114 50.7282 75.011 50.7284L75.012 50.7277L74.4755 49.8838L75.012 50.7277Z" stroke="#7E34FF" stroke-width="4"/>
<path d="M103.173 48.6871L104.673 48.6542L103.173 48.6872C103.186 49.2683 103.451 49.8151 103.899 50.1852L107.535 53.1883L103.083 54.7436C102.534 54.9353 102.096 55.3562 101.882 55.8968L100.15 60.2825L97.295 56.5293C96.9431 56.0667 96.4073 55.78 95.8272 55.744L95.7342 57.2411L95.8272 55.744L91.1208 55.4514L93.8081 51.5765C94.1393 51.0989 94.2464 50.5008 94.1014 49.9379L92.9253 45.3714L97.441 46.7298C97.9976 46.8972 98.5995 46.8142 99.09 46.5024L103.07 43.9727L103.173 48.6871ZM108.219 53.7533C108.218 53.7531 108.218 53.7529 108.218 53.7526L108.219 53.7533ZM108.371 52.8961C108.371 52.896 108.372 52.8959 108.372 52.8958L108.371 52.8961Z" stroke="#5CDAF1" stroke-width="3"/>
</svg>
