<svg width="20" height="20" viewBox="0 0 20 20" fill="none" xmlns="http://www.w3.org/2000/svg">
<g clip-path="url(#clip0_421_3157)">
<path d="M6.66602 5.83333V4.16667C6.66602 3.72464 6.84161 3.30072 7.15417 2.98816C7.46673 2.67559 7.89065 2.5 8.33268 2.5H11.666C12.108 2.5 12.532 2.67559 12.8445 2.98816C13.1571 3.30072 13.3327 3.72464 13.3327 4.16667V5.83333" stroke="#5CDAF1" stroke-width="1.5" stroke-linecap="round" stroke-linejoin="round"/>
<path d="M10 10V10.0083" stroke="#5CDAF1" stroke-width="1.5" stroke-linecap="round" stroke-linejoin="round"/>
<path d="M2.5 7.49998C2.5 7.05795 2.67559 6.63403 2.98816 6.32147C3.30072 6.00891 3.72464 5.83331 4.16667 5.83331H15.8333C16.2754 5.83331 16.6993 6.00891 17.0118 6.32147C17.3244 6.63403 17.5 7.05795 17.5 7.49998V15C17.5 15.442 17.3244 15.8659 17.0118 16.1785C16.6993 16.4911 16.2754 16.6666 15.8333 16.6666H4.16667C3.72464 16.6666 3.30072 16.4911 2.98816 16.1785C2.67559 15.8659 2.5 15.442 2.5 15V7.49998Z" stroke="#7E34FF" stroke-width="1.5" stroke-linecap="round" stroke-linejoin="round"/>
<path d="M2.5 10.8333C4.82632 12.0056 7.39502 12.6162 10 12.6162C12.605 12.6162 15.1737 12.0056 17.5 10.8333" stroke="#7E34FF" stroke-width="1.5" stroke-linecap="round" stroke-linejoin="round"/>
</g>
<defs>
<clipPath id="clip0_421_3157">
<rect width="20" height="20" fill="white"/>
</clipPath>
</defs>
</svg>
