<svg width="372" height="365" viewBox="0 0 372 365" fill="none" xmlns="http://www.w3.org/2000/svg">
<g opacity="0.1">
<path d="M393.317 46.898C393.317 72.7898 372.329 93.7777 346.438 93.7777H46.8797C20.9879 93.7777 0 72.7898 0 46.898C0 21.0062 20.9879 0 46.8797 0H346.438C372.329 0 393.317 20.9696 393.317 46.8797V46.898Z" fill="#5CDAF1"/>
<path d="M547.003 182.342C547.003 208.234 526.015 229.221 500.123 229.221H46.8797C20.9879 229.221 0 208.234 0 182.342C0 156.45 20.9879 135.462 46.8797 135.462H500.105C525.997 135.462 546.984 156.432 546.984 182.342H547.003Z" fill="#7E34FF"/>
<path d="M547 317.785C547 343.677 526.012 364.665 500.12 364.665H322.995C297.103 364.665 276.115 343.677 276.115 317.785C276.115 291.894 297.103 270.906 322.995 270.906H500.12C526.012 270.906 547 291.875 547 317.785Z" fill="#5CDAF1"/>
</g>
</svg>
