<svg width="29" height="28" viewBox="0 0 29 28" fill="none" xmlns="http://www.w3.org/2000/svg">
<g id="Frame" clip-path="url(#clip0_58_3752)">
<path id="Vector" d="M4 8.16634C4 7.5475 4.24583 6.95401 4.68342 6.51643C5.121 6.07884 5.71449 5.83301 6.33333 5.83301H22.6667C23.2855 5.83301 23.879 6.07884 24.3166 6.51643C24.7542 6.95401 25 7.5475 25 8.16634V19.833C25 20.4518 24.7542 21.0453 24.3166 21.4829C23.879 21.9205 23.2855 22.1663 22.6667 22.1663H6.33333C5.71449 22.1663 5.121 21.9205 4.68342 21.4829C4.24583 21.0453 4 20.4518 4 19.833V8.16634Z" stroke="#7E34FF" stroke-width="2" stroke-linecap="round" stroke-linejoin="round"/>
<path id="Vector_2" d="M4 8.16699L14.5 15.167L25 8.16699" stroke="#7E34FF" stroke-width="2" stroke-linecap="round" stroke-linejoin="round"/>
</g>
<defs>
<clipPath id="clip0_58_3752">
<rect width="28" height="28" fill="white" transform="translate(0.5)"/>
</clipPath>
</defs>
</svg>
