<svg width="33" height="33" viewBox="0 0 33 33" fill="none" xmlns="http://www.w3.org/2000/svg">
<g clip-path="url(#clip0_58_3713)">
<path d="M28.5 0.584961H4.5C2.294 0.584961 0.5 2.37896 0.5 4.58496V28.585C0.5 30.791 2.294 32.585 4.5 32.585H28.5C30.706 32.585 32.5 30.791 32.5 28.585V4.58496C32.5 2.37896 30.706 0.584961 28.5 0.584961Z" fill="#1976D2"/>
<path fill-rule="evenodd" clip-rule="evenodd" d="M21.5 14.508H17.8333V11.7388C17.8333 10.9745 18.4904 11.0465 19.3 11.0465H20.7667V7.58496H17.8333C16.6664 7.58496 15.5472 8.0226 14.7221 8.80159C13.8969 9.58059 13.4333 10.6371 13.4333 11.7388V14.508H10.5V17.9696H13.4333V25.585H17.8333V17.9696H20.0333L21.5 14.508Z" fill="#FAFAFA"/>
</g>
<defs>
<clipPath id="clip0_58_3713">
<rect x="0.5" y="0.584961" width="32" height="32" rx="16" fill="white"/>
</clipPath>
</defs>
</svg>
