<svg width="154" height="104" viewBox="0 0 154 104" fill="none" xmlns="http://www.w3.org/2000/svg">
<g opacity="0.2">
<path d="M112.46 13.4094C112.46 20.8125 106.459 26.8135 99.0556 26.8135H13.4041C6.00099 26.8135 0 20.8125 0 13.4094C0 6.00622 6.00099 0 13.4041 0H99.0556C106.459 0 112.46 5.99576 112.46 13.4041V13.4094Z" fill="white"/>
<path d="M156.402 52.1361C156.402 59.5392 150.401 65.5402 142.998 65.5402H13.4041C6.00099 65.5402 0 59.5392 0 52.1361C0 44.7329 6.00099 38.7319 13.4041 38.7319H142.993C150.396 38.7319 156.397 44.7277 156.397 52.1361H156.402Z" fill="white"/>
<path d="M156.401 90.8621C156.401 98.2653 150.4 104.266 142.997 104.266H92.3524C84.9492 104.266 78.9482 98.2653 78.9482 90.8621C78.9482 83.459 84.9492 77.458 92.3524 77.458H142.997C150.4 77.458 156.401 83.4538 156.401 90.8621Z" fill="white"/>
</g>
</svg>
