<svg width="148" height="104" viewBox="0 0 148 104" fill="none" xmlns="http://www.w3.org/2000/svg">
<g opacity="0.2">
<path d="M103.46 13.4094C103.46 20.8125 97.4587 26.8135 90.0556 26.8135H4.40413C-2.99901 26.8135 -9 20.8125 -9 13.4094C-9 6.00622 -2.99901 0 4.40413 0H90.0556C97.4587 0 103.46 5.99576 103.46 13.4041V13.4094Z" fill="#5CDAF1"/>
<path d="M147.402 52.1361C147.402 59.5392 141.401 65.5402 133.998 65.5402H4.40413C-2.99901 65.5402 -9 59.5392 -9 52.1361C-9 44.7329 -2.99901 38.7319 4.40413 38.7319H133.993C141.396 38.7319 147.397 44.7277 147.397 52.1361H147.402Z" fill="#7E34FF"/>
<path d="M147.4 90.8621C147.4 98.2653 141.399 104.266 133.996 104.266H83.3514C75.9483 104.266 69.9473 98.2653 69.9473 90.8621C69.9473 83.459 75.9483 77.458 83.3514 77.458H133.996C141.399 77.458 147.4 83.4538 147.4 90.8621Z" fill="#5CDAF1"/>
</g>
</svg>
