<svg width="132" height="131" viewBox="0 0 132 131" fill="none" xmlns="http://www.w3.org/2000/svg">
<path d="M55.2159 120.445C55.6692 120.532 56.0747 120.696 56.4321 120.938C56.7832 121.178 57.0709 121.472 57.2952 121.819C57.5119 122.173 57.6459 122.559 57.6972 122.98L56.5243 123.24C56.4308 122.798 56.2439 122.428 55.9639 122.129C55.6826 121.836 55.3376 121.65 54.9289 121.572C54.5905 121.506 54.3037 121.534 54.0686 121.654C53.8271 121.773 53.6811 121.963 53.6305 122.225C53.5899 122.436 53.6205 122.621 53.7223 122.779C53.8178 122.937 53.982 123.081 54.215 123.212L55.4997 123.917C56.0207 124.203 56.389 124.542 56.6047 124.935C56.8191 125.334 56.8814 125.766 56.7914 126.233C56.7126 126.641 56.544 126.983 56.2857 127.258C56.021 127.531 55.6932 127.72 55.3024 127.823C54.9039 127.931 54.4716 127.941 54.0055 127.851C53.3606 127.726 52.8333 127.456 52.4236 127.039C52.0075 126.621 51.7554 126.125 51.6674 125.552L52.8325 125.28C52.904 125.665 53.0617 125.98 53.3057 126.226C53.5485 126.478 53.8551 126.64 54.2254 126.711C54.5574 126.775 54.8416 126.744 55.078 126.617C55.3068 126.496 55.4464 126.304 55.4969 126.042C55.5351 125.844 55.5051 125.657 55.407 125.479C55.3012 125.306 55.1286 125.153 54.8892 125.021L53.6565 124.356C52.5901 123.773 52.1487 123.005 52.3323 122.054C52.4112 121.645 52.5861 121.305 52.8572 121.033C53.1283 120.761 53.4663 120.571 53.8711 120.463C54.2759 120.356 54.7242 120.35 55.2159 120.445Z" fill="white"/>
<path d="M46.4611 117.992C46.9497 118.171 47.3704 118.421 47.7233 118.744C48.0739 119.073 48.3438 119.452 48.5332 119.881C48.7225 120.311 48.8245 120.77 48.8393 121.26C48.8518 121.757 48.7654 122.258 48.5801 122.765C48.3948 123.272 48.1386 123.708 47.8113 124.073C47.4817 124.444 47.1074 124.73 46.6881 124.93C46.2666 125.136 45.817 125.248 45.3391 125.268C44.859 125.293 44.3747 125.216 43.886 125.038C43.3974 124.859 42.9908 124.617 42.6663 124.311C42.3357 124.004 42.0862 123.663 41.9179 123.29C41.7474 122.923 41.6632 122.557 41.6655 122.19L42.9741 122.077C42.9835 122.468 43.1007 122.829 43.3257 123.161C43.5424 123.496 43.8676 123.743 44.3013 123.902C44.7288 124.058 45.1413 124.094 45.5387 124.011C45.9338 123.934 46.2889 123.749 46.6038 123.455C46.9166 123.168 47.16 122.786 47.3341 122.31C47.5082 121.833 47.5695 121.381 47.518 120.954C47.4642 120.533 47.3123 120.162 47.0623 119.842C46.8122 119.523 46.4734 119.284 46.0458 119.128C45.6122 118.97 45.2055 118.946 44.8259 119.056C44.4379 119.171 44.1142 119.374 43.8548 119.667L42.9279 118.736C43.1623 118.455 43.464 118.226 43.8333 118.049C44.2002 117.879 44.6093 117.783 45.0605 117.761C45.5056 117.736 45.9724 117.814 46.4611 117.992Z" fill="white"/>
<path d="M40.7955 115.721L37.2466 122.063L34.8886 120.744C34.4573 120.502 34.1216 120.21 33.8813 119.867C33.6323 119.526 33.4967 119.156 33.4745 118.756C33.4524 118.356 33.562 117.941 33.8034 117.509C34.0479 117.072 34.3609 116.759 34.7424 116.57C35.1182 116.378 35.5233 116.307 35.9577 116.356L35.9264 112.997L37.2373 113.73L37.2382 116.805L38.3278 117.414L39.6378 115.074L40.7955 115.721ZM37.7562 118.436L36.5389 117.755C36.2268 117.58 35.9279 117.528 35.6421 117.599C35.3532 117.676 35.1262 117.862 34.9611 118.157C34.7928 118.458 34.753 118.749 34.8418 119.029C34.9307 119.31 35.1311 119.538 35.4432 119.713L36.6605 120.394L37.7562 118.436Z" fill="white"/>
<path d="M30.9312 109.18C31.3456 109.515 31.6729 109.902 31.9131 110.339C32.1532 110.776 32.3008 111.234 32.3559 111.714C32.411 112.194 32.3711 112.672 32.2362 113.148C32.0922 113.626 31.8524 114.072 31.5168 114.486C31.1772 114.906 30.7908 115.233 30.3578 115.468C29.9197 115.699 29.4649 115.837 28.9934 115.882C28.5127 115.928 28.0336 115.879 27.5561 115.735C27.0786 115.591 26.6301 115.349 26.2106 115.009C25.7911 114.67 25.4613 114.281 25.2212 113.844C24.981 113.407 24.8334 112.949 24.7783 112.469C24.7192 111.994 24.7596 111.521 24.8995 111.048C25.0343 110.572 25.2716 110.124 25.6113 109.704C25.9468 109.29 26.3357 108.965 26.7779 108.728C27.2109 108.493 27.6678 108.353 28.1485 108.307C28.6291 108.261 29.1082 108.31 29.5857 108.454C30.0632 108.598 30.5117 108.84 30.9312 109.18ZM30.17 110.12C29.8011 109.821 29.403 109.641 28.9758 109.579C28.5486 109.518 28.1308 109.569 27.7226 109.732C27.3144 109.895 26.9568 110.166 26.6499 110.545C26.3429 110.924 26.1542 111.328 26.0836 111.756C26.0089 112.189 26.046 112.608 26.195 113.014C26.3439 113.419 26.6029 113.771 26.9718 114.069C27.3357 114.364 27.7338 114.544 28.166 114.61C28.5933 114.671 29.011 114.62 29.4192 114.457C29.8234 114.299 30.1789 114.03 30.4858 113.651C30.7928 113.272 30.9836 112.866 31.0582 112.433C31.1329 112 31.0958 111.581 30.9468 111.175C30.7929 110.766 30.5339 110.414 30.17 110.12Z" fill="white"/>
<path d="M25.5543 104.469L20.1234 109.298L19.2419 108.307L23.798 104.256L21.7303 101.93L22.6051 101.153L25.5543 104.469Z" fill="white"/>
<path d="M20.7198 98.7033L14.6886 102.758L13.9485 101.657L19.0082 98.2553L17.2722 95.6728L18.2436 95.0198L20.7198 98.7033Z" fill="white"/>
<path d="M14.9205 88.8208L8.14949 91.4601L7.28862 89.2516C7.00756 88.5305 6.90972 87.8498 6.99508 87.2093C7.07438 86.5711 7.31183 86.0074 7.70743 85.5182C8.09697 85.0313 8.62499 84.658 9.29149 84.3982C9.95193 84.1408 10.5933 84.0583 11.2156 84.1507C11.838 84.2432 12.3985 84.4993 12.8972 84.9191C13.3935 85.3329 13.781 85.8973 14.0597 86.6123L14.9205 88.8208ZM13.3481 88.0099L12.9584 87.0101C12.7789 86.5496 12.5291 86.1863 12.209 85.9202C11.8889 85.6542 11.5208 85.4975 11.1045 85.4504C10.686 85.3972 10.2434 85.4615 9.77684 85.6434C9.31029 85.8252 8.94396 86.0762 8.67787 86.3963C8.40572 86.7187 8.24185 87.0862 8.18628 87.4987C8.12835 87.9052 8.18913 88.3387 8.36863 88.7992L8.75832 89.7989L13.3481 88.0099Z" fill="white"/>
<path d="M11.2382 76.7344C11.341 77.2576 11.3445 77.764 11.2485 78.2534C11.1525 78.7428 10.9719 79.1893 10.7065 79.5927C10.4412 79.9961 10.104 80.3374 9.69501 80.6167C9.27834 80.8908 8.80838 81.0793 8.28514 81.1822C7.75552 81.2863 7.24918 81.2897 6.76613 81.1925C6.28183 81.0889 5.84435 80.9031 5.45369 80.6353C5.05539 80.3624 4.71918 80.0175 4.44507 79.6009C4.17095 79.1842 3.98183 78.711 3.87771 78.1814C3.77359 77.6518 3.76952 77.1423 3.8655 76.6528C3.96148 76.1634 4.14214 75.717 4.40746 75.3136C4.66641 74.9114 5.00102 74.5739 5.41131 74.301C5.82035 74.0218 6.28968 73.8301 6.8193 73.726C7.34254 73.6231 7.8495 73.6229 8.34019 73.7252C8.82324 73.8225 9.26391 74.0076 9.66221 74.2805C10.0605 74.5535 10.3967 74.8983 10.6708 75.315C10.9449 75.7316 11.1341 76.2048 11.2382 76.7344ZM10.0513 76.9677C9.95974 76.5019 9.76972 76.1085 9.48127 75.7874C9.19281 75.4664 8.83964 75.2375 8.42177 75.101C8.00389 74.9644 7.55567 74.9432 7.07709 75.0373C6.59852 75.1314 6.19488 75.3201 5.86618 75.6034C5.5311 75.888 5.29083 76.2335 5.14539 76.6398C4.99994 77.0462 4.973 77.4823 5.06458 77.9481C5.1549 78.4075 5.34491 78.801 5.63463 79.1284C5.92308 79.4495 6.27625 79.6783 6.69413 79.8148C7.10562 79.9527 7.55066 79.9745 8.02923 79.8804C8.5078 79.7864 8.91463 79.597 9.24971 79.3124C9.58479 79.0278 9.82506 78.6824 9.97051 78.276C10.1147 77.8633 10.1416 77.4272 10.0513 76.9677Z" fill="white"/>
<path d="M10.0167 68.3748L2.73355 70.2654L2.74536 68.8412L8.21897 67.5404L2.76827 66.0807L2.77968 64.7054L8.25377 63.3461L2.8025 61.9546L2.81431 60.5305L10.0651 62.5417L10.0525 64.0633L4.81259 65.4148L10.0294 66.8531L10.0167 68.3748Z" fill="white"/>
<path d="M10.536 57.8266L3.4086 56.4077L3.61048 55.3936L8.8596 52.9077L4.28659 51.9973L4.54561 50.6962L11.673 52.1151L11.4692 53.1388L6.13589 55.598L10.795 56.5255L10.536 57.8266Z" fill="white"/>
<path d="M13.7601 40.4564L12.771 39.9272L14.7267 36.2717L15.7158 36.8009L13.7601 40.4564Z" fill="white"/>
<path d="M23.5553 29.5987C23.2551 29.9495 22.9118 30.2206 22.5254 30.4121C22.1433 30.5986 21.7455 30.7033 21.3322 30.7262C20.9181 30.7399 20.5157 30.6651 20.1248 30.5017L20.4784 29.3535C20.9087 29.4907 21.3231 29.5115 21.7216 29.416C22.1151 29.3163 22.4472 29.1083 22.7178 28.7921C22.9419 28.5302 23.0599 28.2674 23.0717 28.0036C23.0877 27.7348 22.9944 27.5137 22.7918 27.3404C22.6288 27.2008 22.4531 27.1361 22.2648 27.1461C22.0807 27.1512 21.8741 27.2226 21.6449 27.3603L20.397 28.1283C19.8908 28.4398 19.4137 28.5921 18.9658 28.5854C18.513 28.5745 18.1062 28.4147 17.7455 28.106C17.4293 27.8354 17.2157 27.5199 17.1047 27.1595C16.9979 26.7942 16.9962 26.4161 17.0996 26.0253C17.2023 25.6253 17.408 25.2449 17.7167 24.8842C18.1437 24.3852 18.6397 24.0607 19.2046 23.9108C19.7737 23.7559 20.3292 23.7819 20.8711 23.9889L20.5312 25.1361C20.1615 25.008 19.8095 24.9892 19.4753 25.0797C19.1361 25.166 18.8438 25.3525 18.5986 25.639C18.3787 25.8959 18.2653 26.1584 18.2585 26.4265C18.2509 26.6853 18.3484 26.9015 18.551 27.0748C18.7042 27.2059 18.8823 27.2728 19.0855 27.2755C19.2879 27.269 19.5058 27.1944 19.7392 27.0517L20.9268 26.3091C21.9611 25.6707 22.8463 25.6665 23.5825 26.2965C23.8987 26.5672 24.1081 26.8876 24.2106 27.2578C24.3132 27.6281 24.311 28.0157 24.2041 28.4206C24.0972 28.8256 23.8809 29.2183 23.5553 29.5987Z" fill="white"/>
<path d="M30.0164 23.2021C29.6195 23.5385 29.1935 23.7802 28.7385 23.9272C28.2792 24.0693 27.8162 24.1165 27.3495 24.0688C26.8828 24.0211 26.4328 23.8824 25.9996 23.6529C25.5621 23.4185 25.1689 23.0953 24.8199 22.6836C24.4709 22.2719 24.2187 21.8335 24.0632 21.3685C23.9036 20.8986 23.8405 20.432 23.8741 19.9687C23.9035 19.5005 24.028 19.054 24.2476 18.6291C24.463 18.1993 24.7691 17.8162 25.1659 17.4798C25.5628 17.1435 25.9743 16.9098 26.4003 16.7788C26.8314 16.6436 27.2506 16.5951 27.6581 16.6334C28.0614 16.6666 28.4216 16.7747 28.7387 16.9578L28.1904 18.1514C27.8458 17.9661 27.4738 17.8893 27.0744 17.921C26.6757 17.9435 26.3003 18.104 25.9481 18.4025C25.6008 18.6969 25.3651 19.0374 25.241 19.4239C25.1126 19.8055 25.0981 20.2057 25.1973 20.6246C25.2924 21.0384 25.5039 21.4389 25.8319 21.8258C26.1599 22.2127 26.5223 22.4895 26.9192 22.656C27.312 22.8176 27.7092 22.8688 28.1108 22.8096C28.5125 22.7505 28.887 22.5737 29.2342 22.2794C29.5865 21.9808 29.8084 21.6392 29.9001 21.2546C29.9926 20.8608 29.9756 20.4788 29.8493 20.1084L31.1166 19.7631C31.2452 20.1059 31.295 20.4814 31.266 20.8897C31.2327 21.293 31.1141 21.6961 30.9101 22.0992C30.7112 22.4981 30.4132 22.8657 30.0164 23.2021Z" fill="white"/>
<path d="M34.792 19.4003L31.035 13.1796L33.3479 11.7827C33.771 11.5272 34.191 11.3798 34.608 11.3407C35.0272 11.2927 35.4161 11.3579 35.7746 11.5364C36.1331 11.7149 36.4402 12.0157 36.6957 12.4388C36.9546 12.8674 37.0718 13.2942 37.0474 13.7192C37.0285 14.1408 36.8902 14.5283 36.6325 14.8814L39.5682 16.5157L38.2823 17.2923L35.6096 15.7727L34.5408 16.4182L35.9276 18.7145L34.792 19.4003ZM33.9356 15.4162L35.1297 14.6951C35.4358 14.5102 35.6287 14.276 35.7081 13.9924C35.7843 13.7034 35.7349 13.4141 35.5601 13.1246C35.3819 12.8296 35.1488 12.6513 34.8609 12.5897C34.573 12.528 34.276 12.5897 33.9698 12.7746L32.7757 13.4957L33.9356 15.4162Z" fill="white"/>
<path d="M45.3562 14.0617C44.8596 14.256 44.3619 14.3494 43.8632 14.3419C43.3645 14.3345 42.8931 14.2361 42.4489 14.0467C42.0048 13.8574 41.6089 13.5863 41.2614 13.2334C40.9176 12.8721 40.6485 12.4431 40.4543 11.9465C40.2576 11.4439 40.1642 10.9462 40.174 10.4536C40.1899 9.95855 40.2949 9.49502 40.489 9.06296C40.6868 8.62247 40.9663 8.23032 41.3276 7.88648C41.6889 7.54265 42.1209 7.27242 42.6235 7.07579C43.1262 6.87916 43.6269 6.78456 44.1256 6.792C44.6243 6.79943 45.0957 6.89783 45.5399 7.0872C45.9817 7.27051 46.3733 7.53978 46.7148 7.89502C47.0623 8.24789 47.3344 8.67566 47.531 9.17833C47.7253 9.67494 47.8157 10.1738 47.8022 10.6748C47.7924 11.1675 47.6886 11.6341 47.4908 12.0745C47.293 12.515 47.0134 12.9072 46.6522 13.251C46.2909 13.5948 45.8589 13.8651 45.3562 14.0617ZM44.9156 12.9352C45.3577 12.7623 45.7111 12.5054 45.9757 12.1644C46.2404 11.8235 46.4028 11.4352 46.4628 10.9997C46.5229 10.5642 46.4641 10.1194 46.2865 9.66516C46.1088 9.21094 45.8513 8.84729 45.514 8.5742C45.1744 8.29506 44.7917 8.12005 44.366 8.04917C43.9402 7.97829 43.5063 8.02932 43.0642 8.20226C42.6281 8.37283 42.2747 8.62977 42.004 8.97309C41.7394 9.31403 41.577 9.70226 41.5169 10.1378C41.4545 10.5672 41.5121 11.009 41.6897 11.4632C41.8674 11.9175 42.1261 12.2841 42.4657 12.5633C42.8053 12.8424 43.188 13.0174 43.6138 13.0883C44.0456 13.1568 44.4795 13.1058 44.9156 12.9352Z" fill="white"/>
<path d="M52.1087 11.7174L50.5972 4.60908L51.8948 4.33315L53.1628 10.2965L56.2065 9.64931L56.45 10.7943L52.1087 11.7174Z" fill="white"/>
<path d="M59.5114 10.3669L58.9699 3.11986L60.2929 3.02102L60.7471 9.10076L63.8502 8.86892L63.9374 10.0362L59.5114 10.3669Z" fill="white"/>
<path d="M70.9687 10.2135L72.023 3.02312L74.3684 3.36703C75.134 3.4793 75.7741 3.73091 76.2886 4.12184C76.8041 4.50633 77.1766 4.99147 77.4062 5.57724C77.6367 6.15658 77.7001 6.80013 77.5963 7.50791C77.4935 8.20925 77.248 8.80752 76.8599 9.30271C76.4718 9.79791 75.972 10.1584 75.3605 10.3842C74.7554 10.611 74.0732 10.6687 73.314 10.5574L70.9687 10.2135ZM72.4511 9.24777L73.5128 9.40345C74.0018 9.47516 74.4411 9.43769 74.8307 9.29107C75.2202 9.14444 75.5384 8.9019 75.7852 8.56345C76.0385 8.22594 76.2014 7.80946 76.2741 7.31402C76.3467 6.81858 76.3097 6.37607 76.1631 5.9865C76.0174 5.59049 75.779 5.26634 75.4479 5.01404C75.1233 4.76269 74.7165 4.60116 74.2275 4.52945L73.1658 4.37378L72.4511 9.24777Z" fill="white"/>
<path d="M83.2947 12.9898C82.789 12.8204 82.3472 12.573 81.9693 12.2476C81.5914 11.9221 81.2927 11.5443 81.0732 11.1142C80.8538 10.6841 80.7239 10.2223 80.6834 9.72864C80.6512 9.23093 80.7198 8.72925 80.8891 8.2236C81.0605 7.71177 81.3079 7.26998 81.6313 6.89821C81.9609 6.52851 82.3386 6.24011 82.7646 6.033C83.1988 5.82179 83.6648 5.70009 84.1625 5.66788C84.6602 5.63567 85.165 5.70527 85.6768 5.87668C86.1886 6.04809 86.6335 6.29651 87.0114 6.62197C87.3894 6.94742 87.688 7.3252 87.9075 7.75531C88.129 8.17926 88.2569 8.637 88.2911 9.12854C88.3316 9.62215 88.2661 10.1249 88.0947 10.6367C87.9254 11.1423 87.6749 11.5831 87.3433 11.959C87.0199 12.3307 86.6411 12.6222 86.2069 12.8334C85.7726 13.0446 85.3067 13.1664 84.809 13.1986C84.3113 13.2308 83.8065 13.1612 83.2947 12.9898ZM83.6788 11.8428C84.1289 11.9935 84.5649 12.0229 84.9866 11.931C85.4083 11.839 85.7818 11.6452 86.1071 11.3496C86.4325 11.0539 86.6726 10.6748 86.8275 10.2123C86.9824 9.74982 87.0179 9.30567 86.9342 8.87986C86.8526 8.44789 86.6711 8.06822 86.3898 7.74084C86.1086 7.41347 85.7428 7.17441 85.2927 7.02365C84.8487 6.87496 84.4128 6.84556 83.9849 6.93545C83.5632 7.0274 83.1897 7.22121 82.8643 7.51688C82.5411 7.80639 82.302 8.18239 82.1471 8.64488C81.9922 9.10737 81.9556 9.5546 82.0372 9.98657C82.1189 10.4185 82.3004 10.7982 82.5816 11.1256C82.8691 11.455 83.2348 11.6941 83.6788 11.8428Z" fill="white"/>
<path d="M91.1648 16.0618L93.1232 8.79654L94.3551 9.51106L92.779 14.9118L96.7431 10.8961L97.9329 11.5861L96.4074 17.0162L100.312 12.9662L101.544 13.6807L96.2108 18.9884L94.8945 18.2249L96.311 13.0022L92.4811 16.8252L91.1648 16.0618Z" fill="white"/>
<path d="M100.076 21.7293L104.834 16.2361L105.616 16.913L105.181 22.7047L108.233 19.1802L109.236 20.0487L104.478 25.542L103.689 24.8586L104.189 19.007L101.079 22.5979L100.076 21.7293Z" fill="white"/>
<path d="M111.139 29.8138L112.043 29.1499L114.496 32.4917L113.592 33.1556L111.139 29.8138Z" fill="white"/>
<path d="M116.706 43.3356C116.519 42.9134 116.422 42.4867 116.416 42.0555C116.413 41.6303 116.49 41.2263 116.648 40.8436C116.814 40.4641 117.055 40.1334 117.372 39.8513L118.255 40.6658C117.945 40.9948 117.748 41.3596 117.662 41.7603C117.582 42.1583 117.626 42.5476 117.795 42.9282C117.934 43.2434 118.12 43.4632 118.353 43.5877C118.589 43.7182 118.828 43.7294 119.072 43.6215C119.268 43.5347 119.403 43.4041 119.475 43.2299C119.55 43.0617 119.575 42.8445 119.549 42.5783L119.395 41.1212C119.333 40.5301 119.401 40.034 119.6 39.6329C119.806 39.2291 120.125 38.9311 120.56 38.739C120.94 38.5705 121.317 38.514 121.69 38.5694C122.065 38.6307 122.407 38.7924 122.715 39.0543C123.032 39.3196 123.286 39.6693 123.478 40.1034C123.744 40.704 123.823 41.2914 123.714 41.8657C123.608 42.446 123.345 42.9358 122.925 43.3353L122.036 42.5337C122.311 42.2554 122.48 41.946 122.543 41.6054C122.611 41.2622 122.569 40.9181 122.417 40.5732C122.28 40.264 122.092 40.0484 121.853 39.9265C121.623 39.808 121.386 39.8027 121.142 39.9106C120.958 39.9922 120.821 40.124 120.73 40.3061C120.649 40.4915 120.622 40.7203 120.65 40.9924L120.807 42.3842C120.937 43.5927 120.559 44.3931 119.673 44.7852C119.292 44.9537 118.913 45.0043 118.534 44.937C118.156 44.8697 117.807 44.7005 117.488 44.4293C117.169 44.1581 116.908 43.7935 116.706 43.3356Z" fill="white"/>
<path d="M119.687 51.9247C119.555 51.4215 119.521 50.9329 119.585 50.4589C119.655 49.9833 119.812 49.5453 120.057 49.1449C120.301 48.7445 120.62 48.3984 121.014 48.1067C121.415 47.8133 121.876 47.598 122.398 47.4608C122.92 47.3237 123.424 47.2854 123.911 47.3458C124.404 47.4046 124.852 47.5492 125.255 47.7794C125.665 48.008 126.014 48.313 126.302 48.6944C126.597 49.0742 126.811 49.5157 126.943 50.0189C127.075 50.522 127.108 50.9941 127.042 51.4349C126.978 51.8821 126.841 52.2812 126.631 52.6323C126.427 52.9818 126.174 53.26 125.872 53.4671L125.032 52.4573C125.347 52.2264 125.577 51.924 125.721 51.55C125.873 51.1807 125.89 50.7727 125.773 50.3262C125.657 49.8859 125.452 49.5263 125.157 49.2475C124.868 48.967 124.513 48.7812 124.092 48.6899C123.678 48.5971 123.226 48.6151 122.735 48.744C122.244 48.8728 121.838 49.0803 121.517 49.3665C121.202 49.651 120.984 49.9872 120.864 50.3751C120.744 50.763 120.742 51.1771 120.857 51.6174C120.975 52.0639 121.187 52.4116 121.494 52.6603C121.81 52.9137 122.162 53.0633 122.55 53.1091L122.315 54.4014C121.95 54.3695 121.59 54.2523 121.234 54.0499C120.885 53.8458 120.572 53.5648 120.297 53.2069C120.023 52.8553 119.82 52.4278 119.687 51.9247Z" fill="white"/>
<path d="M121.056 57.8733L128.289 57.1689L128.551 59.8583C128.598 60.3502 128.55 60.7927 128.405 61.1857C128.268 61.5846 128.041 61.9072 127.725 62.1536C127.41 62.4 127.006 62.5471 126.514 62.595C126.015 62.6435 125.58 62.5651 125.207 62.3596C124.835 62.1607 124.545 61.8687 124.338 61.4838L121.596 63.4267L121.451 61.9316L123.975 60.1764L123.854 58.9337L121.184 59.1937L121.056 57.8733ZM125.019 58.8202L125.154 60.2086C125.189 60.5646 125.317 60.8396 125.538 61.0336C125.766 61.2271 126.049 61.3074 126.385 61.2746C126.728 61.2412 126.99 61.1079 127.17 60.8748C127.349 60.6417 127.422 60.3471 127.387 59.9911L127.252 58.6028L125.019 58.8202Z" fill="white"/>
<path d="M121.313 69.7067C121.352 69.1749 121.482 68.6856 121.704 68.239C121.926 67.7923 122.218 67.4095 122.581 67.0906C122.943 66.7716 123.359 66.5316 123.827 66.3704C124.301 66.2161 124.804 66.1586 125.336 66.1977C125.874 66.2372 126.364 66.3678 126.804 66.5892C127.244 66.8172 127.616 67.1119 127.922 67.4735C128.234 67.842 128.467 68.2634 128.622 68.7377C128.776 69.212 128.833 69.7183 128.794 70.2567C128.754 70.795 128.623 71.2874 128.401 71.7341C128.18 72.1807 127.887 72.5635 127.525 72.8825C127.169 73.2019 126.757 73.439 126.289 73.5937C125.821 73.7549 125.317 73.8157 124.779 73.7761C124.247 73.737 123.758 73.6033 123.312 73.3749C122.872 73.1534 122.496 72.8584 122.184 72.4899C121.872 72.1213 121.639 71.6999 121.485 71.2256C121.33 70.7513 121.273 70.245 121.313 69.7067ZM122.519 69.7954C122.484 70.2688 122.563 70.6985 122.757 71.0844C122.95 71.4703 123.23 71.7843 123.597 72.0265C123.964 72.2686 124.391 72.4076 124.877 72.4433C125.363 72.4791 125.803 72.4038 126.195 72.2174C126.593 72.0315 126.916 71.7618 127.164 71.4084C127.411 71.0549 127.553 70.6414 127.587 70.168C127.622 69.701 127.542 69.2713 127.35 68.879C127.156 68.4931 126.876 68.179 126.509 67.9369C126.149 67.6952 125.725 67.5565 125.239 67.5207C124.752 67.485 124.31 67.5601 123.912 67.7459C123.513 67.9318 123.19 68.2015 122.943 68.555C122.694 68.915 122.553 69.3284 122.519 69.7954Z" fill="white"/>
<path d="M120.513 76.8101L127.578 78.5144L127.267 79.8041L121.34 78.3742L120.61 81.3992L119.472 81.1247L120.513 76.8101Z" fill="white"/>
<path d="M118.536 84.0705L125.307 86.7098L124.825 87.9458L119.145 85.7317L118.015 88.631L116.924 88.2058L118.536 84.0705Z" fill="white"/>
<path d="M113.73 94.472L119.761 98.5263L118.439 100.494C118.007 101.136 117.504 101.605 116.929 101.9C116.36 102.199 115.761 102.326 115.134 102.28C114.512 102.238 113.904 102.017 113.31 101.618C112.722 101.223 112.288 100.743 112.009 100.179C111.73 99.6155 111.62 99.0091 111.68 98.36C111.737 97.7163 111.979 97.0761 112.408 96.4392L113.73 94.472ZM113.961 96.226L113.363 97.1165C113.087 97.5267 112.931 97.9392 112.895 98.3539C112.859 98.7686 112.941 99.1603 113.14 99.529C113.335 99.9031 113.64 100.23 114.056 100.509C114.471 100.789 114.886 100.946 115.301 100.982C115.721 101.022 116.117 100.946 116.487 100.757C116.854 100.572 117.175 100.275 117.451 99.8648L118.05 98.9743L113.961 96.226Z" fill="white"/>
<path d="M105.906 104.393C106.277 104.01 106.691 103.718 107.147 103.518C107.604 103.317 108.074 103.211 108.556 103.198C109.039 103.186 109.512 103.268 109.975 103.445C110.437 103.631 110.86 103.909 111.243 104.28C111.631 104.655 111.923 105.069 112.119 105.521C112.31 105.978 112.407 106.443 112.41 106.917C112.413 107.4 112.322 107.873 112.136 108.336C111.95 108.799 111.67 109.224 111.294 109.612C110.919 109.999 110.503 110.293 110.046 110.494C109.589 110.694 109.119 110.801 108.637 110.813C108.159 110.83 107.691 110.748 107.232 110.566C106.77 110.39 106.345 110.114 105.957 109.738C105.574 109.367 105.284 108.951 105.088 108.49C104.893 108.038 104.793 107.57 104.79 107.087C104.787 106.604 104.878 106.132 105.064 105.669C105.25 105.206 105.53 104.781 105.906 104.393ZM106.775 105.234C106.444 105.575 106.23 105.956 106.131 106.376C106.032 106.796 106.045 107.217 106.172 107.638C106.298 108.059 106.536 108.439 106.887 108.778C107.237 109.118 107.622 109.342 108.042 109.45C108.467 109.563 108.888 109.563 109.305 109.45C109.722 109.338 110.095 109.111 110.425 108.77C110.751 108.434 110.966 108.053 111.069 107.628C111.168 107.208 111.155 106.788 111.028 106.367C110.907 105.95 110.671 105.572 110.32 105.233C109.97 104.894 109.582 104.667 109.158 104.555C108.733 104.442 108.312 104.442 107.895 104.554C107.474 104.671 107.1 104.898 106.775 105.234Z" fill="white"/>
<path d="M99.7383 110.166L105.447 115.069L104.271 115.872L100.079 112.119L101.991 117.428L100.855 118.203L96.6146 114.484L98.5827 119.754L97.4064 120.557L94.9205 113.455L96.1773 112.597L100.277 116.129L98.4814 111.024L99.7383 110.166Z" fill="white"/>
<path d="M90.7794 115.759L93.6814 122.422L92.7334 122.835L87.6966 119.943L89.5585 124.218L88.3422 124.747L85.4403 118.085L86.3973 117.668L91.4601 120.644L89.5632 116.289L90.7794 115.759Z" fill="white"/>
<path d="M78.712 122.249L78.9206 123.351L74.8472 124.122L74.6386 123.02L78.712 122.249Z" fill="white"/>
</svg>
