<svg width="33" height="33" viewBox="0 0 33 33" fill="none" xmlns="http://www.w3.org/2000/svg">
<g id="instagram (10) 1">
<g clip-path="url(#clip0_58_3716)">
<path id="Path 16" d="M8.61451 32.4717C7.37677 32.4579 6.15068 32.2309 4.99004 31.8006C4.14249 31.4874 3.37567 30.9886 2.74565 30.3409C2.09616 29.7121 1.59668 28.9451 1.28431 28.0968C0.854432 26.9362 0.627743 25.7102 0.614196 24.4726C0.519137 22.4152 0.5 21.7981 0.5 16.585C0.5 11.3718 0.52102 10.7569 0.613255 8.6979C0.628446 7.46081 0.855414 6.23546 1.28431 5.075C1.59821 4.22731 2.09698 3.46019 2.74439 2.82935C3.37364 2.18045 4.14082 1.68144 4.9891 1.36927C6.14973 0.939037 7.37583 0.712029 8.61357 0.698216C10.6716 0.604098 11.2896 0.584961 16.5 0.584961C21.7104 0.584961 22.3281 0.605981 24.3871 0.698216C25.6245 0.7133 26.8501 0.940269 28.0109 1.36927C28.8588 1.68185 29.6258 2.18069 30.2553 2.82904C30.9038 3.45876 31.4029 4.22593 31.7157 5.07406C32.146 6.23468 32.3731 7.46077 32.3871 8.69853C32.4812 10.7575 32.5003 11.374 32.5003 16.5856C32.5003 21.7972 32.4812 22.4137 32.3871 24.4726C32.3721 25.7102 32.145 26.936 31.7157 28.0968C31.3909 28.9386 30.8935 29.703 30.2554 30.3409C29.6173 30.9789 28.8528 31.4761 28.0109 31.8006C26.8503 32.231 25.6242 32.4581 24.3864 32.472C22.3293 32.5661 21.711 32.5853 16.4994 32.5853C11.2878 32.5853 10.6713 32.5671 8.6142 32.472" fill="url(#paint0_radial_58_3716)"/>
<path id="Path 17" d="M8.61451 32.4717C7.37677 32.4579 6.15068 32.2309 4.99004 31.8006C4.14249 31.4874 3.37567 30.9886 2.74565 30.3409C2.09616 29.7121 1.59668 28.9451 1.28431 28.0968C0.854432 26.9362 0.627743 25.7102 0.614196 24.4726C0.519137 22.4152 0.5 21.7981 0.5 16.585C0.5 11.3718 0.52102 10.7569 0.613255 8.6979C0.628446 7.46081 0.855414 6.23546 1.28431 5.075C1.59821 4.22731 2.09698 3.46019 2.74439 2.82935C3.37364 2.18045 4.14082 1.68144 4.9891 1.36927C6.14973 0.939037 7.37583 0.712029 8.61357 0.698216C10.6716 0.604098 11.2896 0.584961 16.5 0.584961C21.7104 0.584961 22.3281 0.605981 24.3871 0.698216C25.6245 0.7133 26.8501 0.940269 28.0109 1.36927C28.8588 1.68185 29.6258 2.18069 30.2553 2.82904C30.9038 3.45876 31.4029 4.22593 31.7157 5.07406C32.146 6.23468 32.3731 7.46077 32.3871 8.69853C32.4812 10.7575 32.5003 11.374 32.5003 16.5856C32.5003 21.7972 32.4812 22.4137 32.3871 24.4726C32.3721 25.7102 32.145 26.936 31.7157 28.0968C31.3909 28.9386 30.8935 29.703 30.2554 30.3409C29.6173 30.9789 28.8528 31.4761 28.0109 31.8006C26.8503 32.231 25.6242 32.4581 24.3864 32.472C22.3293 32.5661 21.711 32.5853 16.4994 32.5853C11.2878 32.5853 10.6713 32.5671 8.6142 32.472" fill="url(#paint1_radial_58_3716)"/>
<path id="Path 18" d="M13.8337 16.5841C13.8337 16.0567 13.9902 15.5412 14.2832 15.1027C14.5763 14.6642 14.9928 14.3225 15.4801 14.1207C15.9674 13.9189 16.5036 13.8661 17.0208 13.9691C17.5381 14.072 18.0132 14.3261 18.3861 14.699C18.759 15.072 19.0129 15.5472 19.1158 16.0645C19.2186 16.5817 19.1657 17.1179 18.9638 17.6051C18.7619 18.0923 18.4201 18.5087 17.9815 18.8017C17.5429 19.0946 17.0273 19.2509 16.4999 19.2509C15.7927 19.2507 15.1145 18.9697 14.6145 18.4696C14.1145 17.9695 13.8336 17.2913 13.8337 16.5841ZM12.392 16.5841C12.392 17.3966 12.6329 18.1908 13.0843 18.8663C13.5357 19.5418 14.1772 20.0683 14.9279 20.3792C15.6785 20.6901 16.5045 20.7715 17.3013 20.613C18.0982 20.4545 18.8301 20.0632 19.4046 19.4887C19.9791 18.9143 20.3704 18.1823 20.5289 17.3855C20.6874 16.5887 20.6061 15.7627 20.2951 15.0121C19.9842 14.2615 19.4577 13.62 18.7821 13.1686C18.1066 12.7173 17.3124 12.4763 16.4999 12.4763C15.9604 12.4763 15.4262 12.5825 14.9278 12.789C14.4294 12.9954 13.9765 13.298 13.5951 13.6794C13.2136 14.0609 12.911 14.5137 12.7046 15.0121C12.4982 15.5105 12.3919 16.0447 12.392 16.5841ZM19.8104 12.3136C19.8104 12.5034 19.8666 12.689 19.972 12.8469C20.0774 13.0049 20.2273 13.128 20.4026 13.2007C20.578 13.2734 20.771 13.2925 20.9573 13.2556C21.1435 13.2186 21.3146 13.1272 21.4489 12.9931C21.5832 12.8589 21.6747 12.6879 21.7118 12.5017C21.7489 12.3155 21.73 12.1225 21.6574 11.947C21.5849 11.7716 21.4619 11.6216 21.3041 11.5161C21.1462 11.4106 20.9607 11.3542 20.7708 11.3541C20.5163 11.3542 20.2723 11.4553 20.0923 11.6352C19.9123 11.8151 19.8111 12.0591 19.8109 12.3136M13.2683 23.0958C12.761 23.0902 12.2585 22.9974 11.7827 22.8214C11.4376 22.6884 11.1242 22.4846 10.8627 22.2232C10.6011 21.9617 10.3972 21.6485 10.2641 21.3035C10.088 20.8277 9.99514 20.3252 9.98965 19.8179C9.9508 18.9747 9.9432 18.7214 9.9432 16.5852C9.9432 14.449 9.95165 14.1963 9.98965 13.3522C9.9958 12.845 10.0886 12.3426 10.2641 11.8667C10.3971 11.5215 10.6009 11.2081 10.8625 10.9465C11.124 10.685 11.4375 10.4811 11.7827 10.3481C12.2584 10.172 12.761 10.0792 13.2683 10.0737C14.1115 10.0349 14.3649 10.0273 16.5003 10.0273C18.6358 10.0273 18.8893 10.0355 19.7334 10.0739C20.2406 10.0801 20.7431 10.1729 21.219 10.3484C21.5642 10.4814 21.8776 10.6852 22.1392 10.9467C22.4007 11.2083 22.6046 11.5217 22.7376 11.8669C22.9137 12.3426 23.0065 12.8452 23.012 13.3525C23.0509 14.1969 23.0585 14.449 23.0585 16.5854C23.0585 18.7218 23.0507 18.9743 23.012 19.8183C23.0061 20.3256 22.9133 20.828 22.7376 21.3039C22.6044 21.6489 22.4005 21.9622 22.139 22.2236C21.8775 22.485 21.5641 22.6888 21.219 22.8218C20.7432 22.9979 20.2407 23.0907 19.7334 23.0962C18.8902 23.1351 18.6368 23.1427 16.5003 23.1427C14.3638 23.1427 14.1113 23.1348 13.2683 23.0962M13.202 8.63331C12.5382 8.64636 11.8815 8.77199 11.2597 9.00485C10.7282 9.21034 10.2456 9.52462 9.84263 9.92754C9.4397 10.3305 9.12541 10.8131 8.91991 11.3446C8.68707 11.9663 8.56143 12.623 8.54835 13.2868C8.50887 14.1397 8.5 14.4124 8.5 16.585C8.5 18.7575 8.50908 19.03 8.54835 19.8831C8.56143 20.5469 8.68706 21.2036 8.91991 21.8253C9.12542 22.3568 9.43971 22.8394 9.84264 23.2424C10.2456 23.6453 10.7283 23.9596 11.2597 24.1651C11.8815 24.3978 12.5382 24.5235 13.202 24.5366C14.0554 24.5755 14.3277 24.585 16.5003 24.585C18.6729 24.585 18.9455 24.5759 19.7986 24.5366C20.4624 24.5235 21.1191 24.3979 21.7409 24.1651C22.2724 23.9596 22.7551 23.6453 23.158 23.2424C23.5609 22.8394 23.8752 22.3568 24.0807 21.8253C24.3139 21.2037 24.4395 20.5469 24.4523 19.8831C24.4911 19.0296 24.5 18.7575 24.5 16.585C24.5 14.4124 24.4909 14.1399 24.4523 13.2868C24.4392 12.623 24.3136 11.9663 24.0807 11.3446C23.8752 10.8132 23.561 10.3306 23.1582 9.92772C22.7554 9.52482 22.2729 9.21048 21.7415 9.00485C21.1198 8.77184 20.4631 8.6462 19.7992 8.63331C18.9461 8.59425 18.6736 8.58496 16.5014 8.58496C14.3292 8.58496 14.056 8.59404 13.2024 8.63331" fill="white"/>
</g>
</g>
<defs>
<radialGradient id="paint0_radial_58_3716" cx="0" cy="0" r="1" gradientUnits="userSpaceOnUse" gradientTransform="translate(2.5709 31.8841) scale(40.6281)">
<stop offset="0.09" stop-color="#FA8F21"/>
<stop offset="0.78" stop-color="#D82D7E"/>
</radialGradient>
<radialGradient id="paint1_radial_58_3716" cx="0" cy="0" r="1" gradientUnits="userSpaceOnUse" gradientTransform="translate(22.6653 30.8563) scale(35.7531)">
<stop offset="0.64" stop-color="#8C3AAA" stop-opacity="0"/>
<stop offset="1" stop-color="#8C3AAA"/>
</radialGradient>
<clipPath id="clip0_58_3716">
<rect x="0.5" y="0.584961" width="32" height="32" rx="16" fill="white"/>
</clipPath>
</defs>
</svg>
