<svg width="24" height="24" viewBox="0 0 24 24" fill="none" xmlns="http://www.w3.org/2000/svg">
<g id="Frame" clip-path="url(#clip0_405_3149)">
<path id="Vector" d="M11.9998 3C12.1318 3 12.2628 3 12.3928 3C11.1081 4.19371 10.2824 5.79985 10.0591 7.53923C9.83577 9.2786 10.229 11.0412 11.1705 12.5207C12.112 14.0002 13.5422 15.103 15.2124 15.6375C16.8826 16.1719 18.6873 16.1042 20.3128 15.446C19.6875 16.9505 18.6656 18.257 17.356 19.2263C16.0464 20.1955 14.4982 20.791 12.8767 20.9494C11.2552 21.1077 9.62104 20.823 8.14867 20.1254C6.6763 19.4279 5.42089 18.3437 4.51637 16.9886C3.61185 15.6335 3.09213 14.0583 3.01267 12.431C2.9332 10.8037 3.29696 9.1853 4.06515 7.74852C4.83334 6.31174 5.97714 5.11043 7.37455 4.27274C8.77195 3.43505 10.3705 2.9924 11.9998 2.992V3Z" stroke="#090F5B" stroke-width="2.5" stroke-linecap="round" stroke-linejoin="round"/>
</g>
<defs>
<clipPath id="clip0_405_3149">
<rect width="24" height="24" fill="white"/>
</clipPath>
</defs>
</svg>
