<svg width="33" height="33" viewBox="0 0 33 33" fill="none" xmlns="http://www.w3.org/2000/svg">
<g id="linkedin (2) 1">
<g clip-path="url(#clip0_58_3720)">
<g id="Group">
<path id="Vector" d="M30.7222 0.584961H2.27778C1.29594 0.584961 0.5 1.3809 0.5 2.36274V30.8072C0.5 31.789 1.29594 32.585 2.27778 32.585H30.7222C31.7041 32.585 32.5 31.789 32.5 30.8072V2.36274C32.5 1.3809 31.7041 0.584961 30.7222 0.584961Z" fill="#117EB8"/>
<path id="Vector_2" fill-rule="evenodd" clip-rule="evenodd" d="M9.76251 14.2337H12.6574V23.585H9.76251V14.2337ZM11.2104 9.58526C12.136 9.58526 12.8881 10.3403 12.8881 11.2696C12.8881 12.1999 12.136 12.9552 11.2104 12.9552C10.9873 12.9595 10.7656 12.919 10.5583 12.8363C10.351 12.7535 10.1622 12.63 10.0029 12.4732C9.84369 12.3163 9.71719 12.1291 9.63083 11.9225C9.54448 11.716 9.5 11.4943 9.5 11.2703C9.5 11.0463 9.54448 10.8245 9.63083 10.618C9.71719 10.4114 9.84369 10.2242 10.0029 10.0673C10.1622 9.91046 10.351 9.78702 10.5583 9.70425C10.7656 9.62147 10.9873 9.58102 11.2104 9.58526ZM14.4731 14.2334H17.2498V15.5113H17.2883C17.6748 14.7761 18.6191 14.0011 20.0273 14.0011C22.9585 14.0011 23.5 15.938 23.5 18.456V23.585H20.607V19.0374C20.607 17.9531 20.5871 16.5581 19.1028 16.5581C17.5966 16.5581 17.3653 17.7393 17.3653 18.9592V23.585H14.4728V14.2337L14.4731 14.2334Z" fill="white"/>
</g>
</g>
</g>
<defs>
<clipPath id="clip0_58_3720">
<rect x="0.5" y="0.584961" width="32" height="32" rx="16" fill="white"/>
</clipPath>
</defs>
</svg>
