<svg width="65" height="65" viewBox="0 0 65 65" fill="none" xmlns="http://www.w3.org/2000/svg">
<path d="M32.7531 35.5883C35.6662 35.5883 38.0277 33.2268 38.0277 30.3137C38.0277 27.4006 35.6662 25.0391 32.7531 25.0391C29.84 25.0391 27.4785 27.4006 27.4785 30.3137C27.4785 33.2268 29.84 35.5883 32.7531 35.5883Z" stroke="#7E34FF" stroke-width="2.5" stroke-linecap="round" stroke-linejoin="round"/>
<path d="M42.6993 40.2613L35.2392 47.7213C34.5799 48.38 33.686 48.75 32.754 48.75C31.822 48.75 30.9281 48.38 30.2688 47.7213L22.807 40.2613C20.8399 38.2941 19.5004 35.7879 18.9577 33.0594C18.4151 30.331 18.6936 27.5029 19.7583 24.9328C20.8229 22.3627 22.6257 20.166 24.9388 18.6204C27.2518 17.0749 29.9712 16.25 32.7531 16.25C35.535 16.25 38.2544 17.0749 40.5675 18.6204C42.8806 20.166 44.6834 22.3627 45.748 24.9328C46.8126 27.5029 47.0912 30.331 46.5485 33.0594C46.0059 35.7879 44.6663 38.2941 42.6993 40.2613V40.2613Z" stroke="#090F5B" stroke-width="2.5" stroke-linecap="round" stroke-linejoin="round"/>
</svg>
