<svg width="20" height="20" viewBox="0 0 20 20" fill="none" xmlns="http://www.w3.org/2000/svg">
<path d="M17.5 8.33331C17.5 14.1666 10 19.1666 10 19.1666C10 19.1666 2.5 14.1666 2.5 8.33331C2.5 6.34419 3.29018 4.43654 4.6967 3.03001C6.10322 1.62349 8.01088 0.833313 10 0.833313C11.9891 0.833313 13.8968 1.62349 15.3033 3.03001C16.7098 4.43654 17.5 6.34419 17.5 8.33331Z" stroke="#7E34FF" stroke-width="1.66667" stroke-linecap="round" stroke-linejoin="round"/>
<path d="M10 10.8333C11.3807 10.8333 12.5 9.71396 12.5 8.33325C12.5 6.95254 11.3807 5.83325 10 5.83325C8.61929 5.83325 7.5 6.95254 7.5 8.33325C7.5 9.71396 8.61929 10.8333 10 10.8333Z" stroke="#5CDAF1" stroke-width="1.66667" stroke-linecap="round" stroke-linejoin="round"/>
</svg>
