<svg width="171" height="26" viewBox="0 0 171 26" fill="none" xmlns="http://www.w3.org/2000/svg">
<path d="M28.0952 3.29037C28.0952 5.10694 26.6227 6.57945 24.8061 6.57945H3.78908C1.97251 6.57945 0.5 5.10694 0.5 3.29037C0.5 1.4738 1.97251 0 3.78908 0H24.8061C26.6227 0 28.0952 1.47123 28.0952 3.28908V3.29037Z" fill="#5CDAF1"/>
<path d="M38.8778 12.793C38.8778 14.6096 37.4052 16.0821 35.5887 16.0821H3.78908C1.97251 16.0821 0.5 14.6096 0.5 12.793C0.5 10.9764 1.97251 9.50391 3.78908 9.50391H35.5874C37.404 9.50391 38.8765 10.9751 38.8765 12.793H38.8778Z" fill="#7E34FF"/>
<path d="M38.8774 22.2959C38.8774 24.1125 37.4049 25.585 35.5883 25.585H23.1612C21.3446 25.585 19.8721 24.1125 19.8721 22.2959C19.8721 20.4793 21.3446 19.0068 23.1612 19.0068H35.5883C37.4049 19.0068 38.8774 20.4781 38.8774 22.2959Z" fill="#5CDAF1"/>
<path d="M55.8398 20.7908C55.6711 20.5889 55.6711 20.3181 55.9075 20.0485L58.1686 17.4834C58.3704 17.2471 58.6413 17.1461 58.9453 17.3825C60.4974 18.9014 61.78 19.6436 63.5697 19.6436C65.3594 19.6436 66.5066 18.9691 66.5066 17.4834C66.5066 16.0999 65.4936 15.6605 64.0092 14.986L61.14 13.6357C58.6425 12.5217 56.2792 10.7333 56.2792 7.05416C56.2792 2.63285 59.6211 0.236328 63.7383 0.236328C66.5398 0.236328 68.8687 1.35028 70.8257 3.37506C71.0276 3.5769 71.0621 3.88094 70.8589 4.15176L68.631 6.81783C68.4624 7.05416 68.1584 7.15508 67.922 6.98646C66.4031 5.70388 65.2892 5.1303 63.9057 5.1303C62.3536 5.1303 61.4415 5.907 61.4415 7.12187C61.4415 8.40445 62.3868 8.8094 64.1075 9.61932L66.5041 10.6988C69.0015 11.8804 71.7021 13.4326 71.7021 17.4834C71.7021 22.4106 67.6525 24.5376 63.6694 24.5376C59.9226 24.5376 57.2565 22.6814 55.8385 20.7908H55.8398Z" fill="#090F5B"/>
<path d="M75.8884 19.2383V11.5773H73.8291C73.5251 11.5773 73.3232 11.3742 73.3232 11.0714V8.1013C73.3232 7.79727 73.5251 7.59543 73.8291 7.59543H75.8884V3.71193C75.8884 3.40789 76.1247 3.20605 76.4288 3.20605H80.5805C80.8846 3.20605 81.1209 3.40789 81.1209 3.71193V7.59287H83.6528C83.9569 7.59287 84.1587 7.79471 84.1587 8.09875V11.0689C84.1587 11.3729 83.9556 11.5747 83.6528 11.5747H81.1209V18.6966C81.1209 19.5742 81.6945 20.0469 82.5389 20.0469C82.8429 20.0469 83.1457 20.0469 83.5851 20.0137C83.9224 19.9805 84.1932 20.1491 84.1932 20.4863V23.2878C84.1932 24.1322 82.3703 24.3341 81.2231 24.3341C78.4893 24.3341 75.8909 23.0847 75.8909 19.2383H75.8884Z" fill="#090F5B"/>
<path d="M85.9126 15.8634C85.9126 10.9695 89.0845 7.18945 93.6758 7.18945C96.1055 7.18945 97.7598 8.13478 98.8393 9.6869L98.907 8.10029C98.907 7.79625 99.1433 7.59441 99.4474 7.59441H103.194C103.498 7.59441 103.735 7.79625 103.735 8.10029V23.6266C103.735 23.9306 103.465 24.1325 103.161 24.1325H99.4486C99.1446 24.1325 98.9083 23.9306 98.9083 23.6266L98.8406 22.0068C97.7266 23.5934 96.0391 24.5387 93.677 24.5387C89.0871 24.5387 85.9139 20.7919 85.9139 15.8647L85.9126 15.8634ZM94.7897 19.8466C97.0508 19.8466 98.6042 18.26 98.6042 15.8302C98.6042 13.4005 97.0521 11.8816 94.7897 11.8816C92.5273 11.8816 90.942 13.4682 90.942 15.8647C90.942 18.2612 92.5963 19.8479 94.7897 19.8479V19.8466Z" fill="#090F5B"/>
<path d="M106.635 15.7615C106.635 10.9021 110.28 7.18848 115.276 7.18848C118.044 7.18848 120.271 8.37013 121.689 10.2263C121.891 10.4281 121.858 10.7322 121.656 10.9353L119.327 13.1632C119.057 13.4327 118.686 13.4327 118.416 13.1964C117.538 12.3188 116.661 11.9138 115.514 11.9138C113.084 11.9138 111.598 13.6346 111.598 15.7615C111.598 17.8885 113.083 19.8124 115.581 19.8124C116.695 19.8124 117.573 19.3742 118.484 18.5298C118.72 18.2935 119.092 18.2935 119.361 18.563L121.69 20.7909C121.892 20.9928 121.927 21.2636 121.723 21.4999C120.305 23.3561 118.079 24.5377 115.411 24.5377C110.349 24.5377 106.637 20.7232 106.637 15.7628L106.635 15.7615Z" fill="#090F5B"/>
<path d="M124.792 23.6255V0.505876C124.792 0.20184 124.994 0 125.298 0H129.45C129.754 0 129.99 0.20184 129.99 0.505876V13.8043L134.884 7.86408C135.053 7.66224 135.256 7.59453 135.493 7.59453H140.15C140.623 7.59453 140.724 7.86408 140.454 8.23582L134.952 14.5478L141.332 23.4913C141.568 23.8631 141.433 24.1326 141.028 24.1326H136.572C136.302 24.1326 136.134 24.0649 135.965 23.8286L131.848 18.1247L129.992 20.2849V23.6267C129.992 23.9308 129.755 24.1326 129.451 24.1326H125.3C124.996 24.1326 124.794 23.9308 124.794 23.6267L124.792 23.6255Z" fill="#090F5B"/>
<path d="M143.084 21.736C142.915 21.4996 142.949 21.0947 143.185 20.7574L144.535 18.868C144.805 18.4299 145.109 18.5308 145.38 18.6994C146.831 19.7457 147.945 20.2515 149.126 20.2515C150.037 20.2515 150.645 19.9143 150.645 19.1721C150.645 18.5308 150.24 18.1935 149.161 17.7541L147.001 16.8765C144.841 16.0333 143.423 14.5809 143.423 12.2865C143.423 9.04689 146.191 7.18945 149.363 7.18945C151.556 7.18945 153.616 8.10029 155.067 9.78782C155.27 10.0242 155.168 10.2937 155.033 10.4968L153.313 12.5216C153.076 12.7579 152.84 12.7234 152.536 12.5216C151.457 11.6772 150.544 11.2058 149.634 11.2058C148.621 11.2058 148.318 11.7794 148.318 12.2853C148.318 12.8933 148.891 13.2983 149.634 13.6011L152.131 14.5796C154.19 15.3895 155.843 16.8752 155.776 19.3726C155.742 22.7809 152.806 24.5362 149.464 24.5362C146.662 24.5362 144.469 23.389 143.084 21.7347V21.736Z" fill="#090F5B"/>
<path d="M158.307 21.736C158.138 21.4996 158.171 21.0947 158.408 20.7574L159.758 18.868C160.027 18.4299 160.332 18.5308 160.602 18.6994C162.054 19.7457 163.167 20.2515 164.349 20.2515C165.26 20.2515 165.868 19.9143 165.868 19.1721C165.868 18.5308 165.463 18.1935 164.384 17.7541L162.223 16.8765C160.063 16.0333 158.645 14.5809 158.645 12.2865C158.645 9.04689 161.414 7.18945 164.585 7.18945C166.779 7.18945 168.838 8.10029 170.289 9.78782C170.492 10.0242 170.39 10.2937 170.256 10.4968L168.535 12.5216C168.299 12.7579 168.063 12.7234 167.759 12.5216C166.679 11.6772 165.767 11.2058 164.856 11.2058C163.843 11.2058 163.541 11.7794 163.541 12.2853C163.541 12.8933 164.114 13.2983 164.856 13.6011L167.354 14.5796C169.413 15.3895 171.066 16.8752 170.998 19.3726C170.965 22.7809 168.028 24.5362 164.686 24.5362C161.885 24.5362 159.692 23.389 158.307 21.7347V21.736Z" fill="#090F5B"/>
</svg>
