<svg width="65" height="65" viewBox="0 0 65 65" fill="none" xmlns="http://www.w3.org/2000/svg">
<path d="M19.8612 18.0547H27.0837L30.695 27.0828L26.1809 29.7912C28.1147 33.7122 31.2881 36.8856 35.209 38.8193L37.9175 34.3053L46.9456 37.9165V45.139C46.9456 46.0968 46.5651 47.0153 45.8878 47.6925C45.2106 48.3698 44.2921 48.7502 43.3343 48.7502C36.2911 48.3222 29.648 45.3313 24.6585 40.3418C19.669 35.3523 16.678 28.7092 16.25 21.6659C16.25 20.7082 16.6305 19.7896 17.3077 19.1124C17.9849 18.4352 18.9035 18.0547 19.8612 18.0547" stroke="#090F5B" stroke-width="2.5" stroke-linecap="round" stroke-linejoin="round"/>
<path d="M37.918 23.4727C38.8757 23.4727 39.7943 23.8531 40.4715 24.5304C41.1487 25.2076 41.5292 26.1261 41.5292 27.0839" stroke="#7E34FF" stroke-width="2.5" stroke-linecap="round" stroke-linejoin="round"/>
<path d="M37.918 16.25C40.7913 16.25 43.5469 17.3914 45.5786 19.4231C47.6103 21.4548 48.7517 24.2104 48.7517 27.0837" stroke="#7E34FF" stroke-width="2.5" stroke-linecap="round" stroke-linejoin="round"/>
</svg>
