<svg width="170" height="170" viewBox="0 0 170 170" fill="none" xmlns="http://www.w3.org/2000/svg">
<g clip-path="url(#clip0_425_6348)">
<path d="M41.666 80.3333V64.8333C41.666 53.8711 46.0208 43.3578 53.7723 35.6063C61.5238 27.8547 72.0371 23.5 82.9993 23.5C93.9616 23.5 104.475 27.8547 112.226 35.6063C119.978 43.3578 124.333 53.8711 124.333 64.8333V80.3333" stroke="#090F5B" stroke-width="4.5" stroke-linecap="round" stroke-linejoin="round"/>
<path d="M114 106.167C114 114.728 100.122 121.667 83 121.667" stroke="#5CDAF1" stroke-width="4.5" stroke-linecap="round" stroke-linejoin="round"/>
<path d="M98.5 80.3333C98.5 77.5928 99.5887 74.9644 101.527 73.0266C103.464 71.0887 106.093 70 108.833 70H114C116.741 70 119.369 71.0887 121.307 73.0266C123.245 74.9644 124.333 77.5928 124.333 80.3333V95.8333C124.333 98.5739 123.245 101.202 121.307 103.14C119.369 105.078 116.741 106.167 114 106.167H108.833C106.093 106.167 103.464 105.078 101.527 103.14C99.5887 101.202 98.5 98.5739 98.5 95.8333V80.3333Z" stroke="#7E34FF" stroke-width="4.5" stroke-linecap="round" stroke-linejoin="round"/>
<path d="M41.666 80.3333C41.666 77.5928 42.7547 74.9644 44.6926 73.0266C46.6305 71.0887 49.2588 70 51.9993 70H57.166C59.9066 70 62.5349 71.0887 64.4728 73.0266C66.4107 74.9644 67.4994 77.5928 67.4994 80.3333V95.8333C67.4994 98.5739 66.4107 101.202 64.4728 103.14C62.5349 105.078 59.9066 106.167 57.166 106.167H51.9993C49.2588 106.167 46.6305 105.078 44.6926 103.14C42.7547 101.202 41.666 98.5739 41.666 95.8333V80.3333Z" stroke="#090F5B" stroke-width="4.5" stroke-linecap="round" stroke-linejoin="round"/>
</g>
<defs>
<clipPath id="clip0_425_6348">
<rect width="124" height="124" fill="white" transform="translate(21 8)"/>
</clipPath>
</defs>
</svg>
