<svg width="170" height="170" viewBox="0 0 170 170" fill="none" xmlns="http://www.w3.org/2000/svg">
<g clip-path="url(#clip0_425_6335)">
<path d="M111.5 51V36.75C111.5 35.4902 111 34.282 110.109 33.3912C109.218 32.5004 108.01 32 106.75 32H45C43.7402 32 42.532 32.5004 41.6412 33.3912C40.7504 34.282 40.25 35.4902 40.25 36.75V93.75C40.25 95.0098 40.7504 96.218 41.6412 97.1088C42.532 97.9996 43.7402 98.5 45 98.5H71.125" stroke="#090F5B" stroke-width="4.5" stroke-linecap="round" stroke-linejoin="round"/>
<path d="M87.75 74.75V55.75C87.75 54.4902 88.2504 53.282 89.1412 52.3912C90.032 51.5004 91.2402 51 92.5 51H121C122.26 51 123.468 51.5004 124.359 52.3912C125.25 53.282 125.75 54.4902 125.75 55.75V67.625" stroke="#5CDAF1" stroke-width="4.5" stroke-linecap="round" stroke-linejoin="round"/>
<path d="M110.551 111.881L100.234 117.286C99.9275 117.446 99.583 117.517 99.2388 117.492C98.8946 117.467 98.5641 117.346 98.2842 117.144C98.0043 116.942 97.7861 116.667 97.654 116.348C97.5218 116.029 97.4808 115.68 97.5356 115.339L99.5069 103.887L91.1611 95.7783C90.912 95.5374 90.7357 95.2314 90.6521 94.8952C90.5686 94.5589 90.5813 94.206 90.6888 93.8766C90.7963 93.5472 90.9942 93.2547 91.26 93.0324C91.5258 92.8101 91.8487 92.667 92.1919 92.6195L103.725 90.9475L108.883 80.5308C109.038 80.2205 109.275 79.9595 109.57 79.777C109.865 79.5945 110.204 79.4978 110.551 79.4978C110.897 79.4978 111.237 79.5945 111.531 79.777C111.826 79.9595 112.064 80.2205 112.218 80.5308L117.376 90.9475L128.909 92.6195C129.252 92.6687 129.573 92.8127 129.838 93.0352C130.102 93.2577 130.299 93.5498 130.407 93.8785C130.514 94.2071 130.527 94.5592 130.445 94.895C130.362 95.2307 130.187 95.5367 129.94 95.7783L121.594 103.887L123.561 115.334C123.62 115.675 123.582 116.026 123.452 116.347C123.321 116.668 123.103 116.946 122.823 117.15C122.542 117.353 122.21 117.473 121.865 117.498C121.519 117.522 121.174 117.449 120.868 117.286L110.551 111.881Z" stroke="#7E34FF" stroke-width="4.5" stroke-linecap="round" stroke-linejoin="round"/>
<path d="M102 58.75H111.5" stroke="#090F5B" stroke-width="4.5" stroke-linecap="round" stroke-linejoin="round"/>
</g>
<path d="M56 43L54 47.5L56 52" stroke="#090F5B" stroke-width="4.5" stroke-linecap="round" stroke-linejoin="round"/>
<path d="M66 43L68 47.5L66 52" stroke="#090F5B" stroke-width="4.5" stroke-linecap="round" stroke-linejoin="round"/>
<defs>
<clipPath id="clip0_425_6335">
<rect width="114" height="114" fill="white" transform="translate(26 13)"/>
</clipPath>
</defs>
</svg>
