<svg width="557" height="410" viewBox="0 0 557 410" fill="none" xmlns="http://www.w3.org/2000/svg">
<g clip-path="url(#clip0_225_2901)">
<rect width="555.484" height="410" transform="translate(0.725586)" fill="white"/>
<g opacity="0.3">
<rect x="331.37" y="52.9033" width="119.852" height="51.365" rx="25.6825" fill="#EEEEEE"/>
<rect x="422.115" y="179.604" width="119.852" height="51.365" rx="25.6825" fill="#EEEEEE"/>
<rect x="331.37" y="116.254" width="210.596" height="51.365" rx="25.6825" fill="#EEEEEE"/>
</g>
<path d="M356.528 306.894H52.0392C50.1004 306.892 48.2416 306.121 46.8706 304.75C45.4995 303.38 44.7281 301.521 44.7256 299.582V71.3136C44.7281 69.3747 45.4994 67.5159 46.8705 66.1449C48.2415 64.7739 50.1003 64.0025 52.0392 64H356.528C358.466 64.0025 360.325 64.7739 361.696 66.1449C363.067 67.5159 363.839 69.3747 363.841 71.3136V299.582C363.839 301.521 363.067 303.38 361.696 304.75C360.325 306.121 358.466 306.892 356.528 306.894ZM52.0392 64.8345C50.3214 64.8365 48.6746 65.5198 47.46 66.7344C46.2454 67.949 45.5621 69.5958 45.5601 71.3136V299.582C45.5626 301.3 46.2461 302.946 47.4607 304.16C48.6752 305.374 50.3218 306.057 52.0392 306.059H356.528C358.245 306.057 359.891 305.374 361.105 304.16C362.32 302.946 363.003 301.299 363.005 299.582V71.3136C363.003 69.596 362.32 67.9492 361.106 66.7345C359.892 65.5199 358.245 64.8365 356.528 64.8345H52.0392Z" fill="black"/>
<path d="M80.9158 80.3703C82.3802 78.906 82.3802 76.5318 80.9158 75.0674C79.4514 73.6031 77.0772 73.6031 75.6129 75.0674C74.1485 76.5318 74.1485 78.906 75.6129 80.3703C77.0772 81.8347 79.4514 81.8347 80.9158 80.3703Z" fill="#E2EAFF"/>
<path d="M92.8551 78.5779C93.3308 76.5623 92.0825 74.5428 90.067 74.0671C88.0514 73.5914 86.0319 74.8396 85.5562 76.8552C85.0805 78.8707 86.3287 80.8903 88.3443 81.366C90.3598 81.8417 92.3794 80.5934 92.8551 78.5779Z" fill="#E2EAFF"/>
<path d="M103.799 78.5785C104.275 76.563 103.027 74.5434 101.011 74.0677C98.9958 73.592 96.9762 74.8403 96.5005 76.8558C96.0248 78.8713 97.2731 80.8909 99.2886 81.3666C101.304 81.8423 103.324 80.594 103.799 78.5785Z" fill="#E2EAFF"/>
<path d="M306.696 82.1645H137.393C136.387 82.1645 135.423 81.7648 134.711 81.0534C134 80.342 133.6 79.3772 133.6 78.3711C133.6 77.365 134 76.4002 134.711 75.6888C135.423 74.9774 136.387 74.5778 137.393 74.5778H306.696C307.704 74.5778 308.67 74.9779 309.382 75.6902C310.094 76.4025 310.494 77.3685 310.494 78.3759C310.494 79.3832 310.094 80.3492 309.382 81.0615C308.67 81.7738 307.704 82.1739 306.696 82.1739V82.1645Z" fill="#E2EAFF"/>
<path d="M355.507 299.188H53.0579C52.9472 299.188 52.8411 299.144 52.7628 299.065C52.6846 298.987 52.6406 298.881 52.6406 298.77V90.7431C52.6406 90.6323 52.6845 90.526 52.7627 90.4474C52.8409 90.3689 52.947 90.3245 53.0579 90.324H355.507C355.619 90.324 355.725 90.3681 355.804 90.4467C355.882 90.5254 355.927 90.632 355.927 90.7431V298.772C355.926 298.827 355.915 298.881 355.894 298.932C355.873 298.982 355.842 299.028 355.803 299.067C355.764 299.105 355.718 299.136 355.667 299.157C355.616 299.177 355.562 299.188 355.507 299.188ZM53.4771 298.353H355.088V91.1642H53.4771V298.353Z" fill="black"/>
<path d="M415.425 102.154H195.604C192.836 102.154 190.591 104.398 190.591 107.166V259.145C190.591 261.914 192.836 264.158 195.604 264.158H415.425C418.194 264.158 420.438 261.914 420.438 259.145V107.166C420.438 104.398 418.194 102.154 415.425 102.154Z" fill="white"/>
<path d="M340.982 264.575H196.283C194.661 264.572 193.107 263.925 191.962 262.777C190.816 261.628 190.173 260.073 190.174 258.451V107.855C190.173 106.233 190.816 104.677 191.962 103.528C193.107 102.38 194.661 101.733 196.283 101.729H414.746C416.368 101.733 417.922 102.38 419.068 103.528C420.214 104.677 420.857 106.233 420.857 107.855V216.212C420.85 216.318 420.803 216.417 420.725 216.49C420.647 216.563 420.545 216.603 420.439 216.603C420.332 216.603 420.23 216.563 420.152 216.49C420.075 216.417 420.028 216.318 420.021 216.212V107.861C420.021 106.46 419.466 105.117 418.477 104.125C417.488 103.133 416.146 102.574 414.746 102.571H196.283C194.883 102.574 193.541 103.133 192.552 104.125C191.563 105.117 191.008 106.46 191.008 107.861V258.457C191.008 259.857 191.563 261.201 192.552 262.192C193.541 263.184 194.883 263.743 196.283 263.746H340.982C341.093 263.746 341.199 263.79 341.277 263.869C341.356 263.947 341.4 264.053 341.4 264.164C341.4 264.274 341.356 264.38 341.277 264.459C341.199 264.537 341.093 264.581 340.982 264.581V264.575Z" fill="black"/>
<path d="M294.624 116.794H205.503V144.248H294.624V116.794Z" fill="white"/>
<path d="M294.624 144.666H205.503C205.392 144.665 205.286 144.621 205.208 144.543C205.13 144.465 205.086 144.359 205.085 144.248V116.794C205.085 116.683 205.129 116.577 205.208 116.498C205.286 116.42 205.392 116.375 205.503 116.375H294.624C294.679 116.375 294.733 116.386 294.784 116.407C294.835 116.428 294.881 116.459 294.919 116.498C294.958 116.537 294.989 116.583 295.01 116.634C295.031 116.685 295.041 116.739 295.041 116.794V144.248C295.041 144.359 294.997 144.465 294.919 144.543C294.84 144.622 294.734 144.666 294.624 144.666ZM205.922 143.829H294.205V117.211H205.922V143.829Z" fill="black"/>
<path d="M405.526 116.794H308.189V179.014H405.526V116.794Z" fill="#CCF7FF"/>
<path d="M405.526 187.018H308.189V249.239H405.526V187.018Z" fill="white"/>
<path d="M405.526 249.656H308.189C308.134 249.656 308.079 249.646 308.028 249.625C307.978 249.604 307.931 249.573 307.892 249.535C307.853 249.496 307.823 249.45 307.801 249.399C307.78 249.348 307.77 249.294 307.77 249.239V187.028C307.77 186.973 307.78 186.918 307.801 186.868C307.823 186.817 307.853 186.771 307.892 186.732C307.931 186.693 307.978 186.663 308.028 186.642C308.079 186.621 308.134 186.61 308.189 186.611H405.526C405.581 186.61 405.635 186.621 405.686 186.642C405.737 186.663 405.783 186.693 405.822 186.732C405.86 186.771 405.891 186.817 405.912 186.868C405.933 186.919 405.944 186.973 405.943 187.028V249.239C405.944 249.294 405.933 249.348 405.912 249.399C405.891 249.45 405.86 249.496 405.822 249.534C405.783 249.573 405.737 249.604 405.686 249.625C405.635 249.646 405.581 249.656 405.526 249.656ZM308.606 248.822H405.109V187.436H308.606V248.822Z" fill="black"/>
<path d="M294.624 151.905H205.503V166.887H294.624V151.905Z" fill="white"/>
<path d="M294.624 167.306H205.503C205.392 167.306 205.286 167.262 205.208 167.183C205.13 167.105 205.086 166.999 205.085 166.889V151.905C205.085 151.795 205.129 151.688 205.208 151.61C205.286 151.532 205.392 151.488 205.503 151.488H294.624C294.679 151.488 294.733 151.498 294.784 151.519C294.834 151.54 294.88 151.571 294.919 151.61C294.958 151.648 294.989 151.694 295.01 151.745C295.031 151.796 295.041 151.85 295.041 151.905V166.889C295.041 166.944 295.03 166.998 295.009 167.049C294.988 167.099 294.957 167.145 294.919 167.184C294.88 167.223 294.834 167.253 294.783 167.274C294.733 167.295 294.678 167.306 294.624 167.306ZM205.922 166.47H294.205V152.322H205.922V166.47Z" fill="black"/>
<path d="M294.624 178.039H205.503V249.518H294.624V178.039Z" fill="white"/>
<path d="M294.624 249.935H205.503C205.448 249.935 205.394 249.924 205.343 249.903C205.292 249.882 205.246 249.851 205.208 249.813C205.169 249.774 205.138 249.728 205.117 249.677C205.096 249.627 205.085 249.572 205.085 249.518V178.039C205.085 177.985 205.096 177.93 205.117 177.88C205.138 177.829 205.169 177.783 205.208 177.744C205.246 177.706 205.292 177.675 205.343 177.654C205.394 177.633 205.448 177.622 205.503 177.622H294.624C294.679 177.622 294.733 177.633 294.784 177.653C294.834 177.674 294.88 177.705 294.919 177.744C294.958 177.783 294.989 177.829 295.01 177.879C295.031 177.93 295.041 177.985 295.041 178.039V249.518C295.041 249.572 295.031 249.627 295.01 249.678C294.989 249.728 294.958 249.774 294.919 249.813C294.88 249.852 294.834 249.883 294.784 249.904C294.733 249.924 294.679 249.935 294.624 249.935ZM205.922 249.1H294.205V178.457H205.922V249.1Z" fill="black"/>
<path d="M264.806 228.893C264.723 228.893 264.642 228.869 264.573 228.823C264.505 228.777 264.451 228.712 264.419 228.636C264.387 228.559 264.379 228.475 264.395 228.394C264.412 228.313 264.452 228.238 264.51 228.18L278.986 213.705L264.506 199.233C264.435 199.153 264.398 199.049 264.401 198.942C264.404 198.835 264.448 198.734 264.523 198.658C264.599 198.582 264.701 198.539 264.807 198.535C264.914 198.532 265.018 198.57 265.098 198.641L279.868 213.412C279.946 213.491 279.99 213.597 279.99 213.707C279.99 213.818 279.946 213.924 279.868 214.002L265.098 228.774C265.02 228.85 264.915 228.893 264.806 228.893Z" fill="black"/>
<path d="M233.978 228.893C233.923 228.893 233.868 228.883 233.818 228.862C233.767 228.841 233.721 228.811 233.682 228.772L218.907 214C218.829 213.922 218.785 213.816 218.785 213.706C218.785 213.595 218.829 213.489 218.907 213.411L233.676 198.639C233.755 198.561 233.862 198.516 233.973 198.516C234.084 198.516 234.191 198.561 234.27 198.639C234.349 198.718 234.393 198.825 234.393 198.936C234.393 199.047 234.349 199.154 234.27 199.233L219.798 213.705L234.27 228.18C234.328 228.238 234.368 228.313 234.385 228.394C234.401 228.475 234.393 228.559 234.361 228.635C234.33 228.711 234.276 228.777 234.208 228.823C234.139 228.869 234.058 228.893 233.976 228.893H233.978Z" fill="black"/>
<path d="M241.523 229.254C241.457 229.253 241.392 229.238 241.333 229.208C241.283 229.184 241.237 229.15 241.2 229.108C241.163 229.066 241.135 229.017 241.117 228.964C241.099 228.911 241.093 228.855 241.097 228.799C241.102 228.743 241.117 228.689 241.144 228.639L256.541 198.378C256.566 198.329 256.6 198.285 256.642 198.249C256.683 198.214 256.732 198.187 256.784 198.17C256.836 198.153 256.891 198.146 256.946 198.15C257.001 198.155 257.054 198.17 257.103 198.195C257.152 198.219 257.196 198.254 257.231 198.295C257.267 198.337 257.294 198.386 257.311 198.438C257.328 198.49 257.335 198.545 257.33 198.6C257.326 198.655 257.311 198.708 257.286 198.757L241.895 229.026C241.86 229.094 241.806 229.152 241.741 229.192C241.675 229.232 241.6 229.254 241.523 229.254Z" fill="black"/>
<path d="M497.743 116.335H441.189C439.376 116.335 437.906 117.805 437.906 119.618V176.19C437.906 178.003 439.376 179.473 441.189 179.473H497.743C499.556 179.473 501.026 178.003 501.026 176.19V119.618C501.026 117.805 499.556 116.335 497.743 116.335Z" fill="white"/>
<path d="M497.741 179.887H441.197C440.216 179.886 439.275 179.496 438.581 178.802C437.887 178.108 437.496 177.168 437.495 176.186V119.618C437.496 118.637 437.887 117.696 438.581 117.002C439.275 116.308 440.215 115.917 441.197 115.916H497.748C498.73 115.917 499.67 116.308 500.364 117.002C501.058 117.696 501.449 118.637 501.451 119.618V176.19C501.448 177.172 501.056 178.113 500.36 178.806C499.665 179.499 498.723 179.888 497.741 179.887ZM441.197 116.752C440.437 116.753 439.709 117.055 439.172 117.593C438.634 118.13 438.332 118.858 438.331 119.618V176.19C438.332 176.95 438.634 177.678 439.172 178.216C439.709 178.753 440.437 179.055 441.197 179.056H497.748C498.508 179.055 499.236 178.753 499.774 178.216C500.311 177.678 500.613 176.95 500.614 176.19V119.618C500.613 118.858 500.311 118.13 499.774 117.593C499.236 117.055 498.508 116.753 497.748 116.752H441.197Z" fill="black"/>
<path d="M494.926 161.204C494.975 161.323 495.02 161.433 495.061 161.535C494.682 161.517 494.182 161.501 493.579 161.487C492.132 161.455 490.069 161.435 487.597 161.425C482.653 161.404 476.061 161.419 469.47 161.45C462.88 161.481 456.289 161.526 451.346 161.564C448.875 161.583 446.816 161.6 445.374 161.612C444.739 161.618 444.224 161.622 443.846 161.625C443.989 161.264 444.186 160.775 444.428 160.199C444.961 158.93 445.709 157.241 446.569 155.555C447.431 153.864 448.398 152.196 449.365 150.957C449.849 150.338 450.32 149.843 450.764 149.507C451.213 149.168 451.591 149.023 451.898 149.023C452.62 149.023 453.221 149.39 453.793 150.048C454.374 150.716 454.871 151.62 455.39 152.587C455.414 152.631 455.437 152.676 455.461 152.72C455.945 153.622 456.454 154.571 457.052 155.299C457.684 156.07 458.485 156.678 459.551 156.678C460.212 156.678 460.789 156.211 461.275 155.655C461.784 155.074 462.307 154.263 462.846 153.326C463.388 152.385 463.962 151.29 464.569 150.129L464.639 149.995C465.227 148.87 465.847 147.683 466.508 146.496C467.885 144.023 469.419 141.588 471.153 139.775C472.889 137.96 474.769 136.828 476.841 136.828C478.883 136.828 481.076 138.295 483.266 140.695C485.434 143.072 487.503 146.259 489.302 149.47C491.099 152.676 492.616 155.885 493.684 158.295C494.217 159.499 494.639 160.502 494.926 161.204Z" fill="#7E34FF" stroke="white"/>
<path d="M457.257 140.279C459.449 140.275 461.222 138.494 461.218 136.302C461.214 134.109 459.434 132.335 457.242 132.34C455.051 132.344 453.278 134.125 453.282 136.317C453.286 138.509 455.066 140.283 457.257 140.279Z" fill="white"/>
<path d="M457.249 140.709C456.381 140.709 455.533 140.452 454.812 139.97C454.09 139.488 453.528 138.803 453.196 138.001C452.864 137.199 452.777 136.317 452.946 135.466C453.115 134.615 453.533 133.834 454.147 133.22C454.76 132.606 455.542 132.189 456.393 132.019C457.244 131.85 458.126 131.937 458.928 132.269C459.729 132.601 460.414 133.163 460.896 133.885C461.379 134.606 461.636 135.454 461.636 136.322C461.635 137.485 461.172 138.601 460.35 139.423C459.527 140.246 458.412 140.708 457.249 140.709ZM457.249 132.77C456.546 132.769 455.859 132.977 455.275 133.367C454.69 133.757 454.235 134.312 453.965 134.961C453.696 135.61 453.626 136.325 453.763 137.014C453.899 137.703 454.238 138.336 454.734 138.833C455.231 139.33 455.864 139.669 456.553 139.806C457.242 139.943 457.957 139.873 458.606 139.604C459.255 139.335 459.81 138.88 460.201 138.296C460.591 137.712 460.799 137.025 460.799 136.322C460.798 135.381 460.424 134.478 459.758 133.812C459.093 133.146 458.19 132.771 457.249 132.77Z" fill="black"/>
<path d="M432.093 144.798H376.401C376.346 144.798 376.292 144.788 376.241 144.767C376.191 144.746 376.145 144.715 376.106 144.676C376.067 144.637 376.037 144.591 376.016 144.541C375.995 144.49 375.984 144.436 375.984 144.381C375.984 144.326 375.995 144.272 376.016 144.221C376.037 144.171 376.067 144.125 376.106 144.086C376.145 144.047 376.191 144.017 376.241 143.996C376.292 143.975 376.346 143.964 376.401 143.964H432.093C432.204 143.964 432.31 144.008 432.388 144.086C432.467 144.164 432.51 144.27 432.51 144.381C432.51 144.492 432.467 144.598 432.388 144.676C432.31 144.754 432.204 144.798 432.093 144.798Z" fill="black"/>
<path d="M158.172 228.675C161.303 228.67 163.837 226.128 163.833 222.996C163.829 219.864 161.287 217.328 158.156 217.333C155.025 217.337 152.49 219.879 152.495 223.012C152.499 226.144 155.041 228.679 158.172 228.675Z" fill="#E2EAFF"/>
<path d="M158.171 212.124C161.302 212.12 163.837 209.577 163.833 206.445C163.828 203.313 161.286 200.778 158.155 200.782C155.024 200.787 152.49 203.329 152.494 206.461C152.499 209.593 155.04 212.129 158.171 212.124Z" fill="#E2EAFF"/>
<path d="M158.169 195.576C161.3 195.572 163.834 193.029 163.83 189.897C163.826 186.765 161.284 184.229 158.153 184.234C155.022 184.238 152.487 186.781 152.492 189.913C152.496 193.045 155.038 195.58 158.169 195.576Z" fill="#E2EAFF"/>
<path d="M158.137 176.257C158.083 176.257 158.028 176.246 157.978 176.225C157.927 176.204 157.881 176.174 157.842 176.135C157.803 176.096 157.772 176.05 157.751 175.999C157.731 175.949 157.72 175.894 157.72 175.839V132.66C157.72 132.605 157.731 132.55 157.751 132.499C157.772 132.449 157.803 132.402 157.842 132.363C157.881 132.324 157.927 132.294 157.977 132.272C158.028 132.251 158.083 132.24 158.137 132.24H211.51C211.616 132.248 211.715 132.295 211.788 132.372C211.861 132.45 211.901 132.552 211.901 132.659C211.901 132.765 211.861 132.867 211.788 132.945C211.715 133.023 211.616 133.07 211.51 133.077H158.555V175.847C158.553 175.956 158.508 176.06 158.43 176.137C158.352 176.214 158.247 176.257 158.137 176.257Z" fill="black"/>
<path d="M469.71 202.689C472.841 202.689 475.379 200.15 475.379 197.018C475.379 193.886 472.841 191.347 469.71 191.347C466.579 191.347 464.041 193.886 464.041 197.018C464.041 200.15 466.579 202.689 469.71 202.689Z" fill="#E2EAFF"/>
<path d="M330.828 339.669C330.828 342.8 333.367 345.338 336.499 345.338C339.631 345.338 342.17 342.8 342.17 339.669C342.17 336.538 339.631 334 336.499 334C333.367 334 330.828 336.538 330.828 339.669Z" fill="#E2EAFF"/>
<path d="M469.71 219.241C472.841 219.241 475.379 216.702 475.379 213.57C475.379 210.438 472.841 207.899 469.71 207.899C466.579 207.899 464.041 210.438 464.041 213.57C464.041 216.702 466.579 219.241 469.71 219.241Z" fill="#E2EAFF"/>
<path d="M314.276 339.669C314.276 342.8 316.815 345.338 319.947 345.338C323.079 345.338 325.618 342.8 325.618 339.669C325.618 336.538 323.079 334 319.947 334C316.815 334 314.276 336.538 314.276 339.669Z" fill="#E2EAFF"/>
<path d="M469.71 235.791C472.841 235.791 475.379 233.252 475.379 230.12C475.379 226.988 472.841 224.449 469.71 224.449C466.579 224.449 464.041 226.988 464.041 230.12C464.041 233.252 466.579 235.791 469.71 235.791Z" fill="#E2EAFF"/>
<path d="M297.726 339.669C297.726 342.8 300.265 345.338 303.397 345.338C306.529 345.338 309.068 342.8 309.068 339.669C309.068 336.538 306.529 334 303.397 334C300.265 334 297.726 336.538 297.726 339.669Z" fill="#7E34FF"/>
<path d="M469.725 276.983H443.118C443.012 276.976 442.913 276.929 442.841 276.851C442.768 276.774 442.728 276.671 442.728 276.565C442.728 276.459 442.768 276.357 442.841 276.279C442.913 276.201 443.012 276.154 443.118 276.147H469.308V244.196C469.315 244.089 469.362 243.99 469.44 243.918C469.517 243.845 469.62 243.805 469.726 243.805C469.832 243.805 469.935 243.845 470.012 243.918C470.09 243.99 470.137 244.089 470.144 244.196V276.564C470.144 276.619 470.133 276.674 470.112 276.725C470.091 276.775 470.06 276.822 470.021 276.861C469.983 276.9 469.936 276.93 469.885 276.951C469.835 276.973 469.78 276.983 469.725 276.983Z" fill="black"/>
<path d="M86.7256 127H119.19L116.339 160.256L102.958 163.859L89.6551 160.177L86.7256 127Z" fill="#E2EAFF"/>
<path d="M89.6553 130.326H116.26L113.924 157.58L102.958 160.532L92.0556 157.515L89.6553 130.326Z" fill="white"/>
<path d="M92.7036 133.786H113.211L112.867 137.809L97.3755 137.808L97.6915 141.846L112.514 141.92L111.411 154.795L102.957 157.071L94.5542 154.746L93.9644 148.066L98.2066 148.062L98.4837 151.229L102.957 152.417L107.431 151.268L107.827 146.003L93.7923 146.124L92.7036 133.786Z" fill="#E2EAFF"/>
<path d="M200.202 256.797C201.035 256.797 201.711 256.121 201.711 255.287C201.711 254.453 201.035 253.777 200.202 253.777C199.368 253.777 198.692 254.453 198.692 255.287C198.692 256.121 199.368 256.797 200.202 256.797Z" fill="#5479F7"/>
<path d="M96.1488 305C96.2046 305 96.2598 305.01 96.3113 305.031C96.3629 305.051 96.4098 305.081 96.4493 305.119C96.4888 305.157 96.5201 305.202 96.5415 305.252C96.5629 305.302 96.5739 305.355 96.5739 305.409V336.246H288.24C288.348 336.253 288.449 336.299 288.522 336.376C288.596 336.452 288.637 336.552 288.637 336.656C288.637 336.76 288.596 336.861 288.522 336.937C288.449 337.013 288.348 337.059 288.24 337.066H96.1488C96.0365 337.066 95.9288 337.022 95.8495 336.945C95.7702 336.868 95.7258 336.764 95.7258 336.655V305.415C95.725 305.36 95.7354 305.307 95.7563 305.256C95.7772 305.206 95.8083 305.16 95.8476 305.122C95.887 305.083 95.9339 305.053 95.9856 305.032C96.0373 305.011 96.0928 305 96.1488 305Z" fill="black"/>
<path d="M74.7056 120V105.1H75.7056V111.96H84.5056V105.1H85.5056V120H84.5056V112.86H75.7056V120H74.7056ZM96.1512 120V106H91.9312V105.1H101.331V106H97.1512V120H96.1512ZM107.745 120V105.1H108.545L113.925 113.32L119.345 105.1H120.145V120H119.145V107.1L113.965 115.08H113.925L108.745 107.16V120H107.745ZM128.112 120V105.1H129.112V119.1H135.912V120H128.112Z" fill="black"/>
<path d="M231.326 138.24C230.312 138.24 229.379 138.053 228.526 137.68C227.672 137.293 226.926 136.753 226.286 136.06C225.646 135.367 225.146 134.553 224.786 133.62C224.439 132.687 224.266 131.66 224.266 130.54C224.266 129.433 224.439 128.413 224.786 127.48C225.146 126.533 225.646 125.72 226.286 125.04C226.926 124.347 227.672 123.813 228.526 123.44C229.379 123.053 230.312 122.86 231.326 122.86C232.312 122.86 233.199 123.047 233.986 123.42C234.772 123.78 235.439 124.24 235.986 124.8C236.532 125.347 236.926 125.907 237.166 126.48L236.226 126.9C235.786 125.967 235.139 125.22 234.286 124.66C233.446 124.1 232.459 123.82 231.326 123.82C230.139 123.82 229.086 124.107 228.166 124.68C227.259 125.24 226.546 126.027 226.026 127.04C225.519 128.04 225.266 129.207 225.266 130.54C225.266 131.873 225.519 133.047 226.026 134.06C226.546 135.073 227.259 135.867 228.166 136.44C229.086 137 230.139 137.28 231.326 137.28C232.459 137.28 233.446 137 234.286 136.44C235.139 135.88 235.786 135.133 236.226 134.2L237.166 134.62C236.926 135.193 236.532 135.76 235.986 136.32C235.439 136.867 234.772 137.327 233.986 137.7C233.199 138.06 232.312 138.24 231.326 138.24ZM249.127 138.24C248.181 138.24 247.341 138.067 246.607 137.72C245.887 137.36 245.287 136.893 244.807 136.32C244.341 135.747 244.007 135.147 243.807 134.52L244.707 134.24C245.094 135.253 245.661 136.033 246.407 136.58C247.154 137.113 248.054 137.38 249.107 137.38C249.814 137.38 250.441 137.26 250.987 137.02C251.534 136.767 251.967 136.413 252.287 135.96C252.607 135.507 252.767 134.96 252.767 134.32C252.767 133.507 252.527 132.88 252.047 132.44C251.581 131.987 251.034 131.673 250.407 131.5L247.627 130.7C246.481 130.367 245.661 129.847 245.167 129.14C244.674 128.433 244.427 127.633 244.427 126.74C244.427 125.967 244.614 125.293 244.987 124.72C245.361 124.133 245.867 123.68 246.507 123.36C247.147 123.027 247.867 122.86 248.667 122.86C249.494 122.86 250.234 123.027 250.887 123.36C251.554 123.68 252.114 124.107 252.567 124.64C253.034 125.16 253.361 125.727 253.547 126.34L252.647 126.62C252.301 125.673 251.774 124.953 251.067 124.46C250.361 123.967 249.567 123.72 248.687 123.72C248.074 123.72 247.514 123.847 247.007 124.1C246.514 124.34 246.121 124.687 245.827 125.14C245.534 125.593 245.387 126.133 245.387 126.76C245.387 127.493 245.581 128.1 245.967 128.58C246.354 129.06 247.054 129.453 248.067 129.76L250.587 130.52C251.561 130.813 252.327 131.293 252.887 131.96C253.447 132.613 253.727 133.407 253.727 134.34C253.727 135.113 253.527 135.793 253.127 136.38C252.727 136.953 252.181 137.407 251.487 137.74C250.794 138.073 250.007 138.24 249.127 138.24ZM265.901 138.24C264.954 138.24 264.114 138.067 263.381 137.72C262.661 137.36 262.061 136.893 261.581 136.32C261.114 135.747 260.781 135.147 260.581 134.52L261.481 134.24C261.867 135.253 262.434 136.033 263.181 136.58C263.927 137.113 264.827 137.38 265.881 137.38C266.587 137.38 267.214 137.26 267.761 137.02C268.307 136.767 268.741 136.413 269.061 135.96C269.381 135.507 269.541 134.96 269.541 134.32C269.541 133.507 269.301 132.88 268.821 132.44C268.354 131.987 267.807 131.673 267.181 131.5L264.401 130.7C263.254 130.367 262.434 129.847 261.941 129.14C261.447 128.433 261.201 127.633 261.201 126.74C261.201 125.967 261.387 125.293 261.761 124.72C262.134 124.133 262.641 123.68 263.281 123.36C263.921 123.027 264.641 122.86 265.441 122.86C266.267 122.86 267.007 123.027 267.661 123.36C268.327 123.68 268.887 124.107 269.341 124.64C269.807 125.16 270.134 125.727 270.321 126.34L269.421 126.62C269.074 125.673 268.547 124.953 267.841 124.46C267.134 123.967 266.341 123.72 265.461 123.72C264.847 123.72 264.287 123.847 263.781 124.1C263.287 124.34 262.894 124.687 262.601 125.14C262.307 125.593 262.161 126.133 262.161 126.76C262.161 127.493 262.354 128.1 262.741 128.58C263.127 129.06 263.827 129.453 264.841 129.76L267.361 130.52C268.334 130.813 269.101 131.293 269.661 131.96C270.221 132.613 270.501 133.407 270.501 134.34C270.501 135.113 270.301 135.793 269.901 136.38C269.501 136.953 268.954 137.407 268.261 137.74C267.567 138.073 266.781 138.24 265.901 138.24Z" fill="black"/>
</g>
<defs>
<clipPath id="clip0_225_2901">
<rect width="555.484" height="410" fill="white" transform="translate(0.725586)"/>
</clipPath>
</defs>
</svg>
