<svg width="556" height="410" viewBox="0 0 556 410" fill="none" xmlns="http://www.w3.org/2000/svg">
<g clip-path="url(#clip0_404_1411)">
<rect width="555.484" height="410" fill="black"/>
<g opacity="0.3">
<rect x="330.645" y="52.9033" width="119.852" height="51.365" rx="25.6825" fill="#EEEEEE"/>
<rect x="421.39" y="179.604" width="119.852" height="51.365" rx="25.6825" fill="#EEEEEE"/>
<rect x="330.645" y="116.254" width="210.596" height="51.365" rx="25.6825" fill="#EEEEEE"/>
</g>
<path d="M471.774 294.5C471.774 308.851 459.919 320.5 445.274 320.5C430.63 320.5 418.774 308.851 418.774 294.5C418.774 280.149 430.63 268.5 445.274 268.5C459.919 268.5 471.774 280.149 471.774 294.5Z" stroke="white"/>
<path d="M435.641 302.187C434.874 302.187 434.194 302.016 433.603 301.673C433.023 301.331 432.566 300.854 432.234 300.242C431.913 299.63 431.752 298.915 431.752 298.096V290.411H432.53V298.158C432.53 298.811 432.66 299.387 432.919 299.884C433.178 300.382 433.541 300.776 434.008 301.067C434.485 301.347 435.029 301.487 435.641 301.487C436.263 301.487 436.808 301.347 437.274 301.067C437.741 300.776 438.104 300.382 438.363 299.884C438.623 299.387 438.752 298.811 438.752 298.158V290.411H439.53V298.096C439.53 298.915 439.364 299.63 439.032 300.242C438.711 300.854 438.26 301.331 437.679 301.673C437.098 302.016 436.419 302.187 435.641 302.187ZM444.468 302L448.201 296.058L444.623 290.411H445.588L448.699 295.358L451.81 290.411H452.759L449.181 296.058L452.946 302H451.981L448.699 296.758L445.432 302H444.468ZM457.937 302V290.411H458.715V302H457.937Z" fill="white"/>
<path d="M402.989 354H136.56C136.484 354 136.412 353.955 136.358 353.875C136.304 353.795 136.274 353.686 136.274 353.573V27.4267C136.274 27.3706 136.282 27.315 136.296 27.2631C136.31 27.2112 136.331 27.1641 136.358 27.1244C136.384 27.0847 136.416 27.0533 136.45 27.032C136.485 27.0106 136.522 26.9997 136.56 27H402.989C403.065 27 403.137 27.045 403.191 27.125C403.244 27.205 403.274 27.3135 403.274 27.4267V353.573C403.274 353.686 403.244 353.795 403.19 353.874C403.137 353.954 403.065 353.999 402.989 354ZM136.845 353.147H402.704V27.8533H136.845V353.147Z" fill="white"/>
<path d="M389.274 44H277.274V136H389.274V44Z" fill="#14317C"/>
<path d="M262.837 137H258.537C258.423 137 258.314 136.955 258.233 136.875C258.152 136.795 258.107 136.686 258.107 136.573C258.107 136.46 258.152 136.351 258.233 136.271C258.314 136.191 258.423 136.146 258.537 136.146H262.837C262.893 136.146 262.949 136.157 263.001 136.178C263.053 136.2 263.101 136.231 263.141 136.271C263.181 136.311 263.212 136.358 263.234 136.409C263.255 136.461 263.267 136.517 263.267 136.573C263.267 136.629 263.255 136.685 263.234 136.736C263.212 136.788 263.181 136.835 263.141 136.875C263.101 136.915 263.053 136.946 263.001 136.967C262.949 136.989 262.893 137 262.837 137ZM254.237 137H249.938C249.824 137 249.714 136.955 249.633 136.875C249.553 136.795 249.508 136.686 249.508 136.573C249.508 136.46 249.553 136.351 249.633 136.271C249.714 136.191 249.824 136.146 249.938 136.146H254.237C254.294 136.146 254.35 136.157 254.402 136.178C254.454 136.2 254.501 136.231 254.541 136.271C254.581 136.311 254.613 136.358 254.634 136.409C254.656 136.461 254.667 136.517 254.667 136.573C254.667 136.629 254.656 136.685 254.634 136.736C254.613 136.788 254.581 136.835 254.541 136.875C254.501 136.915 254.454 136.946 254.402 136.967C254.35 136.989 254.294 137 254.237 137ZM245.638 137H241.338C241.224 137 241.115 136.955 241.034 136.875C240.953 136.795 240.908 136.686 240.908 136.573C240.908 136.46 240.953 136.351 241.034 136.271C241.115 136.191 241.224 136.146 241.338 136.146H245.638C245.752 136.146 245.861 136.191 245.942 136.271C246.023 136.351 246.068 136.46 246.068 136.573C246.068 136.686 246.023 136.795 245.942 136.875C245.861 136.955 245.752 137 245.638 137ZM237.038 137H232.739C232.625 137 232.515 136.955 232.435 136.875C232.354 136.795 232.309 136.686 232.309 136.573C232.309 136.46 232.354 136.351 232.435 136.271C232.515 136.191 232.625 136.146 232.739 136.146H237.038C237.152 136.146 237.262 136.191 237.342 136.271C237.423 136.351 237.468 136.46 237.468 136.573C237.468 136.686 237.423 136.795 237.342 136.875C237.262 136.955 237.152 137 237.038 137ZM228.439 137H224.139C224.025 137 223.916 136.955 223.835 136.875C223.755 136.795 223.709 136.686 223.709 136.573C223.709 136.46 223.755 136.351 223.835 136.271C223.916 136.191 224.025 136.146 224.139 136.146H228.439C228.553 136.146 228.662 136.191 228.743 136.271C228.824 136.351 228.869 136.46 228.869 136.573C228.869 136.686 228.824 136.795 228.743 136.875C228.662 136.955 228.553 137 228.439 137ZM219.84 137H215.54C215.426 137 215.317 136.955 215.236 136.875C215.155 136.795 215.11 136.686 215.11 136.573C215.11 136.46 215.155 136.351 215.236 136.271C215.317 136.191 215.426 136.146 215.54 136.146H219.84C219.954 136.146 220.063 136.191 220.144 136.271C220.224 136.351 220.27 136.46 220.27 136.573C220.27 136.686 220.224 136.795 220.144 136.875C220.063 136.955 219.954 137 219.84 137ZM211.24 137H206.941C206.827 137 206.717 136.955 206.637 136.875C206.556 136.795 206.511 136.686 206.511 136.573C206.511 136.46 206.556 136.351 206.637 136.271C206.717 136.191 206.827 136.146 206.941 136.146H211.24C211.354 136.146 211.464 136.191 211.544 136.271C211.625 136.351 211.67 136.46 211.67 136.573C211.67 136.686 211.625 136.795 211.544 136.875C211.464 136.955 211.354 137 211.24 137ZM202.641 137H198.341C198.227 137 198.118 136.955 198.037 136.875C197.956 136.795 197.911 136.686 197.911 136.573C197.911 136.46 197.956 136.351 198.037 136.271C198.118 136.191 198.227 136.146 198.341 136.146H202.641C202.755 136.146 202.864 136.191 202.945 136.271C203.026 136.351 203.071 136.46 203.071 136.573C203.071 136.686 203.026 136.795 202.945 136.875C202.864 136.955 202.755 137 202.641 137ZM194.041 137H189.742C189.628 137 189.518 136.955 189.438 136.875C189.357 136.795 189.312 136.686 189.312 136.573C189.312 136.46 189.357 136.351 189.438 136.271C189.518 136.191 189.628 136.146 189.742 136.146H194.041C194.155 136.146 194.265 136.191 194.345 136.271C194.426 136.351 194.471 136.46 194.471 136.573C194.471 136.686 194.426 136.795 194.345 136.875C194.265 136.955 194.155 137 194.041 137ZM185.442 137H181.142C181.028 137 180.919 136.955 180.838 136.875C180.758 136.795 180.712 136.686 180.712 136.573C180.712 136.46 180.758 136.351 180.838 136.271C180.919 136.191 181.028 136.146 181.142 136.146H185.442C185.556 136.146 185.665 136.191 185.746 136.271C185.827 136.351 185.872 136.46 185.872 136.573C185.872 136.686 185.827 136.795 185.746 136.875C185.665 136.955 185.556 137 185.442 137ZM176.843 137H172.543C172.429 137 172.32 136.955 172.239 136.875C172.158 136.795 172.113 136.686 172.113 136.573C172.113 136.46 172.158 136.351 172.239 136.271C172.32 136.191 172.429 136.146 172.543 136.146H176.843C176.957 136.146 177.066 136.191 177.147 136.271C177.227 136.351 177.273 136.46 177.273 136.573C177.273 136.686 177.227 136.795 177.147 136.875C177.066 136.955 176.957 137 176.843 137ZM168.243 137H163.944C163.83 137 163.72 136.955 163.64 136.875C163.559 136.795 163.514 136.686 163.514 136.573C163.514 136.46 163.559 136.351 163.64 136.271C163.72 136.191 163.83 136.146 163.944 136.146H168.243C168.357 136.146 168.467 136.191 168.547 136.271C168.628 136.351 168.673 136.46 168.673 136.573C168.673 136.686 168.628 136.795 168.547 136.875C168.467 136.955 168.357 137 168.243 137ZM159.644 137H155.344C155.23 137 155.121 136.955 155.04 136.875C154.959 136.795 154.914 136.686 154.914 136.573C154.914 136.46 154.959 136.351 155.04 136.271C155.121 136.191 155.23 136.146 155.344 136.146H159.644C159.758 136.146 159.867 136.191 159.948 136.271C160.029 136.351 160.074 136.46 160.074 136.573C160.074 136.686 160.029 136.795 159.948 136.875C159.867 136.955 159.758 137 159.644 137ZM151.044 137H150.704C150.591 136.999 150.481 136.954 150.401 136.874C150.32 136.794 150.275 136.686 150.274 136.573V132.671C150.274 132.557 150.32 132.449 150.4 132.369C150.481 132.289 150.59 132.244 150.704 132.244C150.818 132.244 150.928 132.289 151.008 132.369C151.089 132.449 151.134 132.557 151.134 132.671V136.15C151.242 136.164 151.341 136.219 151.41 136.303C151.478 136.386 151.513 136.493 151.506 136.601C151.498 136.709 151.45 136.81 151.371 136.884C151.291 136.958 151.187 137 151.078 137H151.044ZM262.811 135.591C262.697 135.59 262.588 135.545 262.508 135.465C262.427 135.385 262.382 135.277 262.381 135.163V130.892C262.381 130.779 262.427 130.67 262.507 130.59C262.588 130.51 262.697 130.465 262.811 130.465C262.925 130.465 263.035 130.51 263.115 130.59C263.196 130.67 263.241 130.779 263.241 130.892V135.163C263.241 135.272 263.2 135.377 263.124 135.457C263.049 135.536 262.946 135.584 262.837 135.591H262.811ZM150.704 128.829C150.59 128.829 150.481 128.784 150.4 128.703C150.32 128.623 150.274 128.515 150.274 128.401V124.13C150.274 124.074 150.286 124.019 150.307 123.967C150.329 123.915 150.36 123.868 150.4 123.828C150.44 123.789 150.488 123.757 150.54 123.736C150.592 123.714 150.648 123.703 150.704 123.703C150.761 123.703 150.817 123.714 150.869 123.736C150.921 123.757 150.969 123.789 151.008 123.828C151.048 123.868 151.08 123.915 151.102 123.967C151.123 124.019 151.134 124.074 151.134 124.13V128.401C151.135 128.458 151.124 128.513 151.102 128.565C151.081 128.617 151.049 128.664 151.009 128.704C150.969 128.744 150.922 128.775 150.869 128.797C150.817 128.818 150.761 128.829 150.704 128.829ZM262.844 127.05C262.731 127.05 262.622 127.005 262.541 126.925C262.46 126.845 262.415 126.736 262.414 126.623V122.352C262.414 122.239 262.46 122.13 262.54 122.05C262.621 121.97 262.73 121.925 262.844 121.925C262.958 121.925 263.068 121.97 263.148 122.05C263.229 122.13 263.274 122.239 263.274 122.352V126.623C263.274 126.68 263.263 126.736 263.241 126.788C263.219 126.841 263.186 126.888 263.146 126.928C263.105 126.968 263.057 126.999 263.004 127.02C262.951 127.041 262.894 127.051 262.837 127.05H262.844ZM150.704 120.288C150.591 120.288 150.481 120.243 150.401 120.163C150.32 120.083 150.275 119.974 150.274 119.861V115.59C150.274 115.534 150.286 115.478 150.307 115.427C150.329 115.375 150.36 115.328 150.4 115.288C150.44 115.248 150.488 115.217 150.54 115.195C150.592 115.174 150.648 115.163 150.704 115.163C150.761 115.163 150.817 115.174 150.869 115.195C150.921 115.217 150.969 115.248 151.008 115.288C151.048 115.328 151.08 115.375 151.102 115.427C151.123 115.478 151.134 115.534 151.134 115.59V119.861C151.134 119.974 151.089 120.083 151.008 120.163C150.928 120.243 150.818 120.288 150.704 120.288ZM262.844 118.51C262.731 118.509 262.622 118.464 262.541 118.384C262.46 118.304 262.415 118.196 262.414 118.083V113.812C262.414 113.698 262.46 113.59 262.54 113.51C262.621 113.43 262.73 113.385 262.844 113.385C262.958 113.385 263.068 113.43 263.148 113.51C263.229 113.59 263.274 113.698 263.274 113.812V118.083C263.274 118.14 263.263 118.196 263.241 118.248C263.219 118.3 263.186 118.348 263.146 118.388C263.105 118.427 263.057 118.459 263.004 118.48C262.951 118.501 262.894 118.511 262.837 118.51H262.844ZM150.704 111.748C150.591 111.747 150.481 111.702 150.401 111.622C150.32 111.542 150.275 111.434 150.274 111.321V107.05C150.274 106.994 150.286 106.938 150.307 106.886C150.329 106.834 150.36 106.787 150.4 106.748C150.44 106.708 150.488 106.677 150.54 106.655C150.592 106.634 150.648 106.623 150.704 106.623C150.761 106.623 150.817 106.634 150.869 106.655C150.921 106.677 150.969 106.708 151.008 106.748C151.048 106.787 151.08 106.834 151.102 106.886C151.123 106.938 151.134 106.994 151.134 107.05V111.321C151.134 111.434 151.089 111.543 151.008 111.623C150.928 111.703 150.818 111.748 150.704 111.748ZM262.844 109.968C262.731 109.968 262.622 109.923 262.541 109.843C262.461 109.764 262.415 109.655 262.414 109.542V105.271C262.414 105.158 262.46 105.049 262.54 104.969C262.621 104.889 262.73 104.844 262.844 104.844C262.958 104.844 263.068 104.889 263.148 104.969C263.229 105.049 263.274 105.158 263.274 105.271V109.542C263.274 109.599 263.263 109.655 263.241 109.707C263.219 109.76 263.186 109.807 263.146 109.847C263.105 109.886 263.056 109.917 263.003 109.938C262.95 109.959 262.894 109.969 262.837 109.968H262.844ZM150.704 103.208C150.591 103.207 150.481 103.162 150.401 103.082C150.32 103.002 150.275 102.894 150.274 102.78V98.5093C150.274 98.4533 150.286 98.3977 150.307 98.3459C150.329 98.2941 150.36 98.247 150.4 98.2073C150.44 98.1677 150.488 98.1362 150.54 98.1147C150.592 98.0933 150.648 98.0822 150.704 98.0822C150.761 98.0822 150.817 98.0933 150.869 98.1147C150.921 98.1362 150.969 98.1677 151.008 98.2073C151.048 98.247 151.08 98.2941 151.102 98.3459C151.123 98.3977 151.134 98.4533 151.134 98.5093V102.78C151.134 102.894 151.089 103.002 151.008 103.082C150.928 103.163 150.818 103.208 150.704 103.208ZM262.844 101.427C262.731 101.427 262.622 101.383 262.541 101.303C262.461 101.223 262.415 101.115 262.414 101.002V96.731C262.414 96.6177 262.46 96.5091 262.54 96.429C262.621 96.3489 262.73 96.3039 262.844 96.3039C262.958 96.3039 263.068 96.3489 263.148 96.429C263.229 96.5091 263.274 96.6177 263.274 96.731V101.002C263.274 101.059 263.263 101.115 263.241 101.167C263.219 101.219 263.186 101.267 263.146 101.306C263.105 101.346 263.056 101.377 263.003 101.398C262.95 101.419 262.894 101.429 262.837 101.427H262.844ZM150.704 94.6673C150.591 94.6668 150.481 94.6216 150.401 94.5416C150.32 94.4616 150.275 94.3533 150.274 94.2402V89.969C150.274 89.9129 150.286 89.8574 150.307 89.8056C150.329 89.7538 150.36 89.7067 150.4 89.667C150.44 89.6273 150.488 89.5959 150.54 89.5744C150.592 89.553 150.648 89.5419 150.704 89.5419C150.761 89.5419 150.817 89.553 150.869 89.5744C150.921 89.5959 150.969 89.6273 151.008 89.667C151.048 89.7067 151.08 89.7538 151.102 89.8056C151.123 89.8574 151.134 89.9129 151.134 89.969V94.2402C151.134 94.3534 151.089 94.4621 151.008 94.5422C150.928 94.6223 150.818 94.6673 150.704 94.6673ZM262.844 92.887C262.73 92.887 262.621 92.842 262.54 92.7619C262.46 92.6818 262.414 92.5731 262.414 92.4599V88.1887C262.414 88.0755 262.46 87.9668 262.54 87.8867C262.621 87.8066 262.73 87.7616 262.844 87.7616C262.958 87.7616 263.068 87.8066 263.148 87.8867C263.229 87.9668 263.274 88.0755 263.274 88.1887V92.4599C263.275 92.5167 263.263 92.573 263.241 92.6255C263.219 92.6779 263.187 92.7254 263.146 92.7653C263.106 92.8051 263.057 92.8364 263.004 92.8573C262.951 92.8782 262.894 92.8883 262.837 92.887H262.844ZM150.704 86.1269C150.591 86.1264 150.481 86.0813 150.401 86.0013C150.32 85.9213 150.275 85.813 150.274 85.6998V81.4287C150.274 81.3726 150.286 81.3171 150.307 81.2652C150.329 81.2134 150.36 81.1663 150.4 81.1267C150.44 81.087 150.488 81.0556 150.54 81.0341C150.592 81.0126 150.648 81.0016 150.704 81.0016C150.761 81.0016 150.817 81.0126 150.869 81.0341C150.921 81.0556 150.969 81.087 151.008 81.1267C151.048 81.1663 151.08 81.2134 151.102 81.2652C151.123 81.3171 151.134 81.3726 151.134 81.4287V85.6998C151.134 85.8131 151.089 85.9217 151.008 86.0018C150.928 86.0819 150.818 86.1269 150.704 86.1269ZM262.844 84.3467C262.73 84.3467 262.621 84.3017 262.54 84.2216C262.46 84.1415 262.414 84.0328 262.414 83.9195V79.6484C262.414 79.5351 262.46 79.4265 262.54 79.3464C262.621 79.2663 262.73 79.2213 262.844 79.2213C262.958 79.2213 263.068 79.2663 263.148 79.3464C263.229 79.4265 263.274 79.5351 263.274 79.6484V83.9195C263.275 83.9764 263.263 84.0327 263.241 84.0851C263.219 84.1376 263.187 84.1851 263.146 84.2249C263.106 84.2648 263.057 84.296 263.004 84.3169C262.951 84.3379 262.894 84.348 262.837 84.3467H262.844ZM150.704 77.5866C150.591 77.5861 150.481 77.5409 150.401 77.461C150.32 77.381 150.275 77.2726 150.274 77.1595V72.8884C150.274 72.8323 150.286 72.7767 150.307 72.7249C150.329 72.6731 150.36 72.626 150.4 72.5864C150.44 72.5467 150.488 72.5152 150.54 72.4938C150.592 72.4723 150.648 72.4613 150.704 72.4613C150.761 72.4613 150.817 72.4723 150.869 72.4938C150.921 72.5152 150.969 72.5467 151.008 72.5864C151.048 72.626 151.08 72.6731 151.102 72.7249C151.123 72.7767 151.134 72.8323 151.134 72.8884V77.1595C151.134 77.2728 151.089 77.3814 151.008 77.4615C150.928 77.5416 150.818 77.5866 150.704 77.5866ZM262.844 75.8063C262.73 75.8063 262.621 75.7613 262.54 75.6812C262.46 75.6011 262.414 75.4925 262.414 75.3792V71.1081C262.414 70.9948 262.46 70.8862 262.54 70.8061C262.621 70.726 262.73 70.681 262.844 70.681C262.958 70.681 263.068 70.726 263.148 70.8061C263.229 70.8862 263.274 70.9948 263.274 71.1081V75.3792C263.275 75.436 263.263 75.4924 263.241 75.5448C263.219 75.5973 263.187 75.6448 263.146 75.6846C263.106 75.7244 263.057 75.7557 263.004 75.7766C262.951 75.7975 262.894 75.8076 262.837 75.8063H262.844ZM150.704 69.0463C150.591 69.0458 150.481 69.0006 150.401 68.9206C150.32 68.8407 150.275 68.7323 150.274 68.6192V64.3481C150.274 64.292 150.286 64.2364 150.307 64.1846C150.329 64.1328 150.36 64.0857 150.4 64.046C150.44 64.0064 150.488 63.9749 150.54 63.9535C150.592 63.932 150.648 63.9209 150.704 63.9209C150.761 63.9209 150.817 63.932 150.869 63.9535C150.921 63.9749 150.969 64.0064 151.008 64.046C151.048 64.0857 151.08 64.1328 151.102 64.1846C151.123 64.2364 151.134 64.292 151.134 64.3481V68.6192C151.134 68.7325 151.089 68.8411 151.008 68.9212C150.928 69.0013 150.818 69.0463 150.704 69.0463ZM262.844 67.266C262.73 67.266 262.621 67.221 262.54 67.1409C262.46 67.0608 262.414 66.9522 262.414 66.8389V62.5678C262.414 62.4545 262.46 62.3459 262.54 62.2658C262.621 62.1857 262.73 62.1407 262.844 62.1407C262.958 62.1407 263.068 62.1857 263.148 62.2658C263.229 62.3459 263.274 62.4545 263.274 62.5678V66.8389C263.275 66.8957 263.263 66.952 263.241 67.0045C263.219 67.0569 263.187 67.1045 263.146 67.1443C263.106 67.1841 263.057 67.2154 263.004 67.2363C262.951 67.2572 262.894 67.2673 262.837 67.266H262.844ZM150.704 60.506C150.591 60.5055 150.481 60.4603 150.401 60.3803C150.32 60.3003 150.275 60.192 150.274 60.0789V55.8077C150.274 55.7516 150.286 55.6961 150.307 55.6443C150.329 55.5925 150.36 55.5454 150.4 55.5057C150.44 55.4661 150.488 55.4346 150.54 55.4131C150.592 55.3917 150.648 55.3806 150.704 55.3806C150.761 55.3806 150.817 55.3917 150.869 55.4131C150.921 55.4346 150.969 55.4661 151.008 55.5057C151.048 55.5454 151.08 55.5925 151.102 55.6443C151.123 55.6961 151.134 55.7516 151.134 55.8077V60.0789C151.134 60.1921 151.089 60.3008 151.008 60.3809C150.928 60.461 150.818 60.506 150.704 60.506ZM262.844 58.7257C262.73 58.7257 262.621 58.6807 262.54 58.6006C262.46 58.5205 262.414 58.4119 262.414 58.2986V54.0274C262.414 53.9142 262.46 53.8055 262.54 53.7254C262.621 53.6453 262.73 53.6003 262.844 53.6003C262.958 53.6003 263.068 53.6453 263.148 53.7254C263.229 53.8055 263.274 53.9142 263.274 54.0274V58.2986C263.275 58.3554 263.263 58.4117 263.241 58.4642C263.219 58.5166 263.187 58.5642 263.146 58.604C263.106 58.6438 263.057 58.6751 263.004 58.696C262.951 58.7169 262.894 58.727 262.837 58.7257H262.844ZM150.704 51.9657C150.591 51.9651 150.481 51.92 150.401 51.84C150.32 51.76 150.275 51.6517 150.274 51.5385V47.2674C150.274 47.2113 150.286 47.1558 150.307 47.104C150.329 47.0521 150.36 47.0051 150.4 46.9654C150.44 46.9257 150.488 46.8943 150.54 46.8728C150.592 46.8513 150.648 46.8403 150.704 46.8403C150.761 46.8403 150.817 46.8513 150.869 46.8728C150.921 46.8943 150.969 46.9257 151.008 46.9654C151.048 47.0051 151.08 47.0521 151.102 47.104C151.123 47.1558 151.134 47.2113 151.134 47.2674V51.5385C151.134 51.6518 151.089 51.7605 151.008 51.8406C150.928 51.9207 150.818 51.9657 150.704 51.9657ZM262.844 50.1854C262.73 50.1854 262.621 50.1404 262.54 50.0603C262.46 49.9802 262.414 49.8715 262.414 49.7583V45.4871C262.414 45.3739 262.46 45.2652 262.54 45.1851C262.621 45.105 262.73 45.06 262.844 45.06C262.958 45.06 263.068 45.105 263.148 45.1851C263.229 45.2652 263.274 45.3739 263.274 45.4871V49.7583C263.275 49.8151 263.263 49.8714 263.241 49.9238C263.219 49.9763 263.187 50.0238 263.146 50.0637C263.106 50.1035 263.057 50.1348 263.004 50.1557C262.951 50.1766 262.894 50.1867 262.837 50.1854H262.844ZM259.614 44.8542H255.314C255.2 44.8542 255.091 44.8092 255.01 44.7291C254.929 44.649 254.884 44.5404 254.884 44.4271C254.884 44.3138 254.929 44.2052 255.01 44.1251C255.091 44.045 255.2 44 255.314 44H259.614C259.728 44 259.837 44.045 259.918 44.1251C259.998 44.2052 260.044 44.3138 260.044 44.4271C260.044 44.5404 259.998 44.649 259.918 44.7291C259.837 44.8092 259.728 44.8542 259.614 44.8542ZM251.014 44.8542H246.715C246.601 44.8542 246.491 44.8092 246.411 44.7291C246.33 44.649 246.285 44.5404 246.285 44.4271C246.285 44.3138 246.33 44.2052 246.411 44.1251C246.491 44.045 246.601 44 246.715 44H251.014C251.128 44 251.238 44.045 251.318 44.1251C251.399 44.2052 251.444 44.3138 251.444 44.4271C251.444 44.5404 251.399 44.649 251.318 44.7291C251.238 44.8092 251.128 44.8542 251.014 44.8542ZM242.415 44.8542H238.115C238.001 44.8542 237.892 44.8092 237.811 44.7291C237.731 44.649 237.685 44.5404 237.685 44.4271C237.685 44.3138 237.731 44.2052 237.811 44.1251C237.892 44.045 238.001 44 238.115 44H242.415C242.529 44 242.638 44.045 242.719 44.1251C242.8 44.2052 242.845 44.3138 242.845 44.4271C242.845 44.5404 242.8 44.649 242.719 44.7291C242.638 44.8092 242.529 44.8542 242.415 44.8542ZM233.816 44.8542H229.516C229.402 44.8542 229.293 44.8092 229.212 44.7291C229.131 44.649 229.086 44.5404 229.086 44.4271C229.086 44.3138 229.131 44.2052 229.212 44.1251C229.293 44.045 229.402 44 229.516 44H233.816C233.93 44 234.039 44.045 234.12 44.1251C234.2 44.2052 234.246 44.3138 234.246 44.4271C234.246 44.5404 234.2 44.649 234.12 44.7291C234.039 44.8092 233.93 44.8542 233.816 44.8542ZM225.216 44.8542H220.917C220.802 44.8542 220.693 44.8092 220.612 44.7291C220.532 44.649 220.487 44.5404 220.487 44.4271C220.487 44.3138 220.532 44.2052 220.612 44.1251C220.693 44.045 220.802 44 220.917 44H225.216C225.33 44 225.44 44.045 225.52 44.1251C225.601 44.2052 225.646 44.3138 225.646 44.4271C225.646 44.5404 225.601 44.649 225.52 44.7291C225.44 44.8092 225.33 44.8542 225.216 44.8542ZM216.617 44.8542H212.317C212.203 44.8542 212.094 44.8092 212.013 44.7291C211.932 44.649 211.887 44.5404 211.887 44.4271C211.887 44.3138 211.932 44.2052 212.013 44.1251C212.094 44.045 212.203 44 212.317 44H216.617C216.731 44 216.84 44.045 216.921 44.1251C217.001 44.2052 217.047 44.3138 217.047 44.4271C217.047 44.5404 217.001 44.649 216.921 44.7291C216.84 44.8092 216.731 44.8542 216.617 44.8542ZM208.017 44.8542H203.718C203.604 44.8542 203.494 44.8092 203.414 44.7291C203.333 44.649 203.288 44.5404 203.288 44.4271C203.288 44.3138 203.333 44.2052 203.414 44.1251C203.494 44.045 203.604 44 203.718 44H208.017C208.131 44 208.241 44.045 208.321 44.1251C208.402 44.2052 208.447 44.3138 208.447 44.4271C208.447 44.5404 208.402 44.649 208.321 44.7291C208.241 44.8092 208.131 44.8542 208.017 44.8542ZM199.418 44.8542H195.118C195.004 44.8542 194.895 44.8092 194.814 44.7291C194.734 44.649 194.688 44.5404 194.688 44.4271C194.688 44.3138 194.734 44.2052 194.814 44.1251C194.895 44.045 195.004 44 195.118 44H199.418C199.532 44 199.641 44.045 199.722 44.1251C199.803 44.2052 199.848 44.3138 199.848 44.4271C199.848 44.5404 199.803 44.649 199.722 44.7291C199.641 44.8092 199.532 44.8542 199.418 44.8542ZM190.819 44.8542H186.519C186.405 44.8542 186.296 44.8092 186.215 44.7291C186.134 44.649 186.089 44.5404 186.089 44.4271C186.089 44.3138 186.134 44.2052 186.215 44.1251C186.296 44.045 186.405 44 186.519 44H190.819C190.933 44 191.042 44.045 191.123 44.1251C191.203 44.2052 191.249 44.3138 191.249 44.4271C191.249 44.5404 191.203 44.649 191.123 44.7291C191.042 44.8092 190.933 44.8542 190.819 44.8542ZM182.219 44.8542H177.92C177.805 44.8542 177.696 44.8092 177.615 44.7291C177.535 44.649 177.49 44.5404 177.49 44.4271C177.49 44.3138 177.535 44.2052 177.615 44.1251C177.696 44.045 177.805 44 177.92 44H182.219C182.333 44 182.443 44.045 182.523 44.1251C182.604 44.2052 182.649 44.3138 182.649 44.4271C182.649 44.5404 182.604 44.649 182.523 44.7291C182.443 44.8092 182.333 44.8542 182.219 44.8542ZM173.62 44.8542H169.32C169.206 44.8542 169.097 44.8092 169.016 44.7291C168.935 44.649 168.89 44.5404 168.89 44.4271C168.89 44.3138 168.935 44.2052 169.016 44.1251C169.097 44.045 169.206 44 169.32 44H173.62C173.734 44 173.843 44.045 173.924 44.1251C174.005 44.2052 174.05 44.3138 174.05 44.4271C174.05 44.5404 174.005 44.649 173.924 44.7291C173.843 44.8092 173.734 44.8542 173.62 44.8542ZM165.02 44.8542H160.721C160.607 44.8542 160.497 44.8092 160.417 44.7291C160.336 44.649 160.291 44.5404 160.291 44.4271C160.291 44.3138 160.336 44.2052 160.417 44.1251C160.497 44.045 160.607 44 160.721 44H165.02C165.134 44 165.244 44.045 165.324 44.1251C165.405 44.2052 165.45 44.3138 165.45 44.4271C165.45 44.5404 165.405 44.649 165.324 44.7291C165.244 44.8092 165.134 44.8542 165.02 44.8542ZM156.421 44.8542H152.121C152.007 44.8542 151.898 44.8092 151.817 44.7291C151.737 44.649 151.691 44.5404 151.691 44.4271C151.691 44.3138 151.737 44.2052 151.817 44.1251C151.898 44.045 152.007 44 152.121 44H156.421C156.535 44 156.644 44.045 156.725 44.1251C156.806 44.2052 156.851 44.3138 156.851 44.4271C156.851 44.5404 156.806 44.649 156.725 44.7291C156.644 44.8092 156.535 44.8542 156.421 44.8542Z" fill="white"/>
<path d="M389.274 150H277.274V341H389.274V150Z" fill="#474747"/>
<path d="M388.848 341H277.701C277.588 340.999 277.48 340.954 277.4 340.875C277.32 340.795 277.275 340.687 277.274 340.574V150.426C277.274 150.37 277.285 150.315 277.307 150.263C277.328 150.211 277.36 150.164 277.399 150.125C277.439 150.085 277.486 150.054 277.537 150.032C277.589 150.011 277.645 150 277.701 150H388.848C388.904 150 388.96 150.011 389.012 150.032C389.063 150.053 389.111 150.085 389.15 150.124C389.19 150.164 389.221 150.211 389.242 150.263C389.264 150.315 389.275 150.37 389.274 150.426V340.574C389.274 340.687 389.23 340.795 389.15 340.875C389.07 340.955 388.961 341 388.848 341ZM278.127 340.147H388.422V150.845H278.127V340.147Z" fill="white"/>
<path d="M262.274 150H150.274V341H262.274V150Z" fill="#474747"/>
<path d="M262.837 341H150.704C150.591 340.999 150.481 340.954 150.401 340.874C150.32 340.795 150.275 340.687 150.274 340.574V150.426C150.274 150.313 150.32 150.205 150.4 150.125C150.481 150.045 150.59 150 150.704 150H262.844C262.901 150 262.957 150.011 263.009 150.032C263.062 150.053 263.109 150.085 263.149 150.124C263.189 150.164 263.221 150.211 263.242 150.263C263.264 150.315 263.275 150.37 263.274 150.426V340.574C263.274 340.63 263.263 340.686 263.241 340.739C263.219 340.791 263.186 340.838 263.146 340.878C263.105 340.918 263.057 340.949 263.004 340.97C262.951 340.991 262.894 341.001 262.837 341ZM151.127 340.147H262.407V150.845H151.127V340.147Z" fill="white"/>
<path d="M369.329 183H297.22C294.317 183 291.533 181.841 289.48 179.778C287.428 177.715 286.274 174.917 286.274 172C286.274 169.083 287.428 166.285 289.48 164.222C291.533 162.159 294.317 161 297.22 161H369.329C372.232 161 375.016 162.159 377.069 164.222C379.121 166.285 380.274 169.083 380.274 172C380.274 174.917 379.121 177.715 377.069 179.778C375.016 181.841 372.232 183 369.329 183Z" fill="#E2EAFF"/>
<path opacity="0.21" d="M369.329 253H297.22C294.317 253 291.533 251.841 289.48 249.778C287.428 247.715 286.274 244.917 286.274 242C286.274 239.083 287.428 236.285 289.48 234.222C291.533 232.159 294.317 231 297.22 231H369.329C372.232 231 375.016 232.159 377.069 234.222C379.121 236.285 380.274 239.083 380.274 242C380.274 244.917 379.121 247.715 377.069 249.778C375.016 251.841 372.232 253 369.329 253Z" fill="black"/>
<path opacity="0.2" d="M369.116 253H297.433C294.46 252.962 291.622 251.786 289.534 249.728C287.445 247.669 286.274 244.893 286.274 242C286.274 239.107 287.445 236.331 289.534 234.272C291.622 232.214 294.46 231.038 297.433 231H369.116C372.089 231.038 374.927 232.214 377.015 234.272C379.103 236.331 380.274 239.107 380.274 242C380.274 244.893 379.103 247.669 377.015 249.728C374.927 251.786 372.089 252.962 369.116 253ZM297.433 231.826C294.686 231.863 292.064 232.95 290.135 234.853C288.205 236.756 287.124 239.321 287.124 241.994C287.124 244.667 288.205 247.233 290.135 249.136C292.064 251.039 294.686 252.126 297.433 252.162H369.116C371.863 252.126 374.485 251.039 376.414 249.136C378.343 247.233 379.425 244.667 379.425 241.994C379.425 239.321 378.343 236.756 376.414 234.853C374.485 232.95 371.863 231.863 369.116 231.826H297.433Z" fill="white"/>
<path opacity="0.2" d="M369.329 288H297.22C294.317 288 291.533 286.841 289.48 284.778C287.428 282.715 286.274 279.917 286.274 277C286.274 274.083 287.428 271.285 289.48 269.222C291.533 267.159 294.317 266 297.22 266H369.329C372.232 266 375.016 267.159 377.069 269.222C379.121 271.285 380.274 274.083 380.274 277C380.274 279.917 379.121 282.715 377.069 284.778C375.016 286.841 372.232 288 369.329 288Z" fill="black"/>
<path opacity="0.2" d="M369.005 288H297.544C296.064 288 294.599 287.703 293.231 287.125C291.864 286.547 290.622 285.7 289.575 284.632C288.529 283.564 287.699 282.296 287.132 280.901C286.566 279.506 286.274 278.01 286.274 276.5C286.274 274.99 286.566 273.494 287.132 272.099C287.699 270.704 288.529 269.436 289.575 268.368C290.622 267.3 291.864 266.453 293.231 265.875C294.599 265.297 296.064 265 297.544 265H369.005C370.485 265 371.95 265.297 373.317 265.875C374.685 266.453 375.927 267.3 376.974 268.368C378.02 269.436 378.85 270.704 379.417 272.099C379.983 273.494 380.274 274.99 380.274 276.5C380.274 278.01 379.983 279.506 379.417 280.901C378.85 282.296 378.02 283.564 376.974 284.632C375.927 285.7 374.685 286.547 373.317 287.125C371.95 287.703 370.485 288 369.005 288ZM297.544 265.862C294.781 265.862 292.131 266.982 290.178 268.975C288.224 270.969 287.127 273.673 287.127 276.492C287.127 279.311 288.224 282.015 290.178 284.009C292.131 286.002 294.781 287.122 297.544 287.122H369.005C371.768 287.122 374.417 286.002 376.371 284.009C378.325 282.015 379.422 279.311 379.422 276.492C379.422 273.673 378.325 270.969 376.371 268.975C374.417 266.982 371.768 265.862 369.005 265.862H297.544Z" fill="white"/>
<path d="M369.329 217H297.22C294.317 217 291.533 215.841 289.48 213.778C287.428 211.715 286.274 208.917 286.274 206C286.274 203.083 287.428 200.285 289.48 198.222C291.533 196.159 294.317 195 297.22 195H369.329C372.232 195 375.016 196.159 377.069 198.222C379.121 200.285 380.274 203.083 380.274 206C380.274 208.917 379.121 211.715 377.069 213.778C375.016 215.841 372.232 217 369.329 217Z" fill="#E2EAFF"/>
<path d="M242.329 183H170.22C167.317 183 164.533 181.841 162.48 179.778C160.428 177.715 159.274 174.917 159.274 172C159.274 169.083 160.428 166.285 162.48 164.222C164.533 162.159 167.317 161 170.22 161H242.329C245.232 161 248.016 162.159 250.068 164.222C252.121 166.285 253.274 169.083 253.274 172C253.274 174.917 252.121 177.715 250.068 179.778C248.016 181.841 245.232 183 242.329 183Z" fill="#7E34FF"/>
<path opacity="0.6" d="M242.329 217H170.22C167.317 217 164.533 215.841 162.48 213.778C160.428 211.715 159.274 208.917 159.274 206C159.274 203.083 160.428 200.285 162.48 198.222C164.533 196.159 167.317 195 170.22 195H242.329C245.232 195 248.016 196.159 250.068 198.222C252.121 200.285 253.274 203.083 253.274 206C253.274 208.917 252.121 211.715 250.068 213.778C248.016 215.841 245.232 217 242.329 217Z" fill="#7E34FF"/>
<path d="M242.329 253H170.22C167.317 253 164.533 251.841 162.48 249.778C160.428 247.715 159.274 244.917 159.274 242C159.274 239.083 160.428 236.285 162.48 234.222C164.533 232.159 167.317 231 170.22 231H242.329C245.232 231 248.016 232.159 250.068 234.222C252.121 236.285 253.274 239.083 253.274 242C253.274 244.917 252.121 247.715 250.068 249.778C248.016 251.841 245.232 253 242.329 253Z" fill="black"/>
<path d="M242.116 253H170.433C167.46 252.962 164.622 251.786 162.534 249.728C160.445 247.669 159.274 244.893 159.274 242C159.274 239.107 160.445 236.331 162.534 234.272C164.622 232.214 167.46 231.038 170.433 231H242.116C245.089 231.038 247.927 232.214 250.015 234.272C252.103 236.331 253.274 239.107 253.274 242C253.274 244.893 252.103 247.669 250.015 249.728C247.927 251.786 245.089 252.962 242.116 253ZM170.433 231.826C167.686 231.863 165.064 232.95 163.135 234.853C161.205 236.756 160.124 239.321 160.124 241.994C160.124 244.667 161.205 247.233 163.135 249.136C165.064 251.039 167.686 252.126 170.433 252.162H242.116C244.863 252.126 247.485 251.039 249.414 249.136C251.343 247.233 252.425 244.667 252.425 241.994C252.425 239.321 251.343 236.756 249.414 234.853C247.485 232.95 244.863 231.863 242.116 231.826H170.433Z" fill="white"/>
<path d="M489.599 126.524C489.599 126.524 493.18 122.908 494.507 125.404C495.835 127.899 491.661 131.221 489.224 128.287L489.599 126.524Z" fill="black"/>
<path d="M126.274 159H238.274V67L126.274 67L126.274 159Z" fill="#CCF7FF"/>
<path d="M68.7022 302C68.5888 302 68.48 301.958 68.3997 301.884C68.3195 301.81 68.2744 301.71 68.2744 301.605V80.3946C68.2744 80.2899 68.3195 80.1896 68.3997 80.1156C68.48 80.0416 68.5888 80 68.7022 80H126.847C126.903 80 126.958 80.0102 127.01 80.03C127.062 80.0499 127.109 80.0789 127.149 80.1156C127.189 80.1522 127.22 80.1957 127.242 80.2436C127.263 80.2915 127.274 80.3428 127.274 80.3946C127.274 80.4464 127.263 80.4977 127.242 80.5456C127.22 80.5935 127.189 80.637 127.149 80.6736C127.109 80.7103 127.062 80.7393 127.01 80.7592C126.958 80.779 126.903 80.7892 126.847 80.7892H69.1223V301.605C69.1218 301.709 69.0776 301.808 68.9992 301.881C68.9207 301.955 68.8142 301.998 68.7022 302Z" fill="white"/>
<path d="M89.2903 69.3701C90.1594 66.5112 88.5362 63.4921 85.6648 62.6267C82.7934 61.7614 79.7611 63.3775 78.892 66.2364C78.0229 69.0954 79.6461 72.1145 82.5175 72.9798C85.3889 73.8451 88.4212 72.229 89.2903 69.3701Z" fill="black"/>
<path d="M106.274 74C105.088 74 103.928 73.6481 102.941 72.9887C101.954 72.3293 101.185 71.3921 100.731 70.2956C100.277 69.1992 100.158 67.9927 100.39 66.8287C100.622 65.6648 101.193 64.5957 102.032 63.7567C102.872 62.9176 103.941 62.3463 105.105 62.115C106.269 61.8838 107.476 62.0029 108.572 62.4573C109.668 62.9117 110.605 63.6811 111.264 64.668C111.923 65.655 112.275 66.8152 112.274 68.002C112.272 69.5925 111.639 71.1172 110.515 72.2416C109.39 73.366 107.865 73.9984 106.274 74ZM106.274 62.8794C105.261 62.8794 104.271 63.1798 103.428 63.7427C102.586 64.3056 101.929 65.1056 101.542 66.0416C101.154 66.9777 101.053 68.0077 101.25 69.0014C101.448 69.9951 101.936 70.9078 102.652 71.6242C103.369 72.3407 104.281 72.8285 105.275 73.0262C106.269 73.2239 107.299 73.1224 108.235 72.7347C109.171 72.347 109.971 71.6904 110.534 70.848C111.097 70.0056 111.397 69.0152 111.397 68.002C111.396 66.6437 110.856 65.3414 109.895 64.3809C108.935 63.4205 107.633 62.8804 106.274 62.8794Z" fill="white"/>
<path d="M366.274 380C365.088 380 363.928 379.648 362.941 378.989C361.954 378.329 361.185 377.392 360.731 376.296C360.277 375.199 360.158 373.993 360.39 372.829C360.622 371.665 361.193 370.596 362.032 369.757C362.872 368.918 363.941 368.346 365.105 368.115C366.269 367.884 367.476 368.003 368.572 368.457C369.668 368.912 370.605 369.681 371.264 370.668C371.923 371.655 372.275 372.815 372.274 374.002C372.272 375.592 371.639 377.117 370.515 378.242C369.39 379.366 367.865 379.998 366.274 380ZM366.274 368.879C365.261 368.879 364.271 369.18 363.428 369.743C362.586 370.306 361.929 371.106 361.542 372.042C361.154 372.978 361.053 374.008 361.25 375.001C361.448 375.995 361.936 376.908 362.652 377.624C363.369 378.341 364.281 378.829 365.275 379.026C366.269 379.224 367.299 379.122 368.235 378.735C369.171 378.347 369.971 377.69 370.534 376.848C371.097 376.006 371.397 375.015 371.397 374.002C371.396 372.644 370.856 371.341 369.895 370.381C368.935 369.42 367.633 368.88 366.274 368.879Z" fill="white"/>
<path d="M71.0973 72.4047C73.6492 70.8342 74.4393 67.5013 72.862 64.9605C71.2847 62.4197 67.9372 61.633 65.3853 63.2035C62.8334 64.774 62.0433 68.1069 63.6207 70.6477C65.198 73.1885 68.5454 73.9752 71.0973 72.4047Z" fill="black"/>
<path d="M90.2764 74C89.0896 74.0004 87.9292 73.6488 86.9422 72.9896C85.9552 72.3305 85.1859 71.3935 84.7315 70.297C84.2771 69.2006 84.1582 67.994 84.3896 66.8299C84.6211 65.6659 85.1925 64.5966 86.0318 63.7574C86.871 62.9181 87.9403 62.3466 89.1044 62.1152C90.2684 61.8837 91.475 62.0027 92.5714 62.4571C93.6679 62.9115 94.6049 63.6808 95.2641 64.6678C95.9232 65.6548 96.2748 66.8151 96.2744 68.002C96.2723 69.5921 95.6397 71.1165 94.5153 72.2409C93.3909 73.3653 91.8665 73.9979 90.2764 74ZM90.2764 62.8794C89.2632 62.879 88.2726 63.1791 87.4299 63.7417C86.5872 64.3044 85.9303 65.1043 85.5423 66.0403C85.1543 66.9763 85.0525 68.0063 85.25 69.0001C85.4474 69.994 85.9351 70.9069 86.6515 71.6235C87.3678 72.3401 88.2806 72.8282 89.2743 73.0261C90.2681 73.2239 91.2981 73.1225 92.2343 72.7349C93.1705 72.3472 93.9706 71.6906 94.5336 70.8482C95.0966 70.0057 95.397 69.0152 95.397 68.002C95.396 66.6441 94.8562 65.342 93.8962 64.3816C92.9362 63.4212 91.6343 62.8809 90.2764 62.8794Z" fill="white"/>
<path d="M350.276 380C349.09 380 347.929 379.649 346.942 378.99C345.955 378.331 345.186 377.393 344.732 376.297C344.277 375.201 344.158 373.994 344.39 372.83C344.621 371.666 345.193 370.597 346.032 369.757C346.871 368.918 347.94 368.347 349.104 368.115C350.268 367.884 351.475 368.003 352.571 368.457C353.668 368.911 354.605 369.681 355.264 370.668C355.923 371.655 356.275 372.815 356.274 374.002C356.272 375.592 355.64 377.117 354.515 378.241C353.391 379.365 351.867 379.998 350.276 380ZM350.276 368.879C349.263 368.879 348.273 369.179 347.43 369.742C346.587 370.304 345.93 371.104 345.542 372.04C345.154 372.976 345.053 374.006 345.25 375C345.447 375.994 345.935 376.907 346.651 377.624C347.368 378.34 348.281 378.828 349.274 379.026C350.268 379.224 351.298 379.123 352.234 378.735C353.17 378.347 353.971 377.691 354.534 376.848C355.097 376.006 355.397 375.015 355.397 374.002C355.396 372.644 354.856 371.342 353.896 370.382C352.936 369.421 351.634 368.881 350.276 368.879Z" fill="white"/>
<path d="M79.2848 69.8761C80.4329 67.1165 79.1167 63.9527 76.345 62.8096C73.5734 61.6665 70.3958 62.977 69.2477 65.7366C68.0996 68.4963 69.4158 71.66 72.1875 72.8031C74.9592 73.9462 78.1368 72.6357 79.2848 69.8761Z" fill="#5479F7"/>
<path d="M339.375 376.221C340.523 373.462 339.207 370.298 336.435 369.155C333.663 368.012 330.486 369.322 329.338 372.082C328.189 374.841 329.506 378.005 332.277 379.148C335.049 380.291 338.227 378.981 339.375 376.221Z" fill="#5479F7"/>
<circle cx="204.774" cy="303.5" r="23" stroke="#D9D9D9"/>
<path d="M116.726 340C116.786 340 116.845 340.011 116.9 340.033C116.955 340.056 117.005 340.089 117.047 340.13C117.089 340.172 117.123 340.221 117.146 340.275C117.168 340.329 117.18 340.388 117.18 340.447V374.105H321.851C321.966 374.113 322.074 374.163 322.152 374.246C322.231 374.329 322.274 374.439 322.274 374.552C322.274 374.666 322.231 374.776 322.152 374.859C322.074 374.942 321.966 374.992 321.851 375H116.726C116.606 374.999 116.491 374.952 116.407 374.868C116.322 374.784 116.274 374.67 116.274 374.551V340.453C116.274 340.393 116.285 340.335 116.307 340.28C116.329 340.225 116.363 340.175 116.405 340.133C116.447 340.091 116.497 340.057 116.552 340.035C116.607 340.012 116.666 340 116.726 340Z" fill="white"/>
<path d="M127.274 367H95.5467C92.5571 367 89.69 365.827 87.576 363.738C85.462 361.65 84.2744 358.817 84.2744 355.864V262.136C84.2744 259.183 85.462 256.35 87.576 254.262C89.69 252.173 92.5571 251 95.5467 251H127.274V367Z" fill="black"/>
<path d="M126.871 367H95.7388C92.6994 366.996 89.7857 365.787 87.6365 363.638C85.4874 361.49 84.2783 358.576 84.2744 355.537V262.463C84.2778 259.424 85.4868 256.51 87.636 254.361C89.7852 252.212 92.6993 251.003 95.7388 251H126.871C126.924 251 126.976 251.01 127.025 251.03C127.075 251.05 127.119 251.08 127.157 251.118C127.194 251.155 127.224 251.2 127.244 251.249C127.264 251.298 127.275 251.351 127.274 251.404V366.596C127.274 366.703 127.232 366.806 127.156 366.882C127.08 366.958 126.978 367 126.871 367ZM95.7388 251.807C92.9134 251.811 90.2048 252.934 88.207 254.932C86.2091 256.929 85.0853 259.638 85.0819 262.463V355.537C85.0853 358.362 86.2091 361.071 88.207 363.068C90.2048 365.066 92.9134 366.189 95.7388 366.193H126.467V251.807H95.7388Z" fill="white"/>
<path d="M117.274 276.866L108.578 279.749L105.506 288L96.2744 268L117.274 276.866Z" fill="black"/>
<path d="M105.552 288C105.476 288 105.401 287.976 105.337 287.932C105.274 287.888 105.224 287.826 105.193 287.753L96.3073 266.577C96.2755 266.501 96.2665 266.417 96.2814 266.335C96.2963 266.253 96.3345 266.178 96.3909 266.12C96.4473 266.061 96.5193 266.022 96.5975 266.007C96.6757 265.992 96.7564 266.002 96.8291 266.036L117.04 275.422C117.112 275.455 117.173 275.511 117.215 275.581C117.257 275.651 117.277 275.733 117.274 275.816C117.271 275.898 117.244 275.978 117.197 276.045C117.149 276.111 117.084 276.161 117.009 276.188L108.819 279.174L105.925 287.724C105.899 287.803 105.85 287.871 105.786 287.919C105.722 287.968 105.646 287.996 105.566 287.998L105.552 288ZM97.4387 267.224L105.507 286.468L108.132 278.715C108.152 278.657 108.184 278.604 108.226 278.56C108.267 278.516 108.318 278.483 108.374 278.462L115.801 275.763L97.4387 267.224Z" fill="white"/>
<path d="M117.863 302C117.755 302 117.65 301.969 117.573 301.915C117.496 301.861 117.453 301.787 117.452 301.711V299.578H96.0964V301.711C96.0964 301.788 96.0531 301.861 95.976 301.915C95.8989 301.97 95.7944 302 95.6854 302C95.5764 302 95.4719 301.97 95.3948 301.915C95.3177 301.861 95.2744 301.788 95.2744 301.711V299.289C95.2744 299.212 95.3177 299.139 95.3948 299.085C95.4719 299.03 95.5764 299 95.6854 299H117.863C117.917 299 117.971 299.007 118.021 299.022C118.071 299.036 118.116 299.057 118.155 299.084C118.193 299.111 118.223 299.143 118.244 299.178C118.264 299.213 118.275 299.251 118.274 299.289V301.711C118.274 301.788 118.231 301.861 118.154 301.915C118.077 301.97 117.972 302 117.863 302Z" fill="white"/>
<path d="M105.774 320C105.709 320 105.644 319.99 105.583 319.969C105.522 319.949 105.467 319.918 105.42 319.88C105.374 319.842 105.337 319.796 105.312 319.746C105.287 319.696 105.274 319.642 105.274 319.588V300.412C105.274 300.302 105.327 300.198 105.421 300.121C105.515 300.043 105.642 300 105.774 300C105.907 300 106.034 300.043 106.128 300.121C106.222 300.198 106.274 300.302 106.274 300.412V319.588C106.274 319.697 106.222 319.802 106.128 319.879C106.034 319.957 105.907 320 105.774 320Z" fill="white"/>
<path d="M109.869 320H102.68C102.572 320 102.469 319.947 102.393 319.854C102.317 319.76 102.274 319.633 102.274 319.5C102.274 319.367 102.317 319.24 102.393 319.146C102.469 319.053 102.572 319 102.68 319H109.869C109.976 319 110.08 319.053 110.156 319.146C110.232 319.24 110.274 319.367 110.274 319.5C110.274 319.633 110.232 319.76 110.156 319.854C110.08 319.947 109.976 320 109.869 320Z" fill="white"/>
<path d="M95.6477 351C95.6026 350.999 95.5579 350.991 95.5154 350.974C95.4445 350.945 95.3834 350.893 95.3404 350.826C95.2973 350.758 95.2743 350.678 95.2744 350.596V330.405C95.2742 330.323 95.2972 330.243 95.3403 330.175C95.3833 330.107 95.4444 330.055 95.5154 330.026C95.5863 329.997 95.6638 329.992 95.7375 330.012C95.8112 330.032 95.8775 330.075 95.9277 330.137L104.181 340.229C104.241 340.303 104.274 340.398 104.274 340.497C104.274 340.595 104.241 340.691 104.181 340.765L95.9277 350.868C95.8924 350.91 95.8491 350.944 95.8009 350.966C95.7526 350.989 95.7004 351.001 95.6477 351ZM96.0211 331.476V349.53L103.403 340.502L96.0211 331.476Z" fill="white"/>
<path d="M95.2744 330V351L104.274 340.499L95.2744 330Z" fill="black"/>
<path d="M95.6477 351C95.6026 350.999 95.5579 350.991 95.5154 350.974C95.4445 350.945 95.3834 350.893 95.3404 350.826C95.2973 350.758 95.2743 350.678 95.2744 350.596V330.405C95.2742 330.323 95.2972 330.243 95.3403 330.175C95.3833 330.107 95.4444 330.055 95.5154 330.026C95.5863 329.997 95.6638 329.992 95.7375 330.012C95.8112 330.032 95.8775 330.075 95.9277 330.137L104.181 340.229C104.241 340.303 104.274 340.398 104.274 340.497C104.274 340.595 104.241 340.691 104.181 340.765L95.9277 350.868C95.8924 350.91 95.8491 350.944 95.8009 350.966C95.7526 350.989 95.7004 351.001 95.6477 351ZM96.0211 331.476V349.53L103.403 340.502L96.0211 331.476Z" fill="white"/>
<path d="M117.274 330V351L109.274 340.499L117.274 330Z" fill="black"/>
<path d="M117.818 351C117.753 351 117.69 350.988 117.631 350.964C117.572 350.941 117.519 350.907 117.476 350.864L107.389 340.763C107.315 340.689 107.274 340.594 107.274 340.495C107.274 340.396 107.315 340.301 107.389 340.227L117.476 330.137C117.537 330.075 117.618 330.032 117.708 330.012C117.798 329.992 117.893 329.997 117.98 330.026C118.067 330.055 118.141 330.107 118.194 330.175C118.247 330.243 118.275 330.323 118.274 330.405V350.587C118.275 350.669 118.246 350.749 118.194 350.817C118.141 350.884 118.067 350.936 117.98 350.965C117.929 350.985 117.874 350.997 117.818 351ZM108.339 340.51L117.362 349.536V331.485L108.339 340.51Z" fill="white"/>
<path d="M105.774 351C105.709 351 105.644 350.989 105.583 350.968C105.522 350.947 105.467 350.916 105.42 350.877C105.374 350.837 105.337 350.791 105.312 350.739C105.287 350.688 105.274 350.633 105.274 350.577V346.346C105.274 346.234 105.327 346.126 105.421 346.047C105.515 345.968 105.642 345.923 105.774 345.923C105.907 345.923 106.034 345.968 106.128 346.047C106.222 346.126 106.274 346.234 106.274 346.346V350.577C106.274 350.689 106.222 350.797 106.128 350.876C106.034 350.955 105.907 351 105.774 351ZM105.774 342.538C105.709 342.539 105.644 342.528 105.583 342.507C105.522 342.486 105.467 342.454 105.42 342.415C105.374 342.376 105.337 342.329 105.312 342.278C105.287 342.226 105.274 342.171 105.274 342.115V337.885C105.274 337.772 105.327 337.665 105.421 337.585C105.515 337.506 105.642 337.462 105.774 337.462C105.907 337.462 106.034 337.506 106.128 337.585C106.222 337.665 106.274 337.772 106.274 337.885V342.115C106.275 342.171 106.262 342.226 106.237 342.278C106.212 342.329 106.175 342.376 106.129 342.416C106.082 342.455 106.027 342.487 105.966 342.508C105.905 342.529 105.84 342.54 105.774 342.54V342.538ZM105.774 334.077C105.709 334.077 105.644 334.066 105.583 334.045C105.522 334.024 105.467 333.993 105.42 333.954C105.374 333.914 105.337 333.867 105.312 333.816C105.287 333.765 105.274 333.71 105.274 333.654V329.423C105.274 329.311 105.327 329.203 105.421 329.124C105.515 329.045 105.642 329 105.774 329C105.907 329 106.034 329.045 106.128 329.124C106.222 329.203 106.274 329.311 106.274 329.423V333.654C106.275 333.71 106.263 333.765 106.238 333.817C106.213 333.869 106.176 333.916 106.13 333.955C106.083 333.995 106.028 334.027 105.967 334.048C105.906 334.07 105.84 334.081 105.774 334.081V334.077Z" fill="white"/>
<path d="M144.535 139.081L126.992 155.606C126.22 155.348 125.377 155.364 124.596 155.65C123.815 155.936 123.141 156.477 122.68 157.186C122.22 157.896 121.999 158.734 122.053 159.567C122.106 160.401 122.432 161.183 122.978 161.789C123.523 162.395 124.258 162.791 125.065 162.914C125.873 163.037 126.707 162.881 127.436 162.469C128.164 162.057 128.746 161.414 129.089 160.641C129.432 159.868 129.516 159.009 129.328 158.201L146.87 141.677C144.515 149.041 138.692 166.161 134.175 170.418C132.805 171.769 131.193 172.835 129.435 173.555C127.677 174.275 125.808 174.633 123.938 174.61C122.068 174.587 120.234 174.182 118.544 173.42C116.855 172.657 115.343 171.552 114.099 170.169C112.855 168.787 111.903 167.155 111.299 165.369C110.695 163.583 110.452 161.679 110.583 159.77C110.714 157.861 111.217 155.984 112.063 154.25C112.909 152.517 114.08 150.961 115.507 149.674C120.017 145.415 137.169 140.879 144.535 139.081Z" fill="black"/>
<path d="M137.875 167.307C136.932 168.94 136.004 170.253 135.109 171.077C133.701 172.398 132.048 173.429 130.247 174.109C128.445 174.79 126.531 175.106 124.614 175.042C122.696 174.977 120.814 174.531 119.074 173.731C117.335 172.931 115.773 171.792 114.478 170.379C113.184 168.967 112.182 167.308 111.531 165.5C110.88 163.691 110.592 161.768 110.685 159.842C110.777 157.915 111.247 156.022 112.069 154.273C112.89 152.523 114.047 150.951 115.471 149.647C120.06 145.396 137.578 141.058 144.897 139.391C144.967 139.374 145.04 139.382 145.105 139.412C145.17 139.442 145.223 139.493 145.256 139.557C145.288 139.62 145.299 139.693 145.286 139.764C145.274 139.834 145.239 139.899 145.186 139.948L127.639 156.205C127.596 156.245 127.543 156.272 127.486 156.285C127.428 156.297 127.369 156.293 127.313 156.274C126.596 156.03 125.816 156.034 125.096 156.285C124.377 156.536 123.759 157.02 123.341 157.661C122.923 158.302 122.729 159.063 122.789 159.823C122.849 160.584 123.159 161.3 123.672 161.86C124.184 162.419 124.869 162.789 125.618 162.911C126.367 163.034 127.137 162.901 127.806 162.535C128.476 162.168 129.006 161.589 129.314 160.889C129.622 160.188 129.69 159.407 129.506 158.668C129.492 158.611 129.494 158.551 129.511 158.494C129.528 158.438 129.559 158.387 129.602 158.347L147.156 142.094C147.208 142.044 147.276 142.014 147.347 142.007C147.419 142 147.49 142.017 147.551 142.055C147.611 142.094 147.657 142.151 147.682 142.219C147.706 142.286 147.707 142.36 147.686 142.429C145.865 148.227 141.789 160.527 137.875 167.307ZM113.28 153.417C111.598 156.317 111.002 159.719 111.6 163.004C112.199 166.29 113.952 169.24 116.542 171.32C119.132 173.401 122.386 174.472 125.713 174.34C129.04 174.208 132.22 172.881 134.674 170.601C138.917 166.669 144.252 151.088 146.695 143.402L130.184 158.698C130.357 159.571 130.24 160.479 129.851 161.284C129.463 162.088 128.824 162.745 128.032 163.154C127.241 163.563 126.34 163.701 125.467 163.548C124.594 163.395 123.798 162.959 123.2 162.306C122.601 161.653 122.233 160.819 122.152 159.932C122.072 159.045 122.282 158.153 122.752 157.393C123.222 156.633 123.925 156.046 124.754 155.723C125.583 155.399 126.493 155.356 127.344 155.6L143.855 140.302C136.032 142.119 120.157 146.185 115.904 150.122C114.87 151.082 113.985 152.193 113.28 153.417Z" fill="white"/>
<path d="M102.355 173.305L110.307 182.097L116.525 174.21L110.436 167.479L102.355 173.305Z" fill="black"/>
<path d="M116.434 174.366C116.428 174.38 116.42 174.394 116.41 174.407L110.503 181.895C110.474 181.932 110.438 181.962 110.398 181.983C110.357 182.004 110.313 182.016 110.268 182.018C110.223 182.021 110.178 182.013 110.136 181.996C110.095 181.978 110.058 181.952 110.028 181.919L102.46 173.56C102.43 173.527 102.408 173.488 102.395 173.445C102.381 173.403 102.377 173.357 102.383 173.313C102.388 173.267 102.402 173.224 102.425 173.184C102.448 173.145 102.478 173.11 102.515 173.083L110.197 167.554C110.259 167.509 110.335 167.488 110.411 167.495C110.486 167.503 110.555 167.538 110.606 167.594L116.399 173.995C116.444 174.044 116.471 174.106 116.477 174.173C116.483 174.239 116.468 174.307 116.434 174.366ZM110.246 181.212L115.753 174.231L110.321 168.23L103.16 173.385L110.246 181.212Z" fill="white"/>
</g>
<defs>
<clipPath id="clip0_404_1411">
<rect width="555.484" height="410" fill="white"/>
</clipPath>
</defs>
</svg>
