<svg width="557" height="410" viewBox="0 0 557 410" fill="none" xmlns="http://www.w3.org/2000/svg">
<g clip-path="url(#clip0_943_908)">
<rect x="0.725586" width="555.484" height="410" fill="white"/>
<g opacity="0.3">
<rect x="331.37" y="52.9033" width="119.852" height="51.365" rx="25.6825" fill="#EEEEEE"/>
<rect x="422.115" y="179.604" width="119.852" height="51.365" rx="25.6825" fill="#EEEEEE"/>
<rect x="331.37" y="116.254" width="210.596" height="51.365" rx="25.6825" fill="#EEEEEE"/>
</g>
<g clip-path="url(#clip1_943_908)">
<path d="M181.142 169.51H141.139V208.191H181.142V169.51Z" fill="white"/>
<path d="M365.565 358.386C365.815 358.369 366.065 358.336 366.311 358.288C367.091 360.614 368.227 362.813 369.682 364.813C369.495 364.975 369.318 365.148 369.151 365.33C368.601 365.922 368.178 366.614 367.907 367.365C367.637 368.117 367.523 368.913 367.574 369.707C367.625 370.502 367.839 371.278 368.203 371.992C368.568 372.705 369.076 373.341 369.697 373.863C370.319 374.385 371.042 374.782 371.823 375.03C372.605 375.279 373.431 375.375 374.251 375.312C375.071 375.249 375.871 375.028 376.602 374.664C377.334 374.299 377.983 373.797 378.511 373.187C378.675 373.002 378.827 372.808 378.967 372.606C381.22 373.718 383.632 374.496 386.123 374.916C386.078 375.733 386.207 376.551 386.501 377.318C386.796 378.086 387.25 378.787 387.835 379.378C388.42 379.969 389.125 380.438 389.905 380.756C390.685 381.074 391.524 381.233 392.371 381.226C393.217 381.218 394.053 381.042 394.826 380.71C395.6 380.378 396.295 379.896 396.868 379.294C397.442 378.692 397.882 377.982 398.161 377.21C398.44 376.437 398.552 375.617 398.491 374.801C398.471 374.558 398.436 374.317 398.387 374.079C400.792 373.325 403.067 372.226 405.135 370.819C405.303 371.001 405.482 371.172 405.672 371.333C406.918 372.342 408.523 372.838 410.143 372.714C411.764 372.589 413.268 371.855 414.334 370.668C415.399 369.481 415.94 367.937 415.84 366.369C415.739 364.8 415.006 363.333 413.797 362.282C413.606 362.123 413.405 361.976 413.195 361.841C414.345 359.663 415.15 357.331 415.584 354.922C416.429 354.965 417.275 354.841 418.068 354.556C418.862 354.272 419.587 353.833 420.198 353.267C420.81 352.701 421.295 352.02 421.623 351.265C421.952 350.511 422.117 349.7 422.109 348.881C422.101 348.063 421.919 347.255 421.576 346.507C421.232 345.759 420.734 345.087 420.111 344.532C419.488 343.978 418.755 343.552 417.956 343.282C417.157 343.013 416.309 342.904 415.465 342.963C415.214 342.982 414.965 343.016 414.718 343.064C413.939 340.737 412.803 338.538 411.347 336.538C411.535 336.376 411.712 336.202 411.878 336.02C412.428 335.428 412.851 334.736 413.122 333.984C413.393 333.233 413.506 332.437 413.455 331.642C413.404 330.848 413.19 330.071 412.826 329.358C412.461 328.644 411.953 328.008 411.332 327.486C410.71 326.965 409.988 326.568 409.206 326.319C408.424 326.07 407.599 325.975 406.778 326.038C405.958 326.101 405.159 326.321 404.427 326.686C403.696 327.051 403.047 327.553 402.518 328.163C402.353 328.347 402.201 328.542 402.062 328.745C399.81 327.633 397.398 326.854 394.906 326.435C394.951 325.618 394.822 324.8 394.528 324.033C394.234 323.266 393.78 322.565 393.194 321.974C392.609 321.382 391.904 320.913 391.124 320.596C390.344 320.278 389.505 320.118 388.659 320.126C387.812 320.134 386.977 320.309 386.203 320.641C385.429 320.974 384.734 321.456 384.161 322.058C383.587 322.66 383.148 323.369 382.869 324.142C382.59 324.914 382.477 325.734 382.538 326.551C382.558 326.793 382.593 327.034 382.642 327.272C380.237 328.026 377.962 329.124 375.894 330.532C375.726 330.351 375.547 330.179 375.357 330.019C374.721 329.468 373.975 329.051 373.164 328.793C372.354 328.534 371.497 328.441 370.647 328.518C369.797 328.595 368.973 328.84 368.226 329.239C367.479 329.638 366.825 330.183 366.306 330.837C365.787 331.492 365.413 332.243 365.208 333.045C365.002 333.846 364.971 334.679 365.114 335.492C365.257 336.306 365.573 337.082 366.041 337.772C366.509 338.462 367.12 339.051 367.834 339.502C366.684 341.68 365.879 344.013 365.445 346.422C364.602 346.381 363.758 346.507 362.966 346.792C362.175 347.078 361.452 347.517 360.843 348.083C360.233 348.648 359.75 349.329 359.422 350.082C359.094 350.835 358.93 351.645 358.938 352.462C358.946 353.279 359.127 354.085 359.469 354.832C359.812 355.579 360.309 356.25 360.929 356.804C361.55 357.359 362.282 357.784 363.079 358.055C363.876 358.326 364.722 358.436 365.565 358.379V358.386ZM389.704 339.573C391.975 339.418 394.242 339.917 396.22 341.008C398.197 342.099 399.795 343.732 400.813 345.701C401.83 347.671 402.22 349.887 401.935 352.071C401.649 354.255 400.7 356.308 399.208 357.97C397.716 359.633 395.748 360.83 393.552 361.41C391.356 361.991 389.031 361.929 386.872 361.232C384.712 360.535 382.815 359.235 381.42 357.495C380.025 355.756 379.195 353.655 379.034 351.459C378.821 348.516 379.826 345.612 381.826 343.384C383.827 341.156 386.66 339.787 389.704 339.579V339.573Z" fill="#7E34FF"/>
<path d="M420.749 327.116C420.893 327.104 421.036 327.085 421.178 327.058C421.622 328.388 422.271 329.646 423.101 330.79C422.994 330.883 422.893 330.982 422.797 331.086C422.181 331.773 421.872 332.668 421.938 333.575C422.004 334.482 422.44 335.326 423.15 335.922C423.86 336.518 424.786 336.817 425.724 336.753C426.662 336.689 427.535 336.267 428.151 335.581C428.245 335.475 428.331 335.364 428.411 335.248C429.699 335.883 431.079 336.329 432.503 336.568C432.496 336.708 432.496 336.847 432.503 336.987C432.57 337.893 433.006 338.737 433.716 339.333C434.426 339.929 435.351 340.228 436.289 340.164C437.227 340.099 438.1 339.678 438.716 338.991C439.332 338.305 439.641 337.41 439.575 336.503C439.565 336.364 439.545 336.227 439.517 336.09C440.893 335.661 442.194 335.034 443.377 334.231C443.472 334.335 443.574 334.433 443.683 334.524C444.034 334.819 444.442 335.045 444.884 335.187C445.325 335.33 445.792 335.386 446.256 335.355C446.72 335.323 447.174 335.203 447.59 335.002C448.006 334.801 448.378 334.522 448.683 334.182C448.988 333.842 449.221 333.448 449.368 333.021C449.515 332.594 449.574 332.143 449.541 331.694C449.509 331.245 449.385 330.807 449.177 330.404C448.969 330.002 448.681 329.642 448.329 329.347C448.22 329.258 448.105 329.174 447.987 329.096C448.643 327.851 449.104 326.517 449.352 325.139C449.496 325.149 449.639 325.149 449.783 325.139C450.721 325.075 451.594 324.654 452.21 323.968C452.826 323.281 453.136 322.386 453.07 321.48C453.003 320.573 452.568 319.729 451.858 319.133C451.148 318.537 450.222 318.238 449.285 318.302C449.141 318.312 448.999 318.331 448.858 318.359C448.412 317.029 447.764 315.771 446.935 314.625C447.043 314.533 447.144 314.435 447.239 314.33C447.855 313.643 448.164 312.748 448.097 311.841C448.031 310.935 447.595 310.091 446.885 309.495C446.175 308.899 445.249 308.6 444.311 308.665C443.374 308.729 442.501 309.15 441.884 309.837C441.79 309.942 441.704 310.053 441.625 310.17C440.337 309.534 438.957 309.088 437.532 308.848C437.54 308.709 437.54 308.57 437.532 308.431C437.466 307.524 437.03 306.68 436.32 306.084C435.61 305.489 434.684 305.19 433.747 305.254C432.809 305.318 431.936 305.74 431.32 306.426C430.704 307.113 430.395 308.008 430.461 308.915C430.471 309.053 430.491 309.191 430.519 309.327C429.143 309.757 427.842 310.384 426.659 311.187C426.335 310.842 425.941 310.564 425.501 310.371C425.062 310.178 424.587 310.074 424.104 310.065C423.622 310.056 423.143 310.143 422.696 310.319C422.25 310.496 421.845 310.759 421.507 311.092C421.17 311.425 420.906 311.821 420.732 312.256C420.558 312.691 420.478 313.156 420.497 313.623C420.516 314.089 420.633 314.546 420.841 314.967C421.049 315.388 421.343 315.763 421.707 316.07C421.816 316.161 421.93 316.245 422.049 316.323C421.392 317.569 420.932 318.903 420.684 320.28C420.54 320.271 420.396 320.271 420.253 320.28C419.789 320.312 419.335 320.432 418.919 320.633C418.502 320.834 418.131 321.112 417.826 321.452C417.521 321.792 417.288 322.186 417.14 322.613C416.993 323.04 416.934 323.491 416.966 323.94C416.999 324.389 417.123 324.827 417.331 325.23C417.539 325.633 417.827 325.992 418.178 326.287C418.529 326.582 418.938 326.807 419.379 326.95C419.821 327.092 420.287 327.149 420.751 327.118L420.749 327.116ZM434.555 316.355C435.854 316.266 437.151 316.551 438.282 317.175C439.413 317.799 440.327 318.733 440.909 319.859C441.491 320.986 441.714 322.253 441.551 323.502C441.387 324.751 440.845 325.925 439.991 326.876C439.138 327.827 438.012 328.512 436.756 328.844C435.501 329.176 434.171 329.141 432.936 328.742C431.701 328.344 430.616 327.6 429.818 326.605C429.02 325.61 428.545 324.409 428.453 323.153C428.332 321.47 428.907 319.81 430.051 318.536C431.195 317.262 432.815 316.48 434.555 316.36V316.355Z" fill="white"/>
<path d="M436.04 340.581C435.037 340.58 434.071 340.212 433.338 339.55C432.604 338.888 432.158 337.982 432.088 337.014C432.086 336.979 432.086 336.944 432.088 336.908C430.864 336.673 429.676 336.289 428.551 335.767C428.528 335.796 428.503 335.822 428.48 335.848C427.779 336.573 426.815 337.007 425.79 337.059C424.765 337.111 423.759 336.777 422.984 336.128C422.208 335.478 421.723 334.563 421.631 333.574C421.538 332.586 421.845 331.602 422.487 330.828L422.56 330.748C421.867 329.745 421.308 328.661 420.895 327.523H420.785C419.737 327.593 418.703 327.258 417.91 326.591C417.117 325.925 416.629 324.981 416.554 323.968C416.484 322.954 416.831 321.954 417.52 321.188C418.21 320.421 419.185 319.95 420.233 319.877H420.343C420.587 318.693 420.984 317.544 421.524 316.457C421.495 316.435 421.466 316.412 421.439 316.388C420.645 315.721 420.157 314.776 420.082 313.761C420.008 312.746 420.354 311.744 421.044 310.976C421.734 310.208 422.711 309.736 423.761 309.664C424.811 309.592 425.847 309.927 426.641 310.594L426.724 310.664C427.762 309.995 428.882 309.454 430.059 309.054C430.059 309.019 430.059 308.983 430.049 308.948C430.013 308.445 430.079 307.941 430.244 307.463C430.409 306.985 430.67 306.543 431.011 306.163C431.353 305.783 431.769 305.471 432.235 305.246C432.701 305.021 433.208 304.887 433.728 304.851C434.248 304.816 434.77 304.88 435.264 305.04C435.758 305.199 436.215 305.451 436.608 305.782C437.002 306.112 437.324 306.514 437.557 306.965C437.79 307.416 437.928 307.906 437.965 308.409C437.967 308.444 437.967 308.479 437.965 308.515C439.188 308.751 440.376 309.134 441.501 309.655L441.573 309.573C442.263 308.804 443.24 308.333 444.29 308.261C445.34 308.19 446.376 308.524 447.171 309.192C447.966 309.859 448.454 310.804 448.528 311.819C448.601 312.834 448.255 313.836 447.565 314.605L447.492 314.683C448.185 315.686 448.745 316.769 449.158 317.907H449.267C450.306 317.855 451.324 318.199 452.103 318.866C452.881 319.532 453.359 320.467 453.432 321.47C453.505 322.473 453.169 323.463 452.495 324.229C451.82 324.994 450.862 325.473 449.827 325.563H449.717C449.474 326.746 449.077 327.894 448.536 328.981L448.621 329.05C449.362 329.73 449.804 330.66 449.854 331.647C449.904 332.633 449.559 333.601 448.89 334.348C448.221 335.094 447.28 335.563 446.262 335.656C445.245 335.749 444.23 335.459 443.428 334.846C443.402 334.822 443.373 334.8 443.346 334.774C442.309 335.444 441.188 335.986 440.011 336.384C440.011 336.421 440.011 336.457 440.011 336.49C440.083 337.504 439.736 338.504 439.046 339.271C438.357 340.038 437.381 340.509 436.332 340.581C436.23 340.579 436.134 340.581 436.04 340.581ZM428.414 334.839C428.481 334.839 428.547 334.854 428.607 334.883C429.857 335.5 431.197 335.932 432.58 336.165C432.682 336.182 432.774 336.234 432.838 336.312C432.903 336.391 432.935 336.489 432.93 336.589C432.922 336.712 432.922 336.837 432.93 336.96C432.956 337.374 433.07 337.778 433.265 338.147C433.46 338.515 433.731 338.842 434.061 339.105C434.392 339.368 434.775 339.563 435.187 339.677C435.599 339.791 436.03 339.821 436.455 339.767C436.88 339.713 437.288 339.574 437.655 339.361C438.022 339.147 438.34 338.863 438.588 338.525C438.837 338.188 439.01 337.805 439.099 337.4C439.188 336.994 439.189 336.576 439.103 336.17C439.085 336.072 439.103 335.971 439.156 335.885C439.209 335.799 439.292 335.735 439.39 335.703C440.726 335.286 441.988 334.676 443.136 333.894C443.221 333.837 443.324 333.811 443.427 333.822C443.53 333.834 443.625 333.881 443.694 333.955C443.779 334.046 443.869 334.132 443.963 334.214C444.272 334.478 444.632 334.68 445.022 334.808C445.412 334.937 445.824 334.989 446.236 334.963C446.647 334.937 447.049 334.832 447.418 334.654C447.787 334.477 448.116 334.231 448.386 333.93C448.656 333.629 448.862 333.28 448.992 332.901C449.121 332.523 449.172 332.124 449.142 331.727C449.111 331.329 448.999 330.942 448.813 330.586C448.626 330.231 448.369 329.915 448.056 329.656C447.96 329.576 447.859 329.502 447.754 329.435C447.667 329.379 447.605 329.295 447.579 329.198C447.553 329.101 447.566 328.998 447.613 328.909C448.252 327.7 448.699 326.404 448.938 325.067C448.956 324.968 449.011 324.88 449.092 324.818C449.172 324.755 449.274 324.724 449.377 324.728C449.505 324.735 449.633 324.735 449.761 324.728C450.587 324.672 451.356 324.3 451.899 323.696C452.441 323.091 452.713 322.303 452.655 321.505C452.596 320.706 452.212 319.963 451.587 319.438C450.962 318.914 450.147 318.651 449.321 318.707C449.195 318.715 449.07 318.732 448.946 318.757C448.844 318.775 448.74 318.758 448.651 318.707C448.562 318.657 448.494 318.577 448.461 318.482C448.029 317.19 447.398 315.969 446.59 314.858C446.531 314.776 446.504 314.676 446.516 314.577C446.527 314.478 446.575 314.386 446.652 314.318C446.746 314.237 446.836 314.15 446.919 314.058C447.188 313.759 447.394 313.412 447.524 313.036C447.654 312.66 447.706 312.263 447.677 311.868C447.648 311.472 447.539 311.086 447.356 310.732C447.173 310.377 446.919 310.061 446.609 309.802C445.984 309.278 445.169 309.015 444.343 309.071C443.518 309.128 442.749 309.498 442.205 310.101C442.123 310.195 442.047 310.293 441.977 310.395C441.919 310.477 441.832 310.537 441.732 310.562C441.632 310.587 441.526 310.576 441.434 310.531C440.183 309.914 438.844 309.481 437.461 309.247C437.359 309.231 437.267 309.178 437.202 309.1C437.138 309.022 437.105 308.923 437.111 308.823C437.135 308.397 437.065 307.97 436.905 307.571C436.745 307.173 436.499 306.812 436.184 306.513C435.868 306.214 435.49 305.983 435.075 305.836C434.66 305.69 434.217 305.63 433.776 305.662C432.951 305.719 432.182 306.09 431.639 306.694C431.097 307.299 430.824 308.086 430.882 308.885C430.892 309.01 430.91 309.134 430.936 309.257C430.955 309.355 430.936 309.456 430.883 309.542C430.831 309.628 430.747 309.693 430.649 309.723C429.314 310.142 428.051 310.752 426.903 311.533C426.818 311.59 426.715 311.616 426.612 311.605C426.51 311.594 426.415 311.547 426.345 311.473C426.26 311.383 426.17 311.296 426.076 311.215C425.767 310.951 425.407 310.749 425.017 310.621C424.627 310.492 424.215 310.439 423.803 310.466C423.392 310.492 422.991 310.597 422.622 310.774C422.252 310.952 421.923 311.198 421.653 311.499C421.383 311.799 421.177 312.149 421.047 312.527C420.918 312.906 420.867 313.305 420.898 313.702C420.928 314.099 421.04 314.487 421.226 314.842C421.413 315.198 421.67 315.514 421.983 315.773C422.079 315.853 422.18 315.927 422.285 315.994C422.372 316.05 422.434 316.134 422.46 316.231C422.486 316.328 422.474 316.431 422.426 316.52C421.789 317.729 421.342 319.024 421.101 320.36C421.082 320.458 421.028 320.547 420.947 320.609C420.867 320.672 420.766 320.704 420.662 320.7C420.534 320.692 420.406 320.692 420.278 320.7C419.454 320.759 418.688 321.132 418.147 321.736C417.606 322.34 417.335 323.126 417.393 323.923C417.422 324.319 417.53 324.705 417.713 325.059C417.896 325.414 418.15 325.731 418.459 325.99C418.769 326.25 419.128 326.449 419.517 326.574C419.906 326.7 420.317 326.75 420.726 326.722C420.855 326.712 420.983 326.695 421.11 326.672C421.212 326.653 421.317 326.67 421.406 326.721C421.495 326.771 421.561 326.852 421.593 326.947C422.026 328.239 422.657 329.46 423.464 330.571C423.524 330.653 423.55 330.753 423.538 330.852C423.527 330.952 423.478 331.043 423.401 331.11C423.306 331.191 423.217 331.278 423.134 331.371C422.852 331.681 422.639 332.045 422.509 332.438C422.378 332.831 422.333 333.246 422.375 333.657C422.417 334.068 422.546 334.467 422.754 334.828C422.961 335.188 423.243 335.504 423.582 335.756C423.922 336.007 424.31 336.188 424.725 336.288C425.139 336.388 425.571 336.405 425.992 336.337C426.413 336.27 426.816 336.119 427.175 335.895C427.534 335.671 427.841 335.378 428.078 335.034C428.113 334.977 428.162 334.93 428.221 334.896C428.28 334.862 428.346 334.842 428.414 334.839ZM435.009 329.479C433.173 329.477 431.411 328.777 430.103 327.53C428.795 326.284 428.045 324.591 428.015 322.816C427.985 321.04 428.677 319.325 429.943 318.038C431.208 316.751 432.945 315.996 434.78 315.935C436.615 315.874 438.402 316.512 439.755 317.712C441.109 318.912 441.921 320.578 442.017 322.351C442.113 324.124 441.485 325.863 440.269 327.193C439.052 328.523 437.345 329.338 435.513 329.463C435.346 329.474 435.176 329.479 435.009 329.479ZM434.586 316.764C433.166 316.861 431.825 317.432 430.791 318.378C429.757 319.324 429.095 320.588 428.916 321.954C428.738 323.32 429.055 324.703 429.813 325.868C430.571 327.033 431.723 327.908 433.073 328.344C434.424 328.78 435.889 328.749 437.218 328.258C438.548 327.767 439.661 326.845 440.366 325.649C441.072 324.454 441.327 323.059 441.089 321.702C440.85 320.344 440.132 319.109 439.057 318.207C437.823 317.172 436.215 316.653 434.586 316.764Z" fill="black"/>
<path d="M371.647 364.523H218.828C214.716 364.519 210.773 362.937 207.866 360.125C204.958 357.314 203.322 353.502 203.318 349.526V56.3283C203.322 52.3521 204.958 48.54 207.866 45.7285C210.773 42.9169 214.716 41.3354 218.828 41.3309H371.647C375.759 41.3354 379.701 42.9169 382.609 45.7285C385.517 48.54 387.152 52.3521 387.157 56.3283V349.527C387.152 353.503 385.516 357.315 382.609 360.126C379.701 362.937 375.759 364.519 371.647 364.523ZM218.828 42.1491C214.94 42.1536 211.213 43.6489 208.464 46.307C205.715 48.9652 204.169 52.5691 204.164 56.3283V349.527C204.169 353.287 205.715 356.891 208.464 359.549C211.213 362.207 214.94 363.702 218.828 363.707H371.647C375.535 363.702 379.262 362.207 382.011 359.549C384.76 356.891 386.306 353.287 386.311 349.527V56.3283C386.306 52.5691 384.76 48.9652 382.011 46.307C379.262 43.6489 375.535 42.1536 371.647 42.1491H218.828Z" fill="black"/>
<mask id="path-10-inside-1_943_908" fill="white">
<path d="M366.325 354.295H224.151C221.008 354.292 217.995 353.083 215.772 350.934C213.549 348.786 212.299 345.872 212.295 342.833V62.1394C212.298 59.0999 213.549 56.186 215.771 54.0368C217.994 51.8876 221.008 50.6786 224.151 50.6752H366.325C369.469 50.6786 372.482 51.8876 374.705 54.0368C376.928 56.186 378.178 59.0999 378.182 62.1394V342.827C378.18 345.868 376.93 348.783 374.707 350.933C372.484 353.083 369.47 354.292 366.325 354.295ZM224.151 51.4934C221.231 51.4953 218.432 52.6175 216.367 54.6135C214.302 56.6094 213.14 59.3161 213.137 62.1394V342.827C213.141 345.649 214.302 348.355 216.365 350.35C218.429 352.346 221.227 353.468 224.145 353.472H366.32C369.238 353.469 372.037 352.346 374.101 350.351C376.165 348.355 377.326 345.65 377.33 342.827V62.1394C377.327 59.3168 376.166 56.6107 374.102 54.6148C372.037 52.6189 369.239 51.4963 366.32 51.4934H224.151Z"/>
</mask>
<path d="M366.325 354.295V356.007H366.327L366.325 354.295ZM224.151 354.295L224.149 356.007H224.151V354.295ZM212.295 342.833H210.583L210.583 342.835L212.295 342.833ZM212.295 62.1394L210.583 62.1374V62.1394H212.295ZM224.151 50.6752V48.963L224.149 48.963L224.151 50.6752ZM366.325 50.6752L366.327 48.963H366.325V50.6752ZM378.182 62.1394H379.894V62.1374L378.182 62.1394ZM378.182 342.827L379.894 342.829V342.827H378.182ZM224.151 51.4934V49.7812L224.15 49.7812L224.151 51.4934ZM213.137 62.1394L211.425 62.1375V62.1394H213.137ZM213.137 342.827H211.425L211.425 342.83L213.137 342.827ZM224.145 353.472L224.143 355.184H224.145V353.472ZM366.32 353.472V355.184H366.321L366.32 353.472ZM377.33 342.827L379.042 342.83V342.827H377.33ZM377.33 62.1394H379.042V62.1375L377.33 62.1394ZM366.32 51.4934L366.321 49.7812H366.32V51.4934ZM366.325 352.583H224.151V356.007H366.325V352.583ZM224.153 352.583C221.445 352.58 218.86 351.538 216.962 349.703L214.582 352.165C217.129 354.628 220.571 356.004 224.149 356.007L224.153 352.583ZM216.962 349.703C215.066 347.87 214.011 345.398 214.007 342.831L210.583 342.835C210.587 346.347 212.033 349.701 214.582 352.165L216.962 349.703ZM214.007 342.833V62.1394H210.583V342.833H214.007ZM214.007 62.1414C214.01 59.5743 215.066 57.101 216.962 55.2676L214.581 52.8059C212.032 55.271 210.587 58.6256 210.583 62.1374L214.007 62.1414ZM216.962 55.2676C218.86 53.4324 221.445 52.3903 224.153 52.3873L224.149 48.963C220.571 48.9669 217.129 50.3427 214.581 52.8059L216.962 55.2676ZM224.151 52.3873H366.325V48.963H224.151V52.3873ZM366.324 52.3873C369.032 52.3903 371.617 53.4324 373.515 55.2676L375.895 52.8059C373.348 50.3427 369.906 48.9669 366.327 48.963L366.324 52.3873ZM373.515 55.2676C375.411 57.101 376.466 59.5743 376.469 62.1414L379.894 62.1374C379.89 58.6256 378.445 55.271 375.895 52.8059L373.515 55.2676ZM376.469 62.1394V342.827H379.894V62.1394H376.469ZM376.469 342.826C376.468 345.394 375.413 347.868 373.517 349.702L375.897 352.164C378.447 349.697 379.891 346.341 379.894 342.829L376.469 342.826ZM373.517 349.702C371.618 351.538 369.033 352.581 366.324 352.583L366.327 356.007C369.907 356.004 373.35 354.628 375.897 352.164L373.517 349.702ZM224.15 49.7812C220.795 49.7835 217.567 51.0724 215.177 53.3824L217.557 55.8445C219.297 54.1626 221.668 53.2072 224.152 53.2055L224.15 49.7812ZM215.177 53.3824C212.785 55.6943 211.429 58.8418 211.425 62.1375L214.849 62.1412C214.852 59.7905 215.819 57.5246 217.557 55.8445L215.177 53.3824ZM211.425 62.1394V342.827H214.849V62.1394H211.425ZM211.425 342.83C211.429 346.124 212.785 349.27 215.175 351.581L217.556 349.119C215.819 347.44 214.852 345.175 214.849 342.825L211.425 342.83ZM215.175 351.581C217.564 353.89 220.79 355.18 224.143 355.184L224.147 351.759C221.664 351.756 219.295 350.801 217.556 349.119L215.175 351.581ZM224.145 355.184H366.32V351.759H224.145V355.184ZM366.321 355.184C369.675 355.18 372.902 353.891 375.291 351.582L372.911 349.12C371.171 350.801 368.801 351.757 366.318 351.759L366.321 355.184ZM375.291 351.582C377.682 349.27 379.038 346.124 379.042 342.83L375.617 342.825C375.615 345.175 374.648 347.44 372.911 349.12L375.291 351.582ZM379.042 342.827V62.1394H375.617V342.827H379.042ZM379.042 62.1375C379.038 58.8426 377.682 55.6957 375.292 53.3839L372.911 55.8456C374.649 57.5256 375.615 59.791 375.617 62.1412L379.042 62.1375ZM375.292 53.3839C372.903 51.0741 369.676 49.7846 366.321 49.7812L366.318 53.2055C368.802 53.2081 371.172 54.1638 372.911 55.8456L375.292 53.3839ZM366.32 49.7812H224.151V53.2055H366.32V49.7812Z" fill="black" mask="url(#path-10-inside-1_943_908)"/>
<path d="M312.384 60.6165H276.021C275.914 60.6094 275.813 60.5632 275.74 60.4871C275.666 60.411 275.625 60.3106 275.625 60.2064C275.625 60.1022 275.666 60.0019 275.74 59.9258C275.813 59.8496 275.914 59.8034 276.021 59.7964H312.39C312.498 59.8034 312.598 59.8496 312.672 59.9258C312.746 60.0019 312.786 60.1022 312.786 60.2064C312.786 60.3106 312.746 60.411 312.672 60.4871C312.598 60.5632 312.498 60.6094 312.39 60.6165H312.384Z" fill="black"/>
<path d="M358.932 98.0088H231.544V187.095H358.932V98.0088Z" fill="#E2EAFF"/>
<path d="M351.128 284.536H239.349C235.038 284.536 231.544 287.914 231.544 292.082V307.968C231.544 312.136 235.038 315.514 239.349 315.514H351.128C355.438 315.514 358.932 312.136 358.932 307.968V292.082C358.932 287.914 355.438 284.536 351.128 284.536Z" fill="#E2EAFF"/>
<path d="M310.238 341.342C309.105 341.342 307.997 341.017 307.055 340.408C306.113 339.799 305.379 338.934 304.945 337.922C304.511 336.91 304.398 335.796 304.619 334.721C304.84 333.647 305.386 332.66 306.187 331.885C306.988 331.11 308.009 330.583 309.12 330.369C310.231 330.155 311.383 330.265 312.43 330.684C313.477 331.103 314.372 331.813 315.001 332.724C315.631 333.635 315.967 334.706 315.967 335.802C315.965 337.271 315.361 338.678 314.287 339.717C313.213 340.755 311.757 341.34 310.238 341.342ZM310.238 331.081C309.272 331.08 308.328 331.357 307.525 331.875C306.721 332.394 306.095 333.131 305.725 333.994C305.355 334.857 305.258 335.806 305.447 336.722C305.635 337.638 306.1 338.479 306.783 339.14C307.465 339.8 308.335 340.25 309.283 340.433C310.23 340.615 311.212 340.521 312.104 340.164C312.996 339.807 313.759 339.202 314.296 338.425C314.832 337.649 315.119 336.736 315.119 335.802C315.118 334.55 314.603 333.35 313.688 332.465C312.773 331.58 311.532 331.082 310.238 331.081Z" fill="black"/>
<path d="M294.752 341.342C293.619 341.342 292.512 341.017 291.57 340.408C290.627 339.799 289.893 338.934 289.46 337.922C289.026 336.91 288.912 335.796 289.134 334.721C289.355 333.647 289.9 332.66 290.701 331.885C291.503 331.11 292.523 330.583 293.635 330.369C294.746 330.155 295.898 330.265 296.945 330.684C297.992 331.103 298.886 331.813 299.516 332.724C300.146 333.635 300.482 334.706 300.482 335.802C300.48 337.271 299.876 338.679 298.802 339.717C297.728 340.756 296.271 341.34 294.752 341.342ZM294.752 331.081C293.787 331.081 292.843 331.357 292.04 331.876C291.237 332.395 290.611 333.132 290.241 333.995C289.872 334.858 289.775 335.807 289.963 336.723C290.152 337.639 290.617 338.48 291.3 339.141C291.983 339.801 292.853 340.251 293.8 340.433C294.747 340.615 295.729 340.521 296.621 340.164C297.513 339.807 298.276 339.201 298.812 338.425C299.349 337.649 299.635 336.736 299.635 335.802C299.634 334.55 299.119 333.35 298.204 332.465C297.288 331.58 296.047 331.082 294.752 331.081Z" fill="black"/>
<path d="M282.437 340.725C285.26 339.038 286.134 335.457 284.389 332.727C282.644 329.997 278.94 329.151 276.117 330.839C273.294 332.526 272.42 336.107 274.165 338.837C275.91 341.567 279.613 342.412 282.437 340.725Z" fill="#7E34FF"/>
<path d="M358.931 205.64H231.034V265.107H358.931V205.64Z" fill="white"/>
<path d="M358.93 265.516H231.041C230.929 265.516 230.821 265.473 230.742 265.396C230.662 265.319 230.618 265.215 230.618 265.107V205.64C230.617 205.586 230.628 205.533 230.649 205.483C230.671 205.433 230.702 205.388 230.741 205.35C230.78 205.312 230.827 205.282 230.879 205.261C230.93 205.241 230.985 205.231 231.041 205.231H358.93C358.986 205.231 359.041 205.241 359.092 205.261C359.144 205.282 359.19 205.312 359.23 205.35C359.269 205.388 359.3 205.433 359.321 205.483C359.342 205.533 359.353 205.586 359.353 205.64V265.107C359.353 265.215 359.308 265.319 359.229 265.396C359.15 265.473 359.042 265.516 358.93 265.516ZM231.456 264.696H358.507V206.049H231.456V264.696Z" fill="#E2EAFF"/>
<path d="M346.966 223.503H313.696C313.584 223.503 313.476 223.46 313.397 223.383C313.318 223.306 313.273 223.202 313.273 223.094C313.273 222.985 313.318 222.881 313.397 222.805C313.476 222.728 313.584 222.685 313.696 222.685H346.966C347.079 222.685 347.186 222.728 347.266 222.805C347.345 222.881 347.39 222.985 347.39 223.094C347.39 223.202 347.345 223.306 347.266 223.383C347.186 223.46 347.079 223.503 346.966 223.503Z" fill="black"/>
<path d="M305.648 223.503H288.371C288.259 223.503 288.151 223.46 288.072 223.383C287.992 223.306 287.948 223.202 287.948 223.094C287.948 222.985 287.992 222.881 288.072 222.805C288.151 222.728 288.259 222.685 288.371 222.685H305.648C305.761 222.685 305.868 222.728 305.948 222.805C306.027 222.881 306.071 222.985 306.071 223.094C306.071 223.202 306.027 223.306 305.948 223.383C305.868 223.46 305.761 223.503 305.648 223.503Z" fill="black"/>
<path d="M346.965 234.675H337.157C337.099 234.679 337.04 234.671 336.985 234.652C336.931 234.634 336.88 234.604 336.838 234.566C336.795 234.527 336.761 234.481 336.738 234.429C336.715 234.377 336.703 234.322 336.703 234.265C336.703 234.209 336.715 234.153 336.738 234.102C336.761 234.05 336.795 234.004 336.838 233.965C336.88 233.927 336.931 233.897 336.985 233.878C337.04 233.859 337.099 233.852 337.157 233.855H346.965C347.023 233.852 347.081 233.859 347.136 233.878C347.191 233.897 347.241 233.927 347.284 233.965C347.326 234.004 347.36 234.05 347.383 234.102C347.406 234.153 347.418 234.209 347.418 234.265C347.418 234.322 347.406 234.377 347.383 234.429C347.36 234.481 347.326 234.527 347.284 234.566C347.241 234.604 347.191 234.634 347.136 234.652C347.081 234.671 347.023 234.679 346.965 234.675Z" fill="black"/>
<path d="M324.535 234.675H288.369C288.261 234.668 288.16 234.622 288.087 234.546C288.013 234.47 287.972 234.369 287.972 234.265C287.972 234.161 288.013 234.061 288.087 233.984C288.16 233.908 288.261 233.862 288.369 233.855H324.535C324.643 233.862 324.744 233.908 324.817 233.984C324.891 234.061 324.932 234.161 324.932 234.265C324.932 234.369 324.891 234.47 324.817 234.546C324.744 234.622 324.643 234.668 324.535 234.675Z" fill="black"/>
<path d="M346.967 245.846H319.432C319.32 245.846 319.212 245.803 319.133 245.726C319.053 245.649 319.009 245.545 319.009 245.437C319.009 245.328 319.053 245.224 319.133 245.147C319.212 245.071 319.32 245.028 319.432 245.028H346.967C347.08 245.028 347.187 245.071 347.267 245.147C347.346 245.224 347.391 245.328 347.391 245.437C347.391 245.545 347.346 245.649 347.267 245.726C347.187 245.803 347.08 245.846 346.967 245.846Z" fill="black"/>
<path d="M306.958 245.846H288.371C288.259 245.846 288.151 245.803 288.072 245.726C287.992 245.649 287.948 245.545 287.948 245.437C287.948 245.328 287.992 245.224 288.072 245.147C288.151 245.071 288.259 245.028 288.371 245.028H306.958C307.07 245.028 307.178 245.071 307.257 245.147C307.337 245.224 307.381 245.328 307.381 245.437C307.381 245.545 307.337 245.649 307.257 245.726C307.178 245.803 307.07 245.846 306.958 245.846Z" fill="black"/>
<path d="M272.552 246.159C279.002 239.923 279.002 229.811 272.552 223.574C266.102 217.338 255.645 217.338 249.195 223.574C242.745 229.811 242.745 239.923 249.195 246.159C255.645 252.396 266.102 252.396 272.552 246.159Z" fill="#E2EAFF"/>
<path d="M252.447 161.476C253.297 157.993 251.067 154.504 247.465 153.682C243.864 152.86 240.255 155.017 239.405 158.499C238.555 161.982 240.785 165.471 244.387 166.293C247.988 167.115 251.597 164.958 252.447 161.476Z" fill="#7E34FF"/>
<path d="M233.905 193.348C233.849 193.348 233.795 193.337 233.743 193.317C233.692 193.296 233.646 193.265 233.607 193.227C233.308 192.939 233.068 192.598 232.899 192.223C232.869 192.173 232.85 192.118 232.843 192.061C232.837 192.003 232.843 191.945 232.861 191.89C232.88 191.835 232.91 191.785 232.95 191.742C232.99 191.699 233.039 191.665 233.094 191.641C233.148 191.618 233.207 191.606 233.267 191.607C233.327 191.607 233.386 191.62 233.44 191.644C233.494 191.668 233.543 191.703 233.582 191.746C233.621 191.79 233.651 191.841 233.668 191.896C233.795 192.176 233.974 192.432 234.197 192.649C234.256 192.707 234.296 192.78 234.312 192.859C234.327 192.938 234.319 193.02 234.287 193.095C234.255 193.169 234.201 193.233 234.132 193.278C234.062 193.323 233.981 193.348 233.897 193.348H233.905Z" fill="black"/>
<path d="M294.823 116.376C294.768 116.376 294.712 116.365 294.661 116.345C294.609 116.324 294.562 116.294 294.523 116.256C294.483 116.218 294.452 116.173 294.431 116.123C294.409 116.074 294.398 116.02 294.398 115.966V85.1293H102.732C102.624 85.1223 102.524 85.076 102.45 84.9999C102.376 84.9238 102.335 84.8234 102.335 84.7192C102.335 84.615 102.376 84.5147 102.45 84.4386C102.524 84.3625 102.624 84.3162 102.732 84.3092H294.823C294.936 84.3097 295.043 84.3532 295.123 84.4302C295.202 84.5072 295.246 84.6115 295.246 84.7202V115.961C295.247 116.015 295.237 116.069 295.216 116.119C295.195 116.169 295.164 116.215 295.125 116.254C295.085 116.292 295.038 116.323 294.987 116.344C294.935 116.365 294.879 116.376 294.823 116.376Z" fill="black"/>
<path d="M102.854 90.3415C106.063 90.3415 108.664 87.8247 108.664 84.7201C108.664 81.6154 106.063 79.0986 102.854 79.0986C99.6456 79.0986 97.0444 81.6154 97.0444 84.7201C97.0444 87.8247 99.6456 90.3415 102.854 90.3415Z" fill="#7E34FF"/>
<path d="M84.5944 90.3024C87.7712 90.3024 90.3465 87.8139 90.3465 84.7441C90.3465 81.6744 87.7712 79.1859 84.5944 79.1859C81.4176 79.1859 78.8423 81.6744 78.8423 84.7441C78.8423 87.8139 81.4176 90.3024 84.5944 90.3024Z" fill="#E2EAFF"/>
<path d="M67.8127 90.3026C70.9895 90.3026 73.5648 87.8141 73.5648 84.7444C73.5648 81.6747 70.9895 79.1862 67.8127 79.1862C64.6359 79.1862 62.0605 81.6747 62.0605 84.7444C62.0605 87.8141 64.6359 90.3026 67.8127 90.3026Z" fill="#E2EAFF"/>
<path d="M197.466 93.315H170.095C169.983 93.315 169.876 93.2719 169.796 93.1952C169.717 93.1185 169.672 93.0144 169.672 92.9059C169.672 92.7974 169.717 92.6934 169.796 92.6167C169.876 92.5399 169.983 92.4968 170.095 92.4968H197.466C197.521 92.4968 197.576 92.5074 197.628 92.528C197.679 92.5485 197.726 92.5787 197.765 92.6167C197.804 92.6546 197.835 92.6997 197.857 92.7494C197.878 92.799 197.889 92.8522 197.889 92.9059C197.889 92.9597 197.878 93.0129 197.857 93.0625C197.835 93.1121 197.804 93.1572 197.765 93.1952C197.726 93.2332 197.679 93.2633 197.628 93.2839C197.576 93.3045 197.521 93.315 197.466 93.315Z" fill="black"/>
<path d="M197.468 101.259H178.622C178.514 101.252 178.413 101.206 178.34 101.13C178.266 101.054 178.225 100.953 178.225 100.849C178.225 100.745 178.266 100.645 178.34 100.568C178.413 100.492 178.514 100.446 178.622 100.439H197.468C197.576 100.446 197.677 100.492 197.75 100.568C197.824 100.645 197.865 100.745 197.865 100.849C197.865 100.953 197.824 101.054 197.75 101.13C197.677 101.206 197.576 101.252 197.468 101.259Z" fill="black"/>
<path d="M181.147 208.601H141.146C141.09 208.601 141.035 208.59 140.984 208.57C140.932 208.55 140.885 208.519 140.846 208.481C140.807 208.443 140.776 208.398 140.754 208.348C140.733 208.299 140.722 208.245 140.723 208.192V169.513C140.722 169.459 140.733 169.405 140.754 169.356C140.775 169.306 140.807 169.26 140.846 169.222C140.885 169.184 140.932 169.154 140.983 169.133C141.035 169.112 141.09 169.102 141.146 169.102H178.859C178.966 169.109 179.067 169.155 179.141 169.231C179.214 169.307 179.255 169.408 179.255 169.512C179.255 169.616 179.214 169.716 179.141 169.792C179.067 169.868 178.966 169.915 178.859 169.922H141.565V207.781H180.722V179.902C180.729 179.798 180.777 179.701 180.856 179.629C180.935 179.558 181.038 179.519 181.146 179.519C181.254 179.519 181.358 179.558 181.436 179.629C181.515 179.701 181.563 179.798 181.57 179.902V208.192C181.57 208.3 181.526 208.404 181.446 208.481C181.367 208.558 181.259 208.601 181.147 208.601Z" fill="black"/>
<path d="M161.141 201.962C161.074 201.962 161.007 201.946 160.947 201.917C160.888 201.887 160.836 201.844 160.797 201.791L145.123 180.574C145.058 180.485 145.031 180.376 145.05 180.269C145.068 180.161 145.13 180.066 145.221 180.003C145.312 179.94 145.426 179.914 145.536 179.932C145.647 179.95 145.746 180.009 145.811 180.098L161.141 200.848L188.113 164.509C188.145 164.464 188.186 164.426 188.233 164.396C188.28 164.367 188.334 164.347 188.389 164.337C188.445 164.328 188.502 164.329 188.556 164.341C188.611 164.354 188.663 164.376 188.709 164.408C188.755 164.44 188.793 164.48 188.823 164.527C188.852 164.573 188.872 164.625 188.88 164.679C188.889 164.733 188.886 164.788 188.872 164.841C188.858 164.894 188.833 164.943 188.799 164.987L161.491 201.791C161.451 201.845 161.398 201.889 161.338 201.918C161.277 201.948 161.209 201.963 161.141 201.962Z" fill="black"/>
<path d="M434.642 290.178C434.587 290.178 434.532 290.167 434.48 290.147C434.429 290.126 434.382 290.096 434.343 290.058C434.303 290.02 434.272 289.975 434.251 289.925C434.23 289.876 434.219 289.822 434.219 289.768V208.515C434.219 208.406 434.264 208.302 434.343 208.226C434.422 208.149 434.53 208.106 434.642 208.106C434.755 208.106 434.862 208.149 434.942 208.226C435.021 208.302 435.065 208.406 435.065 208.515V289.778C435.063 289.885 435.018 289.987 434.939 290.062C434.86 290.136 434.753 290.178 434.642 290.178Z" fill="black"/>
<path d="M434.644 147.006C434.588 147.007 434.533 146.996 434.481 146.976C434.43 146.955 434.383 146.925 434.344 146.887C434.305 146.849 434.273 146.804 434.252 146.754C434.231 146.704 434.22 146.651 434.221 146.597V109.25H402.667C402.56 109.243 402.459 109.197 402.386 109.12C402.312 109.044 402.271 108.944 402.271 108.84C402.271 108.736 402.312 108.635 402.386 108.559C402.459 108.483 402.56 108.437 402.667 108.43H434.644C434.756 108.43 434.863 108.473 434.943 108.55C435.022 108.626 435.067 108.73 435.067 108.839V146.597C435.067 146.651 435.056 146.704 435.035 146.754C435.014 146.804 434.983 146.849 434.943 146.887C434.904 146.925 434.857 146.955 434.806 146.976C434.754 146.996 434.699 147.007 434.644 147.006Z" fill="black"/>
<path d="M434.641 163.071C437.137 163.071 439.161 161.111 439.161 158.694C439.161 156.276 437.137 154.316 434.641 154.316C432.145 154.316 430.122 156.276 430.122 158.694C430.122 161.111 432.145 163.071 434.641 163.071Z" fill="white"/>
<path d="M434.644 163.482C433.664 163.484 432.706 163.204 431.89 162.679C431.074 162.154 430.438 161.407 430.062 160.532C429.686 159.658 429.586 158.695 429.776 157.765C429.966 156.836 430.437 155.982 431.129 155.311C431.821 154.64 432.704 154.183 433.665 153.998C434.625 153.812 435.622 153.907 436.527 154.269C437.433 154.631 438.206 155.245 438.751 156.032C439.296 156.82 439.586 157.746 439.586 158.694C439.586 159.962 439.065 161.178 438.139 162.076C437.212 162.973 435.955 163.479 434.644 163.482ZM434.644 154.725C433.832 154.724 433.038 154.955 432.362 155.39C431.686 155.826 431.159 156.445 430.847 157.17C430.535 157.895 430.453 158.693 430.61 159.463C430.768 160.233 431.158 160.941 431.731 161.497C432.305 162.053 433.036 162.431 433.833 162.585C434.629 162.739 435.455 162.661 436.205 162.36C436.955 162.06 437.597 161.552 438.048 160.899C438.499 160.246 438.74 159.479 438.74 158.694C438.74 157.642 438.309 156.634 437.541 155.89C436.773 155.146 435.731 154.727 434.644 154.725Z" fill="black"/>
<path d="M434.641 181.16C437.137 181.16 439.161 179.201 439.161 176.783C439.161 174.365 437.137 172.406 434.641 172.406C432.145 172.406 430.122 174.365 430.122 176.783C430.122 179.201 432.145 181.16 434.641 181.16Z" fill="white"/>
<path d="M434.644 181.57C433.664 181.572 432.705 181.292 431.89 180.767C431.074 180.242 430.438 179.495 430.062 178.62C429.685 177.745 429.586 176.782 429.776 175.852C429.966 174.923 430.437 174.069 431.13 173.398C431.822 172.728 432.705 172.271 433.666 172.085C434.627 171.9 435.623 171.995 436.528 172.357C437.434 172.719 438.208 173.334 438.752 174.121C439.296 174.909 439.587 175.836 439.586 176.783C439.586 178.051 439.065 179.267 438.139 180.165C437.212 181.062 435.955 181.567 434.644 181.57ZM434.644 172.813C433.831 172.811 433.037 173.042 432.36 173.478C431.684 173.913 431.156 174.532 430.844 175.257C430.531 175.983 430.449 176.781 430.606 177.552C430.763 178.323 431.154 179.031 431.727 179.587C432.301 180.143 433.033 180.522 433.83 180.676C434.626 180.83 435.452 180.752 436.203 180.452C436.954 180.152 437.596 179.643 438.047 178.99C438.499 178.337 438.74 177.569 438.74 176.783C438.74 175.732 438.309 174.723 437.541 173.979C436.773 173.235 435.731 172.815 434.644 172.813Z" fill="black"/>
<path d="M434.641 199.249C437.137 199.249 439.161 197.289 439.161 194.871C439.161 192.454 437.137 190.494 434.641 190.494C432.145 190.494 430.122 192.454 430.122 194.871C430.122 197.289 432.145 199.249 434.641 199.249Z" fill="#7E34FF"/>
<rect x="109.205" y="223.053" width="71.911" height="56.2097" rx="28.1048" fill="#CCF7FF"/>
<g clip-path="url(#clip2_943_908)">
<path d="M138.74 247.024L133.603 252.16L138.74 257.297" stroke="#4D4D4D" stroke-width="2.56825" stroke-linecap="round" stroke-linejoin="round"/>
<path d="M151.581 247.024L156.717 252.16L151.581 257.297" stroke="#4D4D4D" stroke-width="2.56825" stroke-linecap="round" stroke-linejoin="round"/>
<path d="M147.728 241.887L142.592 262.433" stroke="#4D4D4D" stroke-width="2.56825" stroke-linecap="round" stroke-linejoin="round"/>
</g>
</g>
</g>
<defs>
<clipPath id="clip0_943_908">
<rect x="0.725586" width="555.484" height="410" fill="white"/>
</clipPath>
<clipPath id="clip1_943_908">
<rect width="412.791" height="340.3" fill="white" transform="translate(40.7188 41.3307)"/>
</clipPath>
<clipPath id="clip2_943_908">
<rect width="30.819" height="30.819" fill="white" transform="translate(129.751 236.751)"/>
</clipPath>
</defs>
</svg>
