<svg width="556" height="410" viewBox="0 0 556 410" fill="none" xmlns="http://www.w3.org/2000/svg">
<g clip-path="url(#clip0_404_1302)">
<rect width="555.484" height="410" fill="black"/>
<g opacity="0.3">
<rect x="330.645" y="52.9033" width="119.852" height="51.365" rx="25.6825" fill="#EEEEEE"/>
<rect x="421.39" y="179.604" width="119.852" height="51.365" rx="25.6825" fill="#EEEEEE"/>
<rect x="330.645" y="116.254" width="210.596" height="51.365" rx="25.6825" fill="#EEEEEE"/>
</g>
<g clip-path="url(#clip1_404_1302)">
<path d="M180.416 169.51H140.413V208.191H180.416V169.51Z" fill="white"/>
<path d="M364.839 358.386C365.09 358.369 365.339 358.336 365.585 358.288C366.365 360.614 367.501 362.813 368.957 364.813C368.769 364.975 368.592 365.148 368.426 365.33C367.876 365.922 367.453 366.614 367.182 367.365C366.911 368.117 366.798 368.913 366.849 369.707C366.899 370.502 367.113 371.278 367.478 371.992C367.842 372.705 368.35 373.341 368.972 373.863C369.593 374.385 370.316 374.782 371.098 375.03C371.88 375.279 372.705 375.375 373.525 375.312C374.346 375.249 375.145 375.028 375.877 374.664C376.608 374.299 377.257 373.797 377.786 373.187C377.949 373.002 378.102 372.808 378.242 372.606C380.494 373.718 382.906 374.496 385.398 374.916C385.353 375.733 385.481 376.551 385.776 377.318C386.07 378.086 386.524 378.787 387.109 379.378C387.695 379.969 388.399 380.438 389.179 380.756C389.959 381.074 390.798 381.233 391.645 381.226C392.491 381.218 393.327 381.042 394.101 380.71C394.874 380.378 395.569 379.896 396.143 379.294C396.716 378.692 397.156 377.982 397.435 377.21C397.714 376.437 397.827 375.617 397.765 374.801C397.746 374.558 397.711 374.317 397.661 374.079C400.067 373.325 402.341 372.226 404.41 370.819C404.577 371.001 404.757 371.172 404.946 371.333C406.192 372.342 407.798 372.838 409.418 372.714C411.038 372.589 412.543 371.855 413.608 370.668C414.674 369.481 415.214 367.937 415.114 366.369C415.014 364.8 414.28 363.333 413.072 362.282C412.881 362.123 412.68 361.976 412.47 361.841C413.619 359.663 414.424 357.331 414.858 354.922C415.703 354.965 416.549 354.841 417.343 354.556C418.136 354.272 418.861 353.833 419.473 353.267C420.084 352.701 420.569 352.02 420.898 351.265C421.226 350.511 421.392 349.7 421.384 348.881C421.375 348.063 421.194 347.255 420.85 346.507C420.507 345.759 420.008 345.087 419.385 344.532C418.763 343.978 418.029 343.552 417.23 343.282C416.431 343.013 415.583 342.904 414.739 342.963C414.488 342.982 414.239 343.016 413.993 343.064C413.214 340.737 412.077 338.538 410.622 336.538C410.809 336.376 410.986 336.202 411.152 336.02C411.703 335.428 412.125 334.736 412.396 333.984C412.667 333.233 412.78 332.437 412.73 331.642C412.679 330.848 412.465 330.071 412.1 329.358C411.736 328.644 411.228 328.008 410.606 327.486C409.985 326.965 409.262 326.568 408.48 326.319C407.698 326.07 406.873 325.975 406.053 326.038C405.232 326.101 404.433 326.321 403.701 326.686C402.97 327.051 402.321 327.553 401.792 328.163C401.628 328.347 401.475 328.542 401.337 328.745C399.084 327.633 396.672 326.854 394.181 326.435C394.226 325.618 394.097 324.8 393.802 324.033C393.508 323.266 393.054 322.565 392.469 321.974C391.883 321.382 391.179 320.913 390.399 320.596C389.619 320.278 388.78 320.118 387.933 320.126C387.087 320.134 386.251 320.309 385.477 320.641C384.704 320.974 384.009 321.456 383.435 322.058C382.862 322.66 382.422 323.369 382.143 324.142C381.864 324.914 381.752 325.734 381.813 326.551C381.833 326.793 381.867 327.034 381.917 327.272C379.511 328.026 377.236 329.124 375.168 330.532C375 330.351 374.821 330.179 374.632 330.019C373.996 329.468 373.249 329.051 372.439 328.793C371.628 328.534 370.771 328.441 369.921 328.518C369.072 328.595 368.247 328.84 367.501 329.239C366.754 329.638 366.1 330.183 365.58 330.837C365.061 331.492 364.687 332.243 364.482 333.045C364.277 333.846 364.245 334.679 364.388 335.492C364.532 336.306 364.848 337.082 365.316 337.772C365.784 338.462 366.394 339.051 367.108 339.502C365.958 341.68 365.153 344.013 364.72 346.422C363.876 346.381 363.032 346.507 362.241 346.792C361.449 347.078 360.726 347.517 360.117 348.083C359.507 348.648 359.024 349.329 358.696 350.082C358.369 350.835 358.204 351.645 358.212 352.462C358.22 353.279 358.401 354.085 358.744 354.832C359.086 355.579 359.583 356.25 360.204 356.804C360.825 357.359 361.556 357.784 362.353 358.055C363.15 358.326 363.996 358.436 364.839 358.379V358.386ZM388.978 339.573C391.249 339.418 393.517 339.917 395.494 341.008C397.471 342.099 399.07 343.732 400.087 345.701C401.104 347.671 401.495 349.887 401.209 352.071C400.924 354.255 399.975 356.308 398.483 357.97C396.99 359.633 395.022 360.83 392.826 361.41C390.63 361.991 388.306 361.929 386.146 361.232C383.987 360.535 382.09 359.235 380.695 357.495C379.3 355.756 378.469 353.655 378.309 351.459C378.096 348.516 379.1 345.612 381.101 343.384C383.101 341.156 385.935 339.787 388.978 339.579V339.573Z" fill="#7E34FF"/>
<path d="M420.024 327.116C420.167 327.104 420.311 327.085 420.452 327.058C420.897 328.388 421.545 329.646 422.376 330.79C422.269 330.883 422.167 330.982 422.072 331.086C421.455 331.773 421.146 332.668 421.212 333.575C421.279 334.482 421.715 335.326 422.425 335.922C423.135 336.518 424.06 336.817 424.998 336.753C425.936 336.689 426.809 336.267 427.426 335.581C427.519 335.475 427.606 335.364 427.685 335.248C428.973 335.883 430.353 336.329 431.778 336.568C431.77 336.708 431.77 336.847 431.778 336.987C431.844 337.893 432.28 338.737 432.99 339.333C433.7 339.929 434.626 340.228 435.564 340.164C436.501 340.099 437.374 339.678 437.99 338.991C438.607 338.305 438.916 337.41 438.849 336.503C438.839 336.364 438.82 336.227 438.791 336.09C440.167 335.661 441.469 335.034 442.651 334.231C442.746 334.335 442.849 334.433 442.957 334.524C443.309 334.819 443.717 335.045 444.158 335.187C444.6 335.33 445.066 335.386 445.53 335.355C445.995 335.323 446.448 335.203 446.864 335.002C447.281 334.801 447.652 334.522 447.957 334.182C448.262 333.842 448.495 333.448 448.643 333.021C448.79 332.594 448.849 332.143 448.816 331.694C448.783 331.245 448.659 330.807 448.451 330.404C448.243 330.002 447.955 329.642 447.603 329.347C447.494 329.258 447.38 329.174 447.261 329.096C447.918 327.851 448.378 326.517 448.626 325.139C448.77 325.149 448.914 325.149 449.057 325.139C449.995 325.075 450.868 324.654 451.484 323.968C452.101 323.281 452.41 322.386 452.344 321.48C452.278 320.573 451.842 319.729 451.132 319.133C450.422 318.537 449.497 318.238 448.559 318.302C448.416 318.312 448.273 318.331 448.132 318.359C447.687 317.029 447.038 315.771 446.209 314.625C446.317 314.533 446.419 314.435 446.513 314.33C447.129 313.643 447.438 312.748 447.372 311.841C447.305 310.935 446.869 310.091 446.159 309.495C445.449 308.899 444.523 308.6 443.586 308.665C442.648 308.729 441.775 309.15 441.159 309.837C441.065 309.942 440.978 310.053 440.899 310.17C439.611 309.534 438.232 309.088 436.807 308.848C436.815 308.709 436.815 308.57 436.807 308.431C436.741 307.524 436.304 306.68 435.594 306.084C434.884 305.489 433.959 305.19 433.021 305.254C432.083 305.318 431.21 305.74 430.594 306.426C429.978 307.113 429.669 308.008 429.735 308.915C429.746 309.053 429.765 309.191 429.793 309.327C428.418 309.757 427.117 310.384 425.933 311.187C425.609 310.842 425.215 310.564 424.776 310.371C424.337 310.178 423.861 310.074 423.379 310.065C422.896 310.056 422.417 310.143 421.971 310.319C421.524 310.496 421.12 310.759 420.782 311.092C420.444 311.425 420.18 311.821 420.006 312.256C419.833 312.691 419.753 313.156 419.771 313.623C419.79 314.089 419.907 314.546 420.115 314.967C420.323 315.388 420.618 315.763 420.981 316.07C421.09 316.161 421.204 316.245 421.324 316.323C420.667 317.569 420.207 318.903 419.958 320.28C419.815 320.271 419.671 320.271 419.527 320.28C419.063 320.312 418.61 320.432 418.193 320.633C417.777 320.834 417.405 321.112 417.1 321.452C416.795 321.792 416.562 322.186 416.415 322.613C416.267 323.04 416.208 323.491 416.241 323.94C416.273 324.389 416.397 324.827 416.605 325.23C416.813 325.633 417.101 325.992 417.452 326.287C417.804 326.582 418.212 326.807 418.653 326.95C419.095 327.092 419.561 327.149 420.025 327.118L420.024 327.116ZM433.83 316.355C435.129 316.266 436.425 316.551 437.556 317.175C438.687 317.799 439.601 318.733 440.183 319.859C440.765 320.986 440.988 322.253 440.825 323.502C440.662 324.751 440.119 325.925 439.266 326.876C438.412 327.827 437.287 328.512 436.031 328.844C434.775 329.176 433.445 329.141 432.21 328.742C430.975 328.344 429.89 327.6 429.092 326.605C428.294 325.61 427.82 324.409 427.728 323.153C427.607 321.47 428.181 319.81 429.325 318.536C430.469 317.262 432.09 316.48 433.83 316.36V316.355Z" fill="white"/>
<path d="M435.314 340.581C434.311 340.58 433.346 340.212 432.612 339.55C431.879 338.888 431.432 337.982 431.362 337.014C431.36 336.979 431.36 336.944 431.362 336.908C430.139 336.673 428.95 336.289 427.826 335.767C427.803 335.796 427.778 335.822 427.755 335.848C427.054 336.573 426.09 337.007 425.065 337.059C424.04 337.111 423.034 336.777 422.259 336.128C421.483 335.478 420.998 334.563 420.905 333.574C420.813 332.586 421.12 331.602 421.762 330.828L421.835 330.748C421.142 329.745 420.583 328.661 420.17 327.523H420.06C419.012 327.593 417.978 327.258 417.185 326.591C416.391 325.925 415.904 324.981 415.829 323.968C415.758 322.954 416.106 321.954 416.795 321.188C417.485 320.421 418.46 319.95 419.508 319.877H419.618C419.862 318.693 420.258 317.544 420.799 316.457C420.77 316.435 420.741 316.412 420.714 316.388C419.919 315.721 419.431 314.776 419.357 313.761C419.283 312.746 419.629 311.744 420.319 310.976C421.009 310.208 421.986 309.736 423.036 309.664C424.085 309.592 425.121 309.927 425.916 310.594L425.999 310.664C427.036 309.995 428.157 309.454 429.333 309.054C429.333 309.019 429.333 308.983 429.324 308.948C429.287 308.445 429.353 307.941 429.518 307.463C429.683 306.985 429.944 306.543 430.286 306.163C430.627 305.783 431.043 305.471 431.509 305.246C431.976 305.021 432.483 304.887 433.003 304.851C433.523 304.816 434.044 304.88 434.539 305.04C435.033 305.199 435.49 305.451 435.883 305.782C436.276 306.112 436.599 306.514 436.831 306.965C437.064 307.416 437.203 307.906 437.24 308.409C437.241 308.444 437.241 308.479 437.24 308.515C438.463 308.751 439.651 309.134 440.776 309.655L440.847 309.573C441.537 308.804 442.515 308.333 443.565 308.261C444.615 308.19 445.651 308.524 446.446 309.192C447.24 309.859 447.728 310.804 447.802 311.819C447.876 312.834 447.53 313.836 446.84 314.605L446.767 314.683C447.46 315.686 448.019 316.769 448.432 317.907H448.542C449.58 317.855 450.598 318.199 451.377 318.866C452.156 319.532 452.633 320.467 452.707 321.47C452.78 322.473 452.443 323.463 451.769 324.229C451.095 324.994 450.137 325.473 449.101 325.563H448.992C448.748 326.746 448.352 327.894 447.811 328.981L447.896 329.05C448.637 329.73 449.079 330.66 449.129 331.647C449.179 332.633 448.833 333.601 448.164 334.348C447.495 335.094 446.554 335.563 445.537 335.656C444.52 335.749 443.505 335.459 442.703 334.846C442.676 334.822 442.647 334.8 442.62 334.774C441.584 335.444 440.463 335.986 439.286 336.384C439.286 336.421 439.286 336.457 439.286 336.49C439.358 337.504 439.011 338.504 438.321 339.271C437.631 340.038 436.655 340.509 435.607 340.581C435.505 340.579 435.409 340.581 435.314 340.581ZM427.689 334.839C427.756 334.839 427.822 334.854 427.881 334.883C429.132 335.5 430.471 335.932 431.855 336.165C431.957 336.182 432.048 336.234 432.113 336.312C432.177 336.391 432.21 336.489 432.205 336.589C432.197 336.712 432.197 336.837 432.205 336.96C432.231 337.374 432.345 337.778 432.54 338.147C432.734 338.515 433.005 338.842 433.336 339.105C433.667 339.368 434.05 339.563 434.462 339.677C434.873 339.791 435.305 339.821 435.73 339.767C436.154 339.713 436.563 339.574 436.93 339.361C437.297 339.147 437.614 338.863 437.863 338.525C438.111 338.188 438.285 337.805 438.374 337.4C438.462 336.994 438.464 336.576 438.378 336.17C438.359 336.072 438.378 335.971 438.431 335.885C438.483 335.799 438.567 335.735 438.665 335.703C440 335.286 441.263 334.676 442.411 333.894C442.495 333.837 442.599 333.811 442.702 333.822C442.804 333.834 442.899 333.881 442.969 333.955C443.053 334.046 443.143 334.132 443.238 334.214C443.547 334.478 443.907 334.68 444.297 334.808C444.687 334.937 445.099 334.989 445.51 334.963C445.921 334.937 446.323 334.832 446.692 334.654C447.061 334.477 447.39 334.231 447.661 333.93C447.931 333.629 448.137 333.28 448.266 332.901C448.396 332.523 448.447 332.124 448.416 331.727C448.386 331.329 448.274 330.942 448.087 330.586C447.901 330.231 447.644 329.915 447.33 329.656C447.235 329.576 447.134 329.502 447.028 329.435C446.942 329.379 446.88 329.295 446.854 329.198C446.828 329.101 446.84 328.998 446.888 328.909C447.527 327.7 447.973 326.404 448.213 325.067C448.231 324.968 448.286 324.88 448.366 324.818C448.447 324.755 448.548 324.724 448.651 324.728C448.78 324.735 448.908 324.735 449.036 324.728C449.862 324.672 450.631 324.3 451.173 323.696C451.716 323.091 451.988 322.303 451.929 321.505C451.871 320.706 451.487 319.963 450.862 319.438C450.237 318.914 449.421 318.651 448.596 318.707C448.47 318.715 448.344 318.732 448.221 318.757C448.119 318.775 448.014 318.758 447.925 318.707C447.836 318.657 447.769 318.577 447.736 318.482C447.303 317.19 446.672 315.969 445.865 314.858C445.806 314.776 445.779 314.676 445.79 314.577C445.802 314.478 445.85 314.386 445.926 314.318C446.021 314.237 446.11 314.15 446.194 314.058C446.463 313.759 446.668 313.412 446.798 313.036C446.928 312.66 446.981 312.263 446.952 311.868C446.923 311.472 446.814 311.086 446.631 310.732C446.447 310.377 446.194 310.061 445.884 309.802C445.258 309.278 444.444 309.015 443.618 309.071C442.793 309.128 442.024 309.498 441.48 310.101C441.398 310.195 441.322 310.293 441.251 310.395C441.193 310.477 441.106 310.537 441.007 310.562C440.907 310.587 440.801 310.576 440.709 310.531C439.458 309.914 438.119 309.481 436.736 309.247C436.634 309.231 436.542 309.178 436.477 309.1C436.412 309.022 436.38 308.923 436.386 308.823C436.41 308.397 436.34 307.97 436.18 307.571C436.02 307.173 435.774 306.812 435.458 306.513C435.143 306.214 434.765 305.983 434.349 305.836C433.934 305.69 433.492 305.63 433.051 305.662C432.225 305.719 431.457 306.09 430.914 306.694C430.371 307.299 430.099 308.086 430.157 308.885C430.166 309.01 430.184 309.134 430.21 309.257C430.229 309.355 430.211 309.456 430.158 309.542C430.105 309.628 430.022 309.693 429.924 309.723C428.589 310.142 427.326 310.752 426.178 311.533C426.093 311.59 425.99 311.616 425.887 311.605C425.784 311.594 425.689 311.547 425.62 311.473C425.535 311.383 425.445 311.296 425.351 311.215C425.042 310.951 424.682 310.749 424.292 310.621C423.902 310.492 423.489 310.439 423.078 310.466C422.667 310.492 422.265 310.597 421.896 310.774C421.527 310.952 421.198 311.198 420.928 311.499C420.658 311.799 420.452 312.149 420.322 312.527C420.192 312.906 420.141 313.305 420.172 313.702C420.203 314.099 420.315 314.487 420.501 314.842C420.687 315.198 420.945 315.514 421.258 315.773C421.354 315.853 421.454 315.927 421.56 315.994C421.646 316.05 421.708 316.134 421.734 316.231C421.76 316.328 421.748 316.431 421.7 316.52C421.064 317.729 420.617 319.024 420.375 320.36C420.357 320.458 420.302 320.547 420.222 320.609C420.141 320.672 420.04 320.704 419.937 320.7C419.809 320.692 419.68 320.692 419.552 320.7C418.728 320.759 417.962 321.132 417.422 321.736C416.881 322.34 416.61 323.126 416.668 323.923C416.696 324.319 416.805 324.705 416.988 325.059C417.171 325.414 417.425 325.731 417.734 325.99C418.044 326.25 418.403 326.449 418.792 326.574C419.181 326.7 419.591 326.75 420 326.722C420.13 326.712 420.258 326.695 420.385 326.672C420.486 326.653 420.591 326.67 420.68 326.721C420.769 326.771 420.836 326.852 420.868 326.947C421.301 328.239 421.931 329.46 422.739 330.571C422.798 330.653 422.825 330.753 422.813 330.852C422.801 330.952 422.752 331.043 422.676 331.11C422.581 331.191 422.491 331.278 422.408 331.371C422.127 331.681 421.914 332.045 421.783 332.438C421.653 332.831 421.607 333.246 421.649 333.657C421.692 334.068 421.82 334.467 422.028 334.828C422.236 335.188 422.518 335.504 422.857 335.756C423.196 336.007 423.585 336.188 423.999 336.288C424.414 336.388 424.845 336.405 425.267 336.337C425.688 336.27 426.091 336.119 426.449 335.895C426.808 335.671 427.116 335.378 427.353 335.034C427.388 334.977 427.437 334.93 427.496 334.896C427.554 334.862 427.621 334.842 427.689 334.839ZM434.284 329.479C432.447 329.477 430.686 328.777 429.378 327.53C428.07 326.284 427.32 324.591 427.29 322.816C427.26 321.04 427.952 319.325 429.217 318.038C430.482 316.751 432.219 315.996 434.055 315.935C435.89 315.874 437.676 316.512 439.03 317.712C440.383 318.912 441.196 320.578 441.292 322.351C441.388 324.124 440.76 325.863 439.544 327.193C438.327 328.523 436.619 329.338 434.788 329.463C434.62 329.474 434.451 329.479 434.284 329.479ZM433.861 316.764C432.441 316.861 431.099 317.432 430.066 318.378C429.032 319.324 428.369 320.588 428.191 321.954C428.012 323.32 428.329 324.703 429.087 325.868C429.845 327.033 430.998 327.908 432.348 328.344C433.698 328.78 435.163 328.749 436.493 328.258C437.823 327.767 438.935 326.845 439.641 325.649C440.347 324.454 440.602 323.059 440.363 321.702C440.125 320.344 439.407 319.109 438.332 318.207C437.098 317.172 435.49 316.653 433.861 316.764Z" fill="white"/>
<path d="M370.921 364.523H218.102C213.99 364.519 210.048 362.937 207.14 360.125C204.232 357.314 202.597 353.502 202.592 349.526V56.3283C202.597 52.3521 204.232 48.54 207.14 45.7285C210.048 42.9169 213.99 41.3354 218.102 41.3309H370.921C375.033 41.3354 378.976 42.9169 381.883 45.7285C384.791 48.54 386.427 52.3521 386.431 56.3283V349.527C386.426 353.503 384.79 357.315 381.883 360.126C378.975 362.937 375.033 364.519 370.921 364.523ZM218.102 42.1491C214.214 42.1536 210.487 43.6489 207.738 46.307C204.989 48.9652 203.443 52.5691 203.438 56.3283V349.527C203.443 353.287 204.989 356.891 207.738 359.549C210.487 362.207 214.214 363.702 218.102 363.707H370.921C374.809 363.702 378.536 362.207 381.285 359.549C384.034 356.891 385.58 353.287 385.585 349.527V56.3283C385.58 52.5691 384.034 48.9652 381.285 46.307C378.536 43.6489 374.809 42.1536 370.921 42.1491H218.102Z" fill="white"/>
<mask id="path-10-inside-1_404_1302" fill="white">
<path d="M365.6 354.295H223.426C220.283 354.292 217.269 353.083 215.047 350.934C212.824 348.786 211.574 345.872 211.57 342.833V62.1393C211.573 59.0999 212.823 56.1859 215.046 54.0367C217.269 51.8875 220.282 50.6786 223.426 50.6751H365.6C368.743 50.6786 371.757 51.8875 373.98 54.0367C376.202 56.1859 377.453 59.0999 377.456 62.1393V342.827C377.454 345.868 376.205 348.783 373.982 350.933C371.759 353.083 368.744 354.292 365.6 354.295ZM223.426 51.4933C220.506 51.4953 217.706 52.6174 215.641 54.6134C213.576 56.6094 212.415 59.3161 212.412 62.1393V342.827C212.415 345.649 213.576 348.355 215.64 350.35C217.704 352.345 220.502 353.468 223.42 353.471H365.594C368.513 353.469 371.311 352.346 373.375 350.351C375.44 348.355 376.601 345.65 376.604 342.827V62.1393C376.601 59.3167 375.44 56.6106 373.376 54.6147C371.312 52.6188 368.513 51.4963 365.594 51.4933H223.426Z"/>
</mask>
<path d="M365.6 354.295V356.007H365.602L365.6 354.295ZM223.426 354.295L223.424 356.007H223.426V354.295ZM211.57 342.833H209.857L209.857 342.835L211.57 342.833ZM211.57 62.1393L209.857 62.1373V62.1393H211.57ZM223.426 50.6751V48.9629L223.424 48.9629L223.426 50.6751ZM365.6 50.6751L365.602 48.9629H365.6V50.6751ZM377.456 62.1393H379.168V62.1373L377.456 62.1393ZM377.456 342.827L379.168 342.828V342.827H377.456ZM223.426 51.4933V49.7812L223.425 49.7812L223.426 51.4933ZM212.412 62.1393L210.7 62.1375V62.1393H212.412ZM212.412 342.827H210.7L210.7 342.829L212.412 342.827ZM223.42 353.471L223.418 355.184H223.42V353.471ZM365.594 353.471V355.184H365.596L365.594 353.471ZM376.604 342.827L378.316 342.829V342.827H376.604ZM376.604 62.1393H378.316V62.1375L376.604 62.1393ZM365.594 51.4933L365.596 49.7812H365.594V51.4933ZM365.6 352.583H223.426V356.007H365.6V352.583ZM223.428 352.583C220.72 352.58 218.135 351.538 216.237 349.703L213.857 352.165C216.404 354.628 219.846 356.004 223.424 356.007L223.428 352.583ZM216.237 349.703C214.341 347.87 213.285 345.397 213.282 342.831L209.857 342.835C209.862 346.347 211.307 349.701 213.857 352.165L216.237 349.703ZM213.282 342.833V62.1393H209.857V342.833H213.282ZM213.282 62.1413C213.285 59.5742 214.34 57.1009 216.236 55.2676L213.856 52.8058C211.307 55.2709 209.862 58.6256 209.857 62.1373L213.282 62.1413ZM216.236 55.2676C218.134 53.4323 220.72 52.3902 223.428 52.3873L223.424 48.9629C219.845 48.9669 216.403 50.3427 213.856 52.8058L216.236 55.2676ZM223.426 52.3873H365.6V48.9629H223.426V52.3873ZM365.598 52.3873C368.306 52.3902 370.892 53.4323 372.79 55.2676L375.17 52.8058C372.622 50.3427 369.181 48.9669 365.602 48.9629L365.598 52.3873ZM372.79 55.2676C374.686 57.1009 375.741 59.5742 375.744 62.1413L379.168 62.1373C379.164 58.6256 377.719 55.2709 375.17 52.8058L372.79 55.2676ZM375.744 62.1393V342.827H379.168V62.1393H375.744ZM375.744 342.826C375.742 345.394 374.687 347.868 372.791 349.702L375.172 352.164C377.722 349.697 379.166 346.341 379.168 342.828L375.744 342.826ZM372.791 349.702C370.893 351.538 368.307 352.581 365.598 352.583L365.602 356.007C369.181 356.004 372.624 354.628 375.172 352.164L372.791 349.702ZM223.425 49.7812C220.069 49.7834 216.841 51.0724 214.451 53.3823L216.831 55.8445C218.571 54.1625 220.943 53.2072 223.427 53.2055L223.425 49.7812ZM214.451 53.3823C212.06 55.6942 210.703 58.8418 210.7 62.1375L214.124 62.1412C214.127 59.7904 215.093 57.5246 216.831 55.8445L214.451 53.3823ZM210.7 62.1393V342.827H214.124V62.1393H210.7ZM210.7 342.829C210.704 346.124 212.06 349.27 214.45 351.581L216.83 349.119C215.093 347.44 214.127 345.175 214.124 342.825L210.7 342.829ZM214.45 351.581C216.838 353.89 220.064 355.18 223.418 355.184L223.422 351.759C220.939 351.756 218.569 350.801 216.83 349.119L214.45 351.581ZM223.42 355.184H365.594V351.759H223.42V355.184ZM365.596 355.184C368.95 355.18 372.177 353.891 374.566 351.582L372.185 349.12C370.446 350.801 368.076 351.757 365.593 351.759L365.596 355.184ZM374.566 351.582C376.956 349.27 378.312 346.124 378.316 342.829L374.892 342.825C374.889 345.175 373.923 347.44 372.185 349.12L374.566 351.582ZM378.316 342.827V62.1393H374.892V342.827H378.316ZM378.316 62.1375C378.313 58.8425 376.957 55.6956 374.566 53.3839L372.186 55.8456C373.923 57.5256 374.89 59.7909 374.892 62.1412L378.316 62.1375ZM374.566 53.3839C372.177 51.074 368.95 49.7845 365.596 49.7812L365.593 53.2055C368.076 53.208 370.447 54.1637 372.186 55.8456L374.566 53.3839ZM365.594 49.7812H223.426V53.2055H365.594V49.7812Z" fill="white" mask="url(#path-10-inside-1_404_1302)"/>
<path d="M311.659 60.6164H275.296C275.188 60.6094 275.088 60.5631 275.014 60.487C274.94 60.4109 274.899 60.3106 274.899 60.2064C274.899 60.1021 274.94 60.0018 275.014 59.9257C275.088 59.8496 275.188 59.8033 275.296 59.7963H311.664C311.772 59.8033 311.873 59.8496 311.946 59.9257C312.02 60.0018 312.061 60.1021 312.061 60.2064C312.061 60.3106 312.02 60.4109 311.946 60.487C311.873 60.5631 311.772 60.6094 311.664 60.6164H311.659Z" fill="white"/>
<path d="M358.206 98.0087H230.819V187.095H358.206V98.0087Z" fill="#14317C"/>
<path d="M350.402 284.536H238.623C234.313 284.536 230.819 287.914 230.819 292.082V307.968C230.819 312.136 234.313 315.514 238.623 315.514H350.402C354.712 315.514 358.206 312.136 358.206 307.968V292.082C358.206 287.914 354.712 284.536 350.402 284.536Z" fill="#14317C"/>
<path d="M309.512 341.342C308.379 341.342 307.271 341.017 306.329 340.408C305.387 339.799 304.653 338.934 304.219 337.922C303.785 336.91 303.672 335.796 303.893 334.721C304.114 333.647 304.66 332.66 305.461 331.885C306.262 331.11 307.283 330.583 308.394 330.369C309.506 330.155 310.658 330.265 311.704 330.684C312.751 331.103 313.646 331.813 314.276 332.724C314.905 333.635 315.241 334.706 315.241 335.802C315.239 337.271 314.635 338.678 313.561 339.717C312.487 340.755 311.031 341.34 309.512 341.342ZM309.512 331.081C308.546 331.08 307.602 331.357 306.799 331.875C305.995 332.394 305.369 333.131 304.999 333.994C304.63 334.857 304.533 335.806 304.721 336.722C304.909 337.638 305.374 338.479 306.057 339.14C306.74 339.8 307.61 340.25 308.557 340.433C309.504 340.615 310.486 340.521 311.378 340.164C312.271 339.807 313.033 339.202 313.57 338.425C314.107 337.649 314.393 336.736 314.393 335.802C314.392 334.55 313.877 333.35 312.962 332.465C312.047 331.58 310.806 331.082 309.512 331.081Z" fill="white"/>
<path d="M294.027 341.342C292.894 341.342 291.786 341.017 290.844 340.408C289.902 339.799 289.168 338.934 288.734 337.922C288.3 336.91 288.187 335.796 288.408 334.721C288.629 333.647 289.175 332.66 289.976 331.885C290.777 331.11 291.798 330.583 292.909 330.369C294.021 330.155 295.172 330.265 296.219 330.684C297.266 331.103 298.161 331.813 298.79 332.724C299.42 333.635 299.756 334.706 299.756 335.802C299.754 337.271 299.15 338.679 298.076 339.717C297.002 340.756 295.546 341.34 294.027 341.342ZM294.027 331.081C293.061 331.081 292.117 331.357 291.314 331.876C290.511 332.395 289.885 333.132 289.516 333.995C289.146 334.858 289.049 335.807 289.238 336.723C289.426 337.639 289.891 338.48 290.574 339.141C291.257 339.801 292.127 340.251 293.074 340.433C294.021 340.615 295.003 340.521 295.895 340.164C296.788 339.807 297.55 339.201 298.087 338.425C298.623 337.649 298.91 336.736 298.91 335.802C298.908 334.55 298.393 333.35 297.478 332.465C296.563 331.58 295.321 331.082 294.027 331.081Z" fill="white"/>
<path d="M281.711 340.725C284.534 339.038 285.408 335.457 283.663 332.727C281.918 329.997 278.215 329.151 275.391 330.839C272.568 332.526 271.694 336.107 273.439 338.837C275.184 341.567 278.887 342.412 281.711 340.725Z" fill="#7E34FF"/>
<path d="M358.205 205.64H230.308V265.107H358.205V205.64Z" fill="#474747"/>
<path d="M358.204 265.516H230.315C230.203 265.516 230.095 265.473 230.016 265.396C229.937 265.319 229.892 265.215 229.892 265.107V205.64C229.892 205.586 229.903 205.533 229.924 205.483C229.945 205.433 229.976 205.388 230.015 205.35C230.055 205.312 230.102 205.282 230.153 205.261C230.204 205.241 230.26 205.231 230.315 205.231H358.204C358.26 205.231 358.315 205.241 358.367 205.261C358.418 205.282 358.465 205.312 358.504 205.35C358.543 205.388 358.575 205.433 358.596 205.483C358.617 205.533 358.628 205.586 358.627 205.64V265.107C358.627 265.215 358.583 265.319 358.503 265.396C358.424 265.473 358.317 265.516 358.204 265.516ZM230.731 264.696H357.781V206.049H230.731V264.696Z" fill="#E2EAFF"/>
<path d="M346.241 223.503H312.971C312.859 223.503 312.751 223.46 312.672 223.383C312.592 223.306 312.548 223.202 312.548 223.094C312.548 222.985 312.592 222.881 312.672 222.805C312.751 222.728 312.859 222.685 312.971 222.685H346.241C346.353 222.685 346.461 222.728 346.54 222.805C346.62 222.881 346.664 222.985 346.664 223.094C346.664 223.202 346.62 223.306 346.54 223.383C346.461 223.46 346.353 223.503 346.241 223.503Z" fill="white"/>
<path d="M304.923 223.503H287.645C287.533 223.503 287.426 223.46 287.346 223.383C287.267 223.306 287.222 223.202 287.222 223.094C287.222 222.985 287.267 222.881 287.346 222.805C287.426 222.728 287.533 222.685 287.645 222.685H304.923C305.035 222.685 305.143 222.728 305.222 222.805C305.302 222.881 305.346 222.985 305.346 223.094C305.346 223.202 305.302 223.306 305.222 223.383C305.143 223.46 305.035 223.503 304.923 223.503Z" fill="white"/>
<path d="M346.239 234.675H336.431C336.373 234.679 336.315 234.671 336.26 234.652C336.205 234.634 336.155 234.604 336.113 234.566C336.07 234.527 336.036 234.481 336.013 234.429C335.99 234.377 335.978 234.322 335.978 234.265C335.978 234.209 335.99 234.153 336.013 234.102C336.036 234.05 336.07 234.004 336.113 233.965C336.155 233.927 336.205 233.897 336.26 233.878C336.315 233.859 336.373 233.852 336.431 233.855H346.239C346.297 233.852 346.356 233.859 346.411 233.878C346.465 233.897 346.516 233.927 346.558 233.965C346.601 234.004 346.635 234.05 346.658 234.102C346.681 234.153 346.693 234.209 346.693 234.265C346.693 234.322 346.681 234.377 346.658 234.429C346.635 234.481 346.601 234.527 346.558 234.566C346.516 234.604 346.465 234.634 346.411 234.652C346.356 234.671 346.297 234.679 346.239 234.675Z" fill="white"/>
<path d="M323.81 234.675H287.643C287.535 234.668 287.435 234.622 287.361 234.546C287.288 234.47 287.247 234.369 287.247 234.265C287.247 234.161 287.288 234.061 287.361 233.984C287.435 233.908 287.535 233.862 287.643 233.855H323.81C323.917 233.862 324.018 233.908 324.092 233.984C324.165 234.061 324.206 234.161 324.206 234.265C324.206 234.369 324.165 234.47 324.092 234.546C324.018 234.622 323.917 234.668 323.81 234.675Z" fill="white"/>
<path d="M346.242 245.846H318.706C318.594 245.846 318.486 245.803 318.407 245.726C318.328 245.649 318.283 245.545 318.283 245.437C318.283 245.328 318.328 245.224 318.407 245.147C318.486 245.071 318.594 245.028 318.706 245.028H346.242C346.354 245.028 346.461 245.071 346.541 245.147C346.62 245.224 346.665 245.328 346.665 245.437C346.665 245.545 346.62 245.649 346.541 245.726C346.461 245.803 346.354 245.846 346.242 245.846Z" fill="white"/>
<path d="M306.233 245.846H287.645C287.533 245.846 287.426 245.803 287.346 245.726C287.267 245.649 287.222 245.545 287.222 245.437C287.222 245.328 287.267 245.224 287.346 245.147C287.426 245.071 287.533 245.028 287.645 245.028H306.233C306.345 245.028 306.453 245.071 306.532 245.147C306.611 245.224 306.656 245.328 306.656 245.437C306.656 245.545 306.611 245.649 306.532 245.726C306.453 245.803 306.345 245.846 306.233 245.846Z" fill="white"/>
<path d="M271.827 246.159C278.277 239.923 278.277 229.811 271.827 223.574C265.377 217.338 254.919 217.338 248.47 223.574C242.02 229.811 242.02 239.923 248.47 246.159C254.919 252.396 265.377 252.396 271.827 246.159Z" fill="#E2EAFF"/>
<path d="M251.721 161.476C252.571 157.993 250.341 154.504 246.739 153.682C243.138 152.86 239.529 155.017 238.679 158.499C237.829 161.982 240.059 165.471 243.661 166.293C247.262 167.115 250.871 164.958 251.721 161.476Z" fill="#7E34FF"/>
<path d="M233.179 193.348C233.124 193.348 233.069 193.337 233.018 193.317C232.967 193.296 232.92 193.265 232.881 193.227C232.582 192.939 232.342 192.598 232.174 192.223C232.143 192.173 232.124 192.118 232.118 192.061C232.111 192.003 232.117 191.945 232.136 191.89C232.154 191.835 232.184 191.785 232.224 191.742C232.264 191.699 232.313 191.665 232.368 191.641C232.423 191.618 232.482 191.606 232.541 191.607C232.601 191.607 232.66 191.62 232.714 191.644C232.769 191.668 232.817 191.703 232.856 191.746C232.896 191.79 232.925 191.841 232.943 191.896C233.069 192.176 233.249 192.432 233.472 192.649C233.53 192.707 233.57 192.78 233.586 192.859C233.602 192.938 233.593 193.02 233.561 193.095C233.529 193.169 233.475 193.233 233.406 193.278C233.337 193.323 233.255 193.348 233.172 193.348H233.179Z" fill="white"/>
<path d="M294.098 116.376C294.042 116.376 293.987 116.365 293.935 116.345C293.884 116.325 293.837 116.294 293.797 116.256C293.758 116.218 293.726 116.173 293.705 116.123C293.684 116.074 293.673 116.02 293.673 115.966V85.1293H102.006C101.899 85.1223 101.798 85.0761 101.724 85C101.651 84.9238 101.61 84.8235 101.61 84.7193C101.61 84.6151 101.651 84.5148 101.724 84.4386C101.798 84.3625 101.899 84.3163 102.006 84.3093H294.098C294.21 84.3098 294.318 84.3533 294.397 84.4303C294.476 84.5073 294.521 84.6116 294.521 84.7202V115.961C294.522 116.015 294.511 116.069 294.49 116.119C294.469 116.169 294.438 116.215 294.399 116.254C294.36 116.292 294.313 116.323 294.261 116.344C294.209 116.365 294.154 116.376 294.098 116.376Z" fill="white"/>
<path d="M102.129 90.3416C105.337 90.3416 107.938 87.8248 107.938 84.7202C107.938 81.6155 105.337 79.0987 102.129 79.0987C98.92 79.0987 96.3188 81.6155 96.3188 84.7202C96.3188 87.8248 98.92 90.3416 102.129 90.3416Z" fill="#7E34FF"/>
<path d="M83.8688 90.3024C87.0456 90.3024 89.621 87.8139 89.621 84.7441C89.621 81.6744 87.0456 79.1859 83.8688 79.1859C80.692 79.1859 78.1167 81.6744 78.1167 84.7441C78.1167 87.8139 80.692 90.3024 83.8688 90.3024Z" fill="#E2EAFF"/>
<path d="M67.0871 90.3027C70.2639 90.3027 72.8392 87.8142 72.8392 84.7445C72.8392 81.6747 70.2639 79.1862 67.0871 79.1862C63.9103 79.1862 61.335 81.6747 61.335 84.7445C61.335 87.8142 63.9103 90.3027 67.0871 90.3027Z" fill="#E2EAFF"/>
<path d="M196.74 93.315H169.37C169.258 93.315 169.15 93.2719 169.071 93.1952C168.991 93.1185 168.947 93.0144 168.947 92.9059C168.947 92.7974 168.991 92.6934 169.071 92.6167C169.15 92.5399 169.258 92.4968 169.37 92.4968H196.74C196.796 92.4968 196.851 92.5074 196.902 92.528C196.953 92.5485 197 92.5787 197.039 92.6167C197.079 92.6546 197.11 92.6997 197.131 92.7494C197.152 92.799 197.163 92.8522 197.163 92.9059C197.163 92.9597 197.152 93.0129 197.131 93.0625C197.11 93.1121 197.079 93.1572 197.039 93.1952C197 93.2332 196.953 93.2633 196.902 93.2839C196.851 93.3045 196.796 93.315 196.74 93.315Z" fill="white"/>
<path d="M196.743 101.259H177.896C177.788 101.252 177.688 101.206 177.614 101.13C177.54 101.054 177.5 100.953 177.5 100.849C177.5 100.745 177.54 100.645 177.614 100.569C177.688 100.492 177.788 100.446 177.896 100.439H196.743C196.85 100.446 196.951 100.492 197.025 100.569C197.098 100.645 197.139 100.745 197.139 100.849C197.139 100.953 197.098 101.054 197.025 101.13C196.951 101.206 196.85 101.252 196.743 101.259Z" fill="white"/>
<path d="M180.422 208.601H140.42C140.365 208.601 140.309 208.59 140.258 208.57C140.207 208.55 140.16 208.519 140.12 208.481C140.081 208.443 140.05 208.398 140.029 208.348C140.008 208.299 139.997 208.245 139.997 208.192V169.513C139.997 169.459 140.008 169.405 140.029 169.356C140.05 169.306 140.081 169.26 140.12 169.222C140.16 169.184 140.206 169.154 140.258 169.133C140.309 169.112 140.364 169.102 140.42 169.102H178.133C178.241 169.109 178.341 169.155 178.415 169.231C178.489 169.307 178.529 169.408 178.529 169.512C178.529 169.616 178.489 169.716 178.415 169.792C178.341 169.868 178.241 169.915 178.133 169.922H140.839V207.781H179.997V179.902C180.004 179.798 180.052 179.701 180.13 179.629C180.209 179.558 180.313 179.519 180.421 179.519C180.528 179.519 180.632 179.558 180.711 179.629C180.79 179.701 180.837 179.798 180.845 179.902V208.192C180.845 208.3 180.8 208.404 180.721 208.481C180.641 208.558 180.534 208.601 180.422 208.601Z" fill="white"/>
<path d="M160.415 201.962C160.348 201.962 160.282 201.946 160.222 201.917C160.162 201.887 160.111 201.844 160.071 201.791L144.398 180.574C144.332 180.485 144.306 180.376 144.324 180.269C144.343 180.161 144.404 180.066 144.496 180.003C144.587 179.94 144.7 179.914 144.811 179.932C144.922 179.95 145.021 180.009 145.086 180.098L160.415 200.848L187.388 164.509C187.419 164.464 187.46 164.426 187.508 164.396C187.555 164.367 187.608 164.347 187.664 164.337C187.719 164.328 187.776 164.329 187.831 164.341C187.886 164.354 187.938 164.376 187.984 164.408C188.029 164.44 188.068 164.48 188.098 164.527C188.127 164.573 188.146 164.625 188.155 164.679C188.163 164.733 188.16 164.788 188.147 164.841C188.133 164.894 188.108 164.943 188.074 164.987L160.765 201.791C160.726 201.845 160.673 201.889 160.612 201.918C160.551 201.948 160.484 201.963 160.415 201.962Z" fill="#7E34FF"/>
<path d="M433.917 290.178C433.861 290.178 433.806 290.167 433.755 290.147C433.703 290.126 433.657 290.096 433.617 290.058C433.578 290.02 433.547 289.975 433.526 289.925C433.504 289.876 433.494 289.822 433.494 289.768V208.515C433.494 208.406 433.538 208.302 433.618 208.226C433.697 208.149 433.805 208.106 433.917 208.106C434.029 208.106 434.137 208.149 434.216 208.226C434.296 208.302 434.34 208.406 434.34 208.515V289.778C434.338 289.885 434.293 289.987 434.213 290.062C434.134 290.136 434.028 290.178 433.917 290.178Z" fill="white"/>
<path d="M433.918 147.006C433.862 147.007 433.807 146.996 433.756 146.976C433.704 146.955 433.658 146.925 433.618 146.887C433.579 146.849 433.548 146.804 433.527 146.754C433.505 146.704 433.495 146.651 433.495 146.597V109.25H401.942C401.834 109.243 401.734 109.196 401.66 109.12C401.586 109.044 401.545 108.944 401.545 108.84C401.545 108.735 401.586 108.635 401.66 108.559C401.734 108.483 401.834 108.437 401.942 108.43H433.918C434.03 108.43 434.138 108.473 434.217 108.549C434.297 108.626 434.341 108.73 434.341 108.839V146.597C434.341 146.651 434.331 146.704 434.309 146.754C434.288 146.804 434.257 146.849 434.218 146.887C434.178 146.925 434.132 146.955 434.08 146.976C434.029 146.996 433.974 147.007 433.918 147.006Z" fill="white"/>
<path d="M433.916 163.071C436.412 163.071 438.436 161.111 438.436 158.694C438.436 156.276 436.412 154.316 433.916 154.316C431.42 154.316 429.397 156.276 429.397 158.694C429.397 161.111 431.42 163.071 433.916 163.071Z" fill="white"/>
<path d="M433.918 163.482C432.938 163.484 431.98 163.204 431.164 162.679C430.349 162.154 429.713 161.407 429.336 160.532C428.96 159.658 428.861 158.695 429.051 157.765C429.241 156.836 429.711 155.982 430.404 155.311C431.096 154.64 431.978 154.183 432.939 153.998C433.9 153.812 434.896 153.907 435.802 154.269C436.707 154.631 437.481 155.245 438.025 156.032C438.57 156.82 438.861 157.746 438.861 158.694C438.86 159.962 438.34 161.178 437.413 162.076C436.487 162.973 435.23 163.479 433.918 163.482ZM433.918 154.725C433.106 154.724 432.312 154.955 431.636 155.39C430.96 155.826 430.433 156.445 430.121 157.17C429.809 157.895 429.727 158.693 429.884 159.463C430.042 160.233 430.432 160.941 431.006 161.497C431.58 162.053 432.311 162.431 433.107 162.585C433.903 162.739 434.729 162.661 435.479 162.36C436.23 162.06 436.871 161.552 437.322 160.899C437.774 160.246 438.015 159.479 438.015 158.694C438.015 157.642 437.583 156.634 436.815 155.89C436.047 155.146 435.005 154.727 433.918 154.725Z" fill="white"/>
<path d="M433.916 181.16C436.412 181.16 438.436 179.201 438.436 176.783C438.436 174.365 436.412 172.406 433.916 172.406C431.42 172.406 429.397 174.365 429.397 176.783C429.397 179.201 431.42 181.16 433.916 181.16Z" fill="white"/>
<path d="M433.918 181.57C432.938 181.572 431.98 181.292 431.164 180.767C430.349 180.242 429.712 179.495 429.336 178.62C428.96 177.745 428.861 176.782 429.051 175.852C429.241 174.923 429.712 174.069 430.404 173.398C431.097 172.728 431.979 172.271 432.94 172.085C433.901 171.9 434.897 171.995 435.803 172.357C436.708 172.719 437.482 173.334 438.026 174.121C438.571 174.909 438.861 175.836 438.861 176.783C438.86 178.051 438.34 179.267 437.413 180.165C436.486 181.062 435.23 181.567 433.918 181.57ZM433.918 172.813C433.106 172.811 432.311 173.042 431.635 173.478C430.958 173.913 430.43 174.532 430.118 175.257C429.806 175.983 429.723 176.781 429.88 177.552C430.038 178.323 430.428 179.031 431.002 179.587C431.576 180.143 432.307 180.522 433.104 180.676C433.901 180.83 434.727 180.752 435.478 180.452C436.228 180.152 436.87 179.643 437.322 178.99C437.773 178.337 438.015 177.569 438.015 176.783C438.015 175.732 437.583 174.723 436.815 173.979C436.047 173.235 435.006 172.815 433.918 172.813Z" fill="white"/>
<path d="M433.916 199.249C436.412 199.249 438.436 197.289 438.436 194.871C438.436 192.454 436.412 190.494 433.916 190.494C431.42 190.494 429.397 192.454 429.397 194.871C429.397 197.289 431.42 199.249 433.916 199.249Z" fill="#7E34FF"/>
<rect x="108.479" y="223.053" width="71.911" height="56.2097" rx="28.1048" fill="#CCF7FF"/>
<g clip-path="url(#clip2_404_1302)">
<path d="M138.014 247.024L132.877 252.16L138.014 257.297" stroke="#4D4D4D" stroke-width="2.56825" stroke-linecap="round" stroke-linejoin="round"/>
<path d="M150.855 247.024L155.991 252.16L150.855 257.297" stroke="#4D4D4D" stroke-width="2.56825" stroke-linecap="round" stroke-linejoin="round"/>
<path d="M147.003 241.887L141.866 262.433" stroke="#4D4D4D" stroke-width="2.56825" stroke-linecap="round" stroke-linejoin="round"/>
</g>
</g>
</g>
<defs>
<clipPath id="clip0_404_1302">
<rect width="555.484" height="410" fill="white"/>
</clipPath>
<clipPath id="clip1_404_1302">
<rect width="412.791" height="340.3" fill="white" transform="translate(39.9929 41.3306)"/>
</clipPath>
<clipPath id="clip2_404_1302">
<rect width="30.819" height="30.819" fill="white" transform="translate(129.025 236.751)"/>
</clipPath>
</defs>
</svg>
