<svg width="556" height="410" viewBox="0 0 556 410" fill="none" xmlns="http://www.w3.org/2000/svg">
<g clip-path="url(#clip0_404_1247)">
<rect width="555.484" height="410" fill="black"/>
<g opacity="0.3">
<rect x="330.645" y="52.9033" width="119.852" height="51.365" rx="25.6825" fill="#EEEEEE"/>
<rect x="421.39" y="179.604" width="119.852" height="51.365" rx="25.6825" fill="#EEEEEE"/>
<rect x="330.645" y="116.254" width="210.596" height="51.365" rx="25.6825" fill="#EEEEEE"/>
</g>
<path d="M355.802 306.894H51.3136C49.3748 306.892 47.5161 306.121 46.145 304.75C44.7739 303.38 44.0025 301.521 44 299.582V71.3136C44.0025 69.3747 44.7739 67.5159 46.1449 66.1449C47.5159 64.7739 49.3747 64.0025 51.3136 64H355.802C357.741 64.0025 359.6 64.7739 360.971 66.1449C362.342 67.5159 363.113 69.3747 363.116 71.3136V299.582C363.113 301.521 362.342 303.38 360.971 304.75C359.6 306.121 357.741 306.892 355.802 306.894ZM51.3136 64.8345C49.5958 64.8365 47.949 65.5198 46.7344 66.7344C45.5198 67.949 44.8365 69.5958 44.8345 71.3136V299.582C44.837 301.3 45.5205 302.946 46.7351 304.16C47.9497 305.374 49.5962 306.057 51.3136 306.059H355.802C357.519 306.057 359.166 305.374 360.38 304.16C361.594 302.946 362.277 301.299 362.279 299.582V71.3136C362.278 69.596 361.595 67.9492 360.38 66.7345C359.166 65.5199 357.52 64.8365 355.802 64.8345H51.3136Z" fill="white"/>
<path d="M80.1902 80.3703C81.6546 78.906 81.6546 76.5318 80.1902 75.0674C78.7259 73.6031 76.3517 73.6031 74.8873 75.0674C73.4229 76.5318 73.4229 78.906 74.8873 80.3703C76.3517 81.8347 78.7259 81.8347 80.1902 80.3703Z" fill="#E2EAFF"/>
<path d="M92.1293 78.5779C92.605 76.5623 91.3567 74.5428 89.3412 74.0671C87.3256 73.5914 85.3061 74.8396 84.8303 76.8552C84.3546 78.8707 85.6029 80.8903 87.6184 81.366C89.634 81.8417 91.6535 80.5934 92.1293 78.5779Z" fill="#E2EAFF"/>
<path d="M103.074 78.5785C103.55 76.563 102.301 74.5434 100.286 74.0677C98.2702 73.592 96.2506 74.8403 95.7749 76.8558C95.2992 78.8713 96.5475 80.8909 98.563 81.3666C100.579 81.8423 102.598 80.594 103.074 78.5785Z" fill="#E2EAFF"/>
<path d="M305.971 82.1645H136.668C135.662 82.1645 134.697 81.7648 133.986 81.0534C133.274 80.342 132.875 79.3772 132.875 78.3711C132.875 77.365 133.274 76.4002 133.986 75.6888C134.697 74.9774 135.662 74.5778 136.668 74.5778H305.971C306.978 74.5778 307.944 74.9779 308.656 75.6902C309.369 76.4025 309.769 77.3685 309.769 78.3759C309.769 79.3832 309.369 80.3492 308.656 81.0615C307.944 81.7738 306.978 82.1739 305.971 82.1739V82.1645Z" fill="#E2EAFF"/>
<path d="M354.782 299.188H52.3321C52.2214 299.188 52.1153 299.144 52.037 299.065C51.9588 298.987 51.9148 298.881 51.9148 298.77V90.7431C51.9148 90.6323 51.9587 90.526 52.0369 90.4474C52.1151 90.3689 52.2212 90.3245 52.3321 90.324H354.782C354.893 90.324 354.999 90.3681 355.078 90.4467C355.157 90.5254 355.201 90.632 355.201 90.7431V298.772C355.201 298.827 355.189 298.881 355.168 298.932C355.147 298.982 355.116 299.028 355.077 299.067C355.038 299.105 354.992 299.136 354.941 299.157C354.891 299.177 354.836 299.188 354.782 299.188ZM52.7512 298.353H354.362V91.1642H52.7512V298.353Z" fill="white"/>
<path d="M414.7 102.154H194.879C192.11 102.154 189.866 104.398 189.866 107.166V259.145C189.866 261.914 192.11 264.158 194.879 264.158H414.7C417.468 264.158 419.712 261.914 419.712 259.145V107.166C419.712 104.398 417.468 102.154 414.7 102.154Z" fill="black"/>
<path d="M340.257 264.575H195.558C193.936 264.572 192.382 263.925 191.236 262.777C190.091 261.628 189.448 260.073 189.448 258.451V107.855C189.448 106.233 190.091 104.677 191.236 103.528C192.382 102.38 193.936 101.733 195.558 101.729H414.021C415.643 101.733 417.197 102.38 418.343 103.528C419.488 104.677 420.132 106.233 420.132 107.855V216.212C420.124 216.318 420.077 216.417 420 216.49C419.922 216.563 419.82 216.603 419.713 216.603C419.607 216.603 419.505 216.563 419.427 216.49C419.349 216.417 419.302 216.318 419.295 216.212V107.861C419.296 106.46 418.741 105.117 417.752 104.125C416.763 103.133 415.421 102.574 414.021 102.571H195.558C194.157 102.574 192.815 103.133 191.826 104.125C190.838 105.117 190.283 106.46 190.283 107.861V258.457C190.283 259.857 190.838 261.201 191.826 262.192C192.815 263.184 194.157 263.743 195.558 263.746H340.257C340.368 263.746 340.474 263.79 340.552 263.869C340.63 263.947 340.674 264.053 340.674 264.164C340.674 264.274 340.63 264.38 340.552 264.459C340.474 264.537 340.368 264.581 340.257 264.581V264.575Z" fill="white"/>
<path d="M293.898 116.794H204.777V144.248H293.898V116.794Z" fill="#14317C"/>
<path d="M293.898 144.666H204.777C204.667 144.665 204.561 144.621 204.483 144.543C204.405 144.465 204.361 144.359 204.36 144.248V116.794C204.36 116.683 204.404 116.577 204.482 116.498C204.56 116.42 204.667 116.375 204.777 116.375H293.898C293.953 116.375 294.008 116.386 294.058 116.407C294.109 116.428 294.155 116.459 294.194 116.498C294.233 116.537 294.264 116.583 294.284 116.634C294.305 116.685 294.316 116.739 294.316 116.794V144.248C294.316 144.359 294.272 144.465 294.193 144.543C294.115 144.622 294.009 144.666 293.898 144.666ZM205.197 143.829H293.479V117.211H205.197V143.829Z" fill="white"/>
<path d="M404.801 116.794H307.463V179.014H404.801V116.794Z" fill="#474747"/>
<path d="M404.801 187.018H307.463V249.239H404.801V187.018Z" fill="#14317C"/>
<path d="M404.801 249.656H307.463C307.408 249.656 307.354 249.646 307.303 249.625C307.252 249.604 307.206 249.573 307.167 249.535C307.128 249.496 307.097 249.45 307.076 249.399C307.055 249.348 307.044 249.294 307.044 249.239V187.028C307.044 186.973 307.055 186.918 307.076 186.868C307.097 186.817 307.128 186.771 307.167 186.732C307.206 186.693 307.252 186.663 307.303 186.642C307.354 186.621 307.408 186.61 307.463 186.611H404.801C404.856 186.61 404.91 186.621 404.961 186.642C405.011 186.663 405.058 186.693 405.096 186.732C405.135 186.771 405.166 186.817 405.187 186.868C405.208 186.919 405.218 186.973 405.218 187.028V249.239C405.218 249.294 405.208 249.348 405.187 249.399C405.166 249.45 405.135 249.496 405.096 249.534C405.058 249.573 405.011 249.604 404.961 249.625C404.91 249.646 404.856 249.656 404.801 249.656ZM307.881 248.822H404.383V187.436H307.881V248.822Z" fill="white"/>
<path d="M293.898 151.905H204.777V166.887H293.898V151.905Z" fill="#14317C"/>
<path d="M293.898 167.306H204.777C204.667 167.306 204.561 167.262 204.483 167.183C204.405 167.105 204.361 166.999 204.36 166.889V151.905C204.36 151.795 204.404 151.688 204.482 151.61C204.561 151.532 204.667 151.488 204.777 151.488H293.898C293.953 151.488 294.008 151.498 294.058 151.519C294.109 151.54 294.155 151.571 294.194 151.61C294.233 151.648 294.263 151.694 294.284 151.745C294.305 151.796 294.316 151.85 294.316 151.905V166.889C294.316 166.944 294.305 166.998 294.284 167.049C294.263 167.099 294.232 167.145 294.193 167.184C294.155 167.223 294.109 167.253 294.058 167.274C294.007 167.295 293.953 167.306 293.898 167.306ZM205.197 166.47H293.479V152.322H205.197V166.47Z" fill="white"/>
<path d="M293.898 178.039H204.777V249.518H293.898V178.039Z" fill="#14317C"/>
<path d="M293.898 249.935H204.777C204.723 249.935 204.668 249.924 204.618 249.903C204.567 249.882 204.521 249.851 204.482 249.813C204.444 249.774 204.413 249.728 204.392 249.677C204.371 249.627 204.36 249.572 204.36 249.518V178.039C204.36 177.985 204.371 177.93 204.392 177.88C204.413 177.829 204.444 177.783 204.482 177.744C204.521 177.706 204.567 177.675 204.618 177.654C204.668 177.633 204.723 177.622 204.777 177.622H293.898C293.953 177.622 294.008 177.633 294.058 177.653C294.109 177.674 294.155 177.705 294.194 177.744C294.233 177.783 294.263 177.829 294.284 177.879C294.305 177.93 294.316 177.985 294.316 178.039V249.518C294.316 249.572 294.305 249.627 294.284 249.678C294.263 249.728 294.233 249.774 294.194 249.813C294.155 249.852 294.109 249.883 294.058 249.904C294.008 249.924 293.953 249.935 293.898 249.935ZM205.197 249.1H293.479V178.457H205.197V249.1Z" fill="white"/>
<path d="M264.081 228.893C263.998 228.893 263.917 228.869 263.848 228.823C263.779 228.777 263.725 228.712 263.694 228.636C263.662 228.559 263.654 228.475 263.67 228.394C263.686 228.313 263.726 228.238 263.785 228.18L278.26 213.705L263.781 199.233C263.71 199.153 263.672 199.049 263.675 198.942C263.679 198.835 263.722 198.734 263.798 198.658C263.874 198.582 263.975 198.539 264.082 198.535C264.189 198.532 264.293 198.57 264.373 198.641L279.142 213.412C279.22 213.491 279.264 213.597 279.264 213.707C279.264 213.818 279.22 213.924 279.142 214.002L264.373 228.774C264.295 228.85 264.19 228.893 264.081 228.893Z" fill="white"/>
<path d="M233.252 228.893C233.197 228.893 233.143 228.883 233.092 228.862C233.041 228.841 232.995 228.811 232.956 228.772L218.181 214C218.103 213.922 218.059 213.816 218.059 213.706C218.059 213.595 218.103 213.489 218.181 213.411L232.951 198.639C233.029 198.561 233.136 198.516 233.247 198.516C233.359 198.516 233.466 198.561 233.544 198.639C233.623 198.718 233.667 198.825 233.667 198.936C233.667 199.047 233.623 199.154 233.544 199.233L219.073 213.705L233.544 228.18C233.603 228.238 233.643 228.313 233.659 228.394C233.675 228.475 233.667 228.559 233.636 228.635C233.604 228.711 233.551 228.777 233.482 228.823C233.414 228.869 233.333 228.893 233.25 228.893H233.252Z" fill="white"/>
<path d="M240.797 229.254C240.731 229.253 240.666 229.238 240.607 229.208C240.557 229.184 240.512 229.15 240.474 229.108C240.437 229.066 240.409 229.017 240.391 228.964C240.373 228.911 240.367 228.855 240.371 228.799C240.376 228.743 240.392 228.689 240.418 228.639L255.815 198.378C255.84 198.329 255.874 198.285 255.916 198.249C255.958 198.214 256.006 198.187 256.058 198.17C256.11 198.153 256.166 198.146 256.22 198.15C256.275 198.155 256.328 198.17 256.377 198.195C256.426 198.219 256.47 198.254 256.506 198.295C256.541 198.337 256.568 198.386 256.585 198.438C256.602 198.49 256.609 198.545 256.605 198.6C256.6 198.655 256.585 198.708 256.56 198.757L241.169 229.026C241.134 229.094 241.081 229.152 241.015 229.192C240.949 229.232 240.874 229.254 240.797 229.254Z" fill="white"/>
<path d="M497.017 116.335H440.464C438.651 116.335 437.181 117.805 437.181 119.618V176.19C437.181 178.003 438.651 179.473 440.464 179.473H497.017C498.83 179.473 500.3 178.003 500.3 176.19V119.618C500.3 117.805 498.83 116.335 497.017 116.335Z" fill="white"/>
<path d="M497.015 179.887H440.471C439.49 179.886 438.549 179.496 437.855 178.802C437.161 178.108 436.771 177.168 436.769 176.186V119.618C436.771 118.637 437.161 117.696 437.855 117.002C438.549 116.308 439.49 115.917 440.471 115.916H497.023C498.004 115.917 498.945 116.308 499.639 117.002C500.333 117.696 500.723 118.637 500.725 119.618V176.19C500.722 177.172 500.33 178.113 499.635 178.806C498.939 179.499 497.997 179.888 497.015 179.887ZM440.471 116.752C439.712 116.753 438.983 117.055 438.446 117.593C437.909 118.13 437.606 118.858 437.605 119.618V176.19C437.606 176.95 437.909 177.678 438.446 178.216C438.983 178.753 439.712 179.055 440.471 179.056H497.023C497.782 179.055 498.511 178.753 499.048 178.216C499.585 177.678 499.887 176.95 499.889 176.19V119.618C499.887 118.858 499.585 118.13 499.048 117.593C498.511 117.055 497.782 116.753 497.023 116.752H440.471Z" fill="white"/>
<path d="M494.2 161.204C494.249 161.323 494.294 161.433 494.335 161.535C493.957 161.517 493.457 161.501 492.853 161.487C491.407 161.455 489.344 161.435 486.872 161.425C481.927 161.404 475.335 161.419 468.745 161.45C462.154 161.481 455.564 161.526 450.621 161.564C448.149 161.583 446.09 161.6 444.648 161.612C444.013 161.618 443.498 161.622 443.12 161.625C443.263 161.264 443.461 160.775 443.703 160.199C444.236 158.93 444.983 157.241 445.843 155.555C446.706 153.864 447.672 152.196 448.639 150.957C449.123 150.338 449.594 149.843 450.039 149.507C450.487 149.168 450.865 149.023 451.173 149.023C451.895 149.023 452.495 149.39 453.067 150.048C453.648 150.716 454.145 151.62 454.665 152.587C454.688 152.631 454.712 152.676 454.736 152.72C455.22 153.622 455.729 154.571 456.326 155.299C456.959 156.07 457.76 156.678 458.826 156.678C459.486 156.678 460.063 156.211 460.55 155.655C461.058 155.074 461.581 154.263 462.121 153.326C462.663 152.385 463.236 151.29 463.843 150.129L463.913 149.995C464.501 148.87 465.122 147.683 465.782 146.496C467.159 144.023 468.693 141.588 470.428 139.775C472.164 137.96 474.043 136.828 476.116 136.828C478.158 136.828 480.351 138.295 482.54 140.695C484.708 143.072 486.777 146.259 488.577 149.47C490.373 152.676 491.89 155.885 492.958 158.295C493.492 159.499 493.913 160.502 494.2 161.204Z" fill="#7E34FF" stroke="white"/>
<path d="M456.532 140.279C458.724 140.275 460.497 138.494 460.492 136.302C460.488 134.109 458.708 132.335 456.517 132.34C454.326 132.344 452.552 134.125 452.557 136.317C452.561 138.509 454.341 140.283 456.532 140.279Z" fill="white"/>
<path d="M456.523 140.709C455.655 140.709 454.807 140.452 454.086 139.97C453.364 139.488 452.802 138.803 452.47 138.001C452.138 137.199 452.051 136.317 452.22 135.466C452.39 134.615 452.807 133.834 453.421 133.22C454.034 132.606 454.816 132.189 455.667 132.019C456.518 131.85 457.4 131.937 458.202 132.269C459.003 132.601 459.689 133.163 460.171 133.885C460.653 134.606 460.91 135.454 460.91 136.322C460.909 137.485 460.446 138.601 459.624 139.423C458.801 140.246 457.686 140.708 456.523 140.709ZM456.523 132.77C455.82 132.769 455.133 132.977 454.549 133.367C453.964 133.757 453.509 134.312 453.24 134.961C452.97 135.61 452.9 136.325 453.037 137.014C453.174 137.703 453.512 138.336 454.008 138.833C454.505 139.33 455.138 139.669 455.827 139.806C456.517 139.943 457.231 139.873 457.88 139.604C458.529 139.335 459.084 138.88 459.475 138.296C459.865 137.712 460.074 137.025 460.074 136.322C460.073 135.381 459.698 134.478 459.033 133.812C458.367 133.146 457.465 132.771 456.523 132.77Z" fill="white"/>
<path d="M431.367 144.798H375.675C375.621 144.798 375.566 144.788 375.516 144.767C375.465 144.746 375.419 144.715 375.38 144.676C375.342 144.637 375.311 144.591 375.29 144.541C375.269 144.49 375.258 144.436 375.258 144.381C375.258 144.326 375.269 144.272 375.29 144.221C375.311 144.171 375.342 144.125 375.38 144.086C375.419 144.047 375.465 144.017 375.516 143.996C375.566 143.975 375.621 143.964 375.675 143.964H431.367C431.478 143.964 431.584 144.008 431.662 144.086C431.741 144.164 431.785 144.27 431.785 144.381C431.785 144.492 431.741 144.598 431.662 144.676C431.584 144.754 431.478 144.798 431.367 144.798Z" fill="white"/>
<path d="M157.446 228.675C160.577 228.67 163.112 226.128 163.107 222.996C163.103 219.864 160.561 217.328 157.43 217.333C154.299 217.337 151.765 219.879 151.769 223.012C151.774 226.144 154.315 228.679 157.446 228.675Z" fill="#E2EAFF"/>
<path d="M157.446 212.124C160.577 212.12 163.111 209.577 163.107 206.445C163.103 203.313 160.561 200.778 157.43 200.782C154.299 200.787 151.764 203.329 151.769 206.461C151.773 209.593 154.315 212.129 157.446 212.124Z" fill="#E2EAFF"/>
<path d="M157.444 195.576C160.575 195.572 163.109 193.029 163.105 189.897C163.1 186.765 160.559 184.229 157.428 184.234C154.297 184.238 151.762 186.781 151.766 189.913C151.771 193.045 154.313 195.58 157.444 195.576Z" fill="#E2EAFF"/>
<path d="M157.412 176.257C157.357 176.257 157.302 176.246 157.252 176.225C157.201 176.204 157.155 176.174 157.116 176.135C157.077 176.096 157.047 176.05 157.026 175.999C157.005 175.949 156.994 175.894 156.994 175.839V132.66C156.994 132.605 157.005 132.55 157.026 132.499C157.046 132.449 157.077 132.402 157.116 132.363C157.155 132.324 157.201 132.294 157.252 132.272C157.302 132.251 157.357 132.24 157.412 132.24H210.784C210.89 132.248 210.99 132.295 211.062 132.372C211.135 132.45 211.175 132.552 211.175 132.659C211.175 132.765 211.135 132.867 211.062 132.945C210.99 133.023 210.89 133.07 210.784 133.077H157.829V175.847C157.827 175.956 157.782 176.06 157.704 176.137C157.626 176.214 157.521 176.257 157.412 176.257Z" fill="white"/>
<path d="M468.984 202.689C472.115 202.689 474.653 200.15 474.653 197.018C474.653 193.886 472.115 191.347 468.984 191.347C465.853 191.347 463.315 193.886 463.315 197.018C463.315 200.15 465.853 202.689 468.984 202.689Z" fill="#E2EAFF"/>
<path d="M330.103 339.669C330.103 342.8 332.642 345.338 335.774 345.338C338.906 345.338 341.445 342.8 341.445 339.669C341.445 336.538 338.906 334 335.774 334C332.642 334 330.103 336.538 330.103 339.669Z" fill="#E2EAFF"/>
<path d="M468.984 219.241C472.115 219.241 474.653 216.702 474.653 213.57C474.653 210.438 472.115 207.899 468.984 207.899C465.853 207.899 463.315 210.438 463.315 213.57C463.315 216.702 465.853 219.241 468.984 219.241Z" fill="#E2EAFF"/>
<path d="M313.55 339.669C313.55 342.8 316.089 345.338 319.222 345.338C322.354 345.338 324.893 342.8 324.893 339.669C324.893 336.538 322.354 334 319.222 334C316.089 334 313.55 336.538 313.55 339.669Z" fill="#E2EAFF"/>
<path d="M468.984 235.791C472.115 235.791 474.653 233.252 474.653 230.12C474.653 226.988 472.115 224.449 468.984 224.449C465.853 224.449 463.315 226.988 463.315 230.12C463.315 233.252 465.853 235.791 468.984 235.791Z" fill="#E2EAFF"/>
<path d="M297 339.669C297 342.8 299.539 345.338 302.671 345.338C305.803 345.338 308.342 342.8 308.342 339.669C308.342 336.538 305.803 334 302.671 334C299.539 334 297 336.538 297 339.669Z" fill="#7E34FF"/>
<path d="M468.999 276.983H442.393C442.287 276.976 442.188 276.929 442.115 276.851C442.042 276.774 442.002 276.671 442.002 276.565C442.002 276.459 442.042 276.357 442.115 276.279C442.188 276.201 442.287 276.154 442.393 276.147H468.582V244.196C468.589 244.089 468.637 243.99 468.714 243.918C468.792 243.845 468.894 243.805 469 243.805C469.107 243.805 469.209 243.845 469.287 243.918C469.364 243.99 469.412 244.089 469.419 244.196V276.564C469.419 276.619 469.408 276.674 469.387 276.725C469.366 276.775 469.335 276.822 469.296 276.861C469.257 276.9 469.211 276.93 469.16 276.951C469.109 276.973 469.055 276.983 468.999 276.983Z" fill="white"/>
<path d="M86 127H118.464L115.613 160.256L102.232 163.859L88.9295 160.177L86 127Z" fill="#E2EAFF"/>
<path d="M88.9297 130.326H115.535L113.198 157.58L102.232 160.532L91.33 157.515L88.9297 130.326Z" fill="white"/>
<path d="M91.978 133.786H112.486L112.142 137.809L96.6499 137.808L96.9659 141.846L111.789 141.92L110.685 154.795L102.232 157.071L93.8286 154.746L93.2388 148.066L97.481 148.062L97.7581 151.229L102.232 152.417L106.706 151.268L107.102 146.003L93.0667 146.124L91.978 133.786Z" fill="#E2EAFF"/>
<path d="M199.476 256.797C200.31 256.797 200.986 256.121 200.986 255.287C200.986 254.453 200.31 253.777 199.476 253.777C198.642 253.777 197.966 254.453 197.966 255.287C197.966 256.121 198.642 256.797 199.476 256.797Z" fill="#5479F7"/>
<path d="M95.4232 305C95.479 305 95.5342 305.01 95.5858 305.031C95.6373 305.051 95.6842 305.081 95.7237 305.119C95.7632 305.157 95.7945 305.202 95.8159 305.252C95.8373 305.302 95.8483 305.355 95.8483 305.409V336.246H287.515C287.622 336.253 287.723 336.299 287.797 336.376C287.87 336.452 287.911 336.552 287.911 336.656C287.911 336.76 287.87 336.861 287.797 336.937C287.723 337.013 287.622 337.059 287.515 337.066H95.4232C95.3109 337.066 95.2032 337.022 95.124 336.945C95.0447 336.868 95.0002 336.764 95.0002 336.655V305.415C94.9994 305.36 95.0098 305.307 95.0307 305.256C95.0516 305.206 95.0827 305.16 95.122 305.122C95.1614 305.083 95.2083 305.053 95.26 305.032C95.3117 305.011 95.3672 305 95.4232 305Z" fill="white"/>
<path d="M73.98 120V105.1H74.98V111.96H83.78V105.1H84.78V120H83.78V112.86H74.98V120H73.98ZM95.4256 120V106H91.2056V105.1H100.606V106H96.4256V120H95.4256ZM107.019 120V105.1H107.819L113.199 113.32L118.619 105.1H119.419V120H118.419V107.1L113.239 115.08H113.199L108.019 107.16V120H107.019ZM127.386 120V105.1H128.386V119.1H135.186V120H127.386Z" fill="white"/>
<path d="M230.6 138.24C229.587 138.24 228.653 138.053 227.8 137.68C226.947 137.293 226.2 136.753 225.56 136.06C224.92 135.367 224.42 134.553 224.06 133.62C223.713 132.687 223.54 131.66 223.54 130.54C223.54 129.433 223.713 128.413 224.06 127.48C224.42 126.533 224.92 125.72 225.56 125.04C226.2 124.347 226.947 123.813 227.8 123.44C228.653 123.053 229.587 122.86 230.6 122.86C231.587 122.86 232.473 123.047 233.26 123.42C234.047 123.78 234.713 124.24 235.26 124.8C235.807 125.347 236.2 125.907 236.44 126.48L235.5 126.9C235.06 125.967 234.413 125.22 233.56 124.66C232.72 124.1 231.733 123.82 230.6 123.82C229.413 123.82 228.36 124.107 227.44 124.68C226.533 125.24 225.82 126.027 225.3 127.04C224.793 128.04 224.54 129.207 224.54 130.54C224.54 131.873 224.793 133.047 225.3 134.06C225.82 135.073 226.533 135.867 227.44 136.44C228.36 137 229.413 137.28 230.6 137.28C231.733 137.28 232.72 137 233.56 136.44C234.413 135.88 235.06 135.133 235.5 134.2L236.44 134.62C236.2 135.193 235.807 135.76 235.26 136.32C234.713 136.867 234.047 137.327 233.26 137.7C232.473 138.06 231.587 138.24 230.6 138.24ZM248.402 138.24C247.455 138.24 246.615 138.067 245.882 137.72C245.162 137.36 244.562 136.893 244.082 136.32C243.615 135.747 243.282 135.147 243.082 134.52L243.982 134.24C244.368 135.253 244.935 136.033 245.682 136.58C246.428 137.113 247.328 137.38 248.382 137.38C249.088 137.38 249.715 137.26 250.262 137.02C250.808 136.767 251.242 136.413 251.562 135.96C251.882 135.507 252.042 134.96 252.042 134.32C252.042 133.507 251.802 132.88 251.322 132.44C250.855 131.987 250.308 131.673 249.682 131.5L246.902 130.7C245.755 130.367 244.935 129.847 244.442 129.14C243.948 128.433 243.702 127.633 243.702 126.74C243.702 125.967 243.888 125.293 244.262 124.72C244.635 124.133 245.142 123.68 245.782 123.36C246.422 123.027 247.142 122.86 247.942 122.86C248.768 122.86 249.508 123.027 250.162 123.36C250.828 123.68 251.388 124.107 251.842 124.64C252.308 125.16 252.635 125.727 252.822 126.34L251.922 126.62C251.575 125.673 251.048 124.953 250.342 124.46C249.635 123.967 248.842 123.72 247.962 123.72C247.348 123.72 246.788 123.847 246.282 124.1C245.788 124.34 245.395 124.687 245.102 125.14C244.808 125.593 244.662 126.133 244.662 126.76C244.662 127.493 244.855 128.1 245.242 128.58C245.628 129.06 246.328 129.453 247.342 129.76L249.862 130.52C250.835 130.813 251.602 131.293 252.162 131.96C252.722 132.613 253.002 133.407 253.002 134.34C253.002 135.113 252.802 135.793 252.402 136.38C252.002 136.953 251.455 137.407 250.762 137.74C250.068 138.073 249.282 138.24 248.402 138.24ZM265.175 138.24C264.228 138.24 263.388 138.067 262.655 137.72C261.935 137.36 261.335 136.893 260.855 136.32C260.388 135.747 260.055 135.147 259.855 134.52L260.755 134.24C261.142 135.253 261.708 136.033 262.455 136.58C263.202 137.113 264.102 137.38 265.155 137.38C265.862 137.38 266.488 137.26 267.035 137.02C267.582 136.767 268.015 136.413 268.335 135.96C268.655 135.507 268.815 134.96 268.815 134.32C268.815 133.507 268.575 132.88 268.095 132.44C267.628 131.987 267.082 131.673 266.455 131.5L263.675 130.7C262.528 130.367 261.708 129.847 261.215 129.14C260.722 128.433 260.475 127.633 260.475 126.74C260.475 125.967 260.662 125.293 261.035 124.72C261.408 124.133 261.915 123.68 262.555 123.36C263.195 123.027 263.915 122.86 264.715 122.86C265.542 122.86 266.282 123.027 266.935 123.36C267.602 123.68 268.162 124.107 268.615 124.64C269.082 125.16 269.408 125.727 269.595 126.34L268.695 126.62C268.348 125.673 267.822 124.953 267.115 124.46C266.408 123.967 265.615 123.72 264.735 123.72C264.122 123.72 263.562 123.847 263.055 124.1C262.562 124.34 262.168 124.687 261.875 125.14C261.582 125.593 261.435 126.133 261.435 126.76C261.435 127.493 261.628 128.1 262.015 128.58C262.402 129.06 263.102 129.453 264.115 129.76L266.635 130.52C267.608 130.813 268.375 131.293 268.935 131.96C269.495 132.613 269.775 133.407 269.775 134.34C269.775 135.113 269.575 135.793 269.175 136.38C268.775 136.953 268.228 137.407 267.535 137.74C266.842 138.073 266.055 138.24 265.175 138.24Z" fill="white"/>
</g>
<defs>
<clipPath id="clip0_404_1247">
<rect width="555.484" height="410" fill="white"/>
</clipPath>
</defs>
</svg>
