<svg width="557" height="410" viewBox="0 0 557 410" fill="none" xmlns="http://www.w3.org/2000/svg">
<g clip-path="url(#clip0_225_3403)">
<rect width="555.484" height="410" transform="translate(0.725586)" fill="white"/>
<g opacity="0.3">
<rect x="331.37" y="52.9031" width="119.852" height="51.365" rx="25.6825" fill="#EEEEEE"/>
<rect x="422.115" y="179.604" width="119.852" height="51.365" rx="25.6825" fill="#EEEEEE"/>
<rect x="331.37" y="116.253" width="210.596" height="51.365" rx="25.6825" fill="#EEEEEE"/>
</g>
<path d="M472.5 294.5C472.5 308.851 460.644 320.5 446 320.5C431.356 320.5 419.5 308.851 419.5 294.5C419.5 280.149 431.356 268.5 446 268.5C460.644 268.5 472.5 280.149 472.5 294.5Z" stroke="black"/>
<path d="M436.367 302.187C435.599 302.187 434.92 302.016 434.329 301.673C433.748 301.331 433.292 300.854 432.96 300.242C432.639 299.63 432.478 298.915 432.478 298.096V290.411H433.256V298.158C433.256 298.811 433.385 299.387 433.644 299.884C433.904 300.382 434.267 300.776 434.733 301.067C435.21 301.347 435.755 301.487 436.367 301.487C436.989 301.487 437.533 301.347 438 301.067C438.467 300.776 438.83 300.382 439.089 299.884C439.348 299.387 439.478 298.811 439.478 298.158V290.411H440.256V298.096C440.256 298.915 440.09 299.63 439.758 300.242C439.436 300.854 438.985 301.331 438.404 301.673C437.824 302.016 437.144 302.187 436.367 302.187ZM445.193 302L448.927 296.058L445.349 290.411H446.313L449.424 295.358L452.536 290.411H453.484L449.907 296.058L453.671 302H452.707L449.424 296.758L446.158 302H445.193ZM458.662 302V290.411H459.44V302H458.662Z" fill="black"/>
<path d="M403.715 354H137.285C137.21 354 137.137 353.955 137.084 353.875C137.03 353.795 137 353.686 137 353.573V27.4267C137 27.3706 137.007 27.315 137.021 27.2631C137.036 27.2112 137.057 27.1641 137.083 27.1244C137.11 27.0847 137.141 27.0533 137.176 27.032C137.211 27.0106 137.248 26.9997 137.285 27H403.715C403.79 27 403.863 27.045 403.916 27.125C403.97 27.205 404 27.3135 404 27.4267V353.573C404 353.686 403.969 353.795 403.916 353.874C403.863 353.954 403.79 353.999 403.715 354ZM137.571 353.147H403.429V27.8533H137.571V353.147Z" fill="black"/>
<path d="M390 44H278V136H390V44Z" fill="#E2EAFF"/>
<path d="M263.562 137H259.263C259.148 137 259.039 136.955 258.958 136.875C258.878 136.795 258.833 136.686 258.833 136.573C258.833 136.46 258.878 136.351 258.958 136.271C259.039 136.191 259.148 136.146 259.263 136.146H263.562C263.619 136.146 263.675 136.157 263.727 136.178C263.779 136.2 263.826 136.231 263.866 136.271C263.906 136.311 263.938 136.358 263.959 136.409C263.981 136.461 263.992 136.517 263.992 136.573C263.992 136.629 263.981 136.685 263.959 136.736C263.938 136.788 263.906 136.835 263.866 136.875C263.826 136.915 263.779 136.946 263.727 136.967C263.675 136.989 263.619 137 263.562 137ZM254.963 137H250.663C250.549 137 250.44 136.955 250.359 136.875C250.278 136.795 250.233 136.686 250.233 136.573C250.233 136.46 250.278 136.351 250.359 136.271C250.44 136.191 250.549 136.146 250.663 136.146H254.963C255.019 136.146 255.075 136.157 255.127 136.178C255.18 136.2 255.227 136.231 255.267 136.271C255.307 136.311 255.338 136.358 255.36 136.409C255.382 136.461 255.393 136.517 255.393 136.573C255.393 136.629 255.382 136.685 255.36 136.736C255.338 136.788 255.307 136.835 255.267 136.875C255.227 136.915 255.18 136.946 255.127 136.967C255.075 136.989 255.019 137 254.963 137ZM246.363 137H242.064C241.95 137 241.84 136.955 241.76 136.875C241.679 136.795 241.634 136.686 241.634 136.573C241.634 136.46 241.679 136.351 241.76 136.271C241.84 136.191 241.95 136.146 242.064 136.146H246.363C246.477 136.146 246.587 136.191 246.667 136.271C246.748 136.351 246.793 136.46 246.793 136.573C246.793 136.686 246.748 136.795 246.667 136.875C246.587 136.955 246.477 137 246.363 137ZM237.764 137H233.464C233.35 137 233.241 136.955 233.16 136.875C233.08 136.795 233.034 136.686 233.034 136.573C233.034 136.46 233.08 136.351 233.16 136.271C233.241 136.191 233.35 136.146 233.464 136.146H237.764C237.878 136.146 237.987 136.191 238.068 136.271C238.149 136.351 238.194 136.46 238.194 136.573C238.194 136.686 238.149 136.795 238.068 136.875C237.987 136.955 237.878 137 237.764 137ZM229.165 137H224.865C224.751 137 224.642 136.955 224.561 136.875C224.48 136.795 224.435 136.686 224.435 136.573C224.435 136.46 224.48 136.351 224.561 136.271C224.642 136.191 224.751 136.146 224.865 136.146H229.165C229.279 136.146 229.388 136.191 229.469 136.271C229.549 136.351 229.595 136.46 229.595 136.573C229.595 136.686 229.549 136.795 229.469 136.875C229.388 136.955 229.279 137 229.165 137ZM220.565 137H216.266C216.151 137 216.042 136.955 215.961 136.875C215.881 136.795 215.836 136.686 215.836 136.573C215.836 136.46 215.881 136.351 215.961 136.271C216.042 136.191 216.151 136.146 216.266 136.146H220.565C220.679 136.146 220.789 136.191 220.869 136.271C220.95 136.351 220.995 136.46 220.995 136.573C220.995 136.686 220.95 136.795 220.869 136.875C220.789 136.955 220.679 137 220.565 137ZM211.966 137H207.666C207.552 137 207.443 136.955 207.362 136.875C207.281 136.795 207.236 136.686 207.236 136.573C207.236 136.46 207.281 136.351 207.362 136.271C207.443 136.191 207.552 136.146 207.666 136.146H211.966C212.08 136.146 212.189 136.191 212.27 136.271C212.351 136.351 212.396 136.46 212.396 136.573C212.396 136.686 212.351 136.795 212.27 136.875C212.189 136.955 212.08 137 211.966 137ZM203.366 137H199.067C198.953 137 198.843 136.955 198.763 136.875C198.682 136.795 198.637 136.686 198.637 136.573C198.637 136.46 198.682 136.351 198.763 136.271C198.843 136.191 198.953 136.146 199.067 136.146H203.366C203.48 136.146 203.59 136.191 203.67 136.271C203.751 136.351 203.796 136.46 203.796 136.573C203.796 136.686 203.751 136.795 203.67 136.875C203.59 136.955 203.48 137 203.366 137ZM194.767 137H190.467C190.353 137 190.244 136.955 190.163 136.875C190.083 136.795 190.037 136.686 190.037 136.573C190.037 136.46 190.083 136.351 190.163 136.271C190.244 136.191 190.353 136.146 190.467 136.146H194.767C194.881 136.146 194.99 136.191 195.071 136.271C195.152 136.351 195.197 136.46 195.197 136.573C195.197 136.686 195.152 136.795 195.071 136.875C194.99 136.955 194.881 137 194.767 137ZM186.168 137H181.868C181.754 137 181.645 136.955 181.564 136.875C181.483 136.795 181.438 136.686 181.438 136.573C181.438 136.46 181.483 136.351 181.564 136.271C181.645 136.191 181.754 136.146 181.868 136.146H186.168C186.282 136.146 186.391 136.191 186.472 136.271C186.552 136.351 186.598 136.46 186.598 136.573C186.598 136.686 186.552 136.795 186.472 136.875C186.391 136.955 186.282 137 186.168 137ZM177.568 137H173.269C173.154 137 173.045 136.955 172.965 136.875C172.884 136.795 172.839 136.686 172.839 136.573C172.839 136.46 172.884 136.351 172.965 136.271C173.045 136.191 173.154 136.146 173.269 136.146H177.568C177.682 136.146 177.792 136.191 177.872 136.271C177.953 136.351 177.998 136.46 177.998 136.573C177.998 136.686 177.953 136.795 177.872 136.875C177.792 136.955 177.682 137 177.568 137ZM168.969 137H164.669C164.555 137 164.446 136.955 164.365 136.875C164.284 136.795 164.239 136.686 164.239 136.573C164.239 136.46 164.284 136.351 164.365 136.271C164.446 136.191 164.555 136.146 164.669 136.146H168.969C169.083 136.146 169.192 136.191 169.273 136.271C169.354 136.351 169.399 136.46 169.399 136.573C169.399 136.686 169.354 136.795 169.273 136.875C169.192 136.955 169.083 137 168.969 137ZM160.369 137H156.07C155.956 137 155.846 136.955 155.766 136.875C155.685 136.795 155.64 136.686 155.64 136.573C155.64 136.46 155.685 136.351 155.766 136.271C155.846 136.191 155.956 136.146 156.07 136.146H160.369C160.483 136.146 160.593 136.191 160.673 136.271C160.754 136.351 160.799 136.46 160.799 136.573C160.799 136.686 160.754 136.795 160.673 136.875C160.593 136.955 160.483 137 160.369 137ZM151.77 137H151.43C151.316 136.999 151.207 136.954 151.127 136.874C151.046 136.794 151.001 136.686 151 136.573V132.671C151 132.557 151.045 132.449 151.126 132.369C151.207 132.289 151.316 132.244 151.43 132.244C151.544 132.244 151.653 132.289 151.734 132.369C151.815 132.449 151.86 132.557 151.86 132.671V136.15C151.968 136.164 152.066 136.219 152.135 136.303C152.204 136.386 152.238 136.493 152.231 136.601C152.224 136.709 152.176 136.81 152.096 136.884C152.017 136.958 151.912 137 151.803 137H151.77ZM263.537 135.591C263.423 135.59 263.314 135.545 263.233 135.465C263.153 135.385 263.107 135.277 263.107 135.163V130.892C263.107 130.779 263.152 130.67 263.233 130.59C263.313 130.51 263.423 130.465 263.537 130.465C263.651 130.465 263.76 130.51 263.841 130.59C263.921 130.67 263.967 130.779 263.967 130.892V135.163C263.967 135.272 263.925 135.377 263.85 135.457C263.775 135.536 263.672 135.584 263.562 135.591H263.537ZM151.43 128.829C151.316 128.829 151.207 128.784 151.126 128.703C151.045 128.623 151 128.515 151 128.401V124.13C151 124.074 151.011 124.019 151.033 123.967C151.054 123.915 151.086 123.868 151.126 123.828C151.166 123.789 151.213 123.757 151.265 123.736C151.318 123.714 151.374 123.703 151.43 123.703C151.486 123.703 151.542 123.714 151.595 123.736C151.647 123.757 151.694 123.789 151.734 123.828C151.774 123.868 151.806 123.915 151.827 123.967C151.849 124.019 151.86 124.074 151.86 124.13V128.401C151.86 128.458 151.849 128.513 151.828 128.565C151.806 128.617 151.775 128.664 151.735 128.704C151.695 128.744 151.647 128.775 151.595 128.797C151.543 128.818 151.487 128.829 151.43 128.829ZM263.57 127.05C263.456 127.05 263.347 127.005 263.267 126.925C263.186 126.845 263.141 126.736 263.14 126.623V122.352C263.14 122.239 263.185 122.13 263.266 122.05C263.347 121.97 263.456 121.925 263.57 121.925C263.684 121.925 263.793 121.97 263.874 122.05C263.955 122.13 264 122.239 264 122.352V126.623C264 126.68 263.989 126.736 263.967 126.788C263.944 126.841 263.912 126.888 263.871 126.928C263.831 126.968 263.782 126.999 263.729 127.02C263.676 127.041 263.619 127.051 263.562 127.05H263.57ZM151.43 120.288C151.316 120.288 151.207 120.243 151.127 120.163C151.046 120.083 151.001 119.974 151 119.861V115.59C151 115.534 151.011 115.478 151.033 115.427C151.054 115.375 151.086 115.328 151.126 115.288C151.166 115.248 151.213 115.217 151.265 115.195C151.318 115.174 151.374 115.163 151.43 115.163C151.486 115.163 151.542 115.174 151.595 115.195C151.647 115.217 151.694 115.248 151.734 115.288C151.774 115.328 151.806 115.375 151.827 115.427C151.849 115.478 151.86 115.534 151.86 115.59V119.861C151.86 119.974 151.815 120.083 151.734 120.163C151.653 120.243 151.544 120.288 151.43 120.288ZM263.57 118.51C263.456 118.509 263.347 118.464 263.267 118.384C263.186 118.304 263.141 118.196 263.14 118.083V113.812C263.14 113.698 263.185 113.59 263.266 113.51C263.347 113.43 263.456 113.385 263.57 113.385C263.684 113.385 263.793 113.43 263.874 113.51C263.955 113.59 264 113.698 264 113.812V118.083C264 118.14 263.989 118.196 263.967 118.248C263.944 118.3 263.912 118.348 263.871 118.388C263.831 118.427 263.782 118.459 263.729 118.48C263.676 118.501 263.619 118.511 263.562 118.51H263.57ZM151.43 111.748C151.316 111.747 151.207 111.702 151.127 111.622C151.046 111.542 151.001 111.434 151 111.321V107.05C151 106.994 151.011 106.938 151.033 106.886C151.054 106.834 151.086 106.787 151.126 106.748C151.166 106.708 151.213 106.677 151.265 106.655C151.318 106.634 151.374 106.623 151.43 106.623C151.486 106.623 151.542 106.634 151.595 106.655C151.647 106.677 151.694 106.708 151.734 106.748C151.774 106.787 151.806 106.834 151.827 106.886C151.849 106.938 151.86 106.994 151.86 107.05V111.321C151.86 111.434 151.815 111.543 151.734 111.623C151.653 111.703 151.544 111.748 151.43 111.748ZM263.57 109.968C263.456 109.968 263.347 109.923 263.267 109.843C263.186 109.764 263.141 109.655 263.14 109.542V105.271C263.14 105.158 263.185 105.049 263.266 104.969C263.347 104.889 263.456 104.844 263.57 104.844C263.684 104.844 263.793 104.889 263.874 104.969C263.955 105.049 264 105.158 264 105.271V109.542C264 109.599 263.989 109.655 263.967 109.707C263.944 109.76 263.912 109.807 263.871 109.847C263.83 109.886 263.782 109.917 263.729 109.938C263.676 109.959 263.619 109.969 263.562 109.968H263.57ZM151.43 103.208C151.316 103.207 151.207 103.162 151.127 103.082C151.046 103.002 151.001 102.894 151 102.78V98.5093C151 98.4533 151.011 98.3977 151.033 98.3459C151.054 98.2941 151.086 98.247 151.126 98.2073C151.166 98.1677 151.213 98.1362 151.265 98.1147C151.318 98.0933 151.374 98.0822 151.43 98.0822C151.486 98.0822 151.542 98.0933 151.595 98.1147C151.647 98.1362 151.694 98.1677 151.734 98.2073C151.774 98.247 151.806 98.2941 151.827 98.3459C151.849 98.3977 151.86 98.4533 151.86 98.5093V102.78C151.86 102.894 151.815 103.002 151.734 103.082C151.653 103.163 151.544 103.208 151.43 103.208ZM263.57 101.427C263.456 101.427 263.347 101.383 263.267 101.303C263.186 101.223 263.141 101.115 263.14 101.002V96.731C263.14 96.6177 263.185 96.5091 263.266 96.429C263.347 96.3489 263.456 96.3039 263.57 96.3039C263.684 96.3039 263.793 96.3489 263.874 96.429C263.955 96.5091 264 96.6177 264 96.731V101.002C264 101.059 263.989 101.115 263.967 101.167C263.944 101.219 263.912 101.267 263.871 101.306C263.83 101.346 263.782 101.377 263.729 101.398C263.676 101.419 263.619 101.429 263.562 101.427H263.57ZM151.43 94.6673C151.316 94.6668 151.207 94.6216 151.127 94.5416C151.046 94.4616 151.001 94.3533 151 94.2402V89.969C151 89.9129 151.011 89.8574 151.033 89.8056C151.054 89.7538 151.086 89.7067 151.126 89.667C151.166 89.6273 151.213 89.5959 151.265 89.5744C151.318 89.553 151.374 89.5419 151.43 89.5419C151.486 89.5419 151.542 89.553 151.595 89.5744C151.647 89.5959 151.694 89.6273 151.734 89.667C151.774 89.7067 151.806 89.7538 151.827 89.8056C151.849 89.8574 151.86 89.9129 151.86 89.969V94.2402C151.86 94.3534 151.815 94.4621 151.734 94.5422C151.653 94.6223 151.544 94.6673 151.43 94.6673ZM263.57 92.887C263.456 92.887 263.347 92.842 263.266 92.7619C263.185 92.6818 263.14 92.5731 263.14 92.4599V88.1887C263.14 88.0755 263.185 87.9668 263.266 87.8867C263.347 87.8066 263.456 87.7616 263.57 87.7616C263.684 87.7616 263.793 87.8066 263.874 87.8867C263.955 87.9668 264 88.0755 264 88.1887V92.4599C264 92.5167 263.989 92.573 263.967 92.6255C263.945 92.6779 263.913 92.7254 263.872 92.7653C263.831 92.8051 263.783 92.8364 263.729 92.8573C263.676 92.8782 263.619 92.8883 263.562 92.887H263.57ZM151.43 86.1269C151.316 86.1264 151.207 86.0813 151.127 86.0013C151.046 85.9213 151.001 85.813 151 85.6998V81.4287C151 81.3726 151.011 81.3171 151.033 81.2652C151.054 81.2134 151.086 81.1663 151.126 81.1267C151.166 81.087 151.213 81.0556 151.265 81.0341C151.318 81.0126 151.374 81.0016 151.43 81.0016C151.486 81.0016 151.542 81.0126 151.595 81.0341C151.647 81.0556 151.694 81.087 151.734 81.1267C151.774 81.1663 151.806 81.2134 151.827 81.2652C151.849 81.3171 151.86 81.3726 151.86 81.4287V85.6998C151.86 85.8131 151.815 85.9217 151.734 86.0018C151.653 86.0819 151.544 86.1269 151.43 86.1269ZM263.57 84.3467C263.456 84.3467 263.347 84.3017 263.266 84.2216C263.185 84.1415 263.14 84.0328 263.14 83.9195V79.6484C263.14 79.5351 263.185 79.4265 263.266 79.3464C263.347 79.2663 263.456 79.2213 263.57 79.2213C263.684 79.2213 263.793 79.2663 263.874 79.3464C263.955 79.4265 264 79.5351 264 79.6484V83.9195C264 83.9764 263.989 84.0327 263.967 84.0851C263.945 84.1376 263.913 84.1851 263.872 84.2249C263.831 84.2648 263.783 84.296 263.729 84.3169C263.676 84.3379 263.619 84.348 263.562 84.3467H263.57ZM151.43 77.5866C151.316 77.5861 151.207 77.5409 151.127 77.461C151.046 77.381 151.001 77.2726 151 77.1595V72.8884C151 72.8323 151.011 72.7767 151.033 72.7249C151.054 72.6731 151.086 72.626 151.126 72.5864C151.166 72.5467 151.213 72.5152 151.265 72.4938C151.318 72.4723 151.374 72.4613 151.43 72.4613C151.486 72.4613 151.542 72.4723 151.595 72.4938C151.647 72.5152 151.694 72.5467 151.734 72.5864C151.774 72.626 151.806 72.6731 151.827 72.7249C151.849 72.7767 151.86 72.8323 151.86 72.8884V77.1595C151.86 77.2728 151.815 77.3814 151.734 77.4615C151.653 77.5416 151.544 77.5866 151.43 77.5866ZM263.57 75.8063C263.456 75.8063 263.347 75.7613 263.266 75.6812C263.185 75.6011 263.14 75.4925 263.14 75.3792V71.1081C263.14 70.9948 263.185 70.8862 263.266 70.8061C263.347 70.726 263.456 70.681 263.57 70.681C263.684 70.681 263.793 70.726 263.874 70.8061C263.955 70.8862 264 70.9948 264 71.1081V75.3792C264 75.436 263.989 75.4924 263.967 75.5448C263.945 75.5973 263.913 75.6448 263.872 75.6846C263.831 75.7244 263.783 75.7557 263.729 75.7766C263.676 75.7975 263.619 75.8076 263.562 75.8063H263.57ZM151.43 69.0463C151.316 69.0458 151.207 69.0006 151.127 68.9206C151.046 68.8407 151.001 68.7323 151 68.6192V64.3481C151 64.292 151.011 64.2364 151.033 64.1846C151.054 64.1328 151.086 64.0857 151.126 64.046C151.166 64.0064 151.213 63.9749 151.265 63.9535C151.318 63.932 151.374 63.9209 151.43 63.9209C151.486 63.9209 151.542 63.932 151.595 63.9535C151.647 63.9749 151.694 64.0064 151.734 64.046C151.774 64.0857 151.806 64.1328 151.827 64.1846C151.849 64.2364 151.86 64.292 151.86 64.3481V68.6192C151.86 68.7325 151.815 68.8411 151.734 68.9212C151.653 69.0013 151.544 69.0463 151.43 69.0463ZM263.57 67.266C263.456 67.266 263.347 67.221 263.266 67.1409C263.185 67.0608 263.14 66.9522 263.14 66.8389V62.5678C263.14 62.4545 263.185 62.3459 263.266 62.2658C263.347 62.1857 263.456 62.1407 263.57 62.1407C263.684 62.1407 263.793 62.1857 263.874 62.2658C263.955 62.3459 264 62.4545 264 62.5678V66.8389C264 66.8957 263.989 66.952 263.967 67.0045C263.945 67.0569 263.913 67.1045 263.872 67.1443C263.831 67.1841 263.783 67.2154 263.729 67.2363C263.676 67.2572 263.619 67.2673 263.562 67.266H263.57ZM151.43 60.506C151.316 60.5055 151.207 60.4603 151.127 60.3803C151.046 60.3003 151.001 60.192 151 60.0789V55.8077C151 55.7516 151.011 55.6961 151.033 55.6443C151.054 55.5925 151.086 55.5454 151.126 55.5057C151.166 55.4661 151.213 55.4346 151.265 55.4131C151.318 55.3917 151.374 55.3806 151.43 55.3806C151.486 55.3806 151.542 55.3917 151.595 55.4131C151.647 55.4346 151.694 55.4661 151.734 55.5057C151.774 55.5454 151.806 55.5925 151.827 55.6443C151.849 55.6961 151.86 55.7516 151.86 55.8077V60.0789C151.86 60.1921 151.815 60.3008 151.734 60.3809C151.653 60.461 151.544 60.506 151.43 60.506ZM263.57 58.7257C263.456 58.7257 263.347 58.6807 263.266 58.6006C263.185 58.5205 263.14 58.4119 263.14 58.2986V54.0274C263.14 53.9142 263.185 53.8055 263.266 53.7254C263.347 53.6453 263.456 53.6003 263.57 53.6003C263.684 53.6003 263.793 53.6453 263.874 53.7254C263.955 53.8055 264 53.9142 264 54.0274V58.2986C264 58.3554 263.989 58.4117 263.967 58.4642C263.945 58.5166 263.913 58.5642 263.872 58.604C263.831 58.6438 263.783 58.6751 263.729 58.696C263.676 58.7169 263.619 58.727 263.562 58.7257H263.57ZM151.43 51.9657C151.316 51.9651 151.207 51.92 151.127 51.84C151.046 51.76 151.001 51.6517 151 51.5385V47.2674C151 47.2113 151.011 47.1558 151.033 47.104C151.054 47.0521 151.086 47.0051 151.126 46.9654C151.166 46.9257 151.213 46.8943 151.265 46.8728C151.318 46.8513 151.374 46.8403 151.43 46.8403C151.486 46.8403 151.542 46.8513 151.595 46.8728C151.647 46.8943 151.694 46.9257 151.734 46.9654C151.774 47.0051 151.806 47.0521 151.827 47.104C151.849 47.1558 151.86 47.2113 151.86 47.2674V51.5385C151.86 51.6518 151.815 51.7605 151.734 51.8406C151.653 51.9207 151.544 51.9657 151.43 51.9657ZM263.57 50.1854C263.456 50.1854 263.347 50.1404 263.266 50.0603C263.185 49.9802 263.14 49.8715 263.14 49.7583V45.4871C263.14 45.3739 263.185 45.2652 263.266 45.1851C263.347 45.105 263.456 45.06 263.57 45.06C263.684 45.06 263.793 45.105 263.874 45.1851C263.955 45.2652 264 45.3739 264 45.4871V49.7583C264 49.8151 263.989 49.8714 263.967 49.9238C263.945 49.9763 263.913 50.0238 263.872 50.0637C263.831 50.1035 263.783 50.1348 263.729 50.1557C263.676 50.1766 263.619 50.1867 263.562 50.1854H263.57ZM260.339 44.8542H256.04C255.926 44.8542 255.816 44.8092 255.736 44.7291C255.655 44.649 255.61 44.5404 255.61 44.4271C255.61 44.3138 255.655 44.2052 255.736 44.1251C255.816 44.045 255.926 44 256.04 44H260.339C260.453 44 260.563 44.045 260.643 44.1251C260.724 44.2052 260.769 44.3138 260.769 44.4271C260.769 44.5404 260.724 44.649 260.643 44.7291C260.563 44.8092 260.453 44.8542 260.339 44.8542ZM251.74 44.8542H247.44C247.326 44.8542 247.217 44.8092 247.136 44.7291C247.056 44.649 247.01 44.5404 247.01 44.4271C247.01 44.3138 247.056 44.2052 247.136 44.1251C247.217 44.045 247.326 44 247.44 44H251.74C251.854 44 251.963 44.045 252.044 44.1251C252.125 44.2052 252.17 44.3138 252.17 44.4271C252.17 44.5404 252.125 44.649 252.044 44.7291C251.963 44.8092 251.854 44.8542 251.74 44.8542ZM243.141 44.8542H238.841C238.727 44.8542 238.618 44.8092 238.537 44.7291C238.456 44.649 238.411 44.5404 238.411 44.4271C238.411 44.3138 238.456 44.2052 238.537 44.1251C238.618 44.045 238.727 44 238.841 44H243.141C243.255 44 243.364 44.045 243.445 44.1251C243.525 44.2052 243.571 44.3138 243.571 44.4271C243.571 44.5404 243.525 44.649 243.445 44.7291C243.364 44.8092 243.255 44.8542 243.141 44.8542ZM234.541 44.8542H230.242C230.127 44.8542 230.018 44.8092 229.937 44.7291C229.857 44.649 229.812 44.5404 229.812 44.4271C229.812 44.3138 229.857 44.2052 229.937 44.1251C230.018 44.045 230.127 44 230.242 44H234.541C234.655 44 234.765 44.045 234.845 44.1251C234.926 44.2052 234.971 44.3138 234.971 44.4271C234.971 44.5404 234.926 44.649 234.845 44.7291C234.765 44.8092 234.655 44.8542 234.541 44.8542ZM225.942 44.8542H221.642C221.528 44.8542 221.419 44.8092 221.338 44.7291C221.257 44.649 221.212 44.5404 221.212 44.4271C221.212 44.3138 221.257 44.2052 221.338 44.1251C221.419 44.045 221.528 44 221.642 44H225.942C226.056 44 226.165 44.045 226.246 44.1251C226.326 44.2052 226.372 44.3138 226.372 44.4271C226.372 44.5404 226.326 44.649 226.246 44.7291C226.165 44.8092 226.056 44.8542 225.942 44.8542ZM217.342 44.8542H213.043C212.929 44.8542 212.819 44.8092 212.739 44.7291C212.658 44.649 212.613 44.5404 212.613 44.4271C212.613 44.3138 212.658 44.2052 212.739 44.1251C212.819 44.045 212.929 44 213.043 44H217.342C217.456 44 217.566 44.045 217.646 44.1251C217.727 44.2052 217.772 44.3138 217.772 44.4271C217.772 44.5404 217.727 44.649 217.646 44.7291C217.566 44.8092 217.456 44.8542 217.342 44.8542ZM208.743 44.8542H204.443C204.329 44.8542 204.22 44.8092 204.139 44.7291C204.059 44.649 204.013 44.5404 204.013 44.4271C204.013 44.3138 204.059 44.2052 204.139 44.1251C204.22 44.045 204.329 44 204.443 44H208.743C208.857 44 208.966 44.045 209.047 44.1251C209.128 44.2052 209.173 44.3138 209.173 44.4271C209.173 44.5404 209.128 44.649 209.047 44.7291C208.966 44.8092 208.857 44.8542 208.743 44.8542ZM200.144 44.8542H195.844C195.73 44.8542 195.621 44.8092 195.54 44.7291C195.459 44.649 195.414 44.5404 195.414 44.4271C195.414 44.3138 195.459 44.2052 195.54 44.1251C195.621 44.045 195.73 44 195.844 44H200.144C200.258 44 200.367 44.045 200.448 44.1251C200.528 44.2052 200.574 44.3138 200.574 44.4271C200.574 44.5404 200.528 44.649 200.448 44.7291C200.367 44.8092 200.258 44.8542 200.144 44.8542ZM191.544 44.8542H187.245C187.13 44.8542 187.021 44.8092 186.94 44.7291C186.86 44.649 186.815 44.5404 186.815 44.4271C186.815 44.3138 186.86 44.2052 186.94 44.1251C187.021 44.045 187.13 44 187.245 44H191.544C191.658 44 191.768 44.045 191.848 44.1251C191.929 44.2052 191.974 44.3138 191.974 44.4271C191.974 44.5404 191.929 44.649 191.848 44.7291C191.768 44.8092 191.658 44.8542 191.544 44.8542ZM182.945 44.8542H178.645C178.531 44.8542 178.422 44.8092 178.341 44.7291C178.26 44.649 178.215 44.5404 178.215 44.4271C178.215 44.3138 178.26 44.2052 178.341 44.1251C178.422 44.045 178.531 44 178.645 44H182.945C183.059 44 183.168 44.045 183.249 44.1251C183.329 44.2052 183.375 44.3138 183.375 44.4271C183.375 44.5404 183.329 44.649 183.249 44.7291C183.168 44.8092 183.059 44.8542 182.945 44.8542ZM174.345 44.8542H170.046C169.932 44.8542 169.822 44.8092 169.742 44.7291C169.661 44.649 169.616 44.5404 169.616 44.4271C169.616 44.3138 169.661 44.2052 169.742 44.1251C169.822 44.045 169.932 44 170.046 44H174.345C174.459 44 174.569 44.045 174.649 44.1251C174.73 44.2052 174.775 44.3138 174.775 44.4271C174.775 44.5404 174.73 44.649 174.649 44.7291C174.569 44.8092 174.459 44.8542 174.345 44.8542ZM165.746 44.8542H161.446C161.332 44.8542 161.223 44.8092 161.142 44.7291C161.062 44.649 161.016 44.5404 161.016 44.4271C161.016 44.3138 161.062 44.2052 161.142 44.1251C161.223 44.045 161.332 44 161.446 44H165.746C165.86 44 165.969 44.045 166.05 44.1251C166.131 44.2052 166.176 44.3138 166.176 44.4271C166.176 44.5404 166.131 44.649 166.05 44.7291C165.969 44.8092 165.86 44.8542 165.746 44.8542ZM157.147 44.8542H152.847C152.733 44.8542 152.624 44.8092 152.543 44.7291C152.462 44.649 152.417 44.5404 152.417 44.4271C152.417 44.3138 152.462 44.2052 152.543 44.1251C152.624 44.045 152.733 44 152.847 44H157.147C157.261 44 157.37 44.045 157.451 44.1251C157.531 44.2052 157.577 44.3138 157.577 44.4271C157.577 44.5404 157.531 44.649 157.451 44.7291C157.37 44.8092 157.261 44.8542 157.147 44.8542Z" fill="black"/>
<path d="M390 150H278V341H390V150Z" fill="white"/>
<path d="M389.574 341H278.426C278.313 340.999 278.205 340.954 278.125 340.875C278.046 340.795 278.001 340.687 278 340.574V150.426C278 150.37 278.011 150.315 278.032 150.263C278.054 150.211 278.085 150.164 278.125 150.125C278.164 150.085 278.211 150.054 278.263 150.032C278.315 150.011 278.37 150 278.426 150H389.574C389.63 150 389.685 150.011 389.737 150.032C389.789 150.053 389.836 150.085 389.876 150.124C389.915 150.164 389.947 150.211 389.968 150.263C389.989 150.315 390 150.37 390 150.426V340.574C390 340.687 389.955 340.795 389.875 340.875C389.795 340.955 389.687 341 389.574 341ZM278.852 340.147H389.148V150.845H278.852V340.147Z" fill="black"/>
<path d="M263 150H151V341H263V150Z" fill="white"/>
<path d="M263.562 341H151.43C151.316 340.999 151.207 340.954 151.127 340.874C151.046 340.795 151.001 340.687 151 340.574V150.426C151 150.313 151.045 150.205 151.126 150.125C151.207 150.045 151.316 150 151.43 150H263.57C263.627 150 263.683 150.011 263.735 150.032C263.787 150.053 263.835 150.085 263.875 150.124C263.915 150.164 263.946 150.211 263.968 150.263C263.989 150.315 264 150.37 264 150.426V340.574C264 340.63 263.989 340.686 263.967 340.739C263.944 340.791 263.912 340.838 263.871 340.878C263.831 340.918 263.782 340.949 263.729 340.97C263.676 340.991 263.619 341.001 263.562 341ZM151.852 340.147H263.132V150.845H151.852V340.147Z" fill="black"/>
<path d="M370.054 183H297.946C295.043 183 292.259 181.841 290.206 179.778C288.153 177.715 287 174.917 287 172C287 169.083 288.153 166.285 290.206 164.222C292.259 162.159 295.043 161 297.946 161H370.054C372.957 161 375.741 162.159 377.794 164.222C379.847 166.285 381 169.083 381 172C381 174.917 379.847 177.715 377.794 179.778C375.741 181.841 372.957 183 370.054 183Z" fill="#E2EAFF"/>
<path opacity="0.21" d="M370.054 253H297.946C295.043 253 292.259 251.841 290.206 249.778C288.153 247.715 287 244.917 287 242C287 239.083 288.153 236.285 290.206 234.222C292.259 232.159 295.043 231 297.946 231H370.054C372.957 231 375.741 232.159 377.794 234.222C379.847 236.285 381 239.083 381 242C381 244.917 379.847 247.715 377.794 249.778C375.741 251.841 372.957 253 370.054 253Z" fill="white"/>
<path opacity="0.2" d="M369.842 253H298.158C295.186 252.962 292.348 251.786 290.259 249.728C288.171 247.669 287 244.893 287 242C287 239.107 288.171 236.331 290.259 234.272C292.348 232.214 295.186 231.038 298.158 231H369.842C372.814 231.038 375.652 232.214 377.741 234.272C379.829 236.331 381 239.107 381 242C381 244.893 379.829 247.669 377.741 249.728C375.652 251.786 372.814 252.962 369.842 253ZM298.158 231.826C295.411 231.863 292.79 232.95 290.86 234.853C288.931 236.756 287.849 239.321 287.849 241.994C287.849 244.667 288.931 247.233 290.86 249.136C292.79 251.039 295.411 252.126 298.158 252.162H369.842C372.589 252.126 375.21 251.039 377.14 249.136C379.069 247.233 380.151 244.667 380.151 241.994C380.151 239.321 379.069 236.756 377.14 234.853C375.21 232.95 372.589 231.863 369.842 231.826H298.158Z" fill="black"/>
<path opacity="0.2" d="M370.054 288H297.946C295.043 288 292.259 286.841 290.206 284.778C288.153 282.715 287 279.917 287 277C287 274.083 288.153 271.285 290.206 269.222C292.259 267.159 295.043 266 297.946 266H370.054C372.957 266 375.741 267.159 377.794 269.222C379.847 271.285 381 274.083 381 277C381 279.917 379.847 282.715 377.794 284.778C375.741 286.841 372.957 288 370.054 288Z" fill="white"/>
<path opacity="0.2" d="M369.73 288H298.27C296.79 288 295.324 287.703 293.957 287.125C292.59 286.547 291.347 285.7 290.301 284.632C289.254 283.564 288.424 282.296 287.858 280.901C287.292 279.506 287 278.01 287 276.5C287 274.99 287.292 273.494 287.858 272.099C288.424 270.704 289.254 269.436 290.301 268.368C291.347 267.3 292.59 266.453 293.957 265.875C295.324 265.297 296.79 265 298.27 265H369.73C371.21 265 372.676 265.297 374.043 265.875C375.41 266.453 376.653 267.3 377.699 268.368C378.746 269.436 379.576 270.704 380.142 272.099C380.708 273.494 381 274.99 381 276.5C381 278.01 380.708 279.506 380.142 280.901C379.576 282.296 378.746 283.564 377.699 284.632C376.653 285.7 375.41 286.547 374.043 287.125C372.676 287.703 371.21 288 369.73 288ZM298.27 265.862C295.507 265.862 292.857 266.982 290.903 268.975C288.95 270.969 287.852 273.673 287.852 276.492C287.852 279.311 288.95 282.015 290.903 284.009C292.857 286.002 295.507 287.122 298.27 287.122H369.73C372.493 287.122 375.143 286.002 377.097 284.009C379.05 282.015 380.148 279.311 380.148 276.492C380.148 273.673 379.05 270.969 377.097 268.975C375.143 266.982 372.493 265.862 369.73 265.862H298.27Z" fill="black"/>
<path d="M370.054 217H297.946C295.043 217 292.259 215.841 290.206 213.778C288.153 211.715 287 208.917 287 206C287 203.083 288.153 200.285 290.206 198.222C292.259 196.159 295.043 195 297.946 195H370.054C372.957 195 375.741 196.159 377.794 198.222C379.847 200.285 381 203.083 381 206C381 208.917 379.847 211.715 377.794 213.778C375.741 215.841 372.957 217 370.054 217Z" fill="#E2EAFF"/>
<path d="M243.054 183H170.946C168.043 183 165.259 181.841 163.206 179.778C161.153 177.715 160 174.917 160 172C160 169.083 161.153 166.285 163.206 164.222C165.259 162.159 168.043 161 170.946 161H243.054C245.957 161 248.741 162.159 250.794 164.222C252.847 166.285 254 169.083 254 172C254 174.917 252.847 177.715 250.794 179.778C248.741 181.841 245.957 183 243.054 183Z" fill="#7E34FF"/>
<path opacity="0.1" d="M243.054 217H170.946C168.043 217 165.259 215.841 163.206 213.778C161.153 211.715 160 208.917 160 206C160 203.083 161.153 200.285 163.206 198.222C165.259 196.159 168.043 195 170.946 195H243.054C245.957 195 248.741 196.159 250.794 198.222C252.847 200.285 254 203.083 254 206C254 208.917 252.847 211.715 250.794 213.778C248.741 215.841 245.957 217 243.054 217Z" fill="#7E34FF"/>
<path d="M243.054 253H170.946C168.043 253 165.259 251.841 163.206 249.778C161.153 247.715 160 244.917 160 242C160 239.083 161.153 236.285 163.206 234.222C165.259 232.159 168.043 231 170.946 231H243.054C245.957 231 248.741 232.159 250.794 234.222C252.847 236.285 254 239.083 254 242C254 244.917 252.847 247.715 250.794 249.778C248.741 251.841 245.957 253 243.054 253Z" fill="white"/>
<path d="M242.842 253H171.158C168.186 252.962 165.348 251.786 163.259 249.728C161.171 247.669 160 244.893 160 242C160 239.107 161.171 236.331 163.259 234.272C165.348 232.214 168.186 231.038 171.158 231H242.842C245.814 231.038 248.652 232.214 250.741 234.272C252.829 236.331 254 239.107 254 242C254 244.893 252.829 247.669 250.741 249.728C248.652 251.786 245.814 252.962 242.842 253ZM171.158 231.826C168.411 231.863 165.79 232.95 163.86 234.853C161.931 236.756 160.849 239.321 160.849 241.994C160.849 244.667 161.931 247.233 163.86 249.136C165.79 251.039 168.411 252.126 171.158 252.162H242.842C245.589 252.126 248.21 251.039 250.14 249.136C252.069 247.233 253.151 244.667 253.151 241.994C253.151 239.321 252.069 236.756 250.14 234.853C248.21 232.95 245.589 231.863 242.842 231.826H171.158Z" fill="black"/>
<path d="M490.325 126.524C490.325 126.524 493.906 122.908 495.233 125.404C496.56 127.899 492.386 131.221 489.949 128.287L490.325 126.524Z" fill="white"/>
<path d="M127 159H239V67L127 67L127 159Z" fill="#CCF7FF"/>
<path d="M69.4278 302C69.3144 302 69.2055 301.958 69.1253 301.884C69.0451 301.81 69 301.71 69 301.605V80.3946C69 80.2899 69.0451 80.1896 69.1253 80.1156C69.2055 80.0416 69.3144 80 69.4278 80H127.572C127.628 80 127.684 80.0102 127.736 80.03C127.788 80.0499 127.835 80.0789 127.875 80.1156C127.914 80.1522 127.946 80.1957 127.967 80.2436C127.989 80.2915 128 80.3428 128 80.3946C128 80.4464 127.989 80.4977 127.967 80.5456C127.946 80.5935 127.914 80.637 127.875 80.6736C127.835 80.7103 127.788 80.7393 127.736 80.7592C127.684 80.779 127.628 80.7892 127.572 80.7892H69.8479V301.605C69.8474 301.709 69.8032 301.808 69.7248 301.881C69.6463 301.955 69.5398 301.998 69.4278 302Z" fill="black"/>
<path d="M90.0159 69.37C90.885 66.5111 89.2618 63.492 86.3904 62.6266C83.519 61.7613 80.4867 63.3774 79.6176 66.2363C78.7485 69.0952 80.3717 72.1143 83.2431 72.9797C86.1145 73.845 89.1467 72.2289 90.0159 69.37Z" fill="white"/>
<path d="M107 74C105.813 74 104.653 73.6481 103.666 72.9887C102.68 72.3293 101.911 71.3921 101.457 70.2956C101.002 69.1992 100.884 67.9927 101.115 66.8287C101.347 65.6648 101.919 64.5957 102.758 63.7567C103.597 62.9176 104.667 62.3463 105.831 62.115C106.995 61.8838 108.201 62.0029 109.297 62.4573C110.394 62.9117 111.331 63.6811 111.99 64.668C112.649 65.655 113 66.8152 113 68.002C112.998 69.5925 112.365 71.1172 111.24 72.2416C110.115 73.366 108.59 73.9984 107 74ZM107 62.8794C105.987 62.8794 104.996 63.1798 104.154 63.7427C103.312 64.3056 102.655 65.1056 102.267 66.0416C101.88 66.9777 101.778 68.0077 101.976 69.0014C102.173 69.9951 102.661 70.9078 103.378 71.6242C104.094 72.3407 105.007 72.8285 106.001 73.0262C106.994 73.2239 108.024 73.1224 108.96 72.7347C109.896 72.347 110.696 71.6904 111.259 70.848C111.822 70.0056 112.123 69.0152 112.123 68.002C112.122 66.6437 111.582 65.3414 110.621 64.3809C109.661 63.4205 108.358 62.8804 107 62.8794Z" fill="black"/>
<path d="M367 380C365.813 380 364.653 379.648 363.666 378.989C362.68 378.329 361.911 377.392 361.457 376.296C361.002 375.199 360.884 373.993 361.115 372.829C361.347 371.665 361.919 370.596 362.758 369.757C363.597 368.918 364.667 368.346 365.831 368.115C366.995 367.884 368.201 368.003 369.297 368.457C370.394 368.912 371.331 369.681 371.99 370.668C372.649 371.655 373 372.815 373 374.002C372.998 375.592 372.365 377.117 371.24 378.242C370.115 379.366 368.59 379.998 367 380ZM367 368.879C365.987 368.879 364.996 369.18 364.154 369.743C363.312 370.306 362.655 371.106 362.267 372.042C361.88 372.978 361.778 374.008 361.976 375.001C362.173 375.995 362.661 376.908 363.378 377.624C364.094 378.341 365.007 378.829 366.001 379.026C366.994 379.224 368.024 379.122 368.96 378.735C369.896 378.347 370.696 377.69 371.259 376.848C371.822 376.006 372.123 375.015 372.123 374.002C372.122 372.644 371.582 371.341 370.621 370.381C369.661 369.42 368.358 368.88 367 368.879Z" fill="black"/>
<path d="M71.8229 72.4047C74.3748 70.8342 75.1649 67.5013 73.5876 64.9605C72.0102 62.4197 68.6628 61.633 66.1109 63.2035C63.559 64.774 62.7689 68.1069 64.3462 70.6477C65.9236 73.1885 69.271 73.9752 71.8229 72.4047Z" fill="white"/>
<path d="M91.002 74C89.8151 74.0004 88.6548 73.6488 87.6678 72.9896C86.6808 72.3305 85.9115 71.3935 85.4571 70.297C85.0027 69.2006 84.8837 67.994 85.1152 66.8299C85.3466 65.6659 85.9181 64.5966 86.7574 63.7574C87.5966 62.9181 88.6659 62.3466 89.8299 62.1152C90.994 61.8837 92.2006 62.0027 93.297 62.4571C94.3935 62.9115 95.3305 63.6808 95.9896 64.6678C96.6488 65.6548 97.0004 66.8151 97 68.002C96.9979 69.5921 96.3653 71.1165 95.2409 72.2409C94.1165 73.3653 92.5921 73.9979 91.002 74ZM91.002 62.8794C89.9887 62.879 88.9981 63.1791 88.1555 63.7417C87.3128 64.3044 86.6559 65.1043 86.2679 66.0403C85.8799 66.9763 85.7781 68.0063 85.9756 69.0001C86.173 69.994 86.6607 70.9069 87.377 71.6235C88.0934 72.3401 89.0061 72.8282 89.9999 73.0261C90.9936 73.2239 92.0237 73.1225 92.9599 72.7349C93.896 72.3472 94.6962 71.6906 95.2592 70.8482C95.8221 70.0057 96.1226 69.0152 96.1226 68.002C96.1216 66.6441 95.5818 65.342 94.6218 64.3816C93.6618 63.4212 92.3599 62.8809 91.002 62.8794Z" fill="black"/>
<path d="M351.002 380C349.815 380 348.655 379.649 347.668 378.99C346.681 378.331 345.911 377.393 345.457 376.297C345.003 375.201 344.884 373.994 345.115 372.83C345.347 371.666 345.918 370.597 346.757 369.757C347.597 368.918 348.666 368.347 349.83 368.115C350.994 367.884 352.201 368.003 353.297 368.457C354.393 368.911 355.331 369.681 355.99 370.668C356.649 371.655 357 372.815 357 374.002C356.998 375.592 356.365 377.117 355.241 378.241C354.117 379.365 352.592 379.998 351.002 380ZM351.002 368.879C349.989 368.879 348.998 369.179 348.155 369.742C347.313 370.304 346.656 371.104 346.268 372.04C345.88 372.976 345.778 374.006 345.976 375C346.173 375.994 346.661 376.907 347.377 377.624C348.093 378.34 349.006 378.828 350 379.026C350.994 379.224 352.024 379.123 352.96 378.735C353.896 378.347 354.696 377.691 355.259 376.848C355.822 376.006 356.123 375.015 356.123 374.002C356.122 372.644 355.582 371.342 354.622 370.382C353.662 369.421 352.36 368.881 351.002 368.879Z" fill="black"/>
<path d="M80.0104 69.8761C81.1585 67.1165 79.8423 63.9527 77.0706 62.8096C74.2989 61.6665 71.1214 62.977 69.9733 65.7366C68.8252 68.4963 70.1414 71.66 72.9131 72.8031C75.6848 73.9462 78.8624 72.6357 80.0104 69.8761Z" fill="#5479F7"/>
<path d="M340.1 376.221C341.248 373.462 339.932 370.298 337.16 369.155C334.389 368.012 331.211 369.322 330.063 372.082C328.915 374.841 330.231 378.005 333.003 379.148C335.775 380.291 338.952 378.981 340.1 376.221Z" fill="#5479F7"/>
<circle cx="205.5" cy="303.5" r="23" stroke="#D9D9D9"/>
<path d="M117.452 340C117.511 340 117.57 340.011 117.625 340.033C117.68 340.056 117.73 340.089 117.773 340.13C117.815 340.172 117.848 340.221 117.871 340.275C117.894 340.329 117.906 340.388 117.906 340.447V374.105H322.577C322.691 374.113 322.799 374.163 322.878 374.246C322.956 374.329 323 374.439 323 374.552C323 374.666 322.956 374.776 322.878 374.859C322.799 374.942 322.691 374.992 322.577 375H117.452C117.332 374.999 117.217 374.952 117.132 374.868C117.048 374.784 117 374.67 117 374.551V340.453C116.999 340.393 117.01 340.335 117.033 340.28C117.055 340.225 117.088 340.175 117.13 340.133C117.172 340.091 117.222 340.057 117.277 340.035C117.333 340.012 117.392 340 117.452 340Z" fill="black"/>
<path d="M128 367H96.2723C93.2827 367 90.4155 365.827 88.3016 363.738C86.1876 361.65 85 358.817 85 355.864V262.136C85 259.183 86.1876 256.35 88.3016 254.262C90.4155 252.173 93.2827 251 96.2723 251H128V367Z" fill="white"/>
<path d="M127.596 367H96.4643C93.425 366.996 90.5113 365.787 88.3621 363.638C86.213 361.49 85.0039 358.576 85 355.537V262.463C85.0034 259.424 86.2123 256.51 88.3616 254.361C90.5108 252.212 93.4248 251.003 96.4643 251H127.596C127.649 251 127.702 251.01 127.751 251.03C127.8 251.05 127.845 251.08 127.882 251.118C127.92 251.155 127.95 251.2 127.97 251.249C127.99 251.298 128 251.351 128 251.404V366.596C128 366.703 127.957 366.806 127.882 366.882C127.806 366.958 127.703 367 127.596 367ZM96.4643 251.807C93.639 251.811 90.9304 252.934 88.9325 254.932C86.9347 256.929 85.8109 259.638 85.8075 262.463V355.537C85.8109 358.362 86.9347 361.071 88.9325 363.068C90.9304 365.066 93.639 366.189 96.4643 366.193H127.193V251.807H96.4643Z" fill="black"/>
<path d="M118 276.866L109.303 279.749L106.231 288L97 268L118 276.866Z" fill="white"/>
<path d="M106.278 288C106.201 288 106.127 287.976 106.063 287.932C105.999 287.888 105.949 287.826 105.919 287.753L97.0329 266.577C97.0011 266.501 96.9921 266.417 97.007 266.335C97.0219 266.253 97.0601 266.178 97.1165 266.12C97.1729 266.061 97.2449 266.022 97.3231 266.007C97.4013 265.992 97.482 266.002 97.5546 266.036L117.765 275.422C117.838 275.455 117.899 275.511 117.941 275.581C117.982 275.651 118.003 275.733 118 275.816C117.996 275.898 117.969 275.978 117.922 276.045C117.875 276.111 117.81 276.161 117.735 276.188L109.544 279.174L106.651 287.724C106.624 287.803 106.576 287.871 106.512 287.919C106.448 287.968 106.371 287.996 106.292 287.998L106.278 288ZM98.1643 267.224L106.233 286.468L108.858 278.715C108.877 278.657 108.909 278.604 108.951 278.56C108.993 278.516 109.044 278.483 109.1 278.462L116.526 275.763L98.1643 267.224Z" fill="black"/>
<path d="M118.589 302C118.48 302 118.376 301.969 118.299 301.915C118.222 301.861 118.179 301.787 118.178 301.711V299.578H96.822V301.711C96.822 301.788 96.7787 301.861 96.7016 301.915C96.6245 301.97 96.52 302 96.411 302C96.302 302 96.1975 301.97 96.1204 301.915C96.0433 301.861 96 301.788 96 301.711V299.289C96 299.212 96.0433 299.139 96.1204 299.085C96.1975 299.03 96.302 299 96.411 299H118.589C118.643 299 118.697 299.007 118.747 299.022C118.797 299.036 118.842 299.057 118.88 299.084C118.918 299.111 118.949 299.143 118.969 299.178C118.99 299.213 119 299.251 119 299.289V301.711C119 301.788 118.957 301.861 118.88 301.915C118.803 301.97 118.698 302 118.589 302Z" fill="black"/>
<path d="M106.5 320C106.434 320 106.369 319.99 106.308 319.969C106.248 319.949 106.192 319.918 106.146 319.88C106.099 319.842 106.062 319.796 106.037 319.746C106.012 319.696 106 319.642 106 319.588V300.412C106 300.302 106.053 300.198 106.146 300.121C106.24 300.043 106.367 300 106.5 300C106.633 300 106.76 300.043 106.854 300.121C106.947 300.198 107 300.302 107 300.412V319.588C107 319.697 106.947 319.802 106.854 319.879C106.76 319.957 106.633 320 106.5 320Z" fill="black"/>
<path d="M110.594 320H103.406C103.298 320 103.195 319.947 103.119 319.854C103.043 319.76 103 319.633 103 319.5C103 319.367 103.043 319.24 103.119 319.146C103.195 319.053 103.298 319 103.406 319H110.594C110.702 319 110.805 319.053 110.881 319.146C110.957 319.24 111 319.367 111 319.5C111 319.633 110.957 319.76 110.881 319.854C110.805 319.947 110.702 320 110.594 320Z" fill="black"/>
<path d="M96.3733 351C96.3282 350.999 96.2835 350.991 96.241 350.974C96.1701 350.945 96.109 350.893 96.066 350.826C96.0229 350.758 95.9999 350.678 96 350.596V330.405C95.9998 330.323 96.0228 330.243 96.0659 330.175C96.1089 330.107 96.17 330.055 96.2409 330.026C96.3119 329.997 96.3894 329.992 96.4631 330.012C96.5367 330.032 96.6031 330.075 96.6533 330.137L104.907 340.229C104.967 340.303 105 340.398 105 340.497C105 340.595 104.967 340.691 104.907 340.765L96.6533 350.868C96.618 350.91 96.5747 350.944 96.5265 350.966C96.4782 350.989 96.426 351.001 96.3733 351ZM96.7466 331.476V349.53L104.128 340.502L96.7466 331.476Z" fill="black"/>
<path d="M96 330V351L105 340.499L96 330Z" fill="white"/>
<path d="M96.3733 351C96.3282 350.999 96.2835 350.991 96.241 350.974C96.1701 350.945 96.109 350.893 96.066 350.826C96.0229 350.758 95.9999 350.678 96 350.596V330.405C95.9998 330.323 96.0228 330.243 96.0659 330.175C96.1089 330.107 96.17 330.055 96.2409 330.026C96.3119 329.997 96.3894 329.992 96.4631 330.012C96.5367 330.032 96.6031 330.075 96.6533 330.137L104.907 340.229C104.967 340.303 105 340.398 105 340.497C105 340.595 104.967 340.691 104.907 340.765L96.6533 350.868C96.618 350.91 96.5747 350.944 96.5265 350.966C96.4782 350.989 96.426 351.001 96.3733 351ZM96.7466 331.476V349.53L104.128 340.502L96.7466 331.476Z" fill="black"/>
<path d="M118 330V351L110 340.499L118 330Z" fill="white"/>
<path d="M118.544 351C118.479 351 118.415 350.988 118.356 350.964C118.297 350.941 118.244 350.907 118.201 350.864L108.115 340.763C108.041 340.689 108 340.594 108 340.495C108 340.396 108.041 340.301 108.115 340.227L118.201 330.137C118.263 330.075 118.344 330.032 118.434 330.012C118.524 329.992 118.619 329.997 118.705 330.026C118.792 330.055 118.867 330.107 118.92 330.175C118.972 330.243 119 330.323 119 330.405V350.587C119 350.669 118.972 350.749 118.919 350.817C118.867 350.884 118.792 350.936 118.705 350.965C118.654 350.985 118.599 350.997 118.544 351ZM109.065 340.51L118.087 349.536V331.485L109.065 340.51Z" fill="black"/>
<path d="M106.5 351C106.434 351 106.369 350.989 106.308 350.968C106.248 350.947 106.192 350.916 106.146 350.877C106.099 350.837 106.062 350.791 106.037 350.739C106.012 350.688 106 350.633 106 350.577V346.346C106 346.234 106.053 346.126 106.146 346.047C106.24 345.968 106.367 345.923 106.5 345.923C106.633 345.923 106.76 345.968 106.854 346.047C106.947 346.126 107 346.234 107 346.346V350.577C107 350.689 106.947 350.797 106.854 350.876C106.76 350.955 106.633 351 106.5 351ZM106.5 342.538C106.434 342.539 106.369 342.528 106.308 342.507C106.248 342.486 106.192 342.454 106.146 342.415C106.099 342.376 106.062 342.329 106.037 342.278C106.012 342.226 106 342.171 106 342.115V337.885C106 337.772 106.053 337.665 106.146 337.585C106.24 337.506 106.367 337.462 106.5 337.462C106.633 337.462 106.76 337.506 106.854 337.585C106.947 337.665 107 337.772 107 337.885V342.115C107 342.171 106.988 342.226 106.963 342.278C106.938 342.329 106.901 342.376 106.854 342.416C106.808 342.455 106.753 342.487 106.692 342.508C106.631 342.529 106.566 342.54 106.5 342.54V342.538ZM106.5 334.077C106.434 334.077 106.369 334.066 106.308 334.045C106.248 334.024 106.192 333.993 106.146 333.954C106.099 333.914 106.062 333.867 106.037 333.816C106.012 333.765 106 333.71 106 333.654V329.423C106 329.311 106.053 329.203 106.146 329.124C106.24 329.045 106.367 329 106.5 329C106.633 329 106.76 329.045 106.854 329.124C106.947 329.203 107 329.311 107 329.423V333.654C107.001 333.71 106.988 333.765 106.963 333.817C106.938 333.869 106.902 333.916 106.855 333.955C106.809 333.995 106.753 334.027 106.692 334.048C106.631 334.07 106.566 334.081 106.5 334.081V334.077Z" fill="black"/>
<path d="M145.26 139.081L127.718 155.606C126.946 155.348 126.103 155.364 125.322 155.65C124.541 155.936 123.867 156.477 123.406 157.186C122.945 157.896 122.724 158.734 122.778 159.567C122.832 160.401 123.158 161.183 123.703 161.789C124.249 162.395 124.984 162.791 125.791 162.914C126.598 163.037 127.433 162.881 128.161 162.469C128.89 162.057 129.472 161.414 129.815 160.641C130.157 159.868 130.242 159.009 130.054 158.201L147.595 141.677C145.241 149.041 139.417 166.161 134.901 170.418C133.53 171.769 131.919 172.835 130.161 173.555C128.403 174.275 126.534 174.633 124.663 174.61C122.793 174.587 120.959 174.182 119.27 173.42C117.58 172.657 116.069 171.552 114.825 170.169C113.581 168.787 112.629 167.155 112.025 165.369C111.421 163.583 111.178 161.679 111.309 159.77C111.44 157.861 111.943 155.984 112.789 154.25C113.634 152.517 114.805 150.961 116.233 149.674C120.742 145.415 137.894 140.879 145.26 139.081Z" fill="white"/>
<path d="M138.6 167.307C137.658 168.94 136.729 170.253 135.835 171.077C134.426 172.398 132.774 173.429 130.972 174.109C129.171 174.79 127.257 175.106 125.339 175.042C123.422 174.977 121.539 174.531 119.8 173.731C118.06 172.931 116.499 171.792 115.204 170.379C113.91 168.967 112.908 167.308 112.257 165.5C111.606 163.691 111.318 161.768 111.41 159.842C111.503 157.915 111.973 156.022 112.795 154.273C113.616 152.523 114.772 150.951 116.197 149.647C120.786 145.396 138.303 141.058 145.623 139.391C145.693 139.374 145.766 139.382 145.831 139.412C145.896 139.442 145.949 139.493 145.981 139.557C146.014 139.62 146.024 139.693 146.012 139.764C145.999 139.834 145.964 139.899 145.912 139.948L128.365 156.205C128.322 156.245 128.268 156.272 128.211 156.285C128.154 156.297 128.094 156.293 128.039 156.274C127.321 156.03 126.541 156.034 125.822 156.285C125.102 156.536 124.485 157.02 124.067 157.661C123.649 158.302 123.454 159.063 123.514 159.823C123.574 160.584 123.885 161.3 124.397 161.86C124.91 162.419 125.594 162.789 126.343 162.911C127.092 163.034 127.862 162.901 128.532 162.535C129.201 162.168 129.732 161.589 130.04 160.889C130.348 160.188 130.415 159.407 130.231 158.668C130.218 158.611 130.219 158.551 130.236 158.494C130.253 158.438 130.285 158.387 130.328 158.347L147.881 142.094C147.934 142.044 148.001 142.014 148.073 142.007C148.144 142 148.216 142.017 148.276 142.055C148.337 142.094 148.383 142.151 148.407 142.219C148.432 142.286 148.433 142.36 148.411 142.429C146.59 148.227 142.515 160.527 138.6 167.307ZM114.005 153.417C112.323 156.317 111.727 159.719 112.326 163.004C112.924 166.29 114.678 169.24 117.267 171.32C119.857 173.401 123.111 174.472 126.439 174.34C129.766 174.208 132.946 172.881 135.4 170.601C139.643 166.669 144.977 151.088 147.421 143.402L130.91 158.698C131.082 159.571 130.966 160.479 130.577 161.284C130.188 162.088 129.55 162.745 128.758 163.154C127.966 163.563 127.065 163.701 126.193 163.548C125.32 163.395 124.524 162.959 123.925 162.306C123.327 161.653 122.959 160.819 122.878 159.932C122.797 159.045 123.008 158.153 123.478 157.393C123.947 156.633 124.65 156.046 125.48 155.723C126.309 155.399 127.218 155.356 128.07 155.6L144.581 140.302C136.758 142.119 120.883 146.185 116.629 150.122C115.595 151.082 114.711 152.193 114.005 153.417Z" fill="black"/>
<path d="M103.081 173.305L111.032 182.097L117.251 174.21L111.162 167.479L103.081 173.305Z" fill="white"/>
<path d="M117.16 174.366C117.153 174.38 117.145 174.394 117.136 174.407L111.228 181.895C111.2 181.932 111.164 181.962 111.123 181.983C111.083 182.004 111.038 182.016 110.993 182.018C110.948 182.021 110.903 182.013 110.862 181.996C110.821 181.978 110.784 181.952 110.754 181.919L103.185 173.56C103.156 173.527 103.133 173.488 103.12 173.445C103.107 173.403 103.103 173.357 103.108 173.313C103.113 173.267 103.128 173.224 103.151 173.184C103.173 173.145 103.204 173.11 103.241 173.083L110.922 167.554C110.985 167.509 111.061 167.488 111.136 167.495C111.212 167.503 111.281 167.538 111.331 167.594L117.125 173.995C117.169 174.044 117.196 174.106 117.203 174.173C117.209 174.239 117.194 174.307 117.16 174.366ZM110.971 181.212L116.479 174.231L111.047 168.23L103.885 173.385L110.971 181.212Z" fill="black"/>
</g>
<defs>
<clipPath id="clip0_225_3403">
<rect width="555.484" height="410" fill="white" transform="translate(0.725586)"/>
</clipPath>
</defs>
</svg>
