<svg width="101" height="100" viewBox="0 0 101 100" fill="none" xmlns="http://www.w3.org/2000/svg">
<g clip-path="url(#clip0_425_6377)">
<path fill-rule="evenodd" clip-rule="evenodd" d="M1.10156 20.4998H99.5005V81.9991H1.10156V20.4998Z" fill="#DDEEFF"/>
<path fill-rule="evenodd" clip-rule="evenodd" d="M99.5005 20.4998H1.10156V8.17941C1.10156 3.66209 4.77941 0 9.32171 0H91.2803C95.8201 0 99.5005 3.65767 99.5005 8.17941V20.4998Z" fill="#BBDDFF"/>
<path fill-rule="evenodd" clip-rule="evenodd" d="M25.7017 14.3499C23.4374 14.3499 21.6019 12.5141 21.6019 10.2498C21.6019 7.98546 23.4372 6.1499 25.7017 6.1499C27.9663 6.1499 29.8016 7.98546 29.8016 10.2498C29.8016 12.5141 27.9663 14.3499 25.7017 14.3499ZM11.3518 14.3499C9.08752 14.3499 7.25195 12.5141 7.25195 10.2498C7.25195 7.98546 9.08752 6.1499 11.3518 6.1499C13.6162 6.1499 15.4519 7.98546 15.4519 10.2498C15.4519 12.5141 13.6162 14.3499 11.3518 14.3499Z" fill="white"/>
<path fill-rule="evenodd" clip-rule="evenodd" d="M17.5013 81.9991H1.10156C1.10156 69.4079 5.90504 56.8165 15.5116 47.2097C34.7254 27.9962 65.8767 27.9962 85.0904 47.2097L73.4939 58.8062C67.5583 52.8707 59.3583 49.1994 50.301 49.1994C32.1862 49.1994 17.5013 63.8843 17.5013 81.9991Z" fill="#0066FF"/>
<path fill-rule="evenodd" clip-rule="evenodd" d="M83.1009 81.9991H99.5007C99.5007 69.4079 94.6972 56.8165 85.0906 47.2097L73.4941 58.8062C79.4296 64.7418 83.1009 72.9416 83.1009 81.9991Z" fill="#CC66FF"/>
<path fill-rule="evenodd" clip-rule="evenodd" d="M38.7038 93.5955C32.2992 87.1911 32.2992 76.8073 38.7038 70.4026C45.1084 63.9982 80.7409 51.5586 80.7409 51.5586C80.7409 51.5586 68.3013 87.1911 61.8967 93.5955C55.4922 100 45.1084 100 38.7038 93.5955Z" fill="#66CCFF"/>
<path fill-rule="evenodd" clip-rule="evenodd" d="M50.3015 90.1988C45.7729 90.1988 42.1016 86.5277 42.1016 81.999C42.1016 77.4704 45.7729 73.7991 50.3015 73.7991C54.8302 73.7991 58.5015 77.4704 58.5015 81.999C58.5015 86.5277 54.8302 90.1988 50.3015 90.1988Z" fill="#0066FF"/>
</g>
<defs>
<clipPath id="clip0_425_6377">
<rect width="100" height="100" fill="white" transform="translate(0.300781)"/>
</clipPath>
</defs>
</svg>
