<svg width="102" height="100" viewBox="0 0 102 100" fill="none" xmlns="http://www.w3.org/2000/svg">
<g clip-path="url(#clip0_425_6368)">
<path d="M3.01098 35.7472C3.01098 35.7472 0.600372 34.0096 3.4931 31.6894L10.2328 25.6629C10.2328 25.6629 12.1612 23.6339 14.2002 25.4017L76.3939 72.4889V95.0682C76.3939 95.0682 76.3637 98.6138 71.8137 98.2221L3.01098 35.7472Z" fill="#2489CA"/>
<path d="M19.041 50.3013L3.01043 64.8754C3.01043 64.8754 1.36318 66.1008 3.01043 68.2904L10.4532 75.0602C10.4532 75.0602 12.221 76.9586 14.8324 74.7991L31.8272 61.9124L19.041 50.3013Z" fill="#1070B3"/>
<path d="M47.1847 50.4218L76.5841 27.973L76.3932 5.51418C76.3932 5.51418 75.1377 0.612614 70.9493 3.16384L31.8271 38.7705L47.1847 50.4218Z" fill="#0877B9"/>
<path d="M71.814 98.2524C73.5215 100 75.5906 99.4275 75.5906 99.4275L98.5014 88.1379C101.434 86.1391 101.023 83.6582 101.023 83.6582V16.2415C101.023 13.2785 97.9892 12.254 97.9892 12.254L78.1318 2.68186C73.7927 5.90086e-05 70.9502 3.16398 70.9502 3.16398C70.9502 3.16398 74.6063 0.532402 76.3941 5.51432V94.6565C76.3941 95.2692 76.2636 95.8719 76.0024 96.4143C75.4801 97.4689 74.3451 98.4533 71.6232 98.0414L71.814 98.2524Z" fill="#3C99D4"/>
</g>
<defs>
<clipPath id="clip0_425_6368">
<rect width="101.833" height="100" fill="white" transform="translate(0.100586)"/>
</clipPath>
</defs>
</svg>
