<svg width="101" height="100" viewBox="0 0 101 100" fill="none" xmlns="http://www.w3.org/2000/svg">
<g clip-path="url(#clip0_425_6373)">
<path d="M90.8516 0H10.3828C4.98941 0 0.617188 4.37222 0.617188 9.76562V90.2344C0.617188 95.6278 4.98941 100 10.3828 100H90.8516C96.245 100 100.617 95.6278 100.617 90.2344V9.76562C100.617 4.37222 96.245 0 90.8516 0Z" fill="url(#paint0_linear_425_6373)"/>
<path d="M82.9297 13H61.8047C59.2159 13 57.1172 15.0987 57.1172 17.6875V52.0625C57.1172 54.6513 59.2159 56.75 61.8047 56.75H82.9297C85.5185 56.75 87.6172 54.6513 87.6172 52.0625V17.6875C87.6172 15.0987 85.5185 13 82.9297 13Z" fill="white"/>
<path d="M39.4297 13H18.3047C15.7159 13 13.6172 15.0987 13.6172 17.6875V77.0625C13.6172 79.6513 15.7159 81.75 18.3047 81.75H39.4297C42.0185 81.75 44.1172 79.6513 44.1172 77.0625V17.6875C44.1172 15.0987 42.0185 13 39.4297 13Z" fill="white"/>
</g>
<defs>
<linearGradient id="paint0_linear_425_6373" x1="5000.62" y1="0" x2="5000.62" y2="10000" gradientUnits="userSpaceOnUse">
<stop stop-color="#0091E6"/>
<stop offset="1" stop-color="#0079BF"/>
</linearGradient>
<clipPath id="clip0_425_6373">
<rect width="100" height="100" fill="white" transform="translate(0.617188)"/>
</clipPath>
</defs>
</svg>
