<svg width="240" height="100" viewBox="0 0 240 100" fill="none" xmlns="http://www.w3.org/2000/svg">
<g clip-path="url(#clip0_425_6363)">
<path d="M143.488 34.0374C138.239 34.0374 134.33 36.6151 134.33 42.819C134.33 47.4933 136.906 50.738 143.206 50.738C148.545 50.738 152.172 47.5919 152.172 42.626C152.172 36.9984 148.926 34.0374 143.488 34.0374ZM132.989 77.8405C131.747 79.3651 130.509 80.985 130.509 82.8967C130.509 86.7106 135.373 87.8584 142.054 87.8584C147.588 87.8584 155.127 87.4708 155.127 82.3251C155.127 79.2667 151.5 79.0773 146.917 78.79L132.989 77.8405ZM161.233 34.3259C162.948 36.5213 164.764 39.5753 164.764 43.9646C164.764 54.5557 156.462 60.7578 144.442 60.7578C141.385 60.7578 138.618 60.377 136.902 59.9008L133.752 64.9572L143.102 65.5284C159.611 66.5802 169.341 67.0583 169.341 79.7447C169.341 90.7209 159.706 96.9195 143.102 96.9195C125.832 96.9195 119.248 92.5296 119.248 84.9925C119.248 80.6968 121.157 78.4119 124.497 75.2582C121.347 73.9268 120.298 71.5426 120.298 68.9651C120.298 66.8644 121.347 64.9565 123.067 63.1423C124.784 61.331 126.692 59.5156 128.982 57.417C124.307 55.1274 120.775 50.1654 120.775 43.1033C120.775 32.1315 128.028 24.5962 142.624 24.5962C146.728 24.5962 149.211 24.9739 151.405 25.55H170.013V33.6586L161.233 34.3259Z" fill="#413000"/>
<path d="M186.808 16.9862C181.368 16.9862 178.22 13.8345 178.22 8.39362C178.22 2.95953 181.368 -0.000732422 186.808 -0.000732422C192.343 -0.000732422 195.491 2.95953 195.491 8.39362C195.491 13.8345 192.343 16.9862 186.808 16.9862ZM174.497 74.3285V66.7942L179.365 66.1283C180.701 65.9346 180.891 65.6507 180.891 64.216V36.1632C180.891 35.1157 180.606 34.4449 179.649 34.1609L174.497 32.3463L175.546 24.6201H195.3V64.2167C195.3 65.7462 195.392 65.9354 196.827 66.129L201.694 66.7949V74.3292H174.496" fill="#413000"/>
<path d="M239.427 70.6307C235.322 72.6321 229.312 74.4454 223.871 74.4454C212.516 74.4454 208.224 69.8696 208.224 59.0827V34.0849C208.224 33.5135 208.224 33.1302 207.457 33.1302H200.779V24.6383C209.179 23.6816 212.516 19.4823 213.566 9.08179H222.632V22.6359C222.632 23.3014 222.632 23.5896 223.396 23.5896H236.849V33.13H222.632V55.9342C222.632 61.5647 223.97 63.7575 229.119 63.7575C231.795 63.7575 234.558 63.0916 236.849 62.232L239.427 70.6307Z" fill="#413000"/>
<path d="M98.0439 45.59L54.4118 1.96318C51.9013 -0.549577 47.8262 -0.549577 45.3126 1.96318L36.2528 11.0238L47.7448 22.5158C50.4164 21.6137 53.4786 22.2185 55.6072 24.3475C57.7468 26.4898 58.3473 29.5781 57.4227 32.2587L68.4989 43.3349C71.1786 42.4115 74.2703 43.0081 76.41 45.1516C79.4015 48.1422 79.4015 52.9882 76.41 55.9796C73.4181 58.972 68.5721 58.972 65.5785 55.9796C63.3292 53.7285 62.7728 50.4235 63.9121 47.6521L53.5823 37.3223L53.5814 64.505C54.3107 64.866 54.999 65.3479 55.6068 65.953C58.5974 68.9433 58.5974 73.7884 55.6068 76.7836C52.6153 79.7738 47.7671 79.7738 44.7788 76.7836C41.7877 73.7886 41.7877 68.9435 44.7788 65.953C45.518 65.2151 46.3733 64.6566 47.2859 64.2823V36.847C46.3728 36.4742 45.5185 35.9199 44.7782 35.1761C42.5126 32.9122 41.967 29.5871 43.1289 26.805L31.8001 15.4744L1.88516 45.3884C-0.628388 47.9031 -0.628388 51.9782 1.88516 54.4911L45.5147 98.118C48.0266 100.631 52.1002 100.631 54.6156 98.118L98.0434 54.6972C100.556 52.1833 100.556 48.1069 98.0434 45.5937" fill="#F05133"/>
</g>
<defs>
<clipPath id="clip0_425_6363">
<rect width="239.418" height="100" fill="white"/>
</clipPath>
</defs>
</svg>
