<svg width="100" height="100" viewBox="0 0 100 100" fill="none" xmlns="http://www.w3.org/2000/svg">
<g clip-path="url(#clip0_425_6390)">
<path d="M0 3.34866V7.76338C1.84605 7.76338 3.34815 9.26522 3.34815 11.1107C3.34815 12.9571 1.84605 14.4592 0 14.4592V18.8739C1.84605 18.8739 3.34815 20.376 3.34815 22.2212C3.34815 24.0678 1.84605 25.5699 0 25.5699V29.9844C1.84605 29.9844 3.34815 31.4865 3.34815 33.3341C3.34815 35.1817 1.84605 36.6836 0 36.6836V41.098C1.84605 41.098 3.34815 42.5988 3.34815 44.4454C3.34815 46.292 1.84605 47.7938 0 47.7938V52.2085C1.84605 52.2085 3.34815 53.7093 3.34815 55.5559C3.34815 57.4025 1.84605 58.9043 0 58.9043V63.3188C1.84605 63.3188 3.34815 64.8198 3.34815 66.6661C3.34815 68.5124 1.84605 70.0148 0 70.0148V74.4293C1.84605 74.4293 3.34815 75.9303 3.34815 77.7766C3.34815 79.6229 1.84605 81.1253 0 81.1253V85.5398C1.84605 85.5398 3.34815 87.0405 3.34815 88.8871C3.34815 90.7337 1.84605 92.2355 0 92.2355V96.6524C0.887566 96.6546 1.73842 97.0069 2.36789 97.6326C2.99343 98.2619 3.34565 99.1124 3.34815 99.9997H7.76261C7.76261 98.1534 9.26471 96.6524 11.1108 96.6524C12.9568 96.6524 14.4589 98.1534 14.4589 99.9997H18.8736C18.8736 98.1534 20.3755 96.6524 22.2215 96.6524C24.0676 96.6524 25.5697 98.1534 25.5697 99.9997H29.9844C29.9844 98.1534 31.4865 96.6524 33.3323 96.6524C35.1781 96.6524 36.6804 98.1534 36.6804 99.9997H41.0952C41.0952 98.1534 42.5973 96.6524 44.443 96.6524C46.2888 96.6524 47.7912 98.1534 47.7912 99.9997H52.2059C52.2059 98.1534 53.708 96.6524 55.5538 96.6524C57.3998 96.6524 58.9019 98.1534 58.9019 99.9997H63.3167C63.3167 98.1534 64.8188 96.6524 66.6648 96.6524C68.5106 96.6524 70.0127 98.1534 70.0127 99.9997H74.4274C74.4274 98.1534 75.9295 96.6524 77.7756 96.6524C79.6214 96.6524 81.1235 98.1534 81.1235 99.9997H85.5382C85.5382 98.1534 87.0403 96.6524 88.8863 96.6524C90.7324 96.6524 92.2342 98.1534 92.2342 99.9997H96.6513C96.6513 99.1181 97.009 98.255 97.6329 97.6326C98.2619 97.0067 99.1126 96.6544 100 96.6524V92.2379C98.1534 92.2379 96.6513 90.7358 96.6513 88.8895C96.6513 87.0429 98.1534 85.5421 100 85.5421V81.1274C98.1534 81.1274 96.6513 79.6256 96.6513 77.779C96.6513 75.9324 98.1534 74.4316 100 74.4316V70.0172C98.1534 70.0172 96.6513 68.5151 96.6513 66.6685C96.6513 64.8219 98.1534 63.3211 100 63.3211V58.9067C98.1534 58.9067 96.6513 57.4046 96.6513 55.558C96.6513 53.7117 98.1534 52.2106 100 52.2106V47.7962C98.1534 47.7962 96.6513 46.2941 96.6513 44.4478C96.6513 42.6012 98.1534 41.1004 100 41.1004V36.6857C98.1534 36.6857 96.6513 35.1838 96.6513 33.3362C96.6513 31.4886 98.1534 29.9862 100 29.9862V25.5723C98.1534 25.5723 96.6513 24.0702 96.6513 22.2236C96.6513 20.3783 98.1534 18.8762 100 18.8762V14.4615C98.1534 14.4615 96.6513 12.9594 96.6513 11.1128C96.6513 9.26759 98.1534 7.76549 100 7.76549V3.34866C99.1182 3.34866 98.2553 2.99103 97.6326 2.36866C97.0064 1.73921 96.6537 0.888157 96.6511 0.000244141L92.2366 0.000244141C92.2366 1.84682 90.7345 3.34866 88.8885 3.34866C87.0427 3.34866 85.5406 1.84682 85.5406 0.000244141H81.1258C81.1258 1.84682 79.6237 3.34866 77.7777 3.34866C75.9319 3.34866 74.4298 1.84682 74.4298 0.000244141H70.0151C70.0151 1.84682 68.513 3.34866 66.6669 3.34866C64.8211 3.34866 63.319 1.84682 63.319 0.000244141H58.9043C58.9043 1.84682 57.4022 3.34866 55.5562 3.34866C53.7101 3.34866 52.2083 1.84682 52.2083 0.000244141H47.7936C47.7936 1.84682 46.2915 3.34866 44.4454 3.34866C42.5994 3.34866 41.0973 1.84682 41.0973 0.000244141H36.6828C36.6828 1.84682 35.1807 3.34866 33.3346 3.34866C31.4886 3.34866 29.9865 1.84682 29.9865 0.000244141H25.572C25.572 1.84682 24.0699 3.34866 22.2239 3.34866C20.3778 3.34866 18.8757 1.84682 18.8757 0.000244141H14.461C14.461 1.84682 12.9592 3.34866 11.1131 3.34866C9.26708 3.34866 7.76498 1.84682 7.76498 0.000244141H3.34815C3.34815 0.881821 2.99026 1.74498 2.36789 2.36866C1.73809 2.99386 0.887426 3.34593 0 3.34866Z" fill="url(#paint0_linear_425_6390)"/>
<path d="M85.1871 40.0134H35.2868L37.891 27.8292H68.3048L71.0948 14.7156H27.3805L13.6152 79.6343H26.8226L32.8668 51.2671H64.5456L37.0189 78.5178L41.8554 87.0738C44.087 85.5862 47.7144 85.3996 50.2257 85.3996C54.6906 85.3996 59.062 86.8885 63.6177 86.8885C67.7956 86.8885 72.0724 86.6093 79.049 83.2607L81.4866 71.8212C76.7424 73.7738 69.723 75.6344 63.618 75.6344C61.1083 75.6344 58.7827 75.0765 56.3646 74.7046L83.0477 48.7565L85.1871 40.0134Z" fill="white"/>
</g>
<defs>
<linearGradient id="paint0_linear_425_6390" x1="49.9979" y1="12.1432" x2="49.9979" y2="89.3938" gradientUnits="userSpaceOnUse">
<stop stop-color="#BF0000"/>
<stop offset="1" stop-color="#8F0000"/>
</linearGradient>
<clipPath id="clip0_425_6390">
<rect width="100" height="100" fill="white"/>
</clipPath>
</defs>
</svg>
