<svg width="92" height="100" viewBox="0 0 92 100" fill="none" xmlns="http://www.w3.org/2000/svg">
<g clip-path="url(#clip0_425_6386)">
<path d="M91.3173 87.4862C91.3544 94.352 85.8173 99.9425 78.9557 99.9795C78.4456 99.9836 77.9313 99.9548 77.4254 99.8931C71.0574 98.9511 66.3924 93.4099 66.5487 86.9761V13.0035C66.3965 6.56143 71.0738 1.02028 77.4459 0.0864656C84.2623 -0.711593 90.437 4.16726 91.2351 10.9837C91.2927 11.4855 91.3214 11.9874 91.3173 12.4934V87.4862Z" fill="#F9AB00"/>
<path d="M13.3707 75.2274C20.2118 75.2274 25.7571 80.7727 25.7571 87.6138C25.7571 94.4549 20.2118 100 13.3707 100C6.52965 100 0.984375 94.4549 0.984375 87.6138C0.984375 80.7727 6.52965 75.2274 13.3707 75.2274ZM45.9595 37.6899C39.0855 38.0684 33.7541 43.8317 33.9146 50.7139V83.9814C33.9146 93.011 37.8884 98.4904 43.7093 99.6587C50.427 101.02 56.9719 96.6804 58.3335 89.9627C58.5022 89.14 58.5844 88.3049 58.5803 87.4657V50.138C58.5927 43.2722 53.0392 37.6981 46.1734 37.6858C46.1035 37.6858 46.0294 37.6858 45.9595 37.6899Z" fill="#E37400"/>
</g>
<defs>
<clipPath id="clip0_425_6386">
<rect width="90.3328" height="100" fill="white" transform="translate(0.984375)"/>
</clipPath>
</defs>
</svg>
