<svg width="25" height="17" viewBox="0 0 25 17" fill="none" xmlns="http://www.w3.org/2000/svg">
<g id="Group">
<path id="Vector" d="M17.7299 2.11406C17.7299 3.2812 16.7838 4.22729 15.6167 4.22729H2.11323C0.946089 4.22729 0 3.2812 0 2.11406C0 0.946914 0.946089 0 2.11323 0H15.6167C16.7838 0 17.7299 0.945264 17.7299 2.11323V2.11406Z" fill="#5CDAF1"/>
<path id="Vector_2" d="M24.6577 8.21951C24.6577 9.38666 23.7116 10.3327 22.5445 10.3327H2.11323C0.946089 10.3327 0 9.38666 0 8.21951C0 7.05237 0.946089 6.10628 2.11323 6.10628H22.5436C23.7108 6.10628 24.6569 7.05154 24.6569 8.21951H24.6577Z" fill="#7E34FF"/>
<path id="Vector_3" d="M24.6572 14.3249C24.6572 15.4921 23.7111 16.4382 22.544 16.4382H14.5595C13.3924 16.4382 12.4463 15.4921 12.4463 14.3249C12.4463 13.1578 13.3924 12.2117 14.5595 12.2117H22.544C23.7111 12.2117 24.6572 13.157 24.6572 14.3249Z" fill="#5CDAF1"/>
</g>
</svg>
