<svg width="75" height="16" viewBox="0 0 75 16" fill="none" xmlns="http://www.w3.org/2000/svg">
<g id="Group">
<path id="Vector" d="M0.73373 13.3579C0.625389 13.2282 0.625388 13.0542 0.777231 12.8811L2.23 11.233C2.35968 11.0811 2.53368 11.0163 2.72903 11.1681C3.72626 12.144 4.55032 12.6209 5.70022 12.6209C6.85012 12.6209 7.58717 12.1875 7.58717 11.233C7.58717 10.3441 6.9363 10.0617 5.98256 9.62835L4.13911 8.76079C2.5345 8.04508 1.01608 6.896 1.01608 4.53218C1.01608 1.69149 3.16321 0.151718 5.80856 0.151718C7.60851 0.151718 9.10478 0.867431 10.3622 2.16835C10.4919 2.29804 10.514 2.49338 10.3835 2.66738L8.95211 4.38033C8.84377 4.53218 8.64843 4.59702 8.49659 4.48868C7.52069 3.66462 6.80498 3.29609 5.91608 3.29609C4.91884 3.29609 4.33281 3.79512 4.33281 4.57568C4.33281 5.39973 4.94018 5.65992 6.04576 6.18029L7.58553 6.87384C9.19014 7.63305 10.9253 8.63029 10.9253 11.233C10.9253 14.3987 8.3234 15.7653 5.76424 15.7653C3.35692 15.7653 1.64397 14.5727 0.732909 13.3579H0.73373Z" fill="#090F5B"/>
<path id="Vector_2" d="M13.6149 12.3608V7.43862H12.2918C12.0965 7.43862 11.9668 7.30812 11.9668 7.11359V5.2053C11.9668 5.00996 12.0965 4.88028 12.2918 4.88028H13.6149V2.38513C13.6149 2.18979 13.7667 2.0601 13.9621 2.0601H16.6296C16.8249 2.0601 16.9768 2.18979 16.9768 2.38513V4.87863H18.6036C18.7989 4.87863 18.9286 5.00832 18.9286 5.20366V7.11195C18.9286 7.3073 18.7981 7.43698 18.6036 7.43698H16.9768V12.0128C16.9768 12.5766 17.3453 12.8803 17.8878 12.8803C18.0832 12.8803 18.2777 12.8803 18.5601 12.859C18.7767 12.8377 18.9507 12.946 18.9507 13.1627V14.9626C18.9507 15.5052 17.7795 15.6348 17.0424 15.6348C15.286 15.6348 13.6165 14.8321 13.6165 12.3608H13.6149Z" fill="#090F5B"/>
<path id="Vector_3" d="M20.0557 10.1924C20.0557 7.04802 22.0936 4.61935 25.0435 4.61935C26.6046 4.61935 27.6675 5.22673 28.3611 6.22396L28.4046 5.20456C28.4046 5.00922 28.5564 4.87954 28.7517 4.87954H31.1591C31.3544 4.87954 31.5062 5.00922 31.5062 5.20456V15.1802C31.5062 15.3756 31.3331 15.5052 31.1377 15.5052H28.7526C28.5572 15.5052 28.4054 15.3756 28.4054 15.1802L28.3619 14.1395C27.6462 15.1589 26.5619 15.7662 25.0443 15.7662C22.0953 15.7662 20.0565 13.3589 20.0565 10.1932L20.0557 10.1924ZM25.7592 12.7516C27.212 12.7516 28.21 11.7322 28.21 10.1711C28.21 8.60994 27.2128 7.63405 25.7592 7.63405C24.3056 7.63405 23.287 8.65345 23.287 10.1932C23.287 11.733 24.3499 12.7524 25.7592 12.7524V12.7516Z" fill="#090F5B"/>
<path id="Vector_4" d="M33.3701 10.1267C33.3701 7.00453 35.7118 4.61855 38.9218 4.61855C40.7004 4.61855 42.131 5.37776 43.0421 6.57034C43.1718 6.70002 43.1504 6.89536 43.0207 7.02587L41.5245 8.45729C41.3513 8.63048 41.1125 8.63048 40.9393 8.47863C40.3754 7.91476 39.8115 7.65458 39.0745 7.65458C37.5134 7.65458 36.5588 8.76016 36.5588 10.1267C36.5588 11.4933 37.5126 12.7294 39.118 12.7294C39.8337 12.7294 40.3976 12.4479 40.9828 11.9054C41.1346 11.7535 41.3735 11.7535 41.5466 11.9267L43.0429 13.3581C43.1726 13.4878 43.1948 13.6618 43.0643 13.8136C42.1532 15.0062 40.7226 15.7654 39.0088 15.7654C35.7561 15.7654 33.3709 13.3146 33.3709 10.1276L33.3701 10.1267Z" fill="#090F5B"/>
<path id="Vector_5" d="M45.0361 15.1793V0.325025C45.0361 0.129682 45.1658 0 45.3612 0H48.0287C48.224 0 48.3759 0.129682 48.3759 0.325025V8.86926L51.5202 5.05267C51.6286 4.92299 51.7591 4.87949 51.9109 4.87949H54.9034C55.2071 4.87949 55.272 5.05267 55.0988 5.29151L51.5637 9.34694L55.6627 15.0932C55.8145 15.332 55.7275 15.5052 55.4673 15.5052H52.6045C52.4313 15.5052 52.3229 15.4617 52.2146 15.3098L49.5693 11.6451L48.3767 13.033V15.1802C48.3767 15.3755 48.2248 15.5052 48.0295 15.5052H45.362C45.1666 15.5052 45.037 15.3755 45.037 15.1802L45.0361 15.1793Z" fill="#090F5B"/>
<path id="Vector_6" d="M56.7885 13.9655C56.6802 13.8136 56.7015 13.5535 56.8534 13.3368L57.7209 12.1228C57.8941 11.8413 58.0895 11.9062 58.2635 12.0145C59.1959 12.6867 59.9116 13.0117 60.6708 13.0117C61.256 13.0117 61.6467 12.7951 61.6467 12.3182C61.6467 11.9062 61.3865 11.6895 60.6929 11.4071L59.305 10.8433C57.9171 10.3016 57.006 9.36834 57.006 7.89423C57.006 5.81276 58.7846 4.61935 60.8226 4.61935C62.2319 4.61935 63.555 5.20456 64.4874 6.2888C64.6179 6.44065 64.5522 6.61383 64.466 6.74433L63.3604 8.04525C63.2086 8.1971 63.0568 8.17494 62.8614 8.04525C62.1679 7.50272 61.5818 7.19986 60.9966 7.19986C60.3458 7.19986 60.1512 7.56839 60.1512 7.89341C60.1512 8.2841 60.5198 8.54428 60.9966 8.73881L62.6012 9.36752C63.9243 9.88789 64.9864 10.8424 64.9429 12.4471C64.9216 14.6369 63.0346 15.7646 60.8875 15.7646C59.0875 15.7646 57.6782 15.0276 56.7885 13.9647V13.9655Z" fill="#090F5B"/>
<path id="Vector_7" d="M66.5688 13.9655C66.4605 13.8136 66.4818 13.5535 66.6336 13.3368L67.5012 12.1228C67.6744 11.8413 67.8697 11.9062 68.0437 12.0145C68.9761 12.6867 69.6918 13.0117 70.4511 13.0117C71.0363 13.0117 71.427 12.7951 71.427 12.3182C71.427 11.9062 71.1668 11.6895 70.4732 11.4071L69.0853 10.8433C67.6974 10.3016 66.7863 9.36834 66.7863 7.89423C66.7863 5.81276 68.5649 4.61935 70.6029 4.61935C72.0122 4.61935 73.3352 5.20456 74.2676 6.2888C74.3981 6.44065 74.3325 6.61383 74.2463 6.74433L73.1407 8.04525C72.9889 8.1971 72.837 8.17494 72.6417 8.04525C71.9481 7.50272 71.3621 7.19986 70.7769 7.19986C70.126 7.19986 69.9315 7.56839 69.9315 7.89341C69.9315 8.2841 70.3 8.54428 70.7769 8.73881L72.3815 9.36752C73.7046 9.88789 74.7667 10.8424 74.7232 12.4471C74.7018 14.6369 72.8149 15.7646 70.6677 15.7646C68.8678 15.7646 67.4585 15.0276 66.5688 13.9647V13.9655Z" fill="#090F5B"/>
</g>
</svg>
