<svg width="54" height="55" viewBox="0 0 54 55" fill="none" xmlns="http://www.w3.org/2000/svg">
<g id="Frame">
<path id="Vector" d="M47.25 27.5C47.25 24.8407 46.7262 22.2075 45.7086 19.7507C44.6909 17.2938 43.1993 15.0615 41.3189 13.1811C39.4385 11.3007 37.2062 9.8091 34.7493 8.79144C32.2925 7.77378 29.6593 7.25 27 7.25C24.3407 7.25 21.7075 7.77378 19.2507 8.79144C16.7938 9.8091 14.5615 11.3007 12.6811 13.1811C10.8007 15.0615 9.30909 17.2938 8.29144 19.7507C7.27378 22.2075 6.75 24.8407 6.75 27.5C6.75 32.8706 8.88348 38.0213 12.6811 41.8189C16.4787 45.6165 21.6294 47.75 27 47.75C32.3706 47.75 37.5213 45.6165 41.3189 41.8189C45.1165 38.0213 47.25 32.8706 47.25 27.5Z" stroke="black" stroke-width="2.5" stroke-linecap="round" stroke-linejoin="round"/>
<path id="Vector_2" d="M27 36.5L36 27.5" stroke="black" stroke-width="2.5" stroke-linecap="round" stroke-linejoin="round"/>
<path id="Vector_3" d="M27 36.5L27 18.5" stroke="black" stroke-width="2.5" stroke-linecap="round" stroke-linejoin="round"/>
<path id="Vector_4" d="M18 27.5L27 36.5" stroke="black" stroke-width="2.5" stroke-linecap="round" stroke-linejoin="round"/>
</g>
</svg>
