<svg width="132" height="131" viewBox="0 0 132 131" fill="none" xmlns="http://www.w3.org/2000/svg">
<path d="M55.2159 120.445C55.6692 120.532 56.0747 120.696 56.4321 120.938C56.7832 121.178 57.0709 121.472 57.2952 121.819C57.5119 122.173 57.6459 122.559 57.6972 122.98L56.5243 123.24C56.4308 122.798 56.2439 122.428 55.9639 122.129C55.6826 121.836 55.3376 121.65 54.9289 121.572C54.6991 121.527 54.4943 121.524 54.3148 121.562C54.1276 121.606 53.977 121.683 53.8629 121.793C53.7425 121.902 53.665 122.046 53.6305 122.225C53.5899 122.436 53.6205 122.621 53.7223 122.779C53.8165 122.943 53.9808 123.087 54.215 123.212L55.4997 123.917C56.0219 124.197 56.3903 124.536 56.6047 124.935C56.8191 125.334 56.8814 125.766 56.7914 126.233C56.7126 126.641 56.544 126.983 56.2857 127.258C56.021 127.531 55.6932 127.72 55.3024 127.823C54.9039 127.931 54.4716 127.941 54.0055 127.851C53.5777 127.768 53.1998 127.616 52.8717 127.394C52.5425 127.178 52.276 126.911 52.0724 126.594C51.8611 126.281 51.7261 125.934 51.6674 125.552L52.8325 125.28C52.904 125.665 53.0617 125.98 53.3057 126.226C53.5485 126.478 53.8551 126.64 54.2254 126.711C54.4425 126.753 54.6415 126.752 54.8223 126.707C55.0018 126.669 55.1524 126.592 55.2741 126.476C55.3881 126.366 55.4624 126.221 55.4969 126.042C55.5351 125.844 55.5051 125.657 55.407 125.479C55.3076 125.307 55.135 125.155 54.8892 125.021L53.6565 124.356C53.1239 124.061 52.7486 123.724 52.5305 123.344C52.306 122.963 52.2399 122.533 52.3323 122.054C52.4112 121.645 52.5861 121.305 52.8572 121.033C53.1283 120.761 53.4663 120.571 53.8711 120.463C54.2759 120.356 54.7242 120.35 55.2159 120.445Z" fill="black"/>
<path d="M46.4611 117.992C46.9497 118.171 47.3693 118.424 47.7199 118.753C48.0644 119.08 48.3344 119.459 48.5298 119.891C48.7191 120.32 48.8212 120.779 48.8359 121.27C48.8507 121.76 48.7654 122.258 48.5801 122.765C48.3948 123.272 48.1416 123.709 47.8204 124.076C47.4909 124.448 47.1165 124.733 46.6973 124.933C46.2697 125.137 45.817 125.248 45.3391 125.268C44.859 125.293 44.3747 125.216 43.886 125.038C43.3974 124.859 42.9908 124.617 42.6663 124.311C42.3357 124.004 42.0862 123.663 41.9179 123.29C41.7474 122.923 41.6632 122.557 41.6655 122.19L42.9741 122.077C42.9774 122.466 43.0915 122.826 43.3166 123.157C43.5394 123.495 43.8676 123.743 44.3013 123.902C44.7288 124.058 45.1443 124.095 45.5478 124.014C45.9452 123.931 46.3003 123.746 46.613 123.459C46.9196 123.169 47.16 122.786 47.3341 122.31C47.5082 121.833 47.5726 121.383 47.5272 120.957C47.4734 120.536 47.3215 120.166 47.0714 119.846C46.8153 119.524 46.4734 119.284 46.0458 119.128C45.6122 118.97 45.2025 118.945 44.8167 119.053C44.4287 119.167 44.1081 119.372 43.8548 119.667L42.9279 118.736C43.1623 118.455 43.464 118.226 43.8333 118.049C44.2002 117.879 44.6093 117.783 45.0605 117.761C45.5056 117.736 45.9724 117.814 46.4611 117.992Z" fill="black"/>
<path d="M40.7955 115.721L37.2466 122.063L34.8886 120.744C34.4573 120.502 34.1216 120.21 33.8813 119.867C33.6323 119.526 33.4983 119.153 33.4793 118.748C33.4572 118.348 33.5652 117.935 33.8034 117.509C34.0479 117.072 34.3609 116.759 34.7424 116.57C35.1182 116.378 35.5233 116.307 35.9577 116.356L35.9264 112.997L37.2373 113.73L37.2374 117.385L36.736 116.524L38.3278 117.414L39.6378 115.074L40.7955 115.721ZM37.7562 118.436L36.5389 117.755C36.3289 117.637 36.1251 117.575 35.9274 117.569C35.7266 117.568 35.5423 117.618 35.3746 117.718C35.2069 117.818 35.069 117.964 34.9611 118.157C34.8499 118.356 34.7972 118.55 34.8029 118.739C34.8055 118.935 34.8611 119.115 34.9699 119.28C35.0755 119.451 35.2333 119.595 35.4432 119.713L36.6605 120.394L37.7562 118.436Z" fill="black"/>
<path d="M30.9312 109.18C31.3456 109.515 31.6729 109.902 31.9131 110.339C32.1532 110.776 32.3008 111.234 32.3559 111.714C32.411 112.194 32.3711 112.672 32.2362 113.148C32.0922 113.626 31.8524 114.072 31.5168 114.486C31.1772 114.906 30.7908 115.233 30.3578 115.468C29.9247 115.703 29.4679 115.844 28.9872 115.89C28.5066 115.936 28.0295 115.884 27.5561 115.735C27.0786 115.591 26.6301 115.349 26.2106 115.009C25.7911 114.67 25.4613 114.281 25.2212 113.844C24.981 113.407 24.8334 112.949 24.7783 112.469C24.7192 111.994 24.7596 111.521 24.8995 111.048C25.0343 110.572 25.2716 110.124 25.6113 109.704C25.9468 109.29 26.3357 108.965 26.7779 108.728C27.216 108.497 27.6754 108.359 28.156 108.313C28.6367 108.267 29.1158 108.316 29.5933 108.46C30.0658 108.6 30.5117 108.84 30.9312 109.18ZM30.17 110.12C29.8921 109.895 29.598 109.736 29.2877 109.644C28.9734 109.557 28.6587 109.532 28.3436 109.57C28.0235 109.603 27.7197 109.704 27.4323 109.873C27.1399 110.038 26.879 110.262 26.6499 110.545C26.4207 110.828 26.2579 111.127 26.1616 111.443C26.0561 111.759 26.0202 112.077 26.0539 112.397C26.0784 112.718 26.168 113.021 26.3227 113.305C26.4775 113.59 26.6938 113.844 26.9718 114.069C27.2447 114.29 27.5363 114.447 27.8465 114.539C28.1568 114.631 28.474 114.658 28.7982 114.619C29.1133 114.582 29.417 114.48 29.7095 114.316C29.9979 114.156 30.2566 113.934 30.4858 113.651C30.715 113.368 30.8798 113.067 30.9802 112.746C31.0806 112.426 31.1165 112.108 31.0879 111.792C31.0543 111.472 30.9621 111.167 30.8115 110.878C30.6568 110.593 30.4429 110.341 30.17 110.12Z" fill="black"/>
<path d="M25.5543 104.469L20.1234 109.298L19.2419 108.307L23.798 104.256L21.7303 101.93L22.6051 101.153L25.5543 104.469Z" fill="black"/>
<path d="M20.7198 98.7033L14.6886 102.758L13.9485 101.657L19.0082 98.2553L17.2722 95.6728L18.2436 95.0198L20.7198 98.7033Z" fill="black"/>
<path d="M14.9205 88.8208L8.14949 91.4601L7.28862 89.2516C7.00993 88.5366 6.91326 87.8589 6.99862 87.2183C7.07556 86.5741 7.31183 86.0074 7.70743 85.5182C8.09697 85.0313 8.62499 84.658 9.29149 84.3982C9.95193 84.1408 10.5963 84.0571 11.2247 84.1472C11.8471 84.2396 12.4076 84.4958 12.9062 84.9156C13.3965 85.3317 13.781 85.8973 14.0597 86.6123L14.9205 88.8208ZM13.3481 88.0099L12.9584 87.0101C12.7789 86.5496 12.5303 86.1894 12.2126 85.9293C11.8864 85.6656 11.5171 85.506 11.1045 85.4504C10.686 85.3972 10.2434 85.4615 9.77684 85.6434C9.30423 85.8276 8.93488 86.0797 8.66878 86.3998C8.40269 86.7199 8.24185 87.0862 8.18628 87.4987C8.12835 87.9052 8.18913 88.3387 8.36863 88.7992L8.75832 89.7989L13.3481 88.0099Z" fill="black"/>
<path d="M11.2382 76.7344C11.341 77.2576 11.3445 77.764 11.2485 78.2534C11.1525 78.7428 10.9719 79.1893 10.7065 79.5927C10.4412 79.9961 10.104 80.3374 9.69501 80.6167C9.27834 80.8908 8.80838 81.0793 8.28514 81.1822C7.75552 81.2863 7.24918 81.2897 6.76613 81.1925C6.28309 81.0953 5.84241 80.9102 5.44412 80.6372C5.04582 80.3642 4.7128 80.0188 4.44507 79.6009C4.17095 79.1842 3.98183 78.711 3.87771 78.1814C3.77359 77.6518 3.76952 77.1423 3.8655 76.6528C3.96148 76.1634 4.14214 75.717 4.40746 75.3136C4.66641 74.9114 5.00102 74.5739 5.41131 74.301C5.82035 74.0218 6.28968 73.8301 6.8193 73.726C7.34254 73.6231 7.8495 73.6229 8.34019 73.7252C8.82449 73.8288 9.26579 74.0171 9.66409 74.2901C10.0624 74.563 10.3986 74.9079 10.6727 75.3245C10.9456 75.7348 11.1341 76.2048 11.2382 76.7344ZM10.0513 76.9677C9.98232 76.6168 9.85835 76.3065 9.67941 76.0368C9.49408 75.7683 9.26843 75.5476 9.00244 75.3745C8.7352 75.1951 8.43715 75.0781 8.10828 75.0234C7.77816 74.9624 7.43443 74.967 7.07709 75.0373C6.71976 75.1075 6.40305 75.2327 6.12698 75.4129C5.84327 75.588 5.61171 75.8092 5.43228 76.0764C5.24521 76.3385 5.11992 76.6283 5.05638 76.9456C4.99285 77.263 4.99558 77.5971 5.06458 77.9481C5.13232 78.2927 5.25566 78.5998 5.4346 78.8695C5.61355 79.1392 5.83983 79.3631 6.11345 79.5413C6.37944 79.7143 6.67749 79.8314 7.00762 79.8924C7.33136 79.9547 7.67189 79.9507 8.02923 79.8804C8.38657 79.8102 8.70646 79.6843 8.98891 79.5029C9.27136 79.3214 9.50293 79.1003 9.68361 78.8394C9.86304 78.5722 9.98771 78.2792 10.0576 77.9606C10.1212 77.6433 10.1191 77.3123 10.0513 76.9677Z" fill="black"/>
<path d="M10.0167 68.3748L2.73355 70.2654L2.74536 68.8412L8.95209 67.3612L8.94901 67.7318L2.76827 66.0807L2.77968 64.7054L8.98689 63.1668L8.98381 63.5375L2.8025 61.9546L2.81431 60.5305L10.0651 62.5417L10.0525 64.0633L4.01096 65.6228L4.01452 65.1936L10.0294 66.8531L10.0167 68.3748Z" fill="black"/>
<path d="M10.536 57.8266L3.4086 56.4077L3.61048 55.3936L9.67231 52.5225L9.67279 53.0696L4.28659 51.9973L4.54561 50.6962L11.673 52.1151L11.4692 53.1388L5.38054 55.9449L5.37053 55.4456L10.795 56.5255L10.536 57.8266Z" fill="black"/>
<path d="M13.7601 40.4564L12.771 39.9272L14.7267 36.2717L15.7158 36.8009L13.7601 40.4564Z" fill="black"/>
<path d="M23.5553 29.5987C23.2551 29.9495 22.9118 30.2206 22.5254 30.4121C22.1433 30.5986 21.7455 30.7033 21.3322 30.7262C20.9181 30.7399 20.5157 30.6651 20.1248 30.5017L20.4784 29.3535C20.9087 29.4907 21.3231 29.5115 21.7216 29.416C22.1151 29.3163 22.4472 29.1083 22.7178 28.7921C22.87 28.6142 22.9739 28.4378 23.0295 28.2628C23.0844 28.0787 23.092 27.9097 23.0524 27.756C23.017 27.5973 22.9302 27.4588 22.7918 27.3404C22.6288 27.2008 22.4531 27.1361 22.2648 27.1461C22.0757 27.1469 21.8691 27.2183 21.6449 27.3603L20.397 28.1283C19.8957 28.444 19.4187 28.5963 18.9658 28.5854C18.513 28.5745 18.1062 28.4147 17.7455 28.106C17.4293 27.8354 17.2157 27.5199 17.1047 27.1595C16.9979 26.7942 16.9962 26.4161 17.0996 26.0253C17.2023 25.6253 17.408 25.2449 17.7167 24.8842C18 24.5532 18.3193 24.3001 18.6747 24.1249C19.0251 23.9455 19.3886 23.8457 19.7653 23.8257C20.1412 23.7965 20.5098 23.8509 20.8711 23.9889L20.5312 25.1361C20.1615 25.008 19.8095 24.9892 19.4753 25.0797C19.1361 25.166 18.8438 25.3525 18.5986 25.639C18.4548 25.807 18.3576 25.9806 18.3069 26.1598C18.2514 26.3348 18.2437 26.5037 18.2841 26.6666C18.3237 26.8204 18.4127 26.9564 18.551 27.0748C18.7042 27.2059 18.8823 27.2728 19.0855 27.2755C19.2837 27.2739 19.5016 27.1993 19.7392 27.0517L20.9268 26.3091C21.4464 25.992 21.9252 25.8326 22.3632 25.8309C22.8055 25.8242 23.2119 25.9794 23.5825 26.2965C23.8987 26.5672 24.1081 26.8876 24.2106 27.2578C24.3132 27.6281 24.311 28.0157 24.2041 28.4206C24.0972 28.8256 23.8809 29.2183 23.5553 29.5987Z" fill="black"/>
<path d="M30.0164 23.2021C29.6195 23.5385 29.1914 23.7777 28.7322 23.9198C28.2778 24.0577 27.8149 24.1048 27.3432 24.0613C26.8765 24.0136 26.4265 23.875 25.9933 23.6455C25.56 23.416 25.1689 23.0953 24.8199 22.6836C24.4709 22.2719 24.2162 21.8356 24.0558 21.3748C23.8961 20.9049 23.8331 20.4383 23.8667 19.975C23.901 19.5026 24.028 19.054 24.2476 18.6291C24.463 18.1993 24.7691 17.8162 25.1659 17.4798C25.5628 17.1435 25.9743 16.9098 26.4003 16.7788C26.8314 16.6436 27.2506 16.5951 27.6581 16.6334C28.0614 16.6666 28.4216 16.7747 28.7387 16.9578L28.1904 18.1514C27.8508 17.9619 27.4812 17.883 27.0818 17.9147C26.6782 17.9414 26.3003 18.104 25.9481 18.4025C25.6008 18.6969 25.3626 19.0395 25.2335 19.4302C25.1094 19.8168 25.0948 20.217 25.1899 20.6309C25.2899 21.0406 25.5039 21.4389 25.8319 21.8258C26.1599 22.2127 26.5199 22.4916 26.9118 22.6623C27.3045 22.8239 27.7017 22.8751 28.1034 22.8159C28.51 22.7526 28.887 22.5737 29.2342 22.2794C29.5865 21.9808 29.8109 21.6371 29.9076 21.2483C30 20.8545 29.9806 20.4745 29.8493 20.1084L31.1166 19.7631C31.2452 20.1059 31.295 20.4814 31.266 20.8897C31.2327 21.293 31.1141 21.6961 30.9101 22.0992C30.7112 22.4981 30.4132 22.8657 30.0164 23.2021Z" fill="black"/>
<path d="M34.792 19.4003L31.035 13.1796L33.3479 11.7827C33.771 11.5272 34.191 11.3798 34.608 11.3407C35.0272 11.2927 35.4178 11.3607 35.7797 11.5448C36.1382 11.7233 36.4435 12.0213 36.6957 12.4388C36.9546 12.8674 37.0718 13.2942 37.0474 13.7192C37.0285 14.1408 36.8902 14.5283 36.6325 14.8814L39.5682 16.5157L38.2823 17.2923L35.1052 15.4848L36.1022 15.4752L34.5408 16.4182L35.9276 18.7145L34.792 19.4003ZM33.9356 15.4162L35.1297 14.6951C35.3356 14.5707 35.4902 14.4241 35.5935 14.2554C35.6933 14.0812 35.7413 13.8964 35.7374 13.7013C35.7335 13.5061 35.6744 13.3139 35.5601 13.1246C35.4424 12.9298 35.2998 12.788 35.1323 12.6993C34.9613 12.605 34.7772 12.5642 34.5798 12.5771C34.3791 12.5844 34.1758 12.6502 33.9698 12.7746L32.7757 13.4957L33.9356 15.4162Z" fill="black"/>
<path d="M45.3562 14.0617C44.8596 14.256 44.3619 14.3494 43.8632 14.3419C43.3645 14.3345 42.8931 14.2361 42.4489 14.0467C42.0048 13.8574 41.6089 13.5863 41.2614 13.2334C40.9176 12.8721 40.6485 12.4431 40.4543 11.9465C40.2576 11.4439 40.1642 10.9462 40.174 10.4536C40.1838 9.96092 40.2876 9.49436 40.4854 9.05387C40.6832 8.61339 40.9639 8.22426 41.3276 7.88648C41.6889 7.54265 42.1209 7.27242 42.6235 7.07579C43.1262 6.87916 43.6269 6.78456 44.1256 6.792C44.6243 6.79943 45.0957 6.89783 45.5399 7.0872C45.9817 7.27051 46.3733 7.53978 46.7148 7.89502C47.0623 8.24789 47.3344 8.67566 47.531 9.17833C47.7253 9.67494 47.8157 10.1738 47.8022 10.6748C47.7863 11.1699 47.6795 11.6376 47.4817 12.0781C47.2839 12.5186 47.0044 12.9107 46.6431 13.2546C46.2878 13.596 45.8589 13.8651 45.3562 14.0617ZM44.9156 12.9352C45.2487 12.8049 45.532 12.6278 45.7656 12.4037C45.9968 12.1736 46.1739 11.9123 46.2969 11.6198C46.4259 11.3249 46.4881 11.0108 46.4834 10.6775C46.4848 10.3417 46.4191 10.0043 46.2865 9.66516C46.1538 9.32601 45.9742 9.03662 45.7478 8.79699C45.5251 8.54893 45.2663 8.36037 44.9714 8.23132C44.6802 8.09384 44.3728 8.02205 44.0492 8.01596C43.7256 8.00986 43.3973 8.07196 43.0642 8.20226C42.7371 8.33019 42.4568 8.50617 42.2233 8.73022C41.9897 8.95426 41.8095 9.21675 41.6829 9.51769C41.5599 9.81021 41.4977 10.1243 41.4963 10.46C41.4926 10.7897 41.5571 11.1241 41.6897 11.4632C41.8224 11.8024 42.0031 12.0948 42.2319 12.3405C42.4607 12.5862 42.7195 12.7748 43.0083 12.9062C43.3032 13.0352 43.6136 13.1058 43.9396 13.118C44.2632 13.1241 44.5885 13.0632 44.9156 12.9352Z" fill="black"/>
<path d="M52.1087 11.7174L50.5972 4.60908L51.8948 4.33315L53.1628 10.2965L56.2065 9.64931L56.45 10.7943L52.1087 11.7174Z" fill="black"/>
<path d="M59.5114 10.3669L58.9699 3.11986L60.2929 3.02102L60.7471 9.10076L63.8502 8.86892L63.9374 10.0362L59.5114 10.3669Z" fill="black"/>
<path d="M70.9687 10.2135L72.023 3.02312L74.3684 3.36703C75.1276 3.47836 75.7645 3.72949 76.279 4.12042C76.8009 4.50586 77.1766 4.99147 77.4062 5.57724C77.6367 6.15658 77.7001 6.80013 77.5963 7.50791C77.4935 8.20925 77.2475 8.81073 76.8585 9.31236C76.4704 9.80756 75.9706 10.1681 75.3591 10.3939C74.7549 10.6142 74.0732 10.6687 73.314 10.5574L70.9687 10.2135ZM72.4511 9.24777L73.5128 9.40345C74.0018 9.47516 74.4379 9.43722 74.821 9.28965C75.2115 9.13659 75.5329 8.89452 75.7852 8.56345C76.0385 8.22594 76.2014 7.80946 76.2741 7.31402C76.3476 6.81214 76.3111 6.36642 76.1645 5.97685C76.0179 5.58728 75.779 5.26634 75.4479 5.01404C75.1233 4.76269 74.7165 4.60116 74.2275 4.52945L73.1658 4.37378L72.4511 9.24777Z" fill="black"/>
<path d="M83.2947 12.9898C82.789 12.8204 82.3472 12.573 81.9693 12.2476C81.5914 11.9221 81.2927 11.5443 81.0732 11.1142C80.8538 10.6841 80.7239 10.2223 80.6834 9.72864C80.6512 9.23093 80.7198 8.72925 80.8891 8.2236C81.0605 7.71177 81.3079 7.26998 81.6313 6.89821C81.9547 6.52644 82.3335 6.23496 82.7677 6.02375C83.2019 5.81254 83.6668 5.69392 84.1625 5.66788C84.6602 5.63567 85.165 5.70527 85.6768 5.87668C86.1886 6.04809 86.6335 6.29651 87.0114 6.62197C87.3894 6.94742 87.688 7.3252 87.9075 7.75531C88.129 8.17926 88.2569 8.637 88.2911 9.12854C88.3316 9.62215 88.2661 10.1249 88.0947 10.6367C87.9254 11.1423 87.6749 11.5831 87.3433 11.959C87.0137 12.3287 86.6318 12.6191 86.1976 12.8303C85.7634 13.0415 85.2974 13.1633 84.7997 13.1955C84.3082 13.2297 83.8065 13.1612 83.2947 12.9898ZM83.6788 11.8428C84.0179 11.9564 84.349 12.0021 84.6719 11.9799C84.9968 11.9516 85.3003 11.8646 85.5822 11.719C85.8703 11.5754 86.1194 11.3743 86.3296 11.1154C86.5459 10.8587 86.7118 10.5576 86.8275 10.2123C86.9431 9.86698 86.9909 9.52979 86.9708 9.20073C86.9589 8.86756 86.8812 8.55692 86.7377 8.26882C86.6023 7.97661 86.4125 7.72442 86.1681 7.51226C85.9236 7.3001 85.6318 7.13723 85.2927 7.02365C84.9597 6.91214 84.6317 6.86746 84.3088 6.88963C83.9859 6.9118 83.6794 6.99774 83.3892 7.14746C83.1073 7.29307 82.8582 7.49425 82.6419 7.75101C82.4277 8.0016 82.2627 8.29956 82.1471 8.64488C82.0314 8.99021 81.9826 9.33048 82.0007 9.66571C82.0187 10.0009 82.0964 10.3116 82.2338 10.5976C82.3774 10.8857 82.5703 11.1389 82.8127 11.3573C83.0571 11.5694 83.3458 11.7313 83.6788 11.8428Z" fill="black"/>
<path d="M91.1648 16.0618L93.1232 8.79654L94.3551 9.51106L92.5723 15.6377L92.2516 15.4517L96.7431 10.8961L97.9329 11.5861L96.2007 17.7421L95.88 17.5561L100.312 12.9662L101.544 13.6807L96.2108 18.9884L94.8945 18.2249L96.5266 12.2026L96.8979 12.418L92.4811 16.8252L91.1648 16.0618Z" fill="black"/>
<path d="M100.076 21.7293L104.834 16.2361L105.616 16.913L105.114 23.6016L104.638 23.3314L108.233 19.1802L109.236 20.0487L104.478 25.542L103.689 24.8586L104.261 18.1789L104.7 18.4171L101.079 22.5979L100.076 21.7293Z" fill="black"/>
<path d="M111.139 29.8138L112.043 29.1499L114.496 32.4917L113.592 33.1556L111.139 29.8138Z" fill="black"/>
<path d="M116.706 43.3356C116.519 42.9134 116.422 42.4867 116.416 42.0555C116.413 41.6303 116.49 41.2263 116.648 40.8436C116.814 40.4641 117.055 40.1334 117.372 39.8513L118.255 40.6658C117.945 40.9948 117.748 41.3596 117.662 41.7603C117.582 42.1583 117.626 42.5476 117.795 42.9282C117.889 43.1423 118.004 43.3122 118.138 43.4378C118.28 43.5668 118.429 43.6466 118.585 43.6772C118.743 43.7138 118.906 43.6952 119.072 43.6215C119.268 43.5347 119.403 43.4041 119.475 43.2299C119.556 43.0591 119.581 42.8419 119.549 42.5783L119.395 41.1212C119.327 40.5327 119.395 40.0366 119.6 39.6329C119.806 39.2291 120.125 38.9311 120.56 38.739C120.94 38.5705 121.317 38.514 121.69 38.5694C122.065 38.6307 122.407 38.7924 122.715 39.0543C123.032 39.3196 123.286 39.6693 123.478 40.1034C123.655 40.5018 123.745 40.8991 123.75 41.2953C123.76 41.6888 123.693 42.0598 123.549 42.4082C123.413 42.76 123.205 43.069 122.925 43.3353L122.036 42.5337C122.311 42.2554 122.48 41.946 122.543 41.6054C122.611 41.2622 122.569 40.9181 122.417 40.5732C122.327 40.371 122.213 40.2084 122.073 40.0854C121.939 39.9597 121.79 39.8799 121.626 39.846C121.47 39.8154 121.309 39.8369 121.142 39.9106C120.958 39.9922 120.821 40.124 120.73 40.3061C120.646 40.4856 120.62 40.7143 120.65 40.9924L120.807 42.3842C120.869 42.9898 120.806 43.4905 120.619 43.8864C120.434 44.2882 120.119 44.5878 119.673 44.7852C119.292 44.9537 118.913 45.0043 118.534 44.937C118.156 44.8697 117.807 44.7005 117.488 44.4293C117.169 44.1581 116.908 43.7935 116.706 43.3356Z" fill="black"/>
<path d="M119.687 51.9247C119.555 51.4215 119.524 50.9321 119.594 50.4565C119.666 49.9871 119.823 49.5491 120.066 49.1424C120.311 48.742 120.63 48.396 121.024 48.1042C121.418 47.8124 121.876 47.598 122.398 47.4608C122.92 47.3237 123.423 47.2822 123.908 47.3364C124.401 47.3952 124.849 47.5397 125.253 47.77C125.664 48.0048 126.014 48.313 126.302 48.6944C126.597 49.0742 126.811 49.5157 126.943 50.0189C127.075 50.522 127.108 50.9941 127.042 51.4349C126.978 51.8821 126.841 52.2812 126.631 52.6323C126.427 52.9818 126.174 53.26 125.872 53.4671L125.032 52.4573C125.349 52.2327 125.58 51.9334 125.724 51.5595C125.874 51.1838 125.89 50.7727 125.773 50.3262C125.657 49.8859 125.451 49.5232 125.154 49.2381C124.859 48.9592 124.504 48.7734 124.09 48.6805C123.677 48.5939 123.226 48.6151 122.735 48.744C122.244 48.8728 121.837 49.0772 121.514 49.3571C121.199 49.6416 120.981 49.9778 120.861 50.3657C120.743 50.7598 120.742 51.1771 120.857 51.6174C120.975 52.0639 121.188 52.4147 121.497 52.6697C121.812 52.9231 122.163 53.0695 122.55 53.1091L122.315 54.4014C121.95 54.3695 121.59 54.2523 121.234 54.0499C120.885 53.8458 120.572 53.5648 120.297 53.2069C120.023 52.8553 119.82 52.4278 119.687 51.9247Z" fill="black"/>
<path d="M121.056 57.8733L128.289 57.1689L128.551 59.8583C128.598 60.3502 128.55 60.7927 128.405 61.1857C128.268 61.5846 128.038 61.9075 127.716 62.1545C127.4 62.4009 126.999 62.5477 126.514 62.595C126.015 62.6435 125.58 62.5651 125.207 62.3596C124.835 62.1607 124.545 61.8687 124.338 61.4838L121.596 63.4267L121.451 61.9316L124.453 59.8457L124.031 60.7492L123.854 58.9337L121.184 59.1937L121.056 57.8733ZM125.019 58.8202L125.154 60.2086C125.178 60.4481 125.243 60.6508 125.351 60.8167C125.465 60.982 125.611 61.105 125.789 61.1857C125.966 61.2664 126.165 61.296 126.385 61.2746C126.612 61.2526 126.801 61.1851 126.954 61.0723C127.112 60.9588 127.229 60.8103 127.302 60.6267C127.382 60.4425 127.411 60.2306 127.387 59.9911L127.252 58.6028L125.019 58.8202Z" fill="black"/>
<path d="M121.313 69.7067C121.352 69.1749 121.482 68.6856 121.704 68.239C121.926 67.7923 122.218 67.4095 122.581 67.0906C122.943 66.7716 123.359 66.5316 123.827 66.3704C124.301 66.2161 124.804 66.1586 125.336 66.1977C125.874 66.2372 126.364 66.3678 126.804 66.5892C127.244 66.8107 127.62 67.1057 127.932 67.4742C128.244 67.8427 128.474 68.2639 128.622 68.7377C128.776 69.212 128.833 69.7183 128.794 70.2567C128.754 70.795 128.623 71.2874 128.401 71.7341C128.18 72.1807 127.887 72.5635 127.525 72.8825C127.169 73.2019 126.757 73.439 126.289 73.5937C125.821 73.7549 125.317 73.8157 124.779 73.7761C124.247 73.737 123.758 73.6033 123.312 73.3749C122.872 73.1469 122.497 72.8487 122.185 72.4801C121.873 72.1116 121.639 71.6902 121.485 71.2159C121.331 70.7481 121.273 70.245 121.313 69.7067ZM122.519 69.7954C122.493 70.1521 122.53 70.4841 122.631 70.7915C122.739 71.0994 122.899 71.372 123.109 71.6091C123.32 71.8528 123.576 72.0445 123.879 72.1841C124.181 72.3302 124.514 72.4166 124.877 72.4433C125.24 72.47 125.579 72.433 125.893 72.3322C126.213 72.2383 126.494 72.0862 126.738 71.8759C126.988 71.6726 127.185 71.4262 127.33 71.137C127.475 70.8477 127.561 70.5247 127.587 70.168C127.613 69.8178 127.575 69.4889 127.474 69.1815C127.373 68.8741 127.214 68.5984 126.997 68.3542C126.786 68.117 126.53 67.9254 126.227 67.7792C125.932 67.6336 125.602 67.5474 125.239 67.5207C124.876 67.494 124.534 67.5309 124.214 67.6312C123.893 67.7315 123.611 67.8836 123.368 68.0875C123.125 68.2978 122.927 68.5473 122.775 68.8361C122.63 69.1254 122.545 69.4452 122.519 69.7954Z" fill="black"/>
<path d="M120.513 76.8101L127.578 78.5144L127.267 79.8041L121.34 78.3742L120.61 81.3992L119.472 81.1247L120.513 76.8101Z" fill="black"/>
<path d="M118.536 84.0705L125.307 86.7098L124.825 87.9458L119.145 85.7317L118.015 88.631L116.924 88.2058L118.536 84.0705Z" fill="black"/>
<path d="M113.73 94.472L119.761 98.5263L118.439 100.494C118.011 101.13 117.509 101.597 116.934 101.892C116.362 102.196 115.761 102.326 115.134 102.28C114.512 102.238 113.904 102.017 113.31 101.618C112.722 101.223 112.285 100.741 112.001 100.174C111.722 99.6101 111.612 99.0037 111.672 98.3546C111.734 97.7145 111.979 97.0761 112.408 96.4392L113.73 94.472ZM113.961 96.226L113.363 97.1165C113.087 97.5267 112.933 97.9365 112.901 98.3458C112.87 98.7641 112.95 99.1585 113.14 99.529C113.335 99.9031 113.64 100.23 114.056 100.509C114.477 100.792 114.895 100.952 115.309 100.987C115.724 101.023 116.117 100.946 116.487 100.757C116.854 100.572 117.175 100.275 117.451 99.8648L118.05 98.9743L113.961 96.226Z" fill="black"/>
<path d="M105.906 104.393C106.277 104.01 106.691 103.718 107.147 103.518C107.604 103.317 108.074 103.211 108.556 103.198C109.039 103.186 109.512 103.268 109.975 103.445C110.437 103.631 110.86 103.909 111.243 104.28C111.631 104.655 111.923 105.069 112.119 105.521C112.314 105.974 112.414 106.441 112.417 106.924C112.42 107.407 112.327 107.877 112.136 108.336C111.95 108.799 111.67 109.224 111.294 109.612C110.919 109.999 110.503 110.293 110.046 110.494C109.589 110.694 109.119 110.801 108.637 110.813C108.159 110.83 107.691 110.748 107.232 110.566C106.77 110.39 106.345 110.114 105.957 109.738C105.574 109.367 105.284 108.951 105.088 108.49C104.897 108.033 104.8 107.563 104.797 107.08C104.794 106.597 104.885 106.125 105.071 105.662C105.252 105.204 105.53 104.781 105.906 104.393ZM106.775 105.234C106.526 105.491 106.342 105.77 106.222 106.071C106.108 106.376 106.055 106.688 106.065 107.005C106.07 107.327 106.144 107.638 106.287 107.939C106.425 108.245 106.625 108.525 106.887 108.778C107.148 109.032 107.432 109.22 107.737 109.344C108.043 109.477 108.357 109.541 108.678 109.536C109 109.54 109.31 109.478 109.607 109.349C109.904 109.22 110.176 109.027 110.425 108.77C110.67 108.518 110.851 108.241 110.971 107.94C111.09 107.64 111.145 107.326 111.135 107C111.125 106.682 111.051 106.371 110.913 106.065C110.78 105.764 110.582 105.486 110.32 105.233C110.059 104.979 109.773 104.789 109.463 104.66C109.153 104.532 108.839 104.468 108.521 104.468C108.2 104.473 107.888 104.538 107.586 104.663C107.29 104.792 107.019 104.982 106.775 105.234Z" fill="black"/>
<path d="M99.7383 110.166L105.447 115.069L104.271 115.872L99.5134 111.619L99.8195 111.41L101.991 117.428L100.855 118.203L96.0491 113.984L96.3552 113.775L98.5827 119.754L97.4064 120.557L94.9205 113.455L96.1773 112.597L100.905 116.669L100.551 116.911L98.4814 111.024L99.7383 110.166Z" fill="black"/>
<path d="M90.7794 115.759L93.6814 122.422L92.7334 122.835L86.9165 119.495L87.3655 119.182L89.5585 124.218L88.3422 124.747L85.4403 118.085L86.3973 117.668L92.1761 121.067L91.7717 121.36L89.5632 116.289L90.7794 115.759Z" fill="black"/>
<path d="M78.712 122.249L78.9206 123.351L74.8472 124.122L74.6386 123.02L78.712 122.249Z" fill="black"/>
</svg>
